<svg width="16" height="16" viewBox="0 0 16 16" fill="none" xmlns="http://www.w3.org/2000/svg">
<path fill-rule="evenodd" clip-rule="evenodd" d="M3.43431 3.43431C3.74673 3.12189 4.25326 3.12189 4.56568 3.43431L8 6.86863L11.4343 3.43431C11.7467 3.12189 12.2533 3.12189 12.5657 3.43431C12.8781 3.74673 12.8781 4.25326 12.5657 4.56568L9.13137 8L12.5657 11.4343C12.8781 11.7467 12.8781 12.2533 12.5657 12.5657C12.2533 12.8781 11.7467 12.8781 11.4343 12.5657L8 9.13137L4.56568 12.5657C4.25326 12.8781 3.74673 12.8781 3.43431 12.5657C3.12189 12.2533 3.12189 11.7467 3.43431 11.4343L6.86863 8L3.43431 4.56568C3.12189 4.25326 3.12189 3.74673 3.43431 3.43431Z" fill="#8A9FBB"/>
</svg>
