<svg width="153" height="121" viewBox="0 0 153 121" fill="none" xmlns="http://www.w3.org/2000/svg">
<path d="M139.176 38.0938C138.259 37.2038 136.409 24.8692 134.733 24.9629C133.056 25.0566 131.57 37.3131 130.795 38.1094C129.213 39.6708 117.701 40.8729 117.78 42.4343C117.859 43.9956 129.198 44.7451 130.795 46.2752C131.696 47.134 133.578 59.4999 135.254 59.4063C136.931 59.3126 138.417 47.1028 139.176 46.2752C140.758 44.7139 152.318 43.4961 152.223 41.9347C152.128 40.3734 140.71 39.5615 139.176 38.0938Z" fill="#D8F2C8" stroke="#473E6B" stroke-miterlimit="10"/>
<path d="M72.1006 19.3485H72.0662C69.5521 19.3485 67.1931 18.3354 65.4195 16.5189C63.6459 14.7023 62.6816 12.3093 62.6816 9.7417C62.6989 4.48417 66.9348 0.222229 72.1006 0.222229H72.135C77.3353 0.239696 81.5368 4.55402 81.5196 9.82901C81.5196 12.3792 80.5208 14.7722 78.73 16.5713C76.9564 18.3529 74.5974 19.3485 72.1006 19.3485V19.3485ZM72.1006 1.9864C70.0515 1.9864 68.1401 2.78986 66.6765 4.25707C65.2129 5.72429 64.4036 7.68059 64.4036 9.77661C64.4036 11.8726 65.1957 13.829 66.6421 15.3136C68.0885 16.7983 70.017 17.6192 72.0834 17.6192H72.1178C74.1669 17.6192 76.0783 16.8158 77.5419 15.3486C79.0055 13.8813 79.8148 11.925 79.8148 9.82901C79.8148 7.73299 79.0227 5.77673 77.5763 4.29204C76.1299 2.80736 74.2014 1.9864 72.135 1.9864H72.1006Z" fill="#2E2A47"/>
<path d="M115.517 119.685C116.402 119.682 117.274 119.472 118.067 119.071C118.86 118.669 119.552 118.087 120.09 117.369C120.627 116.651 120.996 115.817 121.168 114.93C121.34 114.043 121.31 113.128 121.081 112.255C119.513 106.17 116.477 100.584 112.25 96.0077C108.024 91.431 102.741 88.0098 96.8858 86.0567C91.0306 84.1037 84.7896 83.6812 78.7333 84.8279C72.677 85.9746 66.9988 88.654 62.2178 92.6209C59.7741 88.8916 56.3706 85.9231 52.3819 84.0421C48.3933 82.1611 43.9739 81.4404 39.6102 81.9594C35.2465 82.4783 31.1075 84.217 27.6485 86.9837C24.1896 89.7505 21.5448 93.4382 20.0052 97.6412C16.0239 98.1202 12.2245 99.6146 8.9569 101.987C5.68932 104.359 3.05865 107.533 1.30685 111.216C0.877778 112.114 0.679418 113.109 0.73053 114.106C0.781642 115.104 1.08043 116.072 1.59889 116.919C2.11735 117.766 2.83837 118.464 3.69401 118.948C4.54965 119.432 5.51176 119.685 6.48975 119.685H115.517Z" fill="white" stroke="#B5AEFF" stroke-miterlimit="10"/>
</svg>
