<svg width="90" height="90" viewBox="0 0 90 90" fill="none" xmlns="http://www.w3.org/2000/svg">
<g clip-path="url(#clip0_85_18891)">
<rect width="90" height="90" fill="transparent"/>
<path d="M63.3929 31.9899C62.8603 31.4732 61.7859 24.3111 60.8126 24.3655C59.8393 24.4199 58.9761 31.5367 58.5262 31.999C57.6079 32.9056 50.9231 33.6036 50.969 34.5102C51.0149 35.4168 57.5987 35.852 58.5262 36.7405C59.0496 37.2391 60.1423 44.4193 61.1156 44.3649C62.089 44.3105 62.9521 37.221 63.3929 36.7405C64.3111 35.8339 71.0235 35.1268 70.9684 34.2202C70.9133 33.3136 64.2836 32.8421 63.3929 31.9899Z" fill="#D8F2C8" stroke="#473E6B" stroke-miterlimit="10"/>
<path d="M24.4456 21.1056H24.4256C22.9659 21.1056 21.5961 20.5173 20.5663 19.4626C19.5365 18.4078 18.9766 17.0183 18.9766 15.5274C18.9866 12.4747 21.4461 10 24.4456 10H24.4656C27.4851 10.0101 29.9247 12.5152 29.9147 15.5781C29.9147 17.0589 29.3348 18.4484 28.295 19.493C27.2651 20.5275 25.8954 21.1056 24.4456 21.1056V21.1056ZM24.4456 11.0244C23.2558 11.0244 22.146 11.4909 21.2962 12.3428C20.4463 13.1947 19.9764 14.3307 19.9764 15.5477C19.9764 16.7648 20.4363 17.9007 21.2762 18.7628C22.116 19.6248 23.2358 20.1015 24.4356 20.1015H24.4556C25.6454 20.1015 26.7552 19.635 27.6051 18.783C28.455 17.9311 28.9249 16.7952 28.9249 15.5781C28.9249 14.3611 28.4649 13.2252 27.6251 12.3631C26.7852 11.501 25.6654 11.0244 24.4656 11.0244H24.4456Z" fill="#2E2A47"/>
<path d="M49.6546 79.3652C50.1684 79.3639 50.675 79.242 51.1354 79.0089C51.5958 78.7758 51.9976 78.4378 52.3098 78.0209C52.622 77.604 52.8364 77.1195 52.9362 76.6046C53.0359 76.0897 53.0186 75.5583 52.8854 75.0513C51.975 71.5183 50.2122 68.2748 47.7579 65.6174C45.3037 62.9599 42.2365 60.9734 38.8367 59.8394C35.4369 58.7054 31.813 58.46 28.2965 59.1259C24.7799 59.7917 21.4829 61.3475 18.7069 63.6509C17.2879 61.4854 15.3117 59.7618 12.9957 58.6696C10.6797 57.5774 8.11364 57.1589 5.57986 57.4603C3.04608 57.7616 0.642789 58.7711 -1.36562 60.3776C-3.37403 61.9841 -4.9097 64.1254 -5.80368 66.5659C-8.11539 66.844 -10.3215 67.7117 -12.2188 69.0892C-14.1161 70.4666 -15.6436 72.3095 -16.6608 74.4482C-16.9099 74.9695 -17.0251 75.5469 -16.9954 76.1262C-16.9657 76.7055 -16.7923 77.2675 -16.4912 77.7594C-16.1902 78.2512 -15.7715 78.6567 -15.2747 78.9376C-14.7779 79.2185 -14.2192 79.3657 -13.6514 79.3652H49.6546Z" fill="white" stroke="#B5AEFF" stroke-miterlimit="10"/>
</g>
<defs>
<clipPath id="clip0_85_18891">
<rect width="90" height="90" fill="transparent"/>
</clipPath>
</defs>
</svg>
