<svg width="120" height="128" viewBox="0 0 120 128" fill="none" xmlns="http://www.w3.org/2000/svg">
<g clip-path="url(#clip0_233_51480)">
<mask id="path-1-inside-1_233_51480" fill="white">
<path d="M77.5972 8.40232L67.5516 0.476396C67.2138 0.218109 66.8122 0.0553182 66.3892 0.00514576C66.2744 -0.00171525 66.1595 -0.00171525 66.0447 0.00514576H65.7578C65.3115 0.0619987 64.8896 0.239829 64.538 0.519237C64.3867 0.634012 64.2515 0.768546 64.1362 0.919144L62.7011 2.71851L62.3136 3.21835L55.1382 12.1867C54.8558 12.5411 54.6792 12.9674 54.6284 13.4168C54.5777 13.8662 54.655 14.3208 54.8513 14.7287C55.0511 15.1239 55.3562 15.4567 55.7333 15.6909C56.1104 15.9252 56.545 16.0517 56.9895 16.0569L62.2418 16.1283H62.9451C63.0277 16.1316 63.1071 16.1611 63.1716 16.2124C63.2362 16.2638 63.2825 16.3344 63.3039 16.4139L64.4662 20.9981L64.7675 22.1548C64.9339 22.7564 65.3307 23.2691 65.8725 23.5829L66.3175 23.7686C66.4145 23.8152 66.5153 23.8534 66.6188 23.8828C66.7907 23.8968 66.9635 23.8968 67.1354 23.8828C67.5018 23.8845 67.8636 23.8015 68.1923 23.6404C68.521 23.4794 68.8078 23.2446 69.0298 22.9546L77.9847 11.6869C78.1846 11.4382 78.3321 11.152 78.4184 10.8453C78.5047 10.5385 78.528 10.2177 78.4869 9.9018C78.4512 9.58461 78.3528 9.27757 78.1977 8.99821C78.0426 8.71886 77.8336 8.4727 77.5828 8.2738"/>
</mask>
<path d="M77.5972 8.40232L67.5516 0.476396C67.2138 0.218109 66.8122 0.0553182 66.3892 0.00514576C66.2744 -0.00171525 66.1595 -0.00171525 66.0447 0.00514576H65.7578C65.3115 0.0619987 64.8896 0.239829 64.538 0.519237C64.3867 0.634012 64.2515 0.768546 64.1362 0.919144L62.7011 2.71851L62.3136 3.21835L55.1382 12.1867C54.8558 12.5411 54.6792 12.9674 54.6284 13.4168C54.5777 13.8662 54.655 14.3208 54.8513 14.7287C55.0511 15.1239 55.3562 15.4567 55.7333 15.6909C56.1104 15.9252 56.545 16.0517 56.9895 16.0569L62.2418 16.1283H62.9451C63.0277 16.1316 63.1071 16.1611 63.1716 16.2124C63.2362 16.2638 63.2825 16.3344 63.3039 16.4139L64.4662 20.9981L64.7675 22.1548C64.9339 22.7564 65.3307 23.2691 65.8725 23.5829L66.3175 23.7686C66.4145 23.8152 66.5153 23.8534 66.6188 23.8828C66.7907 23.8968 66.9635 23.8968 67.1354 23.8828C67.5018 23.8845 67.8636 23.8015 68.1923 23.6404C68.521 23.4794 68.8078 23.2446 69.0298 22.9546L77.9847 11.6869C78.1846 11.4382 78.3321 11.152 78.4184 10.8453C78.5047 10.5385 78.528 10.2177 78.4869 9.9018C78.4512 9.58461 78.3528 9.27757 78.1977 8.99821C78.0426 8.71886 77.8336 8.4727 77.5828 8.2738" fill="#B5AEFF"/>
<path d="M67.5516 0.476396L68.1711 -0.308667L68.1651 -0.313384L68.159 -0.318009L67.5516 0.476396ZM66.3892 0.00514576L66.5069 -0.987894L66.478 -0.991329L66.4489 -0.99307L66.3892 0.00514576ZM66.0447 0.00514576V1.00515H66.0746L66.1045 1.00336L66.0447 0.00514576ZM65.7578 0.00514576V-0.994854H65.6944L65.6314 -0.986837L65.7578 0.00514576ZM64.538 0.519237L65.1423 1.31601L65.1513 1.30915L65.1602 1.3021L64.538 0.519237ZM64.1362 0.919144L64.918 1.54267L64.9241 1.53498L64.9301 1.52717L64.1362 0.919144ZM62.7011 2.71851L61.9192 2.09492L61.9108 2.10581L62.7011 2.71851ZM62.3136 3.21835L63.0944 3.84308L63.0992 3.83709L63.1039 3.83104L62.3136 3.21835ZM55.1382 12.1867L54.3574 11.562L54.3561 11.5636L55.1382 12.1867ZM54.8513 14.7287L53.9502 15.1624L53.9545 15.1713L53.9589 15.1801L54.8513 14.7287ZM56.9895 16.0569L57.0031 15.0569L57.001 15.0569L56.9895 16.0569ZM62.2418 16.1283L62.2282 17.1283H62.2418V16.1283ZM62.9451 16.1283L62.985 15.1291L62.9651 15.1283H62.9451V16.1283ZM63.3039 16.4139L64.2732 16.1681L64.2714 16.1612L64.2696 16.1542L63.3039 16.4139ZM64.4662 20.9981L63.4969 21.2439L63.4985 21.2501L64.4662 20.9981ZM64.7675 22.1548L63.7998 22.4069L63.8017 22.4142L63.8037 22.4215L64.7675 22.1548ZM65.8725 23.5829L65.3713 24.4482L65.4275 24.4808L65.4875 24.5058L65.8725 23.5829ZM66.3175 23.7686L66.7506 22.8672L66.7269 22.8558L66.7026 22.8457L66.3175 23.7686ZM66.6188 23.8828L66.3455 24.8447L66.4398 24.8715L66.5374 24.8795L66.6188 23.8828ZM67.1354 23.8828L67.14 22.8828L67.0969 22.8826L67.054 22.8861L67.1354 23.8828ZM69.0298 22.9546L68.2469 22.3324L68.2413 22.3395L68.2358 22.3466L69.0298 22.9546ZM77.9847 11.6869L77.2053 11.0604L77.2018 11.0647L77.9847 11.6869ZM78.4869 9.9018L77.4932 10.0138L77.4942 10.0223L77.4953 10.0308L78.4869 9.9018ZM78.2166 7.61726L68.1711 -0.308667L66.9322 1.26146L76.9778 9.18738L78.2166 7.61726ZM68.159 -0.318009C67.6785 -0.685454 67.1076 -0.916651 66.5069 -0.987894L66.2714 0.998185C66.5167 1.02729 66.7492 1.12167 66.9443 1.2708L68.159 -0.318009ZM66.4489 -0.99307C66.2944 -1.00231 66.1395 -1.00231 65.985 -0.99307L66.1045 1.00336C66.1794 0.998879 66.2545 0.998879 66.3294 1.00336L66.4489 -0.99307ZM66.0447 -0.994854H65.7578V1.00515H66.0447V-0.994854ZM65.6314 -0.986837C65.0042 -0.906936 64.4107 -0.656958 63.9158 -0.263624L65.1602 1.3021C65.3684 1.13662 65.6188 1.03093 65.8842 0.997129L65.6314 -0.986837ZM63.9337 -0.277531C63.7111 -0.108692 63.5121 0.0893016 63.3422 0.311117L64.9301 1.52717C64.9909 1.44779 65.0623 1.37672 65.1423 1.31601L63.9337 -0.277531ZM63.3544 0.295619L61.9193 2.09498L63.4829 3.34203L64.918 1.54267L63.3544 0.295619ZM61.9108 2.10581L61.5233 2.60565L63.1039 3.83104L63.4914 3.3312L61.9108 2.10581ZM61.5327 2.59362L54.3574 11.562L55.9191 12.8115L63.0944 3.84308L61.5327 2.59362ZM54.3561 11.5636C53.9568 12.0647 53.7066 12.6679 53.6348 13.3046L55.6221 13.529C55.6517 13.2668 55.7548 13.0176 55.9203 12.8099L54.3561 11.5636ZM53.6348 13.3046C53.5629 13.9414 53.6724 14.5851 53.9502 15.1624L55.7523 14.2951C55.6375 14.0565 55.5925 13.7911 55.6221 13.529L53.6348 13.3046ZM53.9589 15.1801C54.2418 15.7392 54.6731 16.2096 55.2057 16.5404L56.2609 14.8415C56.0393 14.7038 55.8605 14.5085 55.7436 14.2774L53.9589 15.1801ZM55.2057 16.5404C55.7381 16.8711 56.3513 17.0496 56.978 17.0568L57.001 15.0569C56.7388 15.0539 56.4827 14.9792 56.2609 14.8415L55.2057 16.5404ZM56.9759 17.0568L62.2282 17.1282L62.2554 15.1284L57.0031 15.0569L56.9759 17.0568ZM62.2418 17.1283H62.9451V15.1283H62.2418V17.1283ZM62.9052 17.1275C62.776 17.1223 62.6511 17.0762 62.5488 16.9948L63.7945 15.4301C63.5631 15.2459 63.2794 15.1408 62.985 15.1291L62.9052 17.1275ZM62.5488 16.9948C62.4466 16.9135 62.3725 16.8011 62.3382 16.6735L64.2696 16.1542C64.1926 15.8677 64.0257 15.6142 63.7945 15.4301L62.5488 16.9948ZM62.3346 16.6597L63.4969 21.2438L65.4355 20.7523L64.2732 16.1681L62.3346 16.6597ZM63.4985 21.2501L63.7998 22.4069L65.7352 21.9028L65.4339 20.746L63.4985 21.2501ZM63.8037 22.4215C64.0403 23.2764 64.6037 24.0036 65.3713 24.4482L66.3738 22.7176C66.0577 22.5345 65.8276 22.2363 65.7313 21.8882L63.8037 22.4215ZM65.4875 24.5058L65.9324 24.6915L66.7026 22.8457L66.2576 22.66L65.4875 24.5058ZM65.8844 24.6699C66.0328 24.7412 66.1871 24.7997 66.3455 24.8447L66.8921 22.9209C66.8434 22.907 66.7961 22.8891 66.7506 22.8672L65.8844 24.6699ZM66.5374 24.8795C66.7635 24.898 66.9907 24.898 67.2168 24.8795L67.054 22.8861C66.9363 22.8957 66.818 22.8957 66.7002 22.8861L66.5374 24.8795ZM67.1309 24.8828C67.6512 24.8852 68.1651 24.7674 68.6323 24.5384L67.7522 22.7425C67.5621 22.8357 67.3525 22.8838 67.14 22.8828L67.1309 24.8828ZM68.6323 24.5384C69.0994 24.3095 69.5075 23.9756 69.8238 23.5625L68.2358 22.3466C68.108 22.5135 67.9426 22.6492 67.7522 22.7425L68.6323 24.5384ZM69.8127 23.5767L78.7675 12.3091L77.2018 11.0647L68.2469 22.3324L69.8127 23.5767ZM78.7641 12.3134C79.0483 11.9599 79.2582 11.5527 79.381 11.1161L77.4558 10.5744C77.4061 10.7512 77.3209 10.9165 77.2053 11.0604L78.7641 12.3134ZM79.381 11.1161C79.5039 10.6794 79.537 10.2225 79.4786 9.77284L77.4953 10.0308C77.5189 10.2128 77.5055 10.3977 77.4558 10.5744L79.381 11.1161ZM79.4806 9.78976C79.43 9.34114 79.291 8.9072 79.0719 8.51272L77.3235 9.48371C77.4146 9.64794 77.4723 9.82809 77.4932 10.0138L79.4806 9.78976ZM79.0719 8.51272C78.8528 8.11819 78.5579 7.77078 78.2041 7.49024L76.9615 9.05736C77.1094 9.17461 77.2323 9.31952 77.3235 9.48371L79.0719 8.51272Z" fill="#473E6B" mask="url(#path-1-inside-1_233_51480)"/>
<path d="M145.047 77.6532C145.837 77.6513 146.615 77.4747 147.322 77.1372C148.029 76.7997 148.646 76.3102 149.126 75.7066C149.605 75.1029 149.935 74.4013 150.088 73.6557C150.241 72.91 150.215 72.1404 150.01 71.4063C148.612 66.2902 145.904 61.5934 142.134 57.7452C138.365 53.8971 133.653 51.0204 128.431 49.3782C123.209 47.7361 117.643 47.3808 112.241 48.345C106.84 49.3092 101.776 51.5621 97.5117 54.8976C95.3322 51.7619 92.2968 49.2659 88.7394 47.6843C85.182 46.1027 81.2406 45.4967 77.3487 45.9331C73.4568 46.3695 69.7653 47.8313 66.6804 50.1577C63.5955 52.484 61.2367 55.5847 59.8636 59.1187C56.3128 59.5214 52.9242 60.778 50.0099 62.7727C47.0956 64.7673 44.7494 67.436 43.187 70.533C42.8044 71.2878 42.6275 72.124 42.673 72.9628C42.7186 73.8017 42.9851 74.6156 43.4475 75.3278C43.9099 76.0401 44.553 76.6272 45.3161 77.034C46.0792 77.4408 46.9373 77.654 47.8095 77.6532H145.047Z" fill="white" stroke="#B5AEFF" stroke-miterlimit="10"/>
<path d="M89.8516 107.907C89.1093 107.187 87.6119 97.2046 86.2553 97.2805C84.8987 97.3563 83.6956 107.275 83.0685 107.92C81.7887 109.183 72.4715 110.156 72.5355 111.42C72.5995 112.683 81.7759 113.29 83.0685 114.528C83.798 115.223 85.321 125.231 86.6776 125.155C88.0342 125.079 89.2373 115.198 89.8516 114.528C91.1315 113.265 100.487 112.279 100.41 111.016C100.333 109.752 91.0931 109.095 89.8516 107.907Z" fill="white" stroke="#473E6B" stroke-miterlimit="10"/>
</g>
<defs>
<clipPath id="clip0_233_51480">
<rect width="128" height="128" fill="white"/>
</clipPath>
</defs>
</svg>
