<svg width="587" height="708" viewBox="0 0 587 708" fill="none" xmlns="http://www.w3.org/2000/svg">
<path opacity="0.5" d="M179.957 707.048C250.306 707.048 307.335 702.697 307.335 697.331C307.335 691.965 250.306 687.615 179.957 687.615C109.607 687.615 52.5781 691.965 52.5781 697.331C52.5781 702.697 109.607 707.048 179.957 707.048Z" fill="#473E6B"/>
<path d="M329.527 168.713C329.527 168.713 345.045 168.529 355.958 174.432C366.871 180.336 358.43 206.625 358.43 206.625L347.062 219.201L339.19 217.633L329.527 168.713Z" fill="#373351"/>
<path d="M340.216 162.285L330.723 172.924L330.184 212.281L357.467 194.939L353.005 155.889L340.216 162.285Z" fill="#EAC9F8"/>
<path d="M175.406 204.84C175.406 204.84 135.277 201.765 142.666 236.172C148.123 261.509 183.733 223.289 183.733 223.289L175.406 204.84Z" fill="#373351"/>
<path d="M165.519 223.567C165.519 223.567 128.801 230.362 149.064 212.282C169.328 194.203 195.446 209.361 195.446 209.361L165.519 223.567Z" fill="#5E58A5"/>
<path d="M169.922 222.797C169.922 222.797 133.232 229.593 153.467 211.513C173.702 193.433 199.877 208.592 199.877 208.592L169.922 222.797Z" fill="#373351"/>
<path d="M186.631 137.872C180.982 139.423 175.846 142.652 171.804 147.194C167.761 151.736 164.972 157.411 163.753 163.577C162.675 169.776 162.922 176.16 164.473 182.24C166.025 188.321 168.841 193.937 172.705 198.66C180.833 208.807 193.253 215.479 197.715 227.994" fill="#D8F2C8"/>
<path d="M175.552 167.821C175.552 167.821 175.296 191.527 183.85 198.876C192.405 206.225 196.213 182.488 196.213 182.488L175.552 167.821" fill="#5E58A5"/>
<path d="M212.806 193.247L219.826 233.343L180.266 233.22L186.035 177.597" fill="#EAC9F8"/>
<path d="M189.645 185.809L216.445 213.974L211.443 186.331L189.645 185.809Z" fill="#473E6B"/>
<path d="M260.866 422.382L260.013 520.345C259.707 527.394 258.687 534.385 256.973 541.193C254.131 551.954 221.448 632.514 221.448 632.514L205.163 649.579L188.793 645.92L213.717 552.077C214.442 549.447 215.296 546.861 216.275 544.329C217.13 541.735 217.637 539.022 217.781 536.273C218.492 528.094 208.772 410.637 208.772 410.637L260.866 422.382Z" fill="#EAC9F8"/>
<path d="M207.068 412.882L185.412 654.715L152.785 650.257L152.16 409.869L207.068 412.882Z" fill="#EAC9F8"/>
<path d="M202.092 468.32C202.092 468.32 180.209 468.32 162.446 457.559C144.684 446.797 200.671 463.708 200.671 463.708L202.092 468.32Z" fill="#373351"/>
<path d="M143.094 442.367V449.316C143.102 449.963 143.299 450.591 143.656 451.11C144.013 451.629 144.513 452.012 145.083 452.206C155.115 455.497 200.417 469.794 218.975 468.195C235.771 466.72 257.768 464.106 265.84 463.122C266.701 463.023 267.498 462.581 268.076 461.882C268.654 461.184 268.971 460.278 268.966 459.34V450.669L143.094 442.367Z" fill="#5E58A5"/>
<path d="M49.3644 345.697C49.3644 345.697 50.8991 343.576 49.1939 347.327C47.4887 351.078 36.1207 359.165 23.7581 358.827C11.3954 358.489 3.03988 357.966 1.02206 358.612C-0.995763 359.257 1.41994 351.201 9.54805 351.171C17.6762 351.14 33.904 348.096 34.5008 344.867C35.5527 341.999 37.2529 339.461 39.4459 337.488L43.3963 330.692L55.9579 329.032L49.3644 345.697Z" fill="#EAC9F8"/>
<path d="M49.3644 341.823C49.3644 341.823 50.8991 339.701 49.1939 343.483C47.4887 347.265 36.1207 355.321 23.7581 354.952C11.3954 354.583 3.03988 354.122 1.02206 354.768C-0.995763 355.414 1.41994 347.358 9.54805 347.327C17.6762 347.296 33.904 344.252 34.5008 341.024C35.556 338.148 37.2553 335.602 39.4459 333.613L43.3963 330.539L55.9579 325.004L49.3644 341.823Z" fill="#EAC9F8"/>
<path d="M32.5391 340.224C33.278 335.95 38.6209 330.631 38.6209 330.631L43.4239 326.849L58.7991 319.685L50.7278 341.208" fill="#EAC9F8"/>
<path d="M32.5391 340.224C33.278 335.95 38.6209 330.631 38.6209 330.631L43.4239 326.849L58.7991 319.685L50.7278 341.208" stroke="#473E6B" stroke-width="0.47" stroke-miterlimit="10"/>
<path d="M43.8515 330.508C43.8515 330.508 27.2257 330.785 22.5933 335.12C17.9608 339.456 15.4882 345.575 14.2946 346.251C13.101 346.928 16.1135 351.448 22.8206 346.835C29.5277 342.223 29.414 344.622 33.3076 345.606C37.2011 346.59 39.2474 345.944 40.0715 344.068" fill="#EAC9F8"/>
<path d="M22.5933 335.213C17.9892 339.549 15.4882 345.667 14.2946 346.344C13.101 347.02 16.1135 351.54 22.8206 346.928C29.5277 342.316 29.414 344.714 33.3076 345.698C37.2011 346.682 39.2474 346.036 40.0715 344.161" fill="#EAC9F8"/>
<path d="M22.5933 335.213C17.9892 339.549 15.4882 345.667 14.2946 346.344C13.101 347.02 16.1135 351.54 22.8206 346.928C29.5277 342.316 29.414 344.714 33.3076 345.698C37.2011 346.682 39.2474 346.036 40.0715 344.161" stroke="#473E6B" stroke-width="0.38" stroke-miterlimit="10"/>
<path d="M271.58 262.922C269.903 257.818 246.286 203.609 246.286 203.609L214.512 207.238L209.738 219.045C208.975 220.928 207.76 222.555 206.22 223.757C204.679 224.96 202.868 225.693 200.976 225.882C199.084 226.07 197.18 225.706 195.462 224.828C193.744 223.95 192.275 222.59 191.208 220.89L187.201 214.463C186.293 213 184.887 211.984 183.289 211.639C181.692 211.293 180.033 211.645 178.675 212.619L160.656 225.41L151.988 231.559C147.962 234.42 144.503 238.121 141.815 242.444C139.126 246.768 137.261 251.629 136.329 256.742L131.498 283.031L133.97 291.825L129.735 287.244L68.0641 313.41L65.8474 315.317L62.4369 315.809L62.6359 317.654L61.2717 317.069L36.9727 326.294L44.7029 375.767C44.7462 376.066 44.8515 376.35 45.0109 376.598C45.1702 376.846 45.3796 377.052 45.623 377.2C45.8665 377.347 46.1377 377.434 46.4164 377.452C46.6952 377.47 46.9741 377.42 47.2322 377.305L137.437 335.856C145.654 332.174 152.29 325.28 156.024 316.547L166.028 301.419L166.539 317.838L170.234 316.577V316.731L166.17 318.976L146.702 398.736L138.716 426.84C137.635 430.454 137.795 434.369 139.168 437.866C140.542 441.363 143.035 444.206 146.191 445.873C149.531 447.811 153.156 449.111 156.905 449.716C162.788 450.823 203.4 459.248 213.518 460.017C229.546 461.277 259.274 456.019 269.391 455.62C298.209 454.605 273.285 268.026 271.58 262.922Z" fill="#473E6B"/>
<path d="M214.515 207.24L209.74 219.047C208.978 220.93 207.763 222.557 206.222 223.759C204.681 224.962 202.87 225.695 200.978 225.884C199.086 226.072 197.182 225.708 195.465 224.83C193.747 223.952 192.278 222.592 191.21 220.892L187.203 214.465" stroke="#5E58A5" stroke-width="0.47" stroke-miterlimit="10" stroke-linecap="round"/>
<path d="M160.232 344.438C160.232 344.438 149.916 369.036 150.712 373.003C151.508 376.969 154.804 371.158 154.804 371.158L151.564 379.89" fill="#473E6B"/>
<path d="M156.906 358.734C156.906 358.734 143.208 383.64 144.572 399.26C144.913 403.165 151.507 385.423 151.507 385.423L148.267 394.156" fill="#473E6B"/>
<path d="M138.118 426.995C138.118 426.995 130.984 417.125 149.486 387.269C167.987 357.413 172.051 366.053 172.051 366.053L169.437 415.895L138.118 426.995Z" fill="#473E6B"/>
<path d="M42.8555 324.02L55.0192 373.77L64.483 369.527L48.4826 321.837L42.8555 324.02Z" fill="#C2E6F5"/>
<path d="M127.719 287.891L129.253 287.307L136.87 295.332L127.719 287.891Z" fill="#5E58A5"/>
<path d="M131.015 283.096L136.273 293.519L129.992 286.509L131.015 283.096Z" fill="#B5AEFF"/>
<path d="M129.992 291.98L140.508 298.775L128.543 291.98H129.992Z" fill="#5E58A5"/>
<path d="M245.773 203.61L249.383 202.78C250.189 202.592 251.024 202.597 251.829 202.793C252.634 202.989 253.39 203.373 254.044 203.917L258.733 207.853L271.636 207.238L314.919 179.565L316.994 175.722C318.894 172.905 321.525 170.764 324.554 169.572C326.871 168.709 329.341 168.435 331.772 168.772C332.346 187.025 339.089 204.415 350.722 217.648C362.356 230.881 378.073 239.036 394.893 240.569L298.265 272.209L292.183 274.054L287.522 276.606L282.947 277.989L279.593 277.836L275.785 281.372L272.659 279.404L245.773 203.61Z" fill="#473E6B"/>
<path d="M343.738 257.42C321.627 211.114 314.778 188.545 313.357 180.55L304.547 186.177C305.883 196.385 312.249 216.925 333.137 260.833L343.738 257.42Z" fill="#C2E6F5"/>
<path d="M327.768 171.571C327.768 171.571 326.432 198.845 347.065 233.713" stroke="#5E58A5" stroke-width="0.47" stroke-miterlimit="10" stroke-linecap="round"/>
<path d="M174.698 453.501C174.698 453.501 166.172 441.478 166.172 431.178C166.163 425.015 166.467 418.856 167.082 412.729C167.082 412.729 168.218 433.822 170.464 439.295C172.904 444.441 175.647 449.412 178.677 454.177L174.698 453.501Z" fill="#5E58A5"/>
<path d="M170.973 285.338C170.973 285.338 179.811 310.152 180.834 318.208C181.857 326.264 178.191 324.727 170.973 285.338Z" fill="#5E58A5"/>
<path d="M270.643 292.38L269.648 371.618C269.648 371.618 274.281 332.107 273.542 324.881C272.803 317.655 270.643 292.38 270.643 292.38Z" fill="#5E58A5"/>
<path d="M267.971 272.302L266.977 351.54C266.977 351.54 271.609 312.059 270.87 304.803C270.131 297.546 267.971 272.302 267.971 272.302Z" fill="#5E58A5"/>
<path d="M191.351 439.264C201.696 442.585 212.922 445.66 218.748 445.414C231.366 445.075 260.724 440.863 260.724 440.863L263.566 424.259C259.342 419.501 256.702 413.356 256.063 406.794C255.585 401.21 255.585 395.59 256.063 390.006C242.881 390.011 229.722 388.797 216.73 386.378C200.161 382.626 186.463 380.013 186.463 380.013C186.481 385.641 185.294 391.198 182.996 396.248C180.498 401.881 176.473 406.557 171.457 409.654" stroke="#373351" stroke-width="0.95" stroke-miterlimit="10"/>
<path d="M270.044 420.66L266.207 440.401L273.113 419.062L270.044 418.047V420.66Z" fill="#5E58A5"/>
<path d="M181.773 419.523C181.773 419.523 183.194 436.281 189.219 440.493C192.772 443.031 197.043 444.12 201.27 443.568C201.27 443.568 190.157 443.752 181.773 419.523Z" fill="#5E58A5"/>
<path d="M248.875 460.357C248.875 460.357 268.769 449.657 270.474 436.589C272.179 423.521 275.249 458.205 248.875 460.357Z" fill="#5E58A5"/>
<path d="M70.4531 336.595L61.2734 317.132L62.6376 317.716L70.4531 336.595Z" fill="#5E58A5"/>
<path d="M68.0644 313.473L65.8477 315.379L76.363 346.896L68.0644 313.473Z" fill="#B5AEFF"/>
<path d="M64.4844 315.564L73.8061 339.24L65.8486 315.38L64.4844 315.564Z" fill="#5E58A5"/>
<path d="M49.707 322.207L61.2739 317.871L62.6381 320.055L49.707 322.207Z" fill="#B5AEFF"/>
<path d="M255.75 205.364L258.734 207.855H261.377L256.659 219.17L255.75 205.364Z" fill="#5E58A5"/>
<path d="M160.117 225.381C165.609 221.264 172.29 219.43 178.931 220.216C185.502 221.501 191.674 224.533 196.893 229.04C185.547 222.668 172.347 221.355 160.117 225.381V225.381Z" fill="#5E58A5"/>
<path d="M275.901 281.371L264.391 248.01L275.844 293.701L274.224 280.756L275.361 281.279" fill="#5E58A5"/>
<path d="M279.706 277.928L270.129 254.499L277.205 260.956L287.607 276.668L283.032 278.082L279.706 277.928Z" fill="#5E58A5"/>
<path d="M154.262 229.992L151.988 231.622C147.962 234.482 144.503 238.183 141.815 242.507C139.126 246.831 137.261 251.691 136.329 256.804L132.492 277.713C135.453 266.697 139.542 256.075 144.684 246.042C147.554 240.474 150.753 235.113 154.262 229.992Z" fill="#B5AEFF"/>
<path d="M158.808 364.884C162.503 348.957 164.975 343.975 166.595 331.061C167.249 325.742 167.505 321.345 167.59 318.455L166.084 319.285L159.462 346.405C157.245 351.816 151.078 367.344 150.68 372.141C147.348 379.642 145.26 387.718 144.513 396.001C132.378 419.185 138.119 427.149 138.119 427.149L138.687 426.933V427.149C137.732 430.325 137.741 433.748 138.712 436.918C139.684 440.088 141.567 442.838 144.087 444.767L144.456 438.218C141.535 430.361 140.89 421.728 142.609 413.466C144.769 404.242 149.032 401.997 153.551 390.005C156.421 381.888 154.545 383.056 158.808 364.884Z" fill="#B5AEFF"/>
<path d="M166.542 317.994L167.707 317.594C168.451 316.768 168.946 315.719 169.129 314.583C169.312 313.447 169.173 312.278 168.73 311.229C168.173 310.185 167.3 309.381 166.258 308.954C166.258 309.999 166.258 311.045 166.258 312.029L166.542 317.994Z" fill="#B5AEFF"/>
<path d="M137.523 425.672C138.214 428.052 139.683 430.078 141.656 431.369C143.629 432.66 145.969 433.127 148.238 432.683C156.934 431.607 158.81 429.239 158.81 429.239C158.81 429.239 143.776 433.605 137.523 425.672Z" fill="#5E58A5"/>
<path d="M144.601 394.31C144.32 396.355 144.377 398.437 144.772 400.46C145.035 401.324 145.473 402.115 146.053 402.774C146.633 403.433 147.34 403.945 148.125 404.272C149.092 404.795 156.907 407.347 156.907 407.347C157.22 406.64 145.283 402.182 144.601 394.31Z" fill="#5E58A5"/>
<path d="M152.387 494.302V498.177L152.785 650.226L185.411 654.684L199.365 498.915C194.619 499.53 163.669 495.717 152.387 494.302Z" fill="#473E6B"/>
<path d="M260.013 520.345L260.269 491.165L215.65 498.606C217.042 517.916 218.037 533.475 217.781 536.273C217.637 539.022 217.13 541.735 216.275 544.329C215.296 546.86 214.442 549.447 213.717 552.077L188.793 645.92L205.163 649.579L221.448 632.514C221.448 632.514 254.187 551.954 256.972 541.192C258.687 534.384 259.707 527.393 260.013 520.345Z" fill="#473E6B"/>
<path d="M224.064 644.446L225.713 640.879C230.573 630.363 226.139 616.865 216.874 613.821L213.464 612.683C206.814 610.531 199.908 614.62 196.923 622.492L192.859 633.131L224.064 644.446Z" fill="#F59DB6"/>
<path d="M223.038 633.468L229.461 653.608C229.96 655.161 230.849 656.534 232.029 657.571C233.208 658.608 234.632 659.269 236.139 659.481V659.481C242.789 660.387 248.93 663.806 253.475 669.136V669.136C258.253 674.789 260.909 682.169 260.921 689.829V690.321C260.921 692.164 260.245 693.932 259.04 695.235C257.836 696.538 256.202 697.27 254.499 697.27H188.109V627.472L223.038 633.468Z" fill="#F59DB6"/>
<path d="M253.476 669.195C250.665 665.898 247.221 663.305 243.387 661.6H242.25C238.116 661.065 233.926 661.429 229.924 662.67C225.922 663.911 222.189 666.004 218.945 668.826C232.445 664.275 248.161 670.117 257.199 674.576C256.138 672.644 254.89 670.84 253.476 669.195V669.195Z" fill="#B5AEFF"/>
<path d="M192.458 628.271L188.109 627.533V697.331H203.058C204.405 689.209 203.977 680.858 201.808 672.947C200.081 668.003 198.098 663.168 195.868 658.465C192.401 648.871 191.228 638.486 192.458 628.271V628.271Z" fill="#5E58A5"/>
<path d="M224.858 644.998H208.488" stroke="#5E58A5" stroke-width="0.8" stroke-miterlimit="10" stroke-linecap="round"/>
<path d="M227.698 648.594H214.312" stroke="#5E58A5" stroke-width="0.8" stroke-miterlimit="10" stroke-linecap="round"/>
<path d="M230.401 652.346H212.27" stroke="#5E58A5" stroke-width="0.8" stroke-miterlimit="10" stroke-linecap="round"/>
<path d="M192.715 627.317L197.092 628.732C198.655 629.14 200.186 629.685 201.668 630.361C202.385 630.873 202.929 631.625 203.216 632.502C203.504 633.379 203.519 634.333 203.259 635.22C203.259 635.496 203.259 634.635 203.259 634.974C203.259 638.694 203.259 656.19 203.259 660.279L202.804 659.387C209.256 663.077 216.56 669.503 224.176 666.675C231.082 664.83 240.518 658.68 247.225 663.6C243.814 661.109 239.466 662.677 235.857 663.784C231.139 665.383 226.592 667.874 221.647 669.104C214.4 669.811 207.92 664.584 201.753 661.14L201.298 660.833V660.248C201.298 655.79 201.298 638.725 201.298 634.574C202.066 631.499 198.456 631.499 196.438 630.515L192.09 629.008C191.986 628.974 191.888 628.918 191.804 628.843C191.719 628.768 191.65 628.676 191.598 628.572C191.547 628.467 191.515 628.353 191.504 628.236C191.493 628.118 191.504 627.999 191.536 627.886C191.568 627.773 191.62 627.668 191.689 627.577C191.758 627.485 191.843 627.41 191.94 627.354C192.036 627.298 192.142 627.264 192.25 627.252C192.359 627.241 192.469 627.252 192.573 627.287L192.715 627.317Z" fill="#5E58A5"/>
<path d="M195.074 655.328C197.413 655.328 199.309 653.277 199.309 650.747C199.309 648.217 197.413 646.166 195.074 646.166C192.736 646.166 190.84 648.217 190.84 650.747C190.84 653.277 192.736 655.328 195.074 655.328Z" fill="#5E58A5"/>
<path d="M260.439 684.293C254.68 686.664 248.551 687.802 242.392 687.645C231.735 687.46 188.82 685.954 188.82 685.954" stroke="#5E58A5" stroke-width="0.59" stroke-miterlimit="10" stroke-linecap="round"/>
<path d="M200.389 630.885C200.389 630.885 203.572 624.582 206.386 618.863C208.148 615.327 213.377 614.22 217.072 613.913H216.873L213.462 612.775C206.812 610.622 199.906 614.712 196.922 622.583L194.648 628.487L200.389 630.885Z" fill="#B5AEFF"/>
<path d="M152.045 630.055V630.946H187.996C188.548 628.263 188.504 625.476 187.867 622.815C187.23 620.153 186.019 617.693 184.332 615.637C182.645 613.581 180.531 611.987 178.164 610.987C175.797 609.987 173.245 609.609 170.717 609.884L166.312 610.345C164.167 610.595 162.09 611.308 160.205 612.441C158.319 613.574 156.662 615.104 155.332 616.941C154.002 618.779 153.026 620.886 152.461 623.138C151.897 625.39 151.755 627.742 152.045 630.055V630.055Z" fill="#F59DB6"/>
<path d="M160.427 618.094C162.779 614.954 165.75 612.422 169.123 610.684C169.653 610.364 170.204 610.086 170.772 609.854L166.424 610.315C164.269 610.549 162.18 611.251 160.281 612.377C158.382 613.503 156.712 615.031 155.37 616.87C154.029 618.709 153.043 620.822 152.471 623.081C151.899 625.341 151.754 627.702 152.043 630.024V630.916H155.141C156.431 626.432 158.206 622.128 160.427 618.094Z" fill="#B5AEFF"/>
<path d="M152.16 630.945L148.977 656.896L145.481 659.971C141.906 663.264 139.037 667.36 137.074 671.975C135.11 676.589 134.1 681.611 134.113 686.691V692.318C134.113 693.615 134.589 694.858 135.437 695.775C136.284 696.692 137.434 697.207 138.632 697.207H191.664C192.862 697.207 194.012 696.692 194.859 695.775C195.707 694.858 196.183 693.615 196.183 692.318V678.728C196.171 673.588 194.66 668.584 191.863 664.43V664.43C188.861 659.979 187.338 654.561 187.543 649.056L188.225 630.822L152.16 630.945Z" fill="#F59DB6"/>
<path d="M152.162 633.868L151.765 634.329L148.923 656.898L145.427 659.973C142.76 662.387 140.483 665.266 138.691 668.49L156.994 657.698L152.162 633.868Z" fill="#B5AEFF"/>
<path d="M138.09 671.196C141.496 666.774 145.759 663.217 150.577 660.775C155.395 658.334 160.65 657.068 165.97 657.068C171.29 657.068 176.545 658.334 181.363 660.775C186.181 663.217 190.444 666.774 193.85 671.196" stroke="#5E58A5" stroke-width="0.58" stroke-miterlimit="10" stroke-linecap="round"/>
<path d="M134.453 680.943L195.585 681.712" stroke="#5E58A5" stroke-width="0.47" stroke-miterlimit="10" stroke-linecap="round"/>
<path d="M152.16 630.946L156.224 657.082" stroke="#5E58A5" stroke-width="0.58" stroke-miterlimit="10" stroke-linecap="round"/>
<path d="M188.114 630.946L182.117 661.325" stroke="#5E58A5" stroke-width="0.58" stroke-miterlimit="10" stroke-linecap="round"/>
<path d="M157.473 635.311H182.113" stroke="#5E58A5" stroke-width="0.8" stroke-miterlimit="10" stroke-linecap="round"/>
<path d="M158.895 641.033H179.613" stroke="#5E58A5" stroke-width="0.8" stroke-miterlimit="10" stroke-linecap="round"/>
<path d="M160.656 646.136H178.106" stroke="#5E58A5" stroke-width="0.8" stroke-miterlimit="10" stroke-linecap="round"/>
<path d="M169.782 628.271C172.638 628.271 174.954 625.765 174.954 622.675C174.954 619.584 172.638 617.079 169.782 617.079C166.925 617.079 164.609 619.584 164.609 622.675C164.609 625.765 166.925 628.271 169.782 628.271Z" fill="#5E58A5"/>
<path d="M220.594 633.867C222.76 633.867 224.516 631.361 224.516 628.27C224.516 625.18 222.76 622.674 220.594 622.674C218.428 622.674 216.672 625.18 216.672 628.27C216.672 631.361 218.428 633.867 220.594 633.867Z" fill="#5E58A5"/>
<path d="M162.479 657.266C162.479 657.266 139.885 664.737 136.901 672.148C135.281 675.977 134.319 680.092 134.059 684.293C134.059 684.293 147.899 660.556 162.479 657.266Z" fill="#B5AEFF"/>
<path d="M255.895 263.046C255.895 263.046 265.302 280.573 258.737 293.794" stroke="#5E58A5" stroke-width="0.47" stroke-miterlimit="10" stroke-linecap="round"/>
<path d="M178.591 503.003L152.388 498.206L152.246 502.695L178.591 503.003Z" fill="#B5AEFF"/>
<path d="M151.449 451.839L152.16 450.179" stroke="#473E6B" stroke-width="0.47" stroke-miterlimit="10" stroke-linecap="round"/>
<path d="M155.487 451.009L155.316 453.838" stroke="#473E6B" stroke-width="0.47" stroke-miterlimit="10" stroke-linecap="round"/>
<path d="M158.754 451.532L158.812 453.992" stroke="#473E6B" stroke-width="0.47" stroke-miterlimit="10" stroke-linecap="round"/>
<path d="M163.5 452.423L163.188 455.344" stroke="#473E6B" stroke-width="0.47" stroke-miterlimit="10" stroke-linecap="round"/>
<path d="M166.713 453.561L166.457 456.328" stroke="#473E6B" stroke-width="0.47" stroke-miterlimit="10" stroke-linecap="round"/>
<path d="M170.748 454.083L170.492 457.435" stroke="#473E6B" stroke-width="0.47" stroke-miterlimit="10" stroke-linecap="round"/>
<path d="M214.341 480.711C216.359 507.554 218.092 532.644 217.78 536.273C217.636 539.022 217.128 541.735 216.273 544.329C215.294 546.86 214.441 549.447 213.716 552.077L207.094 576.983C209.936 569.849 220.394 543.375 221.304 533.075C222.327 521.114 214.341 480.803 214.341 480.803V480.711Z" fill="#B5AEFF"/>
<path d="M198.512 128.094C209.097 127.168 219.614 130.615 227.946 137.74C236.277 144.866 241.804 155.141 243.415 166.498C245.604 181.872 240.573 197.246 241.54 212.836C242.364 224.95 246.939 236.358 250.776 247.796C254.613 259.234 257.739 271.472 255.664 283.402C254.414 290.443 251.373 297.3 252.083 304.434C252.652 310.03 255.465 315.042 256.915 320.453C258.364 325.865 257.91 332.753 253.533 335.827C253.192 328.325 249.185 321.591 244.723 315.841C240.261 310.091 235.145 304.741 231.848 298.13C225.738 285.831 226.704 270.98 227.585 257.051C228.466 243.122 228.864 228.086 221.901 216.31C219.059 211.421 214.91 207.332 212.722 202.012C209.88 195.278 210.619 187.561 211.329 180.243" fill="#D8F2C8"/>
<path d="M215.906 207.762C214.513 205.671 222.67 184.763 222.67 184.763L211.87 191.712C211.439 192.168 211.066 192.685 210.762 193.249C210.936 196.245 211.58 199.188 212.666 201.951C213.546 204.01 214.633 205.959 215.906 207.762V207.762Z" fill="#5E58A5"/>
<path d="M167.793 160.133C165.981 152.487 166.437 144.419 169.096 137.069C171.755 129.719 176.483 123.459 182.61 119.175C188.738 114.892 195.955 112.801 203.241 113.198C210.528 113.596 217.514 116.462 223.212 121.391C230.232 127.54 234.779 136.181 240.094 144.021C245.408 151.862 252.399 159.395 261.266 160.871C257.401 165.545 250.097 164.376 245.437 160.625C240.776 156.874 237.763 151.401 233.756 146.758C228.49 141.078 221.742 137.279 214.421 135.871C207.099 134.464 199.555 135.516 192.803 138.886C183.026 144.052 176.006 153.799 167.793 160.133Z" fill="#D8F2C8"/>
<path d="M206.782 113.826C202.33 113.02 197.775 113.178 193.38 114.291C188.985 115.404 184.837 117.45 181.179 120.31C177.52 123.17 174.422 126.788 172.065 130.953C169.709 135.118 168.14 139.748 167.449 144.574C170.567 135.892 175.939 128.369 182.918 122.914C189.896 117.459 198.184 114.303 206.782 113.826V113.826Z" fill="#B5AEFF"/>
<path d="M209.077 196.785C222.586 194.016 231.043 177.528 227.966 159.959C224.888 142.39 211.443 130.393 197.933 133.162C184.424 135.932 175.967 152.42 179.044 169.989C182.122 187.558 195.567 199.555 209.077 196.785Z" fill="#EAC9F8"/>
<path d="M192.859 192.326C195.398 194.256 198.264 195.624 201.293 196.352C204.321 197.08 207.453 197.154 210.508 196.569C211.285 196.408 212.053 196.203 212.81 195.954" stroke="#2E2A47" stroke-width="0.42" stroke-miterlimit="10" stroke-linecap="round"/>
<path d="M196.208 139.625C194.999 144.252 192.149 148.175 188.279 150.54C184.444 152.878 181.004 155.904 178.105 159.488C174.126 165.637 174.552 173.601 175.263 181.011C171.719 175.24 169.75 168.505 169.579 161.579C169.552 158.138 170.174 154.729 171.405 151.557C172.636 148.385 174.452 145.518 176.741 143.13C179.347 140.614 182.56 138.949 186.006 138.329C189.451 137.708 192.989 138.158 196.208 139.625Z" fill="#D8F2C8"/>
<path d="M176.543 142.207C187.371 144.421 198.938 137.41 209.311 141.469C214.995 143.714 219.258 148.972 223.521 153.615C227.784 158.258 233.213 162.839 239.323 162.593C236.408 152.826 231.244 144.023 224.317 137.011C220.846 133.543 216.771 130.857 212.331 129.11C207.891 127.362 203.174 126.589 198.455 126.833C193.898 127.178 189.497 128.77 185.664 131.459C181.832 134.148 178.693 137.847 176.543 142.207Z" fill="#D8F2C8"/>
<path d="M240.431 150.724C240.431 150.724 233.582 136.181 227.869 133.936C225.059 132.622 222 132.053 218.945 132.276C218.945 132.276 234.974 139.655 240.431 150.724Z" fill="#B5AEFF"/>
<path d="M261.351 160.873C257.486 165.546 250.182 164.378 245.521 160.627C240.86 156.875 237.848 151.402 233.84 146.759C231.504 144.16 228.822 141.953 225.883 140.21" stroke="#473E6B" stroke-width="0.47" stroke-miterlimit="10" stroke-linecap="round"/>
<path d="M219.828 149.493L223.636 153.613C227.985 158.256 233.328 162.838 239.438 162.592" stroke="#473E6B" stroke-width="0.47" stroke-miterlimit="10" stroke-linecap="round"/>
<path d="M176.543 142.209C184.501 143.838 192.856 140.487 200.842 140.21" stroke="#473E6B" stroke-width="0.47" stroke-miterlimit="10" stroke-linecap="round"/>
<path d="M177.622 171.142C180.086 171.142 182.084 168.981 182.084 166.315C182.084 163.649 180.086 161.487 177.622 161.487C175.158 161.487 173.16 163.649 173.16 166.315C173.16 168.981 175.158 171.142 177.622 171.142Z" fill="#EAC9F8"/>
<path d="M176.543 168.958V186.668" stroke="#FFBB8D" stroke-width="0.47" stroke-miterlimit="10" stroke-linecap="round"/>
<path d="M174.723 182.057L179.099 182.949" stroke="#B5AEFF" stroke-width="0.47" stroke-miterlimit="10" stroke-linecap="round"/>
<path d="M179.1 180.029H173.16" stroke="#B5AEFF" stroke-width="0.47" stroke-miterlimit="10" stroke-linecap="round"/>
<path d="M182 166.315C182 166.315 186.888 185.655 195.357 189.991C203.826 194.326 179.726 187.839 182 166.315Z" fill="#B5AEFF"/>
<path d="M168.499 184.701C165.777 176.749 164.503 168.302 164.748 159.826C164.347 161.054 164.015 162.307 163.753 163.577C162.675 169.777 162.922 176.161 164.473 182.241C166.025 188.322 168.841 193.938 172.705 198.661C173.87 200.106 175.121 201.459 176.4 202.781C169.465 187.622 168.499 184.701 168.499 184.701Z" fill="#B5AEFF"/>
<path d="M231.367 210.005C231.367 210.005 237.051 221.013 237.421 229.992C237.79 238.97 237.421 249.855 237.421 249.855C238.745 243.927 239.751 237.921 240.433 231.867C240.462 227.593 238.842 214.925 231.367 210.005Z" fill="#B5AEFF"/>
<path d="M324.471 192.325C323.824 189.582 322.635 187.024 320.987 184.827C319.338 182.629 317.269 180.844 314.922 179.595C315.632 178.334 316.314 177.043 316.997 175.751C318.986 177.068 320.684 178.842 321.97 180.948C323.979 184.32 324.861 188.335 324.471 192.325Z" fill="#B5AEFF"/>
<path d="M484.19 149.096C482.733 147.827 481.049 146.898 479.244 146.369C477.439 145.84 475.552 145.721 473.703 146.021C476.147 142.946 478.79 139.871 481.149 136.55C485.156 131.077 488.481 124.467 487.97 117.517C487.753 114.684 486.851 111.962 485.354 109.625C483.858 107.288 481.819 105.418 479.444 104.204C477.074 103.052 474.431 102.729 471.884 103.28C469.336 103.831 467.012 105.229 465.234 107.278C461.113 112.567 461.909 120.684 465.234 127.633C463.282 129.16 461.622 131.081 460.345 133.291L410.895 84.4326L394.695 109.707C398.248 119.731 402.482 129.571 405.722 139.594C411.406 157.152 417.09 174.647 422.149 192.481C426.781 209.331 430.078 226.519 433.318 243.738C440.245 241.509 447.339 239.945 454.519 239.064C455.003 235.221 455.628 231.408 456.424 227.626C459.941 210.538 466.964 194.523 476.971 180.766C480.821 176.308 484.031 171.25 486.492 165.761C488.765 160.349 488.424 153.124 484.19 149.096Z" fill="#EAC9F8"/>
<path d="M440.62 227.593C432.606 212.434 424.592 197.368 415.355 183.009C405.493 167.635 394.893 153.091 384.519 138.27C380.882 133.043 376.846 128.031 372.867 122.896L359.396 171.478C356.445 158.489 352.402 145.82 347.318 133.627C345.414 129.077 342.913 124.126 338.479 122.65C332.084 120.498 325.576 127.447 324.809 134.642C324.042 141.837 327.168 148.786 330.18 155.274C353.741 205.947 386.31 220.337 418.027 247.948C424.592 235.649 432.521 239.769 442.354 230.729L440.62 227.593Z" fill="#EAC9F8"/>
<path d="M329.954 155.368C326.941 148.88 323.815 141.931 324.582 134.736C325.35 127.541 331.858 120.592 338.281 122.744C342.686 124.22 345.187 129.17 347.091 133.721C352.187 145.908 356.231 158.579 359.169 171.572" stroke="#5E59A5" stroke-width="0.24" stroke-miterlimit="10" stroke-linecap="round"/>
<path d="M473.958 170.251L451.165 198.201L443.293 192.728L456.622 169.114L459.634 170.374L461.141 172.004L463.528 173.295L466.313 173.88L469.383 173.572L471.343 172.711L473.958 170.251Z" fill="#473E6B"/>
<path d="M455.172 235.559C456.966 223.455 460.454 211.718 465.517 200.752C470.547 189.898 478.022 181.473 484.018 171.388C488.878 163.209 490.271 149.157 479.045 146.389C470.206 144.206 458.44 150.54 457.332 160.964C456.937 163.528 457.358 166.162 458.524 168.434C459.691 170.707 461.534 172.485 463.755 173.478C465.782 174.263 468.005 174.214 470.002 173.341C471.998 172.468 473.628 170.831 474.583 168.743" stroke="#5E59A5" stroke-width="0.24" stroke-miterlimit="10" stroke-linecap="round"/>
<path d="M473.733 146.021C476.149 142.946 478.735 139.871 481.094 136.796C485.073 131.323 488.398 124.712 487.886 117.763C487.689 114.944 486.811 112.23 485.339 109.894C483.868 107.557 481.855 105.68 479.502 104.449C477.133 103.297 474.49 102.975 471.942 103.526C469.395 104.077 467.07 105.475 465.292 107.524C461.171 112.813 461.967 120.93 465.292 127.879" fill="#EAC9F8"/>
<path d="M473.733 146.021C476.149 142.946 478.735 139.871 481.094 136.796C485.073 131.323 488.398 124.712 487.886 117.763C487.689 114.944 486.811 112.23 485.339 109.894C483.868 107.557 481.855 105.68 479.502 104.449C477.133 103.297 474.49 102.975 471.942 103.526C469.395 104.077 467.07 105.475 465.292 107.524C461.171 112.813 461.967 120.93 465.292 127.879" stroke="#5E59A5" stroke-width="0.24" stroke-miterlimit="10" stroke-linecap="round"/>
<path d="M354.167 196.847C347.489 181.904 336.86 170.189 329.954 155.368C326.941 148.881 323.815 141.931 324.582 134.736C325.35 127.541 330.863 121.023 337.258 123.175C341.691 124.651 346.665 130.063 343.624 136.766C339.56 145.713 343.624 156.598 346.665 169.574" fill="#EAC9F8"/>
<path d="M354.167 196.847C345.087 183.742 336.99 169.871 329.954 155.368C326.941 148.881 323.815 141.931 324.582 134.736C325.35 127.541 330.863 121.023 337.258 123.175" stroke="#5E59A5" stroke-width="0.24" stroke-miterlimit="10" stroke-linecap="round"/>
<path d="M477.114 181.042C480.946 176.569 484.154 171.514 486.635 166.037C488.681 160.349 488.368 153.123 484.134 149.095C482.328 147.632 480.234 146.64 478.016 146.198C475.797 145.755 473.514 145.873 471.345 146.543C468.711 147.061 466.213 148.192 464.024 149.86C461.835 151.527 460.008 153.69 458.67 156.198C457.396 158.754 456.948 161.697 457.396 164.56C457.843 167.423 459.162 170.042 461.142 172.002C465.32 175.6 472.51 174.124 474.585 168.743" fill="#EAC9F8"/>
<path d="M477.114 181.042C480.946 176.569 484.154 171.514 486.635 166.037C488.681 160.349 488.368 153.123 484.134 149.095C482.328 147.632 480.234 146.64 478.016 146.198C475.797 145.755 473.514 145.873 471.345 146.543C468.711 147.061 466.213 148.192 464.024 149.86C461.835 151.527 460.008 153.69 458.67 156.198C457.396 158.754 456.948 161.697 457.396 164.56C457.843 167.423 459.162 170.042 461.142 172.002C465.32 175.6 472.51 174.124 474.585 168.743" stroke="#5E59A5" stroke-width="0.24" stroke-miterlimit="10" stroke-linecap="round"/>
<path d="M457.675 235.312C457.305 227.84 457.305 219.938 456.992 212.62Z" fill="#5E59A5"/>
<path d="M297.271 182.579C300.08 182.579 302.358 180.115 302.358 177.075C302.358 174.035 300.08 171.571 297.271 171.571C294.461 171.571 292.184 174.035 292.184 177.075C292.184 180.115 294.461 182.579 297.271 182.579Z" fill="#B5AEFF"/>
<path fill-rule="evenodd" clip-rule="evenodd" d="M295.622 180.98L297.072 178.459L297.64 181.349L297.725 178.397L299.573 180.58L298.265 177.967L300.88 178.859L298.55 177.321L301.221 176.676L298.493 176.583L300.511 174.585L298.095 175.999L298.947 173.17L297.498 175.692L296.93 172.801L296.816 175.753L294.997 173.57L296.276 176.184L293.69 175.261L295.992 176.829L293.32 177.444L296.049 177.567L294.031 179.535L296.446 178.151L295.622 180.98Z" fill="#D8F2C8"/>
<path fill-rule="evenodd" clip-rule="evenodd" d="M356.47 14.2964H457.02C460.148 14.2964 463.148 15.6408 465.36 18.0338C467.572 20.4268 468.814 23.6725 468.814 27.0568V242.754C468.814 244.428 468.509 246.086 467.916 247.632C467.323 249.179 466.454 250.583 465.358 251.766C464.263 252.948 462.962 253.885 461.531 254.523C460.1 255.161 458.567 255.488 457.02 255.483H356.47C354.923 255.488 353.39 255.161 351.959 254.523C350.528 253.885 349.228 252.948 348.132 251.766C347.036 250.583 346.167 249.179 345.574 247.632C344.981 246.086 344.676 244.428 344.676 242.754V27.0568C344.676 23.6725 345.918 20.4268 348.13 18.0338C350.342 15.6408 353.342 14.2964 356.47 14.2964V14.2964Z" fill="#B5AEFF"/>
<path d="M364.4 253.637H453.638C459.995 253.637 465.148 248.062 465.148 241.185V28.3163C465.148 21.4388 459.995 15.8634 453.638 15.8634H364.4C358.043 15.8634 352.89 21.4388 352.89 28.3163V241.185C352.89 248.062 358.043 253.637 364.4 253.637Z" fill="white"/>
<path d="M364.4 253.637H453.638C459.995 253.637 465.148 248.062 465.148 241.185V28.3163C465.148 21.4388 459.995 15.8634 453.638 15.8634H364.4C358.043 15.8634 352.89 21.4388 352.89 28.3163V241.185C352.89 248.062 358.043 253.637 364.4 253.637Z" stroke="#5E58A5" stroke-width="0.47" stroke-miterlimit="10"/>
<path d="M473.733 145.251C476.149 142.176 478.735 139.101 481.094 136.027C485.073 130.553 488.398 123.943 487.886 116.994C487.697 114.172 486.822 111.454 485.35 109.116C483.878 106.778 481.86 104.903 479.502 103.68C477.12 102.537 474.466 102.234 471.916 102.813C469.366 103.393 467.048 104.825 465.292 106.908C461.171 112.166 461.967 120.284 465.292 127.263" fill="#EAC9F8"/>
<path d="M473.733 145.251C476.149 142.176 478.735 139.101 481.094 136.027C485.073 130.553 488.398 123.943 487.886 116.994C487.697 114.172 486.822 111.454 485.35 109.116C483.878 106.778 481.86 104.903 479.502 103.68C477.12 102.537 474.466 102.234 471.916 102.813C469.366 103.393 467.048 104.825 465.292 106.908C461.171 112.166 461.967 120.284 465.292 127.263" stroke="#5E59A5" stroke-width="0.24" stroke-miterlimit="10" stroke-linecap="round"/>
<path d="M465.036 126.432C465.299 126.903 465.614 127.336 465.974 127.723C467.674 129.365 469.68 130.592 471.857 131.321C469.836 133.856 467.939 136.504 466.173 139.254L465.008 140.914L465.036 126.432Z" fill="#473E6B"/>
<path d="M477.114 181.042C480.946 176.569 484.154 171.514 486.635 166.037C488.681 160.349 488.368 153.123 484.134 149.095C482.328 147.632 480.234 146.64 478.016 146.198C475.797 145.755 473.514 145.873 471.345 146.543C468.711 147.061 466.213 148.192 464.024 149.86C461.835 151.527 460.008 153.69 458.67 156.198C457.396 158.754 456.948 161.697 457.396 164.56C457.843 167.423 459.162 170.042 461.142 172.002C465.32 175.6 472.51 174.124 474.585 168.743" fill="#EAC9F8"/>
<path d="M477.114 181.042C480.946 176.569 484.154 171.514 486.635 166.037C488.681 160.349 488.368 153.123 484.134 149.095C482.328 147.632 480.234 146.64 478.016 146.198C475.797 145.755 473.514 145.873 471.345 146.543C468.711 147.061 466.213 148.192 464.024 149.86C461.835 151.527 460.008 153.69 458.67 156.198C457.396 158.754 456.948 161.697 457.396 164.56C457.843 167.423 459.162 170.042 461.142 172.002C465.32 175.6 472.51 174.124 474.585 168.743" stroke="#5E59A5" stroke-width="0.24" stroke-miterlimit="10" stroke-linecap="round"/>
<path opacity="0.6" fill-rule="evenodd" clip-rule="evenodd" d="M300.883 169.818L305.487 164.806C305.668 164.611 305.913 164.501 306.169 164.501C306.425 164.501 306.67 164.611 306.851 164.806L311.455 169.818C311.59 169.964 311.762 170.063 311.949 170.103C312.136 170.143 312.33 170.122 312.507 170.044C312.683 169.965 312.834 169.831 312.94 169.66C313.046 169.488 313.103 169.287 313.103 169.08V153.798C313.103 153.521 313.002 153.255 312.82 153.059C312.639 152.863 312.393 152.753 312.137 152.753H300.201C299.944 152.753 299.699 152.863 299.517 153.059C299.336 153.255 299.234 153.521 299.234 153.798V169.172C299.25 169.371 299.319 169.56 299.431 169.718C299.543 169.877 299.695 169.997 299.868 170.065C300.041 170.132 300.229 170.145 300.409 170.102C300.588 170.058 300.753 169.959 300.883 169.818Z" fill="#EAC9F8"/>
<path opacity="0.6" fill-rule="evenodd" clip-rule="evenodd" d="M85.1991 241.001L89.8032 235.989C89.9843 235.794 90.2296 235.685 90.4853 235.685C90.741 235.685 90.9862 235.794 91.1673 235.989L95.7713 241.001C95.9065 241.147 96.0785 241.246 96.2656 241.286C96.4528 241.326 96.6467 241.306 96.823 241.227C96.9992 241.148 97.15 241.014 97.2562 240.843C97.3624 240.671 97.4193 240.47 97.4198 240.263V224.982C97.4198 224.704 97.318 224.439 97.1368 224.242C96.9555 224.046 96.7098 223.936 96.4535 223.936H84.5171C84.2608 223.936 84.015 224.046 83.8338 224.242C83.6526 224.439 83.5508 224.704 83.5508 224.982V240.356C83.5668 240.554 83.635 240.744 83.7472 240.902C83.8595 241.06 84.0112 241.18 84.1844 241.248C84.3577 241.316 84.5453 241.329 84.725 241.285C84.9048 241.241 85.0693 241.143 85.1991 241.001Z" fill="#EAC9F8"/>
<path opacity="0.6" fill-rule="evenodd" clip-rule="evenodd" d="M444.002 49.6854L448.606 44.7041C448.694 44.6036 448.8 44.5236 448.917 44.4689C449.034 44.4142 449.161 44.3859 449.288 44.3859C449.416 44.3859 449.543 44.4142 449.66 44.4689C449.777 44.5236 449.883 44.6036 449.971 44.7041L454.603 49.6854C454.734 49.836 454.905 49.9397 455.092 49.9825C455.279 50.0254 455.474 50.0053 455.65 49.925C455.826 49.8447 455.976 49.708 456.078 49.5333C456.18 49.3585 456.231 49.1541 456.223 48.9474V33.8809C456.223 33.6036 456.121 33.3377 455.94 33.1416C455.759 32.9456 455.513 32.8354 455.257 32.8354H443.462C443.206 32.8354 442.96 32.9456 442.779 33.1416C442.598 33.3377 442.496 33.6036 442.496 33.8809V49.0704C442.532 49.2384 442.605 49.3944 442.71 49.5243C442.815 49.6542 442.948 49.754 443.097 49.8149C443.246 49.8757 443.407 49.8958 443.565 49.8732C443.723 49.8506 443.873 49.7861 444.002 49.6854Z" fill="#EAC9F8"/>
<path d="M379.063 230.33H439.001C444.683 230.33 449.289 225.347 449.289 219.2V219.169C449.289 213.022 444.683 208.038 439.001 208.038H379.063C373.381 208.038 368.775 213.022 368.775 219.169V219.2C368.775 225.347 373.381 230.33 379.063 230.33Z" fill="#B5AEFF" stroke="#5E58A5" stroke-width="0.47" stroke-miterlimit="10"/>
<path d="M379.661 141.807H444.515C445.834 141.807 446.902 140.651 446.902 139.224V139.194C446.902 137.767 445.834 136.611 444.515 136.611H379.661C378.342 136.611 377.273 137.767 377.273 139.194V139.224C377.273 140.651 378.342 141.807 379.661 141.807Z" fill="#EAC9F8"/>
<path d="M392.932 151.4H431.243C432.263 151.4 433.09 150.506 433.09 149.402V148.203C433.09 147.099 432.263 146.204 431.243 146.204H392.932C391.912 146.204 391.085 147.099 391.085 148.203V149.402C391.085 150.506 391.912 151.4 392.932 151.4Z" fill="#EAC9F8"/>
<path d="M348.571 36.9565H347.094C346.355 36.9565 345.758 38.0942 345.758 39.5394V50.3012C345.758 51.7156 346.355 52.8533 347.094 52.8533H348.571" stroke="#5E58A5" stroke-width="0.47" stroke-miterlimit="10"/>
<path d="M348.571 55.9287H347.094C346.355 55.9287 345.758 57.0971 345.758 58.5115V69.2733C345.758 70.6877 346.355 71.8561 347.094 71.8561H348.571" stroke="#5E58A5" stroke-width="0.47" stroke-miterlimit="10"/>
<path d="M414.901 23.7041H385.855" stroke="#5E58A5" stroke-width="0.47" stroke-miterlimit="10"/>
<path d="M420.957 23.7041H423.799" stroke="#5E58A5" stroke-width="0.47" stroke-miterlimit="10"/>
<path d="M311.853 68.8423C318.822 68.8423 324.471 62.73 324.471 55.1902C324.471 47.6503 318.822 41.5381 311.853 41.5381C304.884 41.5381 299.234 47.6503 299.234 55.1902C299.234 62.73 304.884 68.8423 311.853 68.8423Z" stroke="#FFCFD1" stroke-width="0.47" stroke-miterlimit="10"/>
<path d="M306.166 133.258C307.909 133.258 309.321 131.73 309.321 129.845C309.321 127.96 307.909 126.432 306.166 126.432C304.424 126.432 303.012 127.96 303.012 129.845C303.012 131.73 304.424 133.258 306.166 133.258Z" stroke="#5E58A5" stroke-width="0.12" stroke-miterlimit="10"/>
<path d="M331.262 108.876H331.291C333.205 108.876 334.758 107.196 334.758 105.125V85.692C334.758 83.6202 333.205 81.9407 331.291 81.9407H331.262C329.347 81.9407 327.795 83.6202 327.795 85.692V105.125C327.795 107.196 329.347 108.876 331.262 108.876Z" fill="#C2E6F5"/>
<path d="M471.517 12.4198C471.517 13.4557 472.293 14.2954 473.251 14.2954C474.208 14.2954 474.984 13.4557 474.984 12.4198V2.70342C474.984 1.66754 474.208 0.827789 473.251 0.827789C472.293 0.827789 471.517 1.66754 471.517 2.70342V12.4198Z" fill="#F4E2A1"/>
<path d="M482.883 11.0366C482.883 15.1261 480.297 15.6488 480.297 19.769C480.297 23.8893 482.912 24.3812 482.883 28.4707C482.883 32.5601 480.297 33.0829 480.297 37.2031C480.297 41.3233 482.912 41.8153 482.883 45.9048V45.6588C482.883 49.7483 480.297 50.271 480.297 54.3605C480.297 58.45 482.912 59.0034 482.883 63.0621C482.883 67.1516 480.297 67.6743 480.297 71.7945" fill="white"/>
<path d="M482.883 11.0366C482.883 15.1261 480.297 15.6488 480.297 19.769C480.297 23.8893 482.912 24.3812 482.883 28.4707C482.883 32.5601 480.297 33.0829 480.297 37.2031C480.297 41.3233 482.912 41.8153 482.883 45.9048V45.6588C482.883 49.7483 480.297 50.271 480.297 54.3605C480.297 58.45 482.912 59.0034 482.883 63.0621C482.883 67.1516 480.297 67.6743 480.297 71.7945" stroke="#5E58A5" stroke-width="0.47" stroke-miterlimit="10" stroke-linecap="round"/>
<path d="M390.036 47.9043H378.555V70.1966" stroke="#5E58A5" stroke-width="1.22" stroke-linecap="round" stroke-linejoin="round"/>
<path d="M434.738 118.378H446.22V96.0859" stroke="#5E58A5" stroke-width="1.22" stroke-linecap="round" stroke-linejoin="round"/>
<path d="M434.738 47.9043H446.22V70.1966" stroke="#5E58A5" stroke-width="1.22" stroke-linecap="round" stroke-linejoin="round"/>
<path d="M390.036 118.378H378.555V96.0859" stroke="#5E58A5" stroke-width="1.22" stroke-linecap="round" stroke-linejoin="round"/>
<path d="M409.048 57.4961H386.426V82.3712H409.048V57.4961Z" fill="#5E58A5"/>
<path d="M437.755 57.4961H415.133V82.3712H437.755V57.4961Z" fill="#5E58A5"/>
<path d="M409.048 85.6328H386.426V110.508H409.048V85.6328Z" fill="#5E58A5"/>
<path d="M425.676 91.3193H417.008V100.698H425.676V91.3193Z" fill="#5E58A5"/>
<path d="M434.258 100.543H425.59V109.921H434.258V100.543Z" fill="#5E58A5"/>
<path d="M585.848 102.45V91.1353" stroke="#F59DB6" stroke-width="0.84" stroke-miterlimit="10" stroke-linecap="round"/>
<path d="M547.369 188.33L540.293 164.962" stroke="#F59DB6" stroke-width="0.84" stroke-miterlimit="10" stroke-linecap="round"/>
<path fill-rule="evenodd" clip-rule="evenodd" d="M553.277 39.3548L549.128 30.8069C548.91 30.3726 548.568 30.0267 548.153 29.8215C547.738 29.6163 547.272 29.5628 546.826 29.6692L538.3 31.7908C537.927 31.8808 537.539 31.8577 537.177 31.7241C536.816 31.5905 536.496 31.3516 536.252 31.0337C536.008 30.7157 535.85 30.331 535.795 29.9221C535.74 29.5131 535.791 29.0958 535.941 28.716L544.893 7.62291C545.012 7.34791 545.18 7.10101 545.388 6.89643C545.595 6.69186 545.838 6.53362 546.102 6.43078C546.366 6.32793 546.646 6.28249 546.926 6.29711C547.207 6.31173 547.482 6.38613 547.735 6.51598L565.1 15.1561C565.357 15.2816 565.588 15.4616 565.779 15.6854C565.97 15.9093 566.118 16.1724 566.213 16.4592C566.309 16.746 566.35 17.0506 566.334 17.3549C566.319 17.6593 566.247 17.9572 566.123 18.2309L557.142 39.2318C557.002 39.6578 556.747 40.0282 556.409 40.2943C556.071 40.5604 555.666 40.7099 555.249 40.7232C554.831 40.7365 554.419 40.6129 554.067 40.3688C553.716 40.1246 553.44 39.7712 553.277 39.3548Z" stroke="#EAC9F8" stroke-width="0.47" stroke-miterlimit="10"/>
<path d="M529.209 132C541.437 132 551.349 121.276 551.349 108.047C551.349 94.8182 541.437 84.0942 529.209 84.0942C516.982 84.0942 507.07 94.8182 507.07 108.047C507.07 121.276 516.982 132 529.209 132Z" fill="#D8F2C8"/>
<path fill-rule="evenodd" clip-rule="evenodd" d="M545.179 109.554C545.051 111.827 544.509 114.051 543.586 116.098C542.663 118.145 541.376 119.975 539.8 121.484C538.223 122.993 536.387 124.151 534.396 124.892C532.406 125.634 530.3 125.943 528.198 125.804C526.097 125.665 524.042 125.079 522.15 124.08C520.258 123.082 518.566 121.69 517.172 119.984C515.777 118.278 514.706 116.291 514.021 114.138C513.336 111.984 513.05 109.705 513.178 107.432L545.179 109.554Z" fill="#5E58A5"/>
<path fill-rule="evenodd" clip-rule="evenodd" d="M513.18 107.432C513.308 105.159 513.85 102.935 514.773 100.888C515.696 98.8413 516.983 97.0111 518.559 95.5021C520.136 93.9931 521.972 92.8349 523.963 92.0936C525.953 91.3523 528.059 91.0426 530.161 91.1819C532.262 91.3212 534.317 91.9069 536.209 92.9056C538.101 93.9042 539.793 95.2963 541.188 97.0023C542.582 98.7083 543.653 100.695 544.338 102.848C545.023 105.002 545.309 107.28 545.181 109.554L513.18 107.432Z" fill="#B5AEFF"/>
<path opacity="0.1" fill-rule="evenodd" clip-rule="evenodd" d="M320.036 92.7947C314.903 98.4578 311.99 106.048 311.908 113.98C311.908 106.05 309.005 98.4435 303.833 92.8248C298.661 87.2062 291.642 84.0333 284.312 84.0008C287.953 84.0089 291.56 83.239 294.925 81.7353C298.291 80.2316 301.348 78.0236 303.923 75.2381C306.497 72.4527 308.538 69.1446 309.928 65.5036C311.318 61.8627 312.029 57.9607 312.022 54.0215C312.022 61.9725 314.941 69.5979 320.138 75.2201C325.334 80.8423 332.382 84.0008 339.731 84.0008C332.361 84.0579 325.299 87.2111 320.036 92.7947Z" fill="#B5AEFF"/>
<path fill-rule="evenodd" clip-rule="evenodd" d="M324.642 112.351C320.847 116.507 318.696 122.099 318.646 127.941C318.653 125.046 318.132 122.178 317.112 119.502C316.093 116.825 314.595 114.393 312.704 112.344C310.813 110.296 308.567 108.672 306.095 107.565C303.623 106.458 300.973 105.89 298.297 105.894C300.973 105.899 303.623 105.331 306.095 104.224C308.567 103.117 310.813 101.493 312.704 99.4444C314.595 97.396 316.093 94.9638 317.112 92.2873C318.132 89.6109 318.653 86.743 318.646 83.8481C318.646 89.6952 320.792 95.3027 324.614 99.4372C328.435 103.572 333.618 105.894 339.023 105.894C333.637 105.952 328.482 108.266 324.642 112.351Z" stroke="#F59DB6" stroke-width="0.35" stroke-miterlimit="10"/>
<path fill-rule="evenodd" clip-rule="evenodd" d="M47.9781 126.829C44.1826 130.985 42.0317 136.577 41.9814 142.419C41.9889 139.524 41.4679 136.656 40.4483 133.98C39.4287 131.303 37.9306 128.871 36.0399 126.822C34.1493 124.774 31.9032 123.15 29.4309 122.043C26.9585 120.936 24.3085 120.368 21.6328 120.373C24.3085 120.377 26.9585 119.809 29.4309 118.702C31.9032 117.595 34.1493 115.971 36.0399 113.922C37.9306 111.874 39.4287 109.442 40.4483 106.765C41.4679 104.089 41.9889 101.221 41.9814 98.3262C41.9814 104.173 44.1284 109.781 47.9498 113.915C51.7713 118.05 56.9543 120.373 62.3586 120.373C56.9733 120.43 51.8184 122.744 47.9781 126.829Z" stroke="#F59DB6" stroke-width="0.35" stroke-miterlimit="10"/>
<path d="M75.7618 189.07C82.5425 189.07 88.0392 183.123 88.0392 175.787C88.0392 168.45 82.5425 162.503 75.7618 162.503C68.9812 162.503 63.4844 168.45 63.4844 175.787C63.4844 183.123 68.9812 189.07 75.7618 189.07Z" fill="#B5AEFF"/>
<path fill-rule="evenodd" clip-rule="evenodd" d="M125.93 108.586C123.458 111.305 122.053 114.951 122.008 118.764C122.008 114.947 120.606 111.287 118.112 108.589C115.618 105.89 112.235 104.374 108.707 104.374C112.237 104.366 115.62 102.843 118.114 100.139C120.607 97.4357 122.008 93.7724 122.008 89.9531C122.053 93.7658 123.458 97.412 125.93 100.131C128.434 102.818 131.809 104.34 135.337 104.374C131.815 104.406 128.442 105.916 125.93 108.586V108.586Z" fill="#FFCFD1"/>
<path fill-rule="evenodd" clip-rule="evenodd" d="M512.41 27.7319C509.939 30.4506 508.534 34.0968 508.488 37.9095C508.488 34.0902 507.088 30.4268 504.594 27.7233C502.101 25.0197 498.718 23.4968 495.188 23.4887C498.715 23.4887 502.098 21.9726 504.592 19.274C507.087 16.5753 508.488 12.9151 508.488 9.09863C508.496 12.9179 509.903 16.5781 512.402 19.2758C514.901 21.9736 518.287 23.4887 521.817 23.4887C518.293 23.5382 514.923 25.0584 512.41 27.7319V27.7319Z" fill="#FFCFD1"/>
<path fill-rule="evenodd" clip-rule="evenodd" d="M520.195 191.404C517.705 194.121 516.297 197.785 516.273 201.612C516.277 199.72 515.936 197.845 515.269 196.096C514.602 194.346 513.623 192.756 512.388 191.417C511.152 190.077 509.685 189.015 508.069 188.29C506.454 187.564 504.722 187.191 502.973 187.191C504.722 187.191 506.454 186.818 508.069 186.093C509.685 185.368 511.152 184.305 512.388 182.966C513.623 181.626 514.602 180.036 515.269 178.287C515.936 176.537 516.277 174.663 516.273 172.771C516.269 174.665 516.612 176.542 517.28 178.294C517.949 180.045 518.93 181.637 520.169 182.977C521.407 184.316 522.878 185.379 524.497 186.102C526.116 186.825 527.851 187.195 529.602 187.191C526.08 187.22 522.706 188.731 520.195 191.404V191.404Z" fill="#D8F2C8"/>
<path d="M192.218 168.878C189.114 169.535 188.075 174.279 188.618 174.75C189.161 175.221 190.371 172.731 193.273 172.243C195.786 171.823 197.462 173.236 197.695 172.798C197.927 172.361 195.274 168.222 192.218 168.878Z" fill="#F59DB6"/>
<path d="M217.401 169.97C217.634 170.508 219.604 169.162 222.304 169.97C225.004 170.778 225.873 172.83 226.292 172.51C226.711 172.191 225.997 167.278 223.033 166.42C220.07 165.562 217.091 169.28 217.401 169.97Z" fill="#F59DB6"/>
<path d="M215.369 175.288C214.639 174.447 213.057 176.029 208.961 176.55C202.754 177.324 199.651 174.599 198.705 175.928C197.246 177.946 201.451 187.923 207.44 187.704C213.429 187.485 216.889 177.038 215.369 175.288Z" fill="white"/>
<path d="M209.395 164.234C209.79 164.763 209.988 165.434 209.947 166.114C209.907 166.793 209.632 167.432 209.177 167.901C208.757 168.305 208.227 168.549 207.667 168.598C207.108 168.646 206.549 168.496 206.074 168.171" stroke="#473E6B" stroke-width="0.88" stroke-miterlimit="10" stroke-linecap="round"/>
<path d="M220.86 160.213C220.365 159.393 219.706 158.705 218.933 158.198C218.159 157.691 217.291 157.38 216.392 157.285C215.301 157.224 214.217 157.494 213.26 158.064C212.303 158.635 211.512 159.484 210.977 160.516" stroke="#473E6B" stroke-width="0.75" stroke-miterlimit="10" stroke-linecap="round"/>
<path d="M202.973 160.483C202.405 159.728 201.697 159.11 200.895 158.67C200.094 158.229 199.216 157.976 198.318 157.925C197.291 157.92 196.278 158.176 195.359 158.673C194.44 159.17 193.641 159.893 193.027 160.785" stroke="#473E6B" stroke-width="0.75" stroke-miterlimit="10" stroke-linecap="round"/>
<path d="M221.666 148.976C221.192 148.134 220.558 147.411 219.806 146.857C219.053 146.303 218.2 145.929 217.304 145.762C216.407 145.595 215.488 145.637 214.608 145.887C213.728 146.137 212.908 146.587 212.201 147.209V147.209C212.134 147.254 212.054 147.271 211.975 147.259C211.897 147.246 211.825 147.205 211.772 147.141C211.719 147.077 211.688 146.996 211.684 146.91C211.68 146.824 211.704 146.74 211.752 146.671C212.469 145.818 213.371 145.173 214.376 144.794C215.381 144.415 216.458 144.314 217.508 144.501C218.555 144.711 219.538 145.199 220.369 145.921C221.2 146.643 221.854 147.577 222.271 148.639C222.298 148.722 222.298 148.812 222.269 148.894C222.24 148.976 222.186 149.045 222.115 149.087C222.044 149.13 221.961 149.143 221.882 149.126C221.803 149.109 221.732 149.061 221.682 148.993L221.666 148.976Z" fill="#473E6B"/>
<path d="M197.215 149.096C196.371 148.723 195.463 148.548 194.551 148.584C193.64 148.619 192.746 148.863 191.928 149.3C191.11 149.737 190.386 150.357 189.806 151.12C189.225 151.882 188.799 152.769 188.557 153.722V153.722C188.529 153.804 188.473 153.871 188.401 153.908C188.329 153.946 188.246 153.952 188.17 153.924C188.104 153.905 188.047 153.86 188.01 153.798C187.973 153.736 187.958 153.661 187.968 153.588C188.065 152.436 188.435 151.331 189.041 150.379C189.647 149.427 190.469 148.661 191.428 148.154C192.385 147.656 193.443 147.428 194.503 147.49C195.563 147.552 196.592 147.901 197.495 148.507C197.553 148.55 197.596 148.614 197.615 148.687C197.634 148.761 197.628 148.84 197.597 148.909C197.567 148.978 197.515 149.034 197.451 149.065C197.387 149.096 197.314 149.101 197.246 149.079L197.215 149.096Z" fill="#473E6B"/>
<path d="M204.832 157.02L207.284 160.317L208.509 155.421L204.832 157.02Z" fill="#B5AEFF"/>
</svg>
