<svg width="560" height="483" viewBox="0 0 560 483" fill="none" xmlns="http://www.w3.org/2000/svg">
<path opacity="0.5" d="M160 422.295V448.295C160 464.864 173.431 478.295 190 478.295H466C482.569 478.295 496 464.864 496 448.295V422.295" stroke="#EAC9F8"/>
<path d="M481.691 273.013L481.672 272.952L481.638 272.898C481.553 272.764 481.429 272.651 481.318 272.563C481.199 272.469 481.057 272.374 480.903 272.279C480.594 272.09 480.204 271.884 479.781 271.676C478.973 271.278 478.009 270.854 477.187 270.491C477.148 270.474 477.109 270.457 477.07 270.44C475.325 269.669 474.083 269.108 473.297 268.603C472.485 268.082 472.382 267.764 472.425 267.519L472.425 267.519L472.426 267.513C472.453 267.346 472.524 267.232 472.67 267.129C472.838 267.011 473.118 266.902 473.571 266.818C474.48 266.649 475.863 266.613 477.866 266.582L477.866 266.582C478.816 266.568 479.956 266.55 480.928 266.486C481.413 266.454 481.868 266.41 482.243 266.348C482.43 266.316 482.606 266.279 482.76 266.233C482.907 266.189 483.068 266.127 483.201 266.034L483.262 265.991L483.308 265.931C483.39 265.825 483.491 265.626 483.584 265.434C483.688 265.22 483.815 264.944 483.951 264.638C484.225 264.025 484.547 263.273 484.828 262.604C485.971 259.921 486.765 258.184 487.405 257.139C487.725 256.616 487.983 256.307 488.196 256.139C488.381 255.993 488.51 255.969 488.624 255.983C488.756 256.016 488.879 256.098 489.001 256.318C489.14 256.569 489.259 256.968 489.348 257.577C489.526 258.794 489.561 260.652 489.573 263.351L489.573 263.351C489.573 263.468 489.574 263.588 489.574 263.708C489.577 264.396 489.581 265.132 489.597 265.759C489.606 266.128 489.62 266.467 489.641 266.741C489.661 266.99 489.69 267.257 489.755 267.431L489.774 267.479L489.801 267.523C489.886 267.657 490.014 267.767 490.121 267.85C490.238 267.94 490.38 268.033 490.534 268.126C490.844 268.312 491.236 268.518 491.66 268.726C492.508 269.143 493.515 269.587 494.31 269.931C496.087 270.718 497.348 271.288 498.148 271.8C498.972 272.328 499.088 272.656 499.046 272.916C499.02 273.079 498.949 273.194 498.798 273.299C498.625 273.419 498.337 273.53 497.874 273.616C496.946 273.788 495.535 273.827 493.497 273.859L493.494 273.859C493.45 273.86 493.406 273.861 493.361 273.862C492.495 273.88 491.432 273.902 490.512 273.96C490.029 273.991 489.574 274.033 489.202 274.091C489.017 274.121 488.842 274.156 488.691 274.199C488.549 274.239 488.387 274.297 488.254 274.391L488.199 274.43L488.156 274.483C488.1 274.551 488.049 274.638 488.009 274.711C487.963 274.793 487.913 274.892 487.859 275.002C487.75 275.223 487.62 275.506 487.479 275.82C487.198 276.448 486.867 277.217 486.575 277.9C485.421 280.592 484.636 282.307 484.008 283.329C483.694 283.841 483.444 284.136 483.239 284.293C483.061 284.43 482.934 284.453 482.813 284.438L482.813 284.438L482.812 284.438L482.812 284.438L482.812 284.438L482.812 284.438L482.812 284.438L482.812 284.438L482.812 284.438L482.812 284.437L482.811 284.437L482.811 284.437L482.811 284.437L482.811 284.437L482.811 284.437L482.811 284.437L482.811 284.437L482.811 284.437L482.81 284.437L482.81 284.437L482.81 284.437L482.81 284.437L482.81 284.437L482.81 284.437L482.81 284.437L482.81 284.437L482.809 284.437L482.809 284.437L482.809 284.437L482.809 284.437L482.809 284.437L482.809 284.437L482.809 284.437L482.809 284.437L482.808 284.437L482.808 284.437L482.808 284.437L482.808 284.437L482.808 284.437L482.808 284.437L482.808 284.437L482.807 284.437L482.807 284.437L482.807 284.437L482.807 284.437L482.807 284.436L482.807 284.436L482.807 284.436L482.807 284.436L482.806 284.436L482.806 284.436L482.806 284.436L482.806 284.436L482.806 284.436L482.806 284.436L482.806 284.436L482.806 284.436L482.805 284.436L482.805 284.436L482.805 284.436L482.805 284.436L482.805 284.436L482.805 284.436L482.805 284.436L482.804 284.436L482.804 284.436L482.804 284.436L482.804 284.436L482.804 284.436L482.804 284.436L482.804 284.436L482.804 284.436L482.803 284.436L482.803 284.436L482.803 284.436L482.803 284.436L482.803 284.436L482.803 284.436L482.803 284.436L482.802 284.435L482.802 284.435L482.802 284.435L482.802 284.435L482.802 284.435L482.802 284.435L482.802 284.435L482.802 284.435L482.801 284.435L482.801 284.435L482.801 284.435L482.801 284.435L482.801 284.435L482.801 284.435L482.801 284.435L482.801 284.435L482.8 284.435L482.8 284.435L482.8 284.435L482.8 284.435L482.8 284.435L482.8 284.435L482.8 284.435L482.799 284.435L482.799 284.435L482.799 284.435L482.799 284.435L482.799 284.435L482.799 284.435L482.799 284.435L482.799 284.435L482.798 284.435L482.798 284.435L482.798 284.435L482.798 284.435L482.798 284.434L482.798 284.434L482.798 284.434L482.797 284.434L482.797 284.434L482.797 284.434L482.797 284.434L482.797 284.434L482.797 284.434L482.797 284.434L482.797 284.434L482.796 284.434L482.796 284.434L482.796 284.434L482.796 284.434L482.796 284.434L482.796 284.434L482.796 284.434L482.796 284.434L482.795 284.434L482.795 284.434L482.795 284.434L482.795 284.434L482.795 284.434L482.795 284.434L482.795 284.434L482.794 284.434L482.794 284.434L482.794 284.434L482.794 284.434L482.794 284.434L482.794 284.434L482.794 284.434L482.794 284.434L482.793 284.433L482.793 284.433L482.793 284.433L482.793 284.433L482.793 284.433L482.793 284.433L482.793 284.433L482.793 284.433L482.792 284.433L482.792 284.433L482.792 284.433L482.792 284.433L482.792 284.433L482.792 284.433L482.792 284.433L482.792 284.433L482.791 284.433L482.791 284.433L482.791 284.433L482.791 284.433L482.791 284.433L482.791 284.433L482.791 284.433L482.79 284.433L482.79 284.433L482.79 284.433L482.79 284.433L482.79 284.433L482.79 284.433L482.79 284.433L482.79 284.433L482.789 284.433L482.789 284.433L482.789 284.433L482.789 284.433L482.789 284.433L482.789 284.432L482.789 284.432L482.789 284.432L482.789 284.432L482.788 284.432L482.788 284.432L482.788 284.432L482.788 284.432L482.788 284.432L482.788 284.432L482.788 284.432L482.788 284.432L482.787 284.432L482.787 284.432L482.787 284.432L482.787 284.432L482.787 284.432L482.787 284.432L482.787 284.432L482.787 284.432L482.786 284.432L482.786 284.432L482.786 284.432L482.786 284.432L482.786 284.432L482.786 284.432L482.786 284.432L482.786 284.432L482.786 284.432L482.785 284.432L482.785 284.432L482.785 284.432L482.785 284.432L482.785 284.432L482.785 284.432L482.785 284.432L482.785 284.432L482.784 284.432L482.784 284.431L482.784 284.431L482.784 284.431L482.784 284.431L482.784 284.431L482.784 284.431L482.784 284.431L482.784 284.431L482.783 284.431L482.783 284.431L482.783 284.431L482.783 284.431L482.783 284.431L482.783 284.431L482.783 284.431L482.783 284.431L482.783 284.431L482.782 284.431L482.782 284.431L482.782 284.431L482.782 284.431L482.782 284.431L482.782 284.431L482.782 284.431L482.782 284.431L482.782 284.431L482.782 284.431L482.781 284.431L482.781 284.431L482.781 284.431L482.781 284.431L482.781 284.431L482.781 284.431L482.781 284.431L482.781 284.431L482.781 284.431L482.78 284.431L482.78 284.431L482.78 284.431L482.78 284.431L482.78 284.431L482.78 284.431L482.78 284.431L482.763 284.427C482.643 284.4 482.536 284.338 482.424 284.145C482.299 283.927 482.184 283.564 482.094 282.972C481.915 281.794 481.863 279.914 481.848 276.992C481.85 276.215 481.846 275.344 481.826 274.619C481.817 274.257 481.803 273.927 481.784 273.662C481.767 273.42 481.742 273.171 481.691 273.013Z" fill="#F5F4FF" stroke="#5E58A5"/>
<path d="M500.929 377.532C501.904 377.712 502.956 377.455 503.792 376.779L504.085 376.542C506.732 374.359 508.918 374.001 511.679 373.565C514.797 373.076 518.677 372.468 522.975 368.838C527.273 365.207 528.494 361.467 529.483 358.466C530.352 355.813 531.047 353.714 533.673 351.437C533.673 351.437 533.715 351.403 533.734 351.374L533.919 351.21C536.597 348.946 538.813 348.607 541.597 348.166C544.715 347.677 548.595 347.069 552.893 343.438C554.346 342.207 554.53 340.024 553.299 338.572C552.068 337.119 549.885 336.935 548.433 338.166C545.629 340.531 543.39 340.876 540.559 341.327C537.324 341.842 533.678 342.399 529.5 345.904C525.174 349.516 523.993 353.1 522.94 356.262C522.04 358.997 521.332 361.147 518.533 363.536C515.73 365.902 513.491 366.247 510.66 366.698C507.518 367.192 503.995 367.746 499.977 370.97C499.935 371.004 499.87 371.043 499.833 371.1L499.731 371.196C499.63 371.293 499.504 371.394 499.402 371.491C497.955 372.745 497.789 374.899 499.02 376.352C499.55 376.974 500.28 377.38 501.023 377.512L500.929 377.532Z" fill="#EAC9F8" stroke="#483E6E" stroke-width="0.6" stroke-linecap="round" stroke-linejoin="round"/>
<path d="M526.668 425.695C527.102 426.436 527.908 426.85 528.756 426.787L534.344 426.443C534.513 426.43 534.656 426.522 534.693 426.686L536.456 432.011C536.736 432.836 537.46 433.44 538.32 433.546C539.181 433.652 540.037 433.291 540.542 432.564L548.161 421.308C548.49 420.792 548.63 420.195 548.519 419.58C548.39 418.992 548.049 418.452 547.557 418.117L537.52 411.338C537.004 411.009 536.407 410.869 535.791 410.98C535.204 411.109 534.663 411.45 534.328 411.942L526.71 423.198C526.205 423.925 526.19 424.864 526.624 425.606C526.624 425.606 526.634 425.653 526.64 425.676L526.668 425.695Z" fill="#D6F2C8" stroke="#463E6B" stroke-width="0.65" stroke-miterlimit="10"/>
<path fill-rule="evenodd" clip-rule="evenodd" d="M342.052 7.23011L356.7 15.7134C365.053 20.4692 374.305 23.0399 383.942 23.0399H400.904C420.307 23.0399 438.169 33.3228 447.934 50.1609L456.415 64.8139C461.17 73.0402 467.98 79.8525 476.333 84.7369L490.982 93.2202C507.686 102.86 517.966 120.855 517.966 140.136V157.102C517.966 166.614 520.536 175.997 525.291 184.223L533.772 198.876C543.409 215.714 543.409 236.408 533.772 253.118L525.291 267.771C520.536 275.997 517.966 285.38 517.966 294.892V311.859C517.966 331.267 507.686 349.134 490.853 358.903L476.204 367.386C467.98 372.142 461.17 378.954 456.287 387.309L447.806 401.962C438.169 418.8 420.179 429.083 400.775 429.083H383.814C374.305 429.083 364.924 431.653 356.7 436.409L342.052 444.893C325.218 454.533 304.53 454.533 287.825 444.893L273.176 436.409C264.952 431.653 255.572 429.083 246.063 429.083H229.101C209.698 429.083 191.837 418.8 182.071 401.962L173.59 387.309C168.835 379.083 162.025 372.27 153.672 367.386L139.024 358.903C122.19 349.262 111.91 331.267 111.91 311.859V294.892C111.91 285.38 109.34 275.997 104.586 267.771L96.105 253.118C86.4676 236.28 86.4676 215.586 96.105 198.876L104.586 184.223C109.34 175.997 111.91 166.614 111.91 157.102V140.136C111.91 120.727 122.19 102.86 139.024 93.0917L153.672 84.6083C161.896 79.8525 168.707 73.0402 173.59 64.6854L182.071 50.0323C191.708 33.3228 209.698 23.0399 228.973 23.0399H245.935C255.443 23.0399 264.824 20.4692 273.048 15.7134L287.697 7.23011C304.658 -2.41004 325.218 -2.41004 342.052 7.23011Z" fill="#F8F8F8"/>
<path d="M325.899 217.885C366.408 217.885 399.248 185.045 399.248 144.535C399.248 104.025 366.408 71.1855 325.899 71.1855C285.389 71.1855 252.549 104.025 252.549 144.535C252.549 185.045 285.389 217.885 325.899 217.885Z" fill="#EBFAFF" stroke="#2E2A47" stroke-width="1.5" stroke-miterlimit="10" stroke-linecap="round" stroke-linejoin="round"/>
<path d="M258.802 148.864C254.233 108.702 283.092 72.1474 323.253 67.578C363.415 63.0087 399.97 91.8676 404.539 132.03C409.109 172.192 380.25 208.746 340.088 213.315" fill="#EBFAFF"/>
<path d="M258.802 148.864C254.233 108.702 283.092 72.1474 323.253 67.578C363.415 63.0087 399.97 91.8676 404.539 132.03C409.109 172.192 380.25 208.746 340.088 213.315" stroke="#2E2A47" stroke-width="1.5" stroke-miterlimit="10" stroke-linecap="round" stroke-linejoin="round"/>
<path d="M349.225 163.294C348.023 163.294 347.061 162.813 346.339 162.091C344.656 160.408 338.884 155.358 329.986 155.358H329.745C321.328 155.358 315.556 160.167 313.632 162.091C312.911 162.813 311.949 163.294 310.747 163.294C309.544 163.294 308.582 162.813 307.861 162.091C307.139 161.37 306.658 160.167 306.658 159.205C306.658 158.003 307.139 157.041 307.861 156.32C310.506 153.674 318.202 147.421 329.505 147.181H329.986C342.01 147.181 349.947 154.155 352.111 156.32C353.794 158.003 353.794 160.408 352.111 162.091C351.389 162.813 350.187 163.294 349.225 163.294Z" fill="#C2E6F5"/>
<path d="M329.987 148.864C341.29 148.864 348.745 155.357 350.91 157.522C351.872 158.484 351.872 159.927 350.91 160.889C350.429 161.37 349.948 161.61 349.226 161.61C348.745 161.61 348.024 161.37 347.543 160.889C345.859 159.205 339.366 153.674 329.747 153.674H329.506C320.367 153.674 314.355 158.724 312.191 160.889C311.71 161.37 311.229 161.61 310.507 161.61C310.026 161.61 309.305 161.37 308.824 160.889C307.862 159.927 307.862 158.484 308.824 157.522C311.469 154.876 318.443 149.105 329.266 148.864C329.747 148.864 329.747 148.864 329.987 148.864ZM329.987 145.257H329.506C317.482 145.497 309.305 151.991 306.419 154.876C304.014 157.281 304.014 160.889 306.419 163.294C307.621 164.496 309.064 164.977 310.507 164.977C312.191 164.977 313.634 164.256 314.596 163.294C316.52 161.37 321.57 157.041 329.506 157.041H329.747C337.923 157.041 343.454 161.851 344.897 163.294C346.1 164.496 347.543 164.977 348.986 164.977C350.669 164.977 352.112 164.256 353.074 163.294C354.277 162.091 354.758 160.648 354.758 159.205C354.758 157.522 354.036 156.079 353.074 155.117C351.15 152.712 342.493 145.257 329.987 145.257Z" fill="#2E2A47"/>
<path d="M299.924 151.991C298.721 151.991 297.759 151.51 297.038 150.788C295.355 149.105 295.355 146.459 297.038 145.016C301.126 140.928 312.189 131.789 329.264 131.549H329.745C347.541 131.549 359.325 141.89 362.692 145.016C364.375 146.7 364.375 149.105 362.692 150.788C361.97 151.51 360.768 151.991 359.806 151.991C358.604 151.991 357.642 151.51 356.92 150.788C354.275 148.143 344.655 139.726 329.985 139.726H329.504C315.556 139.966 306.417 147.662 303.05 150.788C302.088 151.51 301.126 151.991 299.924 151.991Z" fill="#C2E6F5"/>
<path d="M329.746 133.232C346.821 133.232 358.124 143.092 361.25 146.219C362.212 147.181 362.212 148.624 361.25 149.586C360.769 150.067 360.288 150.307 359.567 150.307C359.086 150.307 358.364 150.067 357.883 149.586C354.998 146.94 344.897 138.042 329.746 138.042C329.506 138.042 329.265 138.042 329.265 138.042C314.595 138.283 304.976 146.219 301.609 149.586C301.128 150.067 300.647 150.307 299.925 150.307C299.444 150.307 298.723 150.067 298.242 149.586C297.28 148.624 297.28 147.181 298.242 146.219C302.09 142.371 312.912 133.473 329.025 133.232C329.506 133.232 329.746 133.232 329.746 133.232ZM329.746 129.625H329.265C311.709 129.865 300.166 139.485 295.837 143.573C293.432 145.978 293.432 149.586 295.837 151.991C297.039 153.193 298.482 153.674 299.925 153.674C301.609 153.674 303.052 152.952 304.014 151.991C307.14 148.864 316.038 141.649 329.265 141.409H329.746C343.695 141.409 352.833 149.586 355.479 151.991C356.681 153.193 358.124 153.674 359.567 153.674C361.25 153.674 362.693 152.952 363.655 151.991C366.06 149.586 365.82 145.978 363.655 143.573C360.529 140.447 348.264 129.625 329.746 129.625Z" fill="#2E2A47"/>
<path d="M373.754 140.687C372.551 140.687 371.589 140.206 370.868 139.485C366.779 135.637 352.109 122.65 329.984 122.65H329.263C308.1 122.891 294.151 134.434 289.101 139.485C288.379 140.206 287.417 140.687 286.215 140.687C285.012 140.687 284.05 140.206 283.329 139.485C281.646 137.801 281.646 135.156 283.329 133.713C289.101 127.941 304.973 114.714 329.263 114.474H330.225C355.476 114.474 372.311 129.144 376.88 133.713C378.563 135.396 378.563 137.801 376.88 139.485C375.918 140.206 374.715 140.687 373.754 140.687Z" fill="#C2E6F5"/>
<path d="M329.986 116.157C354.516 116.157 370.869 130.346 375.439 134.915C376.401 135.877 376.401 137.32 375.439 138.282C374.958 138.763 374.477 139.004 373.755 139.004C373.274 139.004 372.553 138.763 372.072 138.282C367.983 134.194 352.592 120.967 329.745 120.967C329.505 120.967 329.264 120.967 329.024 120.967C307.139 121.207 292.71 133.232 287.659 138.282C287.178 138.763 286.697 139.004 285.976 139.004C285.495 139.004 284.774 138.763 284.293 138.282C283.331 137.32 283.331 135.877 284.293 134.915C289.824 129.384 305.456 116.398 328.783 116.157C329.264 116.157 329.505 116.157 329.986 116.157ZM329.986 112.55H329.024C304.253 112.79 287.9 126.498 281.888 132.27C279.483 134.675 279.483 138.282 281.888 140.687C283.09 141.89 284.533 142.371 285.976 142.371C287.659 142.371 289.102 141.649 290.064 140.687C294.874 135.877 308.582 124.574 329.024 124.334H329.745C351.149 124.334 365.578 136.839 369.426 140.687C370.629 141.89 372.072 142.371 373.515 142.371C375.198 142.371 376.641 141.649 377.603 140.687C378.805 139.485 379.286 138.042 379.286 136.599C379.286 134.915 378.565 133.473 377.603 132.511C373.274 127.701 355.959 112.55 329.986 112.55Z" fill="#2E2A47"/>
<path d="M311.949 49.0603C311.709 49.0603 311.468 49.0603 311.228 48.8198C310.747 48.3389 310.747 47.8579 311.228 47.3769C312.19 46.4149 315.316 43.7695 319.645 43.7695C319.645 43.7695 319.645 43.7695 319.886 43.7695C324.455 43.7695 327.581 46.4149 328.543 47.3769C329.024 47.8579 329.024 48.3389 328.543 48.8198C328.062 49.3008 327.581 49.3008 327.1 48.8198C326.379 48.0984 323.733 45.6935 319.645 45.6935C315.797 45.6935 313.392 47.8579 312.43 48.8198C312.43 49.0603 312.19 49.0603 311.949 49.0603Z" fill="#2E2A47"/>
<path d="M307.619 44.4911C307.379 44.4911 307.138 44.4911 306.898 44.2506C306.417 43.7696 306.417 43.2886 306.898 42.8076C308.581 41.1242 312.91 37.5168 319.644 37.5168C326.859 37.5168 331.668 41.6052 332.871 42.8076C333.352 43.2886 333.352 43.7696 332.871 44.2506C332.39 44.7316 331.909 44.7316 331.428 44.2506C330.225 43.0481 325.897 39.4408 319.644 39.4408C313.632 39.4408 309.543 42.8076 308.1 44.2506C308.1 44.2506 307.86 44.4911 307.619 44.4911Z" fill="#2E2A47"/>
<path d="M301.852 39.6813C301.611 39.6813 301.371 39.6813 301.13 39.4408C300.649 38.9598 300.649 38.4788 301.13 37.9978C303.535 35.5929 309.788 30.3021 319.648 30.3021H319.889C329.989 30.3021 336.963 36.3144 338.647 37.9978C339.128 38.4788 339.128 38.9598 338.647 39.4408C338.166 39.9218 337.685 39.9218 337.204 39.4408C335.52 37.7573 329.027 32.226 319.408 32.226C310.269 32.226 304.497 37.2764 302.333 39.4408C302.333 39.6813 302.092 39.6813 301.852 39.6813Z" fill="#2E2A47"/>
<path d="M409.348 83.4505C409.107 83.4505 408.867 83.4505 408.626 83.4505C408.145 83.21 407.905 82.729 408.145 82.248C408.867 80.8051 410.791 77.6787 415.119 76.2357C415.119 76.2357 415.119 76.2357 415.36 76.2357C419.689 74.7928 423.537 76.4762 424.739 76.9572C425.22 77.1977 425.46 77.6787 425.22 78.1597C424.979 78.6406 424.498 78.8811 424.017 78.6407C423.056 78.1597 419.689 76.7167 416.081 78.1597C412.474 79.3621 410.791 82.248 410.31 83.21C409.588 83.21 409.588 83.4505 409.348 83.4505Z" fill="#2E2A47"/>
<path d="M403.58 80.3243C403.34 80.3243 403.099 80.3243 402.859 80.3243C402.378 80.0838 402.137 79.6028 402.378 79.1218C403.34 77.1979 406.466 72.1476 412.959 69.9832C419.693 67.5782 425.705 70.2237 427.148 70.9451C427.629 71.1856 427.87 71.6666 427.629 72.1476C427.389 72.6286 426.908 72.8691 426.427 72.6286C424.984 71.9071 419.693 69.7427 413.681 71.6666C407.909 73.5905 405.263 77.9194 404.301 79.8433C404.061 80.0838 403.82 80.3243 403.58 80.3243Z" fill="#2E2A47"/>
<path d="M396.603 77.6786C396.363 77.6786 396.122 77.6786 395.882 77.6786C395.401 77.4381 395.16 76.9571 395.401 76.4762C396.844 73.5903 401.413 66.616 410.552 63.2492H410.792C420.412 60.1228 428.829 63.4897 430.994 64.6921C431.475 64.9326 431.715 65.4136 431.475 65.8946C431.234 66.3756 430.753 66.616 430.272 66.3756C428.108 65.1731 420.172 62.0467 411.033 65.1731C402.375 68.059 398.287 74.5522 397.084 77.4381C397.084 77.4381 396.844 77.6786 396.603 77.6786Z" fill="#2E2A47"/>
<path d="M409.831 248.187C409.35 247.946 409.11 247.706 408.869 247.465C408.629 246.744 408.869 245.782 409.591 245.541C411.755 244.579 417.527 242.656 424.261 245.06H424.501C431.476 247.706 434.602 253.478 435.323 255.402C435.564 256.123 435.323 257.085 434.602 257.326C433.881 257.566 432.919 257.326 432.678 256.604C431.957 255.161 429.311 250.111 423.299 247.946C417.527 245.782 412.717 247.465 410.793 248.427C410.793 248.187 410.312 248.187 409.831 248.187Z" fill="#2E2A47"/>
<path d="M405.984 238.808C405.503 238.567 405.262 238.327 405.022 238.086C404.781 237.365 405.022 236.403 405.743 236.162C409.11 234.719 417.768 231.593 427.868 235.441C438.691 239.529 443.5 248.427 444.703 251.073C444.943 251.794 444.703 252.756 443.981 252.997C443.26 253.237 442.298 252.997 442.057 252.275C440.855 249.87 436.767 241.694 426.906 238.327C417.768 234.96 409.832 237.605 406.946 239.048C406.946 238.808 406.465 238.808 405.984 238.808Z" fill="#2E2A47"/>
<path d="M399.972 228.226C399.491 227.986 399.251 227.745 399.01 227.505C398.77 226.783 399.01 225.821 399.732 225.581C404.541 223.416 417.287 219.087 431.717 224.619C431.957 224.619 431.957 224.859 432.198 224.859C447.349 230.631 454.323 243.377 456.006 247.225C456.247 247.946 456.006 248.908 455.285 249.149C454.563 249.389 453.602 249.149 453.361 248.427C451.678 244.82 445.184 232.795 430.755 227.505C417.047 222.454 405.503 226.543 400.934 228.467C400.934 228.467 400.453 228.467 399.972 228.226Z" fill="#2E2A47"/>
<path d="M380.973 52.9083L380.732 52.6678C380.732 52.4273 380.732 52.1868 380.973 51.9463C381.694 51.7058 383.378 50.9844 385.302 51.7058C387.466 52.4273 388.428 54.3512 388.669 54.8322C388.669 55.0727 388.669 55.3132 388.428 55.5537C388.188 55.5537 387.947 55.5537 387.707 55.3132C387.466 54.8322 386.745 53.3893 384.821 52.6678C383.137 51.9463 381.694 52.4273 380.973 52.9083Z" fill="#2E2A47"/>
<path d="M379.77 50.0222L379.529 49.7818C379.529 49.5413 379.529 49.3008 379.77 49.0603C380.732 48.5793 383.377 47.6173 386.504 48.8198C389.63 50.0222 391.073 52.6676 391.554 53.3891C391.554 53.6296 391.554 53.8701 391.313 54.1106C391.073 54.1106 390.832 54.1106 390.592 53.8701C390.351 53.1486 388.908 50.7437 386.023 49.7818C383.377 48.8198 380.972 49.5413 380.01 50.0222H379.77Z" fill="#2E2A47"/>
<path d="M377.844 46.896L377.604 46.6555C377.604 46.415 377.603 46.1745 377.844 45.934C379.287 45.2126 383.135 44.0101 387.464 45.6936C387.464 45.6936 387.464 45.6936 387.704 45.6936C392.273 47.377 394.197 51.2248 394.919 52.4273C394.919 52.6678 394.919 52.9083 394.678 53.1488C394.438 53.1488 394.197 53.1488 393.957 52.9083C393.476 51.9463 391.552 48.339 387.223 46.6555C383.135 45.2126 379.527 46.415 378.325 46.896C378.084 46.896 378.084 46.896 377.844 46.896Z" fill="#2E2A47"/>
<path d="M353.076 75.9954C360.772 82.4886 369.67 90.9058 378.328 101.247C385.542 109.905 391.314 118.322 395.884 125.777C394.681 119.765 391.314 107.74 381.695 96.1966C371.113 83.4506 358.848 78.1598 353.076 75.9954Z" fill="white"/>
<path d="M56.0665 288.349H30.334V314.081H56.0665V288.349Z" stroke="#B5AEFF" stroke-width="0.7819" stroke-miterlimit="10" stroke-linecap="round" stroke-linejoin="round"/>
<path d="M56.0665 324.903H30.334V350.636H56.0665V324.903Z" stroke="#B5AEFF" stroke-width="0.7819" stroke-miterlimit="10" stroke-linecap="round" stroke-linejoin="round"/>
<path d="M89.9748 328.751H71.457V347.269H89.9748V328.751Z" fill="#B5AEFF" stroke="#B5AEFF" stroke-width="0.7819" stroke-miterlimit="10" stroke-linecap="round" stroke-linejoin="round"/>
<path d="M93.5821 288.349H67.8496V314.081H93.5821V288.349Z" stroke="#B5AEFF" stroke-width="0.7819" stroke-miterlimit="10" stroke-linecap="round" stroke-linejoin="round"/>
<path d="M18.0703 301.095V276.083H43.3218" stroke="#B5AEFF" stroke-width="0.7819" stroke-miterlimit="10" stroke-linecap="round" stroke-linejoin="round"/>
<path d="M80.8379 276.083H105.849V301.095" stroke="#B5AEFF" stroke-width="0.7819" stroke-miterlimit="10" stroke-linecap="round" stroke-linejoin="round"/>
<path d="M105.849 337.89V362.901H80.8379" stroke="#B5AEFF" stroke-width="0.7819" stroke-miterlimit="10" stroke-linecap="round" stroke-linejoin="round"/>
<path d="M43.3218 362.901H18.0703V337.89" stroke="#B5AEFF" stroke-width="0.7819" stroke-miterlimit="10" stroke-linecap="round" stroke-linejoin="round"/>
<path d="M184.973 109.183C184.492 109.424 184.011 109.424 183.53 109.424C182.328 109.183 181.847 107.981 182.087 107.019C182.809 103.892 185.695 96.1966 194.112 91.3868C194.112 91.3868 194.352 91.3868 194.352 91.1463C203.01 86.096 211.668 87.7794 214.073 88.5009C215.275 88.7414 215.756 89.9439 215.516 90.9058C215.275 92.1083 214.073 92.5893 213.111 92.3488C210.946 91.8678 203.491 90.4248 196.036 94.7537C189.062 98.842 186.657 105.335 185.935 107.981C185.935 108.702 185.454 108.943 184.973 109.183Z" fill="#B5AEFF"/>
<path d="M171.983 105.335C171.502 105.576 171.021 105.576 170.54 105.576C169.338 105.335 168.857 104.133 169.097 103.171C170.3 98.6014 174.629 86.8173 187.134 79.6026C200.361 71.6664 213.588 74.3118 217.436 75.2738C218.638 75.5143 219.119 76.7167 218.879 77.6787C218.638 78.8811 217.436 79.3621 216.474 79.1216C213.107 78.1597 201.083 75.7547 189.298 82.9695C178.236 89.4627 174.388 100.044 173.186 104.133C172.705 104.614 172.464 105.095 171.983 105.335Z" fill="#B5AEFF"/>
<path d="M156.114 102.93C155.633 103.171 155.152 103.171 154.671 103.171C153.469 102.93 152.988 101.728 153.228 100.766C155.152 94.0321 161.164 77.1978 179.201 66.6162C179.442 66.3757 179.682 66.3757 179.923 66.1352C198.681 55.3131 217.68 58.9205 222.97 60.3634C224.173 60.6039 224.654 61.8064 224.413 62.7683C224.173 63.9708 222.97 64.4518 222.008 64.2113C216.958 63.0088 198.921 59.4015 181.366 69.9831C164.772 79.8432 159 95.4751 157.316 101.728C157.076 102.209 156.595 102.449 156.114 102.93Z" fill="#B5AEFF"/>
<path d="M230.425 329.473H79.156C76.2701 329.473 73.8652 327.068 73.8652 324.182V194.317C73.8652 191.431 76.2701 189.026 79.156 189.026H230.425C233.311 189.026 235.716 191.431 235.716 194.317V324.182C235.716 327.068 233.311 329.473 230.425 329.473Z" fill="#5E58A5" stroke="#473E6B" stroke-width="0.7165" stroke-miterlimit="10" stroke-linecap="round" stroke-linejoin="round"/>
<path d="M230.425 324.182H79.156C76.2701 324.182 73.8652 321.777 73.8652 318.891V189.026C73.8652 186.14 76.2701 183.735 79.156 183.735H230.425C233.311 183.735 235.716 186.14 235.716 189.026V318.891C235.716 321.777 233.311 324.182 230.425 324.182Z" fill="#EAC9F8" stroke="#473E6B" stroke-width="0.7165" stroke-miterlimit="10" stroke-linecap="round" stroke-linejoin="round"/>
<path d="M80.8398 315.524V191.19C80.8398 190.95 81.0803 190.95 81.0803 190.95H228.261C228.501 190.95 228.501 191.19 228.501 191.19V315.524C228.501 316.246 227.78 316.967 227.058 316.967H82.5233C81.5613 317.208 80.8398 316.486 80.8398 315.524Z" fill="white" stroke="#473E6B" stroke-width="0.7165" stroke-miterlimit="10" stroke-linecap="round" stroke-linejoin="round"/>
<path opacity="0.1" d="M155.392 310.955C187.268 310.955 213.109 285.113 213.109 253.237C213.109 221.36 187.268 195.519 155.392 195.519C123.515 195.519 97.6738 221.36 97.6738 253.237C97.6738 285.113 123.515 310.955 155.392 310.955Z" fill="#B5AEFF"/>
<path d="M150.583 230.631H131.104V250.111H150.583V230.631Z" stroke="#473E6B" stroke-width="1.433" stroke-miterlimit="10" stroke-linecap="round" stroke-linejoin="round"/>
<path d="M150.583 258.047H131.104V277.526H150.583V258.047Z" stroke="#473E6B" stroke-width="1.433" stroke-miterlimit="10" stroke-linecap="round" stroke-linejoin="round"/>
<path d="M175.831 260.933H161.883V274.881H175.831V260.933Z" fill="#473E6B" stroke="#473E6B" stroke-width="1.433" stroke-miterlimit="10" stroke-linecap="round" stroke-linejoin="round"/>
<path d="M178.718 230.631H159.238V250.111H178.718V230.631Z" stroke="#473E6B" stroke-width="1.433" stroke-miterlimit="10" stroke-linecap="round" stroke-linejoin="round"/>
<path d="M121.723 240.25V221.492H140.721" stroke="#473E6B" stroke-width="1.433" stroke-miterlimit="10" stroke-linecap="round" stroke-linejoin="round"/>
<path d="M168.857 221.492H187.616V240.25" stroke="#473E6B" stroke-width="1.433" stroke-miterlimit="10" stroke-linecap="round" stroke-linejoin="round"/>
<path d="M187.616 267.907V286.665H168.857" stroke="#473E6B" stroke-width="1.433" stroke-miterlimit="10" stroke-linecap="round" stroke-linejoin="round"/>
<path d="M140.721 286.665H121.723V267.907" stroke="#473E6B" stroke-width="1.433" stroke-miterlimit="10" stroke-linecap="round" stroke-linejoin="round"/>
<path d="M89.255 164.015L71.2182 180.849C69.2942 182.773 68.0918 185.419 68.0918 188.064C68.0918 196 74.585 202.493 82.5212 202.493C90.4574 202.493 96.9507 196 96.9507 188.064V183.735L114.026 163.774H89.255V164.015Z" fill="#EAC9F8" stroke="#473E6B" stroke-width="0.7165" stroke-miterlimit="10" stroke-linecap="round" stroke-linejoin="round"/>
<path d="M114.505 164.015L97.4297 183.976V188.304C97.4297 196.241 103.923 202.734 111.859 202.734C119.795 202.734 126.289 196.241 126.289 188.304V183.976L136.389 164.015H114.505Z" fill="white" stroke="#473E6B" stroke-width="0.7165" stroke-miterlimit="10" stroke-linecap="round" stroke-linejoin="round"/>
<path d="M136.39 164.015L126.289 183.976V188.304C126.289 196.241 132.782 202.734 140.719 202.734C148.655 202.734 155.148 196.241 155.148 188.304V183.976V164.015H136.39Z" fill="#EAC9F8" stroke="#473E6B" stroke-width="0.7165" stroke-miterlimit="10" stroke-linecap="round" stroke-linejoin="round"/>
<path d="M221.524 164.015L239.561 180.849C241.485 182.773 242.688 185.419 242.688 188.064C242.688 196 236.194 202.493 228.258 202.493C220.322 202.493 213.829 196 213.829 188.064V183.735L196.754 163.774H221.524V164.015Z" fill="white" stroke="#473E6B" stroke-width="0.7165" stroke-miterlimit="10" stroke-linecap="round" stroke-linejoin="round"/>
<path d="M196.271 164.015L213.346 183.976V188.304C213.346 196.241 206.853 202.734 198.917 202.734C190.981 202.734 184.487 196.241 184.487 188.304V183.976L174.387 164.015H196.271Z" fill="#EAC9F8" stroke="#473E6B" stroke-width="0.7165" stroke-miterlimit="10" stroke-linecap="round" stroke-linejoin="round"/>
<path d="M174.389 164.015L184.49 183.976V188.304C184.49 196.241 177.997 202.734 170.06 202.734C162.124 202.734 155.631 196.241 155.631 188.304V183.976V164.015H174.389Z" fill="white" stroke="#473E6B" stroke-width="0.7165" stroke-miterlimit="10" stroke-linecap="round" stroke-linejoin="round"/>
<path d="M69.2949 183.976H241.486" stroke="#473E6B" stroke-width="0.7165" stroke-miterlimit="10" stroke-linecap="round" stroke-linejoin="round"/>
<path d="M129.184 387.912H117.881V399.215H129.184V387.912Z" stroke="#2E2A47" stroke-width="0.7819" stroke-miterlimit="10" stroke-linecap="round" stroke-linejoin="round"/>
<path d="M129.184 404.025H117.881V415.328H129.184V404.025Z" stroke="#2E2A47" stroke-width="0.7819" stroke-miterlimit="10" stroke-linecap="round" stroke-linejoin="round"/>
<path d="M144.095 405.708H135.918V413.885H144.095V405.708Z" fill="#2E2A47" stroke="#2E2A47" stroke-width="0.7819" stroke-miterlimit="10" stroke-linecap="round" stroke-linejoin="round"/>
<path d="M145.534 387.912H134.23V399.215H145.534V387.912Z" stroke="#2E2A47" stroke-width="0.7819" stroke-miterlimit="10" stroke-linecap="round" stroke-linejoin="round"/>
<path d="M112.348 393.684V382.621H123.41" stroke="#2E2A47" stroke-width="0.7819" stroke-miterlimit="10" stroke-linecap="round" stroke-linejoin="round"/>
<path d="M140.004 382.621H150.826V393.684" stroke="#2E2A47" stroke-width="0.7819" stroke-miterlimit="10" stroke-linecap="round" stroke-linejoin="round"/>
<path d="M150.826 409.797V420.619H140.004" stroke="#2E2A47" stroke-width="0.7819" stroke-miterlimit="10" stroke-linecap="round" stroke-linejoin="round"/>
<path d="M123.41 420.619H112.348V409.797" stroke="#2E2A47" stroke-width="0.7819" stroke-miterlimit="10" stroke-linecap="round" stroke-linejoin="round"/>
<path d="M17.5921 173.875H6.28906V185.178H17.5921V173.875Z" stroke="#2E2A47" stroke-width="0.7819" stroke-miterlimit="10" stroke-linecap="round" stroke-linejoin="round"/>
<path d="M17.5921 189.988H6.28906V201.291H17.5921V189.988Z" stroke="#2E2A47" stroke-width="0.7819" stroke-miterlimit="10" stroke-linecap="round" stroke-linejoin="round"/>
<path d="M32.5029 191.431H24.3262V199.608H32.5029V191.431Z" fill="#2E2A47" stroke="#2E2A47" stroke-width="0.7819" stroke-miterlimit="10" stroke-linecap="round" stroke-linejoin="round"/>
<path d="M33.9476 173.875H22.6445V185.178H33.9476V173.875Z" stroke="#2E2A47" stroke-width="0.7819" stroke-miterlimit="10" stroke-linecap="round" stroke-linejoin="round"/>
<path d="M1 179.406V168.584H12.0626" stroke="#2E2A47" stroke-width="0.7819" stroke-miterlimit="10" stroke-linecap="round" stroke-linejoin="round"/>
<path d="M28.416 168.584H39.4786V179.406" stroke="#2E2A47" stroke-width="0.7819" stroke-miterlimit="10" stroke-linecap="round" stroke-linejoin="round"/>
<path d="M39.4786 195.519V206.582H28.416" stroke="#2E2A47" stroke-width="0.7819" stroke-miterlimit="10" stroke-linecap="round" stroke-linejoin="round"/>
<path d="M12.0626 206.582H1V195.519" stroke="#2E2A47" stroke-width="0.7819" stroke-miterlimit="10" stroke-linecap="round" stroke-linejoin="round"/>
<path d="M61.84 68.2997H45.2461V84.8935H61.84V68.2997Z" stroke="#2E2A47" stroke-width="0.7819" stroke-miterlimit="10" stroke-linecap="round" stroke-linejoin="round"/>
<path d="M61.84 91.8677H45.2461V108.462H61.84V91.8677Z" stroke="#2E2A47" stroke-width="0.7819" stroke-miterlimit="10" stroke-linecap="round" stroke-linejoin="round"/>
<path d="M83.4852 94.2726H71.7012V106.057H83.4852V94.2726Z" fill="#2E2A47" stroke="#2E2A47" stroke-width="0.7819" stroke-miterlimit="10" stroke-linecap="round" stroke-linejoin="round"/>
<path d="M85.8888 68.2997H69.2949V84.8935H85.8888V68.2997Z" stroke="#2E2A47" stroke-width="0.7819" stroke-miterlimit="10" stroke-linecap="round" stroke-linejoin="round"/>
<path d="M37.3086 76.4763V60.3634H53.4215" stroke="#2E2A47" stroke-width="0.7819" stroke-miterlimit="10" stroke-linecap="round" stroke-linejoin="round"/>
<path d="M77.4688 60.3634H93.5816V76.4763" stroke="#2E2A47" stroke-width="0.7819" stroke-miterlimit="10" stroke-linecap="round" stroke-linejoin="round"/>
<path d="M93.5816 100.044V116.157H77.4688" stroke="#2E2A47" stroke-width="0.7819" stroke-miterlimit="10" stroke-linecap="round" stroke-linejoin="round"/>
<path d="M53.4215 116.157H37.3086V100.044" stroke="#2E2A47" stroke-width="0.7819" stroke-miterlimit="10" stroke-linecap="round" stroke-linejoin="round"/>
<path d="M500.736 390.797C502.901 384.545 500.496 377.57 494.965 373.723C458.65 349.192 423.058 327.308 391.794 310.714C383.377 304.702 372.555 301.575 361.252 302.537C338.405 304.702 320.368 323.941 319.887 347.028C319.647 361.698 326.14 374.684 336.481 383.342C336.481 383.342 336.481 383.342 336.481 383.583C354.999 413.163 375.681 443.705 398.768 475.45C402.857 480.981 410.071 482.905 416.084 480.5C454.803 464.147 487.028 430.238 500.736 390.797Z" fill="#5E58A5" stroke="#2E2A47" stroke-width="1.5" stroke-miterlimit="10" stroke-linecap="round" stroke-linejoin="round"/>
<path d="M385.783 322.017C383.859 306.866 383.859 290.272 377.366 276.083C370.632 261.654 363.658 247.224 356.443 233.035C350.912 222.213 342.254 214.518 333.837 205.86C329.027 201.05 321.332 200.81 316.522 205.619C312.193 209.708 311.712 216.201 314.598 221.011L325.661 239.288L330.47 249.148C335.28 261.654 327.344 275.602 313.877 277.767L289.828 281.614C289.106 281.614 288.625 281.614 287.904 281.614C287.423 281.614 286.701 281.855 286.22 281.855L261.69 285.943C252.311 287.627 242.691 288.589 233.312 290.272C231.629 290.513 210.706 294.36 210.706 295.322C206.137 296.284 202.77 300.613 203.251 305.664C203.732 310.473 207.82 314.081 212.63 314.321C229.705 314.562 247.02 311.435 264.095 310.714L270.107 310.473L262.652 311.676C262.412 311.676 262.171 311.676 261.931 311.676H261.69C261.45 311.676 261.209 311.676 261.209 311.676L250.147 313.84C244.375 314.802 240.046 320.093 240.767 326.105C241.248 332.118 246.539 336.446 252.551 336.206H263.855C264.095 336.206 264.335 336.206 264.335 336.206H264.576C264.816 336.206 265.057 336.206 265.297 336.206L288.144 335.484L269.626 338.611C269.145 338.611 268.664 338.851 268.183 338.851L260.007 340.294C254.716 340.775 250.628 345.104 250.628 350.635C250.628 352.8 251.589 354.724 252.792 356.407C256.399 360.736 259.285 361.217 261.931 360.976L270.107 360.736C270.588 360.736 271.069 360.736 271.55 360.736L293.675 360.014L281.651 361.938C281.41 361.938 281.17 361.938 280.929 361.938L272.993 363.381C268.905 364.103 266.019 367.951 266.5 372.039C266.981 376.127 270.588 379.254 274.677 379.013L282.613 378.773C282.853 378.773 283.094 378.773 283.334 378.773L300.409 378.292C300.89 378.292 301.131 378.292 301.612 378.292L371.113 373.241C379.05 372.76 385.302 367.71 387.948 360.976" fill="#5E58A5"/>
<path d="M385.783 322.017C383.859 306.866 383.859 290.272 377.366 276.083C370.632 261.654 363.658 247.224 356.443 233.035C350.912 222.213 342.254 214.518 333.837 205.86C329.027 201.05 321.332 200.81 316.522 205.619C312.193 209.708 311.712 216.201 314.598 221.011L325.661 239.288L330.47 249.148C335.28 261.654 327.344 275.602 313.877 277.767L289.828 281.614C289.106 281.614 288.625 281.614 287.904 281.614C287.423 281.614 286.701 281.855 286.22 281.855L261.69 285.943C252.311 287.627 242.691 288.589 233.312 290.272C231.629 290.513 210.706 294.36 210.706 295.322C206.137 296.284 202.77 300.613 203.251 305.664C203.732 310.473 207.82 314.081 212.63 314.321C229.705 314.562 247.02 311.435 264.095 310.714L270.107 310.473L262.652 311.676C262.412 311.676 262.171 311.676 261.931 311.676H261.69C261.45 311.676 261.209 311.676 261.209 311.676L250.147 313.84C244.375 314.802 240.046 320.093 240.767 326.105C241.248 332.118 246.539 336.446 252.551 336.206H263.855C264.095 336.206 264.335 336.206 264.335 336.206H264.576C264.816 336.206 265.057 336.206 265.297 336.206L288.144 335.484L269.626 338.611C269.145 338.611 268.664 338.851 268.183 338.851L260.007 340.294C254.716 340.775 250.628 345.104 250.628 350.635C250.628 352.8 251.589 354.724 252.792 356.407C256.399 360.736 259.285 361.217 261.931 360.976L270.107 360.736C270.588 360.736 271.069 360.736 271.55 360.736L293.675 360.014L281.651 361.938C281.41 361.938 281.17 361.938 280.929 361.938L272.993 363.381C268.905 364.103 266.019 367.951 266.5 372.039C266.981 376.127 270.588 379.254 274.677 379.013L282.613 378.773C282.853 378.773 283.094 378.773 283.334 378.773L300.409 378.292C300.89 378.292 301.131 378.292 301.612 378.292L371.113 373.241C379.05 372.76 385.302 367.71 387.948 360.976" stroke="#2E2A47" stroke-width="1.5" stroke-miterlimit="10" stroke-linecap="round" stroke-linejoin="round"/>
<path d="M271.787 360.976L295.836 360.255" stroke="#FF0000" stroke-width="1.25" stroke-miterlimit="10" stroke-linecap="round" stroke-linejoin="round"/>
<path d="M263.615 336.446L291.993 335.484" stroke="#FF0000" stroke-width="1.25" stroke-miterlimit="10" stroke-linecap="round" stroke-linejoin="round"/>
<path d="M264.334 310.714L291.028 309.752" stroke="#FF0000" stroke-width="1.25" stroke-miterlimit="10" stroke-linecap="round" stroke-linejoin="round"/>
<path d="M326.621 240.49L337.443 263.337" stroke="#FF0000" stroke-width="1.25" stroke-miterlimit="10" stroke-linecap="round" stroke-linejoin="round"/>
<path fill-rule="evenodd" clip-rule="evenodd" d="M332.394 388.152L391.314 341.978C397.567 336.927 398.77 327.789 393.719 321.536L283.574 181.33C278.524 175.077 269.385 173.875 263.133 178.925L204.212 225.099C197.96 230.149 196.757 239.288 201.808 245.541L311.952 385.747C316.762 392 325.901 393.202 332.394 388.152Z" fill="#E5E5E5" stroke="#2E2A47" stroke-miterlimit="10"/>
<path fill-rule="evenodd" clip-rule="evenodd" d="M328.787 388.152L387.707 341.978C393.96 336.927 395.162 327.789 390.112 321.536L279.967 181.33C274.917 175.077 265.778 173.875 259.525 178.925L200.605 225.099C194.352 230.149 193.15 239.288 198.2 245.541L308.345 385.747C313.155 392 322.293 392.962 328.787 388.152Z" fill="white" stroke="#2E2A47" stroke-miterlimit="10"/>
<path fill-rule="evenodd" clip-rule="evenodd" d="M202.048 226.783L215.035 216.441C215.756 215.72 246.779 191.43 247.741 190.709L260.728 180.368C265.778 176.28 273.474 177.241 277.322 182.292L387.467 322.498C391.555 327.548 390.593 335.244 385.543 339.092L326.863 385.988C321.813 390.076 314.117 389.114 310.269 384.064L200.124 243.857C196.036 238.326 196.998 230.871 202.048 226.783Z" fill="#DEDAFF" stroke="#2E2A47" stroke-miterlimit="10"/>
<path d="M279.484 365.065C278.041 363.863 276.117 363.382 273.953 363.622C269.624 364.103 266.498 367.951 266.979 372.28C267.219 374.685 268.421 376.609 270.345 377.811L275.877 381.659C277.56 382.861 279.965 383.583 282.129 382.861C284.294 382.621 286.458 382.38 289.104 381.659C291.028 381.178 294.154 380.216 295.597 379.494C298.483 378.292 300.166 375.166 299.445 372.039C298.723 368.913 295.837 366.748 292.951 366.989H283.091L279.484 365.065Z" fill="#5E58A5" stroke="#2E2A47" stroke-width="1.5" stroke-miterlimit="10" stroke-linecap="round" stroke-linejoin="round"/>
<path d="M250.387 350.635C250.387 354.243 252.07 357.369 254.716 359.293L260.968 363.862C263.133 365.305 265.778 366.027 268.424 365.786C268.664 365.786 269.145 365.786 269.386 365.546L287.663 361.938C292.473 360.976 295.839 356.648 295.358 351.597C294.878 346.787 290.789 342.94 285.739 343.18L269.626 343.421L264.576 341.256C263.373 340.775 261.93 340.294 260.487 340.294C255.197 340.294 250.627 344.864 250.387 350.635Z" fill="#5E58A5" stroke="#2E2A47" stroke-width="1.5" stroke-miterlimit="10" stroke-linecap="round" stroke-linejoin="round"/>
<path d="M250.627 314.081C244.375 314.802 240.046 320.093 240.527 326.346C240.767 328.751 241.729 330.915 243.172 332.599L248.944 339.332C251.349 341.978 254.956 343.661 258.804 343.18C259.285 343.18 259.766 343.18 260.006 342.94L278.043 339.092C282.613 338.13 285.979 333.801 285.498 328.751C285.017 323.941 280.929 320.333 276.119 320.333L262.171 320.093L259.044 317.207C257.361 315.043 254.235 313.84 250.627 314.081Z" fill="#5E58A5" stroke="#2E2A47" stroke-width="1.5" stroke-miterlimit="10" stroke-linecap="round" stroke-linejoin="round"/>
<path d="M377.848 424.947H336.243C333.838 424.947 332.154 423.023 332.154 420.859C332.154 418.454 334.078 416.771 336.243 416.771H377.848C380.252 416.771 381.936 418.695 381.936 420.859C381.936 423.023 380.012 424.947 377.848 424.947Z" fill="#EAC9F8" stroke="#473E6B" stroke-miterlimit="10"/>
<path d="M420.658 451.161H355.726C352.118 451.161 349.232 448.275 349.232 444.667C349.232 441.06 352.118 438.174 355.726 438.174H420.658C424.266 438.174 427.151 441.06 427.151 444.667C427.392 448.275 424.266 451.161 420.658 451.161Z" fill="#EAC9F8" stroke="#473E6B" stroke-miterlimit="10"/>
<path fill-rule="evenodd" clip-rule="evenodd" d="M253.75 221.732L251.105 222.213C249.662 222.454 248.219 223.175 247.017 223.897C245.814 224.618 244.852 226.061 244.371 227.264L243.409 229.669C242.928 231.112 241.966 232.314 240.764 233.036L238.599 234.719C237.397 235.681 236.435 236.883 235.954 238.086C235.473 239.529 235.233 240.972 235.473 242.415L235.714 244.82C235.954 246.263 235.713 247.705 234.992 249.148L234.03 251.553C233.549 252.996 233.309 254.439 233.309 255.882C233.549 257.325 234.03 258.528 234.992 259.73L236.435 261.654C237.397 262.856 237.878 264.059 238.118 265.502L238.359 267.907C238.599 269.35 239.08 270.793 240.042 271.755C241.004 272.957 242.207 273.678 243.409 274.159L245.814 275.121C247.257 275.602 248.219 276.564 249.181 277.526L250.864 279.45C251.826 280.653 252.788 281.374 254.231 281.855C255.674 282.336 257.117 282.577 258.56 282.336L261.206 281.855C262.648 281.615 264.091 281.855 265.534 282.336L267.939 283.298L273.952 301.816C274.192 302.056 274.192 302.297 274.432 302.297C274.673 302.537 274.913 302.537 275.154 302.537C275.394 302.537 275.635 302.537 275.875 302.297C276.116 302.056 276.356 302.056 276.356 301.816L280.926 292.677C281.166 292.437 281.407 292.196 281.888 291.956C282.369 291.956 282.609 291.956 283.09 291.956L291.988 296.525C292.229 296.766 292.469 296.766 292.95 296.766C293.191 296.766 293.431 296.525 293.672 296.525C293.912 296.285 294.153 296.044 294.153 295.804C294.153 295.563 294.153 295.323 294.153 294.842L288.14 276.564C288.381 276.564 288.381 276.324 288.621 276.324C288.862 276.324 288.862 276.083 289.102 276.083L305.456 286.184C305.696 286.424 305.937 286.424 306.177 286.424C306.418 286.424 306.658 286.184 306.899 286.184C307.139 285.943 307.38 285.703 307.38 285.462C307.38 285.222 307.38 284.982 307.38 284.501L305.215 274.64C305.215 274.159 305.215 273.919 305.456 273.438C305.696 273.197 305.937 272.957 306.418 272.716L316.278 270.312C316.518 270.312 316.759 270.071 316.999 269.831C317.24 269.59 317.24 269.35 317.48 269.109C317.48 268.869 317.48 268.628 317.48 268.388C317.48 268.147 317.24 267.907 316.999 267.666L300.646 257.566L300.406 254.92C300.165 253.477 300.406 252.034 300.886 250.832L301.848 248.427C302.329 246.984 302.57 245.541 302.57 244.098C302.329 242.655 301.848 241.453 300.886 240.25L299.203 238.326C298.241 237.124 297.76 235.921 297.52 234.478L297.279 232.074C297.039 230.631 296.558 229.188 295.596 228.226C294.634 227.023 293.431 226.302 292.229 225.821L289.824 224.859C288.381 224.378 287.179 223.416 286.457 222.454L285.014 220.53C284.052 219.328 283.09 218.606 281.647 218.125C280.204 217.644 278.761 217.404 277.318 217.644L274.673 218.125C273.23 218.366 271.787 218.125 270.344 217.644L267.939 216.682C266.496 216.201 265.053 215.961 263.61 216.201C262.167 216.442 260.725 217.163 259.522 217.885L257.358 219.568C256.396 221.011 255.193 221.732 253.75 221.732Z" fill="#5E58A3"/>
<path d="M311.472 266.223C311.953 266.223 312.193 265.983 312.674 265.502C312.914 265.261 313.155 264.78 313.395 264.299C313.395 263.818 313.395 263.337 313.395 263.097C313.155 262.616 312.914 262.376 312.674 262.135L289.587 247.946C289.346 247.706 289.106 247.706 288.625 247.706C288.384 247.706 287.903 247.706 287.663 247.706C287.422 247.706 286.941 247.946 286.701 248.187C286.461 248.427 286.22 248.668 285.98 248.908L276.119 264.54C275.879 264.78 275.879 265.021 275.879 265.502C275.879 265.742 275.879 266.223 275.879 266.464C275.879 266.704 276.119 267.185 276.36 267.426C276.6 267.666 276.841 267.907 277.081 268.147L300.168 282.336C300.649 282.577 301.13 282.817 301.611 282.577C302.092 282.577 302.573 282.336 302.814 282.096C303.295 281.855 303.535 281.374 303.535 280.893C303.776 280.412 303.776 279.931 303.535 279.45L301.371 269.59C301.371 269.35 301.371 269.35 301.371 269.109C301.371 268.869 301.611 268.869 301.852 268.869L311.472 266.223Z" fill="#EAC9F8"/>
<path d="M312.674 265.502C312.193 265.983 311.953 266.223 311.472 266.223L301.852 268.869C301.611 268.869 301.371 268.869 301.371 269.109C301.371 269.35 301.371 269.35 301.371 269.59L303.535 279.45C303.776 279.931 303.776 280.412 303.535 280.893C303.535 281.374 303.295 281.855 302.814 282.096C302.573 282.336 302.092 282.577 301.611 282.577C301.13 282.817 300.649 282.577 300.168 282.336L277.081 268.147C276.841 267.907 276.6 267.666 276.36 267.426C276.119 267.185 275.879 266.704 275.879 266.464C275.879 266.223 275.879 265.742 275.879 265.502M312.674 265.502L311.953 264.78M312.674 265.502C312.914 265.261 313.155 264.78 313.395 264.299C313.395 263.818 313.395 263.337 313.395 263.097C313.155 262.616 312.914 262.376 312.674 262.135L289.587 247.946C289.346 247.706 289.106 247.706 288.625 247.706C288.384 247.706 287.903 247.706 287.663 247.706C287.422 247.706 286.941 247.946 286.701 248.187C286.461 248.427 286.22 248.668 285.98 248.908L276.119 264.54C275.879 264.78 275.879 265.021 275.879 265.502M275.879 265.502L276.841 265.742" stroke="#2E2A47" stroke-width="1.4483"/>
<path d="M272.27 297.006L276.839 287.867C276.839 287.627 277.08 287.627 277.08 287.627C277.32 287.627 277.32 287.627 277.561 287.627L286.459 292.196C286.94 292.437 287.421 292.437 287.902 292.437C288.383 292.437 288.864 292.196 289.104 291.956C289.585 291.715 289.826 291.234 289.826 290.753C290.066 290.272 290.066 289.791 289.826 289.31L281.408 263.578C281.408 263.337 281.168 263.097 280.927 262.616C280.687 262.375 280.446 262.135 280.206 261.894C279.965 261.654 279.484 261.654 279.244 261.654C279.003 261.654 278.522 261.654 278.282 261.894L260.726 267.666C260.486 267.666 260.245 267.907 260.005 268.147C259.764 268.388 259.524 268.628 259.524 268.869C259.283 269.109 259.283 269.35 259.283 269.831C259.283 270.071 259.283 270.552 259.283 270.793L267.46 296.525C267.7 297.006 267.941 297.247 268.422 297.487C268.903 297.728 269.143 297.728 269.624 297.728C270.105 297.728 270.586 297.487 270.827 297.487C271.789 297.728 272.029 297.487 272.27 297.006Z" fill="#EAC9F8"/>
<path d="M277.08 287.627C277.08 287.627 276.839 287.627 276.839 287.867L272.27 297.006C272.029 297.487 271.789 297.728 270.827 297.487C270.586 297.487 270.105 297.728 269.624 297.728C269.143 297.728 268.903 297.728 268.422 297.487C267.941 297.247 267.7 297.006 267.46 296.525L259.283 270.793C259.283 270.552 259.283 270.071 259.283 269.831C259.283 269.35 259.283 269.109 259.524 268.869C259.524 268.628 259.764 268.388 260.005 268.147C260.245 267.907 260.486 267.666 260.726 267.666L278.282 261.894C278.522 261.654 279.003 261.654 279.244 261.654M277.08 287.627L276.839 286.665M277.08 287.627C277.32 287.627 277.32 287.627 277.561 287.627L286.459 292.196C286.94 292.437 287.421 292.437 287.902 292.437M287.902 292.437V291.475M287.902 292.437C288.383 292.437 288.864 292.196 289.104 291.956C289.585 291.715 289.826 291.234 289.826 290.753M289.826 290.753L288.864 290.513M289.826 290.753C290.066 290.272 290.066 289.791 289.826 289.31L281.408 263.578C281.408 263.337 281.168 263.097 280.927 262.616C280.687 262.375 280.446 262.135 280.206 261.894C279.965 261.654 279.484 261.654 279.244 261.654M279.244 261.654V262.616" stroke="#2E2A47" stroke-width="1.4483"/>
<path d="M297.283 270.312L298.966 277.286L279.246 265.021L287.663 251.313L307.143 263.338L299.928 265.021C299.928 265.021 299.928 265.021 299.688 265.021C299.207 265.261 298.726 265.742 298.245 266.223C297.764 266.704 297.283 267.426 297.042 267.907C297.042 268.869 297.042 269.59 297.283 270.312Z" stroke="white" stroke-width="1.4483" stroke-miterlimit="10" stroke-linejoin="round"/>
<path d="M275.878 284.982L276.6 286.665C276.6 286.665 276.84 286.665 276.84 286.425L275.878 284.982ZM274.676 285.703L273.233 284.501L272.993 284.741L274.676 285.703ZM270.828 293.639L269.145 292.677C269.145 292.677 269.145 292.918 268.904 293.158L270.828 293.639ZM270.107 293.639H272.031C272.031 293.399 272.031 293.158 272.031 293.158L270.107 293.639ZM262.17 269.59L261.689 267.907C261.208 268.147 260.727 268.388 260.487 268.869C260.247 269.35 260.247 269.831 260.487 270.312L262.17 269.59ZM279.245 264.059L280.929 263.578C280.688 262.616 279.486 262.135 278.524 262.375L279.245 264.059ZM286.941 288.108L288.143 289.551C288.865 289.07 289.105 288.349 288.865 287.387L286.941 288.108ZM286.701 288.589L285.739 290.272C286.46 290.513 287.181 290.513 287.662 290.032L286.701 288.589ZM279.967 283.058C279.245 282.577 278.283 282.336 277.321 282.577L277.562 286.425C277.802 286.425 278.043 286.425 278.283 286.665L279.967 283.058ZM277.321 282.577C276.359 282.577 275.638 282.817 274.676 283.539L276.84 286.665C277.081 286.425 277.321 286.425 277.562 286.425L277.321 282.577ZM275.157 283.298C274.435 283.539 273.714 284.02 273.233 284.741L276.119 286.906C276.119 286.665 276.359 286.665 276.6 286.665L275.157 283.298ZM272.993 284.982L268.904 292.918L272.271 294.601L276.359 286.665L272.993 284.982ZM268.904 293.158C268.904 292.677 269.145 292.437 269.626 292.196L271.79 295.323C272.271 295.082 272.512 294.601 272.752 294.12L268.904 293.158ZM269.626 292.437C269.866 292.196 270.347 292.196 270.588 292.196L270.107 295.804C270.588 295.804 271.069 295.804 271.55 295.563L269.626 292.437ZM270.588 291.956C271.069 291.956 271.309 292.196 271.55 292.437L268.664 294.842C268.904 295.323 269.385 295.563 270.107 295.563L270.588 291.956ZM271.55 292.677C271.79 292.918 272.031 293.399 272.031 293.639H268.183C268.183 294.12 268.423 294.601 268.664 295.082L271.55 292.677ZM272.031 293.158L264.094 269.109L260.487 270.312L268.423 294.361L272.031 293.158ZM262.892 271.274L279.967 265.742L278.764 262.135L261.689 267.666L262.892 271.274ZM277.321 264.54L285.258 288.589L288.865 287.387L280.929 263.337L277.321 264.54ZM285.979 286.665L285.498 286.906L287.903 289.791L288.384 289.551L285.979 286.665ZM287.422 286.906L279.967 283.058L278.283 286.425L285.739 290.272L287.422 286.906Z" fill="white"/>
<path fill-rule="evenodd" clip-rule="evenodd" d="M246.297 216.682L248.942 216.201C250.385 215.961 251.828 215.48 253.031 214.518L255.195 212.834C256.398 211.872 257.84 211.391 259.283 211.151C260.726 210.91 262.169 211.151 263.612 211.632L266.017 212.594C267.46 213.075 268.903 213.315 270.346 213.075L272.991 212.594C274.434 212.353 275.877 212.594 277.32 213.075C278.763 213.556 279.725 214.518 280.687 215.48L282.13 217.404C283.092 218.606 284.294 219.328 285.497 219.809L287.902 220.77C289.345 221.251 290.307 222.213 291.269 223.175C292.231 224.378 292.712 225.58 292.952 227.023L293.193 229.428C293.433 230.871 293.914 232.074 294.876 233.276L296.559 235.2C297.521 236.402 298.002 237.605 298.243 239.048C298.483 240.491 298.243 241.934 297.521 243.377L296.559 245.782C296.078 247.224 295.838 248.667 295.838 249.87L296.079 252.515C296.319 253.958 296.078 255.401 295.357 256.844C294.636 258.287 293.914 259.489 292.712 260.211L290.547 261.894C289.345 262.856 288.383 264.059 287.902 265.261L286.94 267.666C286.459 269.109 285.497 270.312 284.294 271.033C283.092 271.995 281.649 272.476 280.206 272.717L277.561 273.197C276.118 273.438 274.675 273.919 273.472 274.881L271.308 276.564C270.105 277.526 268.663 278.007 267.22 278.248C265.777 278.488 264.334 278.248 262.891 277.767L260.486 276.805C259.043 276.324 257.6 276.083 256.157 276.324L253.512 276.805C252.069 277.045 250.626 276.805 249.183 276.324C247.74 275.843 246.778 274.881 245.816 273.919L244.133 271.995C243.171 270.793 242.209 270.071 240.766 269.59L238.361 268.628C236.918 268.147 235.956 267.185 234.994 266.223C234.032 265.021 233.551 263.818 233.31 262.375L233.07 259.97C232.829 258.528 232.348 257.085 231.386 256.123L229.944 254.199C228.982 252.996 228.501 251.794 228.26 250.351C228.02 248.908 228.26 247.465 228.982 246.022L229.944 243.617C230.425 242.174 230.665 240.731 230.665 239.288L230.425 236.883C230.184 235.44 230.425 233.997 230.906 232.555C231.386 231.112 232.348 229.909 233.551 229.188L235.715 227.504C236.918 226.542 237.88 225.34 238.361 224.137L239.323 221.732C239.804 220.29 240.766 219.087 241.968 218.366C243.171 217.644 244.854 216.923 246.297 216.682Z" fill="white" stroke="#2E2A47" stroke-width="1.4483" stroke-miterlimit="10"/>
</svg>
