<svg width="121" height="90" viewBox="0 0 121 90" fill="none" xmlns="http://www.w3.org/2000/svg">
<path d="M44.4674 4.83273C41.5534 4.83273 38.8373 6.5402 37.3803 9.28698L35.3528 13.1102C34.4914 14.736 33.2458 16.0921 31.7525 17.03L28.2408 19.2373C25.7178 20.8235 24.1494 23.7806 24.1494 26.953V31.3677C24.1494 33.2459 23.6926 35.0969 22.8311 36.7227L20.8037 40.5459C19.3467 43.2927 19.3467 46.7076 20.8037 49.4544L22.8311 53.2777C23.6926 54.9035 24.1494 56.7545 24.1494 58.6327V63.0473C24.1494 66.2197 25.7178 69.1769 28.2408 70.7631L31.7525 72.9704C33.2458 73.9083 34.4914 75.2643 35.3528 76.8901L37.3803 80.7134C38.8373 83.4602 41.5534 85.1676 44.4674 85.1676H48.5223C50.2475 85.1676 51.9476 85.665 53.441 86.6029L56.9527 88.8102C59.4756 90.3964 62.6123 90.3964 65.1353 88.8102L68.647 86.6029C70.1403 85.665 71.8428 85.1676 73.5657 85.1676H77.6206C80.5345 85.1676 83.2507 83.4602 84.7077 80.7134L86.7351 76.8901C87.5966 75.2643 88.8422 73.9083 90.3355 72.9704L93.8472 70.7631C96.3702 69.1769 97.9385 66.2197 97.9385 63.0473V58.6327C97.9385 56.7545 98.3954 54.9035 99.2568 53.2777L101.284 49.4544C102.741 46.7076 102.741 43.2927 101.284 40.5459L99.2568 36.7227C98.3954 35.0969 97.9385 33.2459 97.9385 31.3677V26.953C97.9385 23.7806 96.3702 20.8235 93.8472 19.2373L90.3355 17.03C88.8422 16.0921 87.5966 14.736 86.7351 13.1102L84.7077 9.28698C83.2507 6.5402 80.5345 4.83273 77.6206 4.83273H73.5657C71.8405 4.83273 70.1403 4.33534 68.647 3.39747L65.1353 1.19014C62.6123 -0.396064 59.4756 -0.396064 56.9527 1.19014L53.441 3.39747C51.9476 4.33534 50.2475 4.83273 48.5223 4.83273H44.4674Z" fill="#F5F4FF"/>
<path opacity="0.3" d="M48.1252 13.6943C45.8545 13.6943 43.7384 15.0256 42.6019 17.1661L41.0222 20.1455C40.3494 21.4125 39.3788 22.4692 38.2151 23.2016L35.4785 24.9215C33.5124 26.1588 32.2895 28.4626 32.2895 30.9347V34.3744C32.2895 35.8369 31.9349 37.282 31.2621 38.549L29.6824 41.5284C28.546 43.6689 28.546 46.3291 29.6824 48.4721L31.2621 51.4515C31.9349 52.7185 32.2895 54.1612 32.2895 55.6261V59.0658C32.2895 61.5379 33.5124 63.8417 35.4785 65.079L38.2151 66.7989C39.3788 67.5313 40.3494 68.588 41.0222 69.855L42.6019 72.8344C43.7384 74.9749 45.8545 76.3062 48.1252 76.3062H51.2846C52.6279 76.3062 53.9553 76.6922 55.119 77.4247L57.8557 79.1446C59.8218 80.3818 62.2652 80.3818 64.2336 79.1446L66.9702 77.4247C68.1339 76.6922 69.4591 76.3062 70.8047 76.3062H73.9641C76.2347 76.3062 78.3509 74.9749 79.4873 72.8344L81.067 69.855C81.7398 68.588 82.7104 67.5313 83.8741 66.7989L86.6108 65.079C88.5769 63.8417 89.7997 61.5379 89.7997 59.0658V55.6261C89.7997 54.1636 90.1543 52.7185 90.8271 51.4515L92.4068 48.4721C93.5433 46.3316 93.5433 43.6714 92.4068 41.5284L90.8271 38.549C90.1543 37.282 89.7997 35.8393 89.7997 34.3744V30.9347C89.7997 28.4626 88.5769 26.1588 86.6108 24.9215L83.8741 23.2016C82.7104 22.4692 81.7398 21.4125 81.067 20.1455L79.4873 17.1661C78.3509 15.0256 76.2347 13.6943 73.9641 13.6943H70.8047C69.4613 13.6943 68.1339 13.3083 66.9702 12.5758L64.2336 10.8559C62.2675 9.61866 59.824 9.61866 57.8557 10.8559L55.119 12.5758C53.9553 13.3083 52.6301 13.6943 51.2846 13.6943H48.1252Z" fill="#D8D7F7"/>
<g opacity="0.2">
<path d="M79.5083 21.8084C76.1534 25.451 70.0051 30.0982 65.0819 30.0512C62.2134 30.0784 59.6632 28.3091 57.0311 27.4826C55.3105 26.9184 53.7058 27.6385 52.0579 28.2225C50.1077 28.9401 48.1666 29.9522 46.3414 30.9891C41.9319 33.4859 38.893 32.5035 34.5607 31.7339C33.5083 31.6325 32.6446 31.5656 31.9536 32.0135C31.8673 32.0927 31.8741 32.1447 31.89 32.1769C36.0563 41.5085 24.0597 48.5066 19.2297 39.561C17.5954 36.2401 18.3887 32.2115 20.9389 29.8829L26.1281 25.1416C28.892 22.5408 32.9606 22.4394 36.129 23.3946C38.3134 23.9761 40.0544 24.9932 42.0001 24.9016C42.9593 24.8026 44.4049 24.1642 45.3686 23.7979C47.0642 23.1471 48.8053 22.6176 50.56 22.2167C53.2716 21.5683 55.9924 21.2021 58.6335 22.4691C63.2431 24.6442 64.3455 27.2203 69.8324 25.1268C72.8554 24.0182 75.6875 22.3651 78.2309 20.2296C79.1787 19.4476 80.3539 20.8507 79.5083 21.8059V21.8084Z" fill="#B5AEFF"/>
</g>
<path d="M62.4187 51.355C62.3278 51.2585 62.1459 49.9147 61.98 49.9246C61.8141 49.9345 61.6686 51.2684 61.5913 51.3575C61.4344 51.5332 60.2956 51.6594 60.3047 51.8301C60.3138 52.0009 61.4322 52.0801 61.5913 52.2484C61.6799 52.3424 61.8641 53.6911 62.03 53.6787C62.1959 53.6688 62.3369 52.3374 62.4187 52.2484C62.5687 52.0776 63.7166 51.9464 63.7075 51.7757C63.6984 51.6049 62.571 51.5183 62.4187 51.3575V51.355Z" fill="white" stroke="#2E2A47" stroke-width="0.83" stroke-linecap="round" stroke-linejoin="round"/>
<g opacity="0.2">
<path d="M44.772 39.415C46.313 39.4917 47.8632 39.5016 49.4179 39.4397C50.9726 39.3779 52.5273 39.2244 54.0752 39.0067C57.1709 38.5687 60.2508 37.8213 63.1579 36.6632C63.5238 36.5222 63.8761 36.3589 64.2375 36.2079C64.5921 36.0495 64.9399 35.8738 65.2922 35.7081C66.0127 35.3567 66.7332 34.9904 67.4424 34.5945C68.863 33.8076 70.2563 32.9365 71.6155 31.9888C74.3362 30.0932 76.9206 27.8958 79.3708 25.5078C79.4981 25.3816 79.6936 25.394 79.8095 25.5326C79.9118 25.6563 79.9141 25.8369 79.8254 25.9631C77.8093 28.8312 75.6 31.5804 73.1429 34.1095C71.9133 35.3715 70.6245 36.5816 69.2698 37.7199C68.5948 38.2915 67.897 38.8384 67.1901 39.3754C66.8173 39.6278 66.4446 39.8926 66.0673 40.1376C65.6877 40.3726 65.3081 40.6226 64.9217 40.8453C61.8396 42.6641 58.5847 44.0177 55.2412 45.0471C53.5706 45.5594 51.8749 46.0048 50.1611 46.3512C48.4473 46.6977 46.7131 46.9674 44.9652 47.1579H44.9629C43.0013 47.3732 41.2512 45.8167 41.0534 43.6812C40.8557 41.5456 42.2854 39.6402 44.2469 39.4249C44.4151 39.4076 44.6038 39.4026 44.7674 39.41L44.772 39.415Z" fill="#B5AEFF"/>
</g>
<path d="M68.9561 38.3982C67.3218 39.6924 65.5512 41.0089 63.6442 42.3179C61.2962 43.9289 59.0255 45.332 56.873 46.5569" stroke="#2E2A47" stroke-linecap="round" stroke-linejoin="round"/>
<path d="M71.1702 35.3296C69.6405 36.5941 67.9698 37.8858 66.1537 39.1701C63.8172 40.8232 61.5624 42.2362 59.4395 43.4437" stroke="#2E2A47" stroke-linecap="round" stroke-linejoin="round"/>
<path d="M103.243 10.8932C102.67 10.8932 102.15 11.1382 101.761 11.5342C101.377 10.5617 100.488 9.87867 99.4538 9.87867C98.7765 9.87867 98.1628 10.1707 97.7105 10.6458C97.2354 9.42335 96.1217 8.56714 94.8261 8.56714C93.7896 8.56714 92.8759 9.1165 92.3054 9.96033C92.6213 10.9378 92.4418 12.0464 91.8008 12.8457C91.8394 12.9991 91.8826 13.1525 91.9372 13.2985H105.402C105.402 13.2837 105.402 13.2664 105.402 13.2515C105.402 11.9499 104.434 10.8957 103.238 10.8957L103.243 10.8932Z" fill="white" stroke="#B5AEFF" stroke-linecap="round" stroke-linejoin="round"/>
<path d="M69.9757 26.1515C69.8621 26.1515 69.7598 26.0773 69.7166 25.9634C69.6575 25.8075 69.7257 25.6294 69.8666 25.565C69.8666 25.565 69.8666 25.565 69.8689 25.565C70.1371 25.4438 70.244 25.2854 70.3781 25.085C70.5281 24.8623 70.7122 24.5851 71.1281 24.402C71.3236 24.3104 71.5191 24.2659 71.7191 24.2659C71.86 24.2659 71.9873 24.2882 72.0987 24.3055C72.2032 24.3228 72.301 24.3401 72.3987 24.3401C72.5237 24.3401 72.6419 24.3129 72.7715 24.2535C73.0397 24.1323 73.1465 23.9739 73.2806 23.7734C73.4238 23.5582 73.6034 23.2934 73.9875 23.1103L74.033 23.0905C74.2171 23.0113 74.3966 22.9741 74.583 22.9741C74.7239 22.9741 74.8512 22.9964 74.9649 23.0162C75.0694 23.0335 75.1649 23.0509 75.2626 23.0509C75.3854 23.0509 75.5036 23.0236 75.6331 22.9667C75.6331 22.9667 75.6331 22.9667 75.6354 22.9667C75.9036 22.8455 76.0104 22.6871 76.1445 22.4867C76.2945 22.2639 76.4764 21.9893 76.8878 21.8061C77.081 21.7195 77.2719 21.675 77.4674 21.675C77.6083 21.675 77.7356 21.6973 77.8492 21.7171C77.9515 21.7344 78.0493 21.7517 78.147 21.7517C78.272 21.7517 78.3902 21.7245 78.5198 21.6651C78.788 21.5438 78.8948 21.3855 79.0289 21.185C79.1789 20.9598 79.3653 20.6827 79.7813 20.4996C79.8154 20.4847 79.8494 20.4773 79.8858 20.4773C80.0017 20.4773 80.104 20.5515 80.1472 20.6703C80.1745 20.747 80.1745 20.8312 80.1449 20.9054C80.1154 20.9796 80.0608 21.039 79.9904 21.0687C79.7244 21.185 79.6176 21.3434 79.4835 21.5438C79.3335 21.7666 79.1494 22.0437 78.7357 22.2293C78.538 22.3184 78.3447 22.3629 78.1447 22.3629C78.0038 22.3629 77.8742 22.3407 77.7606 22.3209C77.6583 22.3035 77.5606 22.2862 77.4651 22.2862C77.3447 22.2862 77.231 22.311 77.1083 22.3679C76.8332 22.4916 76.731 22.6475 76.5991 22.8455C76.4514 23.0682 76.2673 23.3429 75.8536 23.5309C75.8536 23.5309 75.8536 23.5309 75.8513 23.5309C75.6536 23.62 75.4604 23.6646 75.2626 23.6646C75.1194 23.6646 74.9921 23.6423 74.8785 23.6225C74.7762 23.6052 74.6808 23.5878 74.583 23.5878C74.4648 23.5878 74.3534 23.6126 74.2307 23.667C73.9716 23.7883 73.8693 23.9417 73.7375 24.1372C73.5875 24.3599 73.4034 24.6371 72.9897 24.8227C72.7919 24.9117 72.5987 24.9563 72.3987 24.9563C72.2578 24.9563 72.1282 24.934 72.0146 24.9142C71.91 24.8969 71.8146 24.8796 71.7168 24.8796C71.5918 24.8796 71.4736 24.9068 71.3441 24.9687C71.0713 25.0899 70.9645 25.2483 70.8304 25.4463C70.6826 25.669 70.4962 25.9461 70.0826 26.1317C70.0826 26.1317 70.0826 26.1317 70.0803 26.1317C70.0462 26.1466 70.0121 26.154 69.9757 26.154V26.1515Z" fill="#D8F2C8"/>
<path d="M79.8876 20.5934C79.9536 20.5934 80.0172 20.6355 80.0445 20.7072C80.0786 20.8013 80.0377 20.9077 79.9513 20.9448C79.6535 21.0759 79.5331 21.2541 79.3944 21.4645C79.2467 21.6847 79.0785 21.9346 78.6943 22.1103C78.4852 22.2044 78.3079 22.2341 78.1488 22.2341C78.0147 22.2341 77.8943 22.2143 77.7829 22.1945C77.6761 22.1771 77.576 22.1598 77.4692 22.1598C77.3488 22.1598 77.2215 22.1821 77.0692 22.2489L77.051 22.2563C76.7669 22.3875 76.6487 22.5632 76.5123 22.7661C76.3646 22.9863 76.1964 23.2363 75.8122 23.412C75.6031 23.506 75.4258 23.5357 75.2667 23.5357C75.1326 23.5357 75.0122 23.5159 74.9008 23.4961C74.794 23.4788 74.6939 23.4614 74.5871 23.4614C74.4689 23.4614 74.3416 23.4837 74.1916 23.5481L74.1803 23.553C73.9007 23.6817 73.7825 23.8574 73.6484 24.0603C73.5006 24.2805 73.3325 24.5305 72.9483 24.7062C72.7392 24.8002 72.5619 24.8299 72.4028 24.8299C72.2687 24.8299 72.1505 24.8101 72.0369 24.7903C71.93 24.773 71.83 24.7557 71.7232 24.7557C71.5982 24.7557 71.4664 24.7804 71.3073 24.8546C71.0095 24.9858 70.889 25.164 70.7504 25.3718C70.6026 25.5921 70.4344 25.842 70.0503 26.0177C70.0299 26.0276 70.0071 26.0325 69.9867 26.0325C69.9208 26.0325 69.8594 25.9905 69.8321 25.9187C69.7957 25.8247 69.8367 25.7183 69.923 25.6812C70.2208 25.5475 70.3412 25.3669 70.4799 25.159C70.6276 24.9388 70.7958 24.6864 71.1822 24.5181C71.3913 24.4216 71.5709 24.3919 71.73 24.3919C71.8618 24.3919 71.9823 24.4117 72.0937 24.4315C72.2005 24.4488 72.3028 24.4661 72.4096 24.4661C72.5346 24.4661 72.6665 24.4439 72.8256 24.3696C73.1233 24.236 73.2438 24.0553 73.3825 23.8475C73.5257 23.6347 73.6848 23.3946 74.0416 23.2239C74.0416 23.2239 74.0552 23.2189 74.0598 23.214C74.0689 23.2115 74.0757 23.2066 74.0848 23.2041C74.2757 23.1224 74.4416 23.0977 74.5917 23.0977C74.7235 23.0977 74.844 23.1175 74.9553 23.1373C75.0622 23.1546 75.1645 23.1719 75.2713 23.1719C75.3963 23.1719 75.5281 23.1497 75.6872 23.0754C75.985 22.9418 76.1055 22.7611 76.2441 22.5533C76.3918 22.333 76.5555 22.0856 76.9374 21.9148C77.1419 21.8233 77.3169 21.7936 77.4738 21.7936C77.6056 21.7936 77.7261 21.8134 77.8374 21.8332C77.9443 21.8505 78.0466 21.8678 78.1534 21.8678C78.2784 21.8678 78.4102 21.8455 78.5693 21.7713C78.8671 21.6377 78.9876 21.457 79.1262 21.2492C79.2739 21.0289 79.4421 20.7765 79.8285 20.6058C79.849 20.5959 79.8695 20.5934 79.8922 20.5934M79.8899 20.3459C79.8399 20.3459 79.7899 20.3558 79.7422 20.3781C79.2944 20.5736 79.0989 20.8681 78.9421 21.1032C78.808 21.3036 78.7193 21.4372 78.4807 21.5436C78.4807 21.5436 78.4784 21.5436 78.4761 21.5436C78.3602 21.5956 78.2579 21.6179 78.1488 21.6179C78.0602 21.6179 77.9715 21.603 77.8693 21.5857C77.7533 21.5659 77.6192 21.5436 77.4692 21.5436C77.2578 21.5436 77.0555 21.5882 76.8487 21.6822C76.4078 21.8802 76.2146 22.1697 76.06 22.4023C75.9236 22.6052 75.8372 22.7364 75.5986 22.8453C75.5986 22.8453 75.5963 22.8453 75.594 22.8453C75.4781 22.8972 75.3758 22.9195 75.2667 22.9195C75.1781 22.9195 75.0894 22.9047 74.9872 22.8873C74.8712 22.8675 74.7371 22.8453 74.5871 22.8453C74.3916 22.8453 74.2007 22.8849 74.0075 22.9665C74.003 22.9665 73.9984 22.969 73.9939 22.9715L73.9666 22.9839L73.9484 22.9913C73.9484 22.9913 73.9393 22.9962 73.9348 22.9987C73.5279 23.1942 73.3415 23.4738 73.1915 23.6965C73.0574 23.897 72.9711 24.0281 72.7324 24.1345C72.6142 24.1865 72.5119 24.2112 72.4028 24.2112C72.3142 24.2112 72.2255 24.1964 72.1232 24.1791C72.005 24.1593 71.8732 24.137 71.7232 24.137C71.5073 24.137 71.3004 24.184 71.0868 24.283C70.6436 24.4785 70.4481 24.7705 70.289 25.0081C70.1549 25.2085 70.0685 25.3397 69.8298 25.4461C69.6298 25.5376 69.5321 25.79 69.6162 26.0078C69.6775 26.1686 69.8207 26.2726 69.9821 26.2726C70.0344 26.2726 70.0844 26.2627 70.1344 26.2404C70.1344 26.2404 70.1367 26.2404 70.139 26.2404C70.5799 26.04 70.7754 25.748 70.9322 25.5129C71.064 25.3149 71.1527 25.1838 71.3914 25.0774C71.5141 25.0204 71.6164 24.9957 71.7255 24.9957C71.8118 24.9957 71.9005 25.0105 72.0005 25.0279C72.121 25.0477 72.2528 25.0699 72.4051 25.0699C72.6187 25.0699 72.8256 25.0229 73.037 24.9289C73.4802 24.7284 73.6757 24.4364 73.8325 24.2013C73.9621 24.0083 74.0484 23.8797 74.2689 23.7757C74.3848 23.7238 74.4803 23.704 74.5848 23.704C74.6735 23.704 74.7599 23.7188 74.8621 23.7361C74.9803 23.7559 75.1122 23.7782 75.2645 23.7782C75.4781 23.7782 75.685 23.7312 75.8963 23.6371C76.3396 23.4367 76.535 23.1447 76.6941 22.9096C76.8237 22.7141 76.9101 22.5854 77.1374 22.4815L77.1487 22.4766C77.1487 22.4766 77.1556 22.4741 77.1601 22.4716C77.2692 22.4246 77.3647 22.4023 77.4692 22.4023C77.5579 22.4023 77.6442 22.4172 77.7465 22.4345C77.8647 22.4543 77.9965 22.4766 78.1488 22.4766C78.3625 22.4766 78.5693 22.4295 78.783 22.3355C78.783 22.3355 78.7853 22.3355 78.7875 22.3355C79.2285 22.1351 79.424 21.8431 79.5808 21.6105C79.7126 21.4125 79.8013 21.2813 80.0399 21.1749C80.1354 21.1329 80.2127 21.0512 80.2559 20.9473C80.299 20.8409 80.299 20.7221 80.2604 20.6157C80.199 20.4524 80.0558 20.3459 79.8945 20.3459H79.8899Z" fill="#2E2A47"/>
<path d="M80.6653 31.6031C80.6403 31.6031 80.6176 31.5981 80.5948 31.5882C80.4903 31.5462 80.438 31.4199 80.4766 31.3061C80.5244 31.1651 80.5085 31.0784 80.4857 30.9547C80.4585 30.8062 80.4266 30.6206 80.5153 30.3657C80.5994 30.1108 80.7358 29.997 80.8449 29.903C80.9381 29.8213 81.0017 29.7693 81.0472 29.6307C81.0949 29.4922 81.079 29.408 81.0563 29.2793C81.0313 29.1358 80.9994 28.9601 81.0767 28.7176C81.0767 28.7176 81.0858 28.6903 81.0858 28.6879C81.1722 28.4503 81.3018 28.3389 81.4063 28.2499C81.4995 28.1707 81.5609 28.1162 81.6086 27.9776C81.6564 27.8391 81.6404 27.7549 81.6177 27.6262C81.5904 27.4777 81.5586 27.2946 81.645 27.0422C81.7314 26.7923 81.8655 26.6759 81.9723 26.5844C82.0655 26.5052 82.1269 26.4507 82.1746 26.3122C82.2224 26.1736 82.2064 26.0894 82.1837 25.9608C82.1564 25.8098 82.1246 25.6267 82.2133 25.3718C82.2428 25.2876 82.3178 25.2307 82.4019 25.2307C82.4269 25.2307 82.4497 25.2357 82.4747 25.2456C82.5247 25.2654 82.5656 25.3074 82.586 25.3619C82.6088 25.4163 82.6088 25.4757 82.5906 25.5302C82.5429 25.6663 82.5565 25.7504 82.5792 25.8766C82.6065 26.0251 82.6383 26.2082 82.5519 26.4631C82.5519 26.4631 82.5519 26.4631 82.5519 26.4656C82.4656 26.718 82.3315 26.8343 82.2224 26.9259C82.1292 27.0051 82.0701 27.057 82.0246 27.1882C81.9769 27.3317 81.9928 27.4184 82.0132 27.5371C82.0405 27.6856 82.0723 27.8687 81.986 28.1236C81.8996 28.3785 81.7632 28.4948 81.6541 28.5864C81.5632 28.6656 81.5018 28.7151 81.4563 28.8463C81.4109 28.9799 81.4268 29.0665 81.4495 29.1853C81.4768 29.3338 81.5086 29.5194 81.4222 29.7718C81.3359 30.0267 81.1995 30.143 81.0926 30.2346C80.9972 30.3162 80.9358 30.3682 80.8903 30.5068C80.8903 30.5093 80.8903 30.5117 80.8881 30.5142C80.8403 30.6503 80.8562 30.7369 80.879 30.8582C80.9062 31.0067 80.9381 31.1923 80.8517 31.4447C80.8221 31.5313 80.7471 31.5882 80.663 31.5882L80.6653 31.6031Z" fill="#B5AEFF"/>
<path d="M82.4045 25.3645C82.4045 25.3645 82.425 25.3645 82.4363 25.372C82.4818 25.3918 82.5045 25.4462 82.4863 25.4957C82.4272 25.6664 82.4477 25.7803 82.4704 25.9114C82.4954 26.0525 82.525 26.2108 82.4477 26.4311C82.3727 26.6538 82.2545 26.7528 82.1522 26.8394C82.0567 26.921 81.9749 26.9903 81.9181 27.1561L81.9136 27.166C81.859 27.3318 81.8772 27.4432 81.9022 27.5719C81.9272 27.7104 81.9545 27.8713 81.8795 28.0915C81.8044 28.3142 81.6885 28.4132 81.584 28.4998C81.4908 28.5815 81.409 28.6508 81.3521 28.8141V28.8191C81.2953 28.9824 81.3158 29.0913 81.3385 29.2199C81.3635 29.3585 81.3908 29.5194 81.3158 29.7396C81.2408 29.9623 81.1248 30.0613 81.0203 30.1479C80.9225 30.2296 80.8407 30.3013 80.7839 30.4746C80.7248 30.6453 80.7453 30.7591 80.768 30.8903C80.793 31.0289 80.8225 31.1897 80.7453 31.4099C80.7316 31.4495 80.6998 31.4718 80.6634 31.4718C80.6543 31.4718 80.643 31.4718 80.6339 31.4669C80.5884 31.4495 80.5657 31.3926 80.5816 31.3431C80.6407 31.1724 80.6202 31.0586 80.5952 30.9249C80.5702 30.7839 80.5407 30.6255 80.6202 30.4053C80.6953 30.1826 80.8112 30.0836 80.9135 29.9945C81.0112 29.9128 81.093 29.8411 81.1521 29.6678C81.2112 29.4971 81.1908 29.3833 81.1658 29.2496C81.1408 29.116 81.1135 28.9626 81.1817 28.7547C81.1817 28.7547 81.1839 28.7473 81.1862 28.7448C81.1862 28.7399 81.1885 28.7349 81.1908 28.73C81.2658 28.5246 81.3771 28.4281 81.4749 28.3439C81.5726 28.2623 81.6544 28.1905 81.7135 28.0173C81.7726 27.8465 81.7522 27.7327 81.7272 27.5991C81.7022 27.4605 81.6726 27.3021 81.7499 27.0844C81.8249 26.8666 81.9386 26.7676 82.0408 26.681C82.1386 26.5994 82.2204 26.5276 82.2795 26.3544C82.3386 26.1836 82.3181 26.0698 82.2931 25.9362C82.2681 25.7951 82.2386 25.6367 82.3181 25.4165C82.3318 25.3794 82.3636 25.3546 82.4 25.3546M82.4 25.1072C82.2704 25.1072 82.1522 25.1963 82.1068 25.3274C82.0045 25.6145 82.0431 25.8273 82.0727 25.9832C82.0931 26.102 82.1045 26.1614 82.0681 26.2653C82.0317 26.3717 81.9886 26.4088 81.9022 26.483C81.7885 26.5796 81.634 26.7132 81.5385 26.9953C81.4408 27.2774 81.4771 27.4877 81.5044 27.6412C81.5249 27.7599 81.5362 27.8193 81.5021 27.9233C81.5021 27.9233 81.5021 27.9233 81.5021 27.9257C81.4658 28.0321 81.4226 28.0693 81.3362 28.1435C81.2271 28.2375 81.0771 28.3662 80.9794 28.6335L80.9726 28.6508L80.9657 28.6706C80.8794 28.9403 80.9157 29.1432 80.943 29.2917C80.9635 29.408 80.9748 29.4674 80.9385 29.5738C80.9385 29.5738 80.9385 29.5738 80.9385 29.5763C80.9021 29.6827 80.8589 29.7198 80.7725 29.794C80.6566 29.893 80.5021 30.0267 80.4066 30.3137C80.3066 30.5983 80.3452 30.8111 80.3725 30.9645C80.393 31.0833 80.4043 31.1402 80.3679 31.2466C80.3384 31.3332 80.3407 31.4248 80.377 31.5089C80.4111 31.5931 80.4748 31.6549 80.5543 31.6871C80.5884 31.7019 80.6271 31.7094 80.6634 31.7094C80.793 31.7094 80.9112 31.6203 80.9566 31.4891C80.9566 31.4891 80.9566 31.4891 80.9566 31.4867C81.0544 31.1996 81.0157 30.9868 80.9885 30.8334C80.968 30.7171 80.9566 30.6577 80.993 30.5562C80.993 30.5513 80.9976 30.5438 80.9998 30.5389C81.0316 30.4449 81.0748 30.4077 81.1589 30.3335C81.2726 30.2345 81.4294 30.1034 81.5272 29.8163C81.6249 29.5293 81.5862 29.3189 81.559 29.163C81.5385 29.0492 81.5271 28.9898 81.559 28.8933C81.5931 28.7943 81.6363 28.7572 81.7204 28.6854C81.834 28.5889 81.9886 28.4553 82.0863 28.1707C82.0863 28.1707 82.0863 28.1682 82.0863 28.1658C82.184 27.8787 82.1454 27.6684 82.1181 27.5149C82.0977 27.3986 82.0863 27.3417 82.1204 27.2403C82.159 27.1314 82.1999 27.0943 82.2863 27.0225C82.4 26.926 82.5545 26.7924 82.6523 26.5078C82.75 26.2207 82.7114 26.0079 82.6841 25.8545C82.6636 25.7382 82.6523 25.6788 82.6886 25.5749C82.7182 25.4932 82.7159 25.3992 82.6818 25.315C82.6477 25.2309 82.5863 25.1666 82.5068 25.1319C82.4704 25.1171 82.4318 25.1097 82.3931 25.1097L82.4 25.1072Z" fill="#2E2A47"/>
<path d="M47.3153 37.995C47.313 37.995 47.3085 37.995 47.3062 37.9925C47.213 37.9529 47.1153 37.9183 47.0152 37.8911C46.122 37.5793 45.1855 37.2798 44.2059 37.0027C42.3466 36.4756 40.1282 36.0277 38.4803 35.7481C38.4803 35.753 38.4803 35.7604 38.478 35.7654C38.3576 35.7159 38.2348 35.6763 38.1053 35.6441C38.0098 35.6219 37.9144 35.6045 37.8212 35.5922C36.7847 35.4016 35.6869 35.2358 34.5299 35.1121C32.8275 34.929 31.0455 34.8968 29.4908 34.9166C29.4317 34.83 29.3476 34.7657 29.243 34.7384L29.0635 34.6939C28.8703 34.6469 28.6794 34.7508 28.5907 34.9315C28.5293 34.9315 28.468 34.9315 28.4066 34.9364C28.4066 34.9364 28.4021 34.9364 28.3998 34.9364C28.3589 34.9166 28.318 34.9018 28.2725 34.8919L25.9927 34.4167C25.9723 34.4068 25.9495 34.3969 25.9268 34.392C25.9132 34.3895 25.9018 34.3871 25.8882 34.3846L25.6177 34.3376L25.379 34.2881V34.2955L25.3313 34.2881L24.7972 34.1767H24.7949C24.7949 34.1767 24.7926 34.1767 24.7903 34.1767L24.3835 34.0926C24.2835 34.0678 24.1812 34.1223 24.138 34.2287C24.0948 34.3351 24.1312 34.4539 24.2153 34.5157C24.263 34.5479 24.3517 34.6023 24.413 34.632C24.4653 34.6593 24.5153 34.6766 24.563 34.6939L24.1925 34.6246H24.1903C24.1903 34.6246 24.1835 34.6246 24.1789 34.6221L23.6493 34.5108C23.5198 34.4786 23.3834 34.5504 23.3288 34.6889C23.2743 34.8275 23.3197 34.9859 23.4311 35.0651C23.472 35.0923 23.5357 35.1319 23.597 35.1665L23.247 35.0948C23.1038 35.0601 22.9515 35.1393 22.8901 35.2903C22.8288 35.4437 22.8788 35.6194 23.0038 35.7085C23.0038 35.7085 23.0106 35.7134 23.0129 35.7159C23.0174 35.7184 23.022 35.7233 23.0265 35.7258C23.0993 35.7728 23.2106 35.8396 23.2925 35.8792C23.4084 35.9361 23.5175 35.9782 23.6129 36.0054C23.6357 36.0153 23.6584 36.0228 23.6811 36.0302L24.0494 36.1366L23.7311 36.0747L24.1175 36.1539H24.1244L23.7334 36.0747H23.7311C23.7311 36.0747 23.7243 36.0747 23.7198 36.0722L23.1311 35.9485C22.9879 35.9139 22.8356 35.9931 22.7742 36.144C22.7129 36.2974 22.7629 36.4731 22.8879 36.5622C22.8879 36.5622 22.8947 36.5672 22.897 36.5696C22.9015 36.5721 22.9061 36.5771 22.9106 36.5795C22.9833 36.6266 23.0947 36.6934 23.1765 36.733C23.2925 36.7899 23.4016 36.8319 23.497 36.8592C23.5198 36.8691 23.5425 36.8765 23.5652 36.8839L24.3289 37.1066L25.1017 37.359L24.588 37.4753C24.3676 37.5026 24.2085 37.7178 24.2312 37.9554C24.2539 38.1954 24.4517 38.3736 24.6721 38.3489H25.4199C25.4563 38.3538 25.4904 38.3538 25.529 38.3489C25.5313 38.3489 25.5336 38.3489 25.5359 38.3489V38.3563L27.8202 38.1385C27.8543 38.136 27.8861 38.1261 27.9156 38.1138C27.8634 38.3687 28.0088 38.6211 28.2407 38.678L28.4202 38.7225C28.6066 38.7695 28.793 38.673 28.8839 38.4998C30.2341 39.2372 31.7478 39.9598 33.4253 40.6106C34.4708 41.014 35.73 41.2961 36.7142 41.5708C36.7688 41.5881 36.8211 41.6029 36.8779 41.6178C36.8779 41.6178 36.8779 41.6178 36.8802 41.6178C36.8915 41.6227 36.9029 41.6252 36.9143 41.6302C38.5712 42.2142 40.9647 42.8155 43.1626 43.1595C44.1945 43.3203 45.1764 43.4218 46.1015 43.4812C46.1879 43.491 46.272 43.496 46.3561 43.496C46.3606 43.496 46.3629 43.496 46.3675 43.496C47.6039 43.4985 48.7041 42.5458 48.9427 41.1748C49.1814 39.8039 48.4722 38.4775 47.3198 37.9925L47.3153 37.995Z" fill="#EAC9F8"/>
<path d="M23.7311 36.0747L24.0494 36.1366L23.6811 36.0302C23.6584 36.0228 23.6357 36.0153 23.6129 36.0054C23.5175 35.9782 23.4084 35.9361 23.2925 35.8792C23.2106 35.8396 23.0993 35.7728 23.0265 35.7258C23.022 35.7233 23.0174 35.7184 23.0129 35.7159C23.0106 35.7134 23.0038 35.7085 23.0038 35.7085C22.8788 35.6194 22.8288 35.4437 22.8901 35.2903C22.9515 35.1393 23.1038 35.0601 23.247 35.0948L23.597 35.1665C23.5357 35.1319 23.472 35.0923 23.4311 35.0651C23.3197 34.9859 23.2743 34.8275 23.3288 34.6889C23.3834 34.5504 23.5198 34.4786 23.6493 34.5108L24.1789 34.6221C24.1835 34.6246 24.1903 34.6246 24.1903 34.6246H24.1925L24.563 34.6939C24.5153 34.6766 24.4653 34.6593 24.413 34.632C24.3517 34.6023 24.263 34.5479 24.2153 34.5157C24.1312 34.4539 24.0948 34.3351 24.138 34.2287C24.1812 34.1223 24.2835 34.0678 24.3835 34.0926L24.7903 34.1767C24.7926 34.1767 24.7949 34.1767 24.7949 34.1767H24.7972L25.3313 34.2881L25.379 34.2955V34.2881L25.6177 34.3376L25.8882 34.3846C25.9018 34.3871 25.9132 34.3895 25.9268 34.392C25.9495 34.3969 25.9723 34.4068 25.9927 34.4167L28.2725 34.8919C28.318 34.9018 28.3589 34.9166 28.3998 34.9364C28.4021 34.9364 28.4066 34.9364 28.4066 34.9364C28.468 34.9315 28.5293 34.9315 28.5907 34.9315C28.6794 34.7508 28.8703 34.6469 29.0635 34.6939L29.243 34.7384C29.3476 34.7657 29.4317 34.83 29.4908 34.9166C31.0455 34.8968 32.8275 34.929 34.5299 35.1121C35.6869 35.2358 36.7847 35.4016 37.8212 35.5922C37.9144 35.6045 38.0098 35.6219 38.1053 35.6441C38.2348 35.6763 38.3576 35.7159 38.478 35.7654C38.4803 35.7604 38.4803 35.753 38.4803 35.7481C40.1282 36.0277 42.3466 36.4756 44.2059 37.0027C45.1855 37.2798 46.122 37.5793 47.0152 37.8911C47.1153 37.9183 47.213 37.9529 47.3062 37.9925C47.3085 37.995 47.313 37.995 47.3153 37.995L47.3198 37.9925C48.4722 38.4775 49.1814 39.8039 48.9427 41.1748C48.7041 42.5458 47.6039 43.4985 46.3675 43.496C46.3629 43.496 46.3606 43.496 46.3561 43.496C46.272 43.496 46.1879 43.491 46.1015 43.4812C45.1764 43.4218 44.1945 43.3203 43.1626 43.1595C40.9647 42.8155 38.5712 42.2142 36.9143 41.6302C36.9029 41.6252 36.8915 41.6227 36.8802 41.6178C36.8779 41.6178 36.8779 41.6178 36.8779 41.6178C36.8211 41.6029 36.7688 41.5881 36.7142 41.5708C35.73 41.2961 34.4708 41.014 33.4253 40.6106C31.7478 39.9598 30.2341 39.2372 28.8839 38.4998C28.793 38.673 28.6066 38.7695 28.4202 38.7225L28.2407 38.678C28.0088 38.6211 27.8634 38.3687 27.9156 38.1138C27.8861 38.1261 27.8543 38.136 27.8202 38.1385L25.5359 38.3563V38.3489C25.5336 38.3489 25.5313 38.3489 25.529 38.3489C25.4904 38.3538 25.4563 38.3538 25.4199 38.3489H24.6721C24.4517 38.3736 24.2539 38.1954 24.2312 37.9554C24.2085 37.7178 24.3676 37.5026 24.588 37.4753L25.1017 37.359L24.3289 37.1066L23.5652 36.8839C23.5425 36.8765 23.5198 36.8691 23.497 36.8592C23.4016 36.8319 23.2925 36.7899 23.1765 36.733C23.0947 36.6934 22.9833 36.6266 22.9106 36.5795C22.9061 36.5771 22.9015 36.5721 22.897 36.5696C22.8947 36.5672 22.8879 36.5622 22.8879 36.5622C22.7629 36.4731 22.7129 36.2974 22.7742 36.144C22.8356 35.9931 22.9879 35.9139 23.1311 35.9485L23.7198 36.0722C23.7243 36.0747 23.7311 36.0747 23.7311 36.0747ZM23.7311 36.0747L24.1175 36.1539H24.1244L23.7334 36.0747H23.7311Z" stroke="#2E2A47" stroke-linecap="round" stroke-linejoin="round"/>
<path d="M66.2083 72.0053C65.8901 73.1708 64.765 73.8365 63.6944 73.4901C63.2785 73.3564 62.933 73.0892 62.683 72.7452L62.6761 72.7353L55.4527 62.7801L55.43 62.7504L47.6701 52.2928C46.7723 51.0827 46.4177 49.4272 46.8541 47.8237C47.5587 45.2328 50.0613 43.753 52.441 44.5201C53.6752 44.9185 54.6367 45.8415 55.1754 47.0021L60.76 59.0038L60.7714 59.0261L66.0606 70.3671L66.0674 70.3845C66.2924 70.8695 66.356 71.4436 66.2037 72.0053H66.2083Z" fill="white" stroke="#2E2A47" stroke-linecap="round" stroke-linejoin="round"/>
<path d="M65.391 67.91C65.5161 68.1451 65.4547 68.4445 65.2501 68.598C64.5682 69.1152 63.8113 69.6448 62.9793 70.1645C62.1133 70.7064 61.2813 71.1642 60.5017 71.5528C60.4062 71.5998 60.2926 71.5602 60.2403 71.4612C60.0925 71.184 59.6811 70.4936 59.5334 70.2164C59.472 70.1001 59.5174 69.9541 59.6288 69.9021C60.4267 69.526 61.3018 69.0583 62.2201 68.4792C63.0543 67.9521 63.7953 67.4101 64.4432 66.8904C64.5773 66.7815 64.7705 66.8261 64.8523 66.9845C64.9432 67.1552 65.2978 67.7392 65.3888 67.91H65.391Z" fill="#5E58A5" stroke="#2E2A47" stroke-linecap="round" stroke-linejoin="round"/>
<path d="M51.0293 60.4665L60.9166 71.3818L65.3057 68.739L54.8774 46.4529L52.2158 42.501L51.0293 60.4665Z" fill="#B5AEFF" stroke="#2E2A47" stroke-linecap="round" stroke-linejoin="round"/>
<path opacity="0.3" d="M51.568 59.1646L52.0749 58.2292L60.237 70.3894L51.0293 60.4663L51.568 59.1646Z" fill="#2E2A47"/>
<path opacity="0.3" d="M55.0919 46.9106L53.9395 47.0417L54.2281 45.7747L54.9373 46.23L55.0919 46.9106Z" fill="#2E2A47"/>
<path d="M45.9405 49.5982C45.5314 49.6378 45.1109 49.6774 44.7199 49.5487C44.3494 49.4274 44.0335 49.1651 43.738 48.8929C43.3334 48.5193 42.9607 48.106 42.6538 47.6334C42.4515 47.3216 42.347 46.9405 42.1174 46.6485C41.9106 46.3862 41.6128 46.2204 41.306 46.1412C41.0241 46.0694 40.7332 46.0694 40.4468 46.0942C40.1604 46.1189 39.9081 46.2451 39.6331 46.2402C39.6149 46.2402 39.5944 46.2402 39.5808 46.2228C39.5694 46.2105 39.5671 46.1907 39.5649 46.1709C39.524 45.7329 39.5603 45.1093 39.8331 44.7529C39.974 44.5698 40.1627 44.4387 40.3604 44.3372C41.2559 43.8745 42.3856 44.0081 43.1698 44.6688" fill="#DEDAFF"/>
<path d="M45.9405 49.5982C45.5314 49.6378 45.1109 49.6774 44.7199 49.5487C44.3494 49.4274 44.0335 49.1651 43.738 48.8929C43.3334 48.5193 42.9607 48.106 42.6538 47.6334C42.4515 47.3216 42.347 46.9405 42.1174 46.6485C41.9106 46.3862 41.6128 46.2204 41.306 46.1412C41.0241 46.0694 40.7332 46.0694 40.4468 46.0942C40.1604 46.1189 39.9081 46.2451 39.6331 46.2402C39.6149 46.2402 39.5944 46.2402 39.5808 46.2228C39.5694 46.2105 39.5671 46.1907 39.5649 46.1709C39.524 45.7329 39.5603 45.1093 39.8331 44.7529C39.974 44.5698 40.1627 44.4387 40.3604 44.3372C41.2559 43.8745 42.3856 44.0081 43.1698 44.6688" stroke="#2E2A47" stroke-linecap="round" stroke-linejoin="round"/>
<path d="M53.6058 49.0908C53.1308 52.9066 52.6034 56.8784 51.8193 60.9787C51.567 62.2977 51.2147 63.5919 50.9419 64.8688C50.9419 64.8737 50.9419 64.8787 50.9419 64.8812C50.9056 65.0964 50.8578 65.3117 50.801 65.5245C49.9123 68.7836 46.7665 70.6445 43.7708 69.6769C42.3502 69.2191 41.2182 68.207 40.5159 66.9202L40.5 66.8905C39.7545 65.5072 39.5044 63.8121 39.9227 62.1517L42.8093 49.853C42.7729 49.4991 42.8775 49.0092 42.932 48.4153C42.932 48.4153 43.0502 47.1062 43.5821 45.9679C44.4572 44.1045 47.4825 42.016 50.0918 42.8574C52.5784 43.6591 54.0672 46.3713 53.6104 49.0884L53.6058 49.0908Z" fill="#B5AEFF"/>
<path d="M50.9417 64.8662L50.9395 64.8811" stroke="#2E2A47" stroke-linecap="round" stroke-linejoin="round"/>
<path d="M40.5594 67.0015L40.514 66.9223L40.498 66.8926" stroke="#2E2A47" stroke-linecap="round" stroke-linejoin="round"/>
<path d="M21.2728 32.8527L21.2637 32.8379" stroke="#2E2A47" stroke-linecap="round" stroke-linejoin="round"/>
<path d="M43.5779 45.9705C43.3551 46.5372 43.121 47.2746 42.9687 48.1581C42.805 49.1109 42.7868 49.9448 42.8164 50.5907" stroke="#2E2A47" stroke-linecap="round" stroke-linejoin="round"/>
<path d="M50.9409 64.8662V64.8786C50.9023 65.0939 50.8546 65.3092 50.7977 65.522C50.4909 66.6504 49.9113 67.613 49.1635 68.348L49.1794 68.3653C47.061 70.4736 44.0084 71.3571 41.0536 70.4043C38.9488 69.7263 37.2691 68.2366 36.2168 66.3411L36.1804 66.2767L20.3516 37.8017C20.5925 38.1481 21.8017 37.626 23.37 36.5694C24.0519 36.1116 24.802 35.5498 25.5725 34.9139C25.6157 34.8767 25.6612 34.8421 25.7044 34.805C26.8295 33.8671 27.7955 32.9317 28.4819 32.1473C29.3002 31.2094 29.7207 30.4868 29.5343 30.2196L29.5434 30.2122L44.6949 52.4438L46.7633 55.4777L49.8636 60.0259L49.9158 60.1002C50.825 61.4315 51.2296 63.1489 50.9432 64.8662H50.9409Z" fill="#B5AEFF"/>
<path d="M54.2867 44.0005C54.0003 47.0121 53.6139 50.1821 53.1048 53.4906C52.7707 55.6534 52.4184 57.8161 52.007 59.9641C51.5956 62.112 51.2842 64.2129 50.5841 66.1654C50.2841 67.0043 49.7749 67.7516 49.1612 68.3504L49.1771 68.3678C47.0587 70.4761 44.0062 71.3595 41.0513 70.4068C38.9466 69.7288 37.2669 68.2391 36.2145 66.3436L36.1781 66.2792C36.1781 66.2792 20.3493 37.8042 20.3516 37.8017C20.5925 38.1481 21.8017 37.6285 23.37 36.5694C24.0519 36.1116 24.802 35.5498 25.5725 34.9139C25.6157 34.8767 25.6612 34.8421 25.7044 34.805C26.8295 33.8671 27.7955 32.9317 28.4819 32.1473C29.3002 31.2094 29.7207 30.4868 29.5343 30.2196L29.5434 30.2122C35.4667 38.9029 41.3877 47.5936 47.311 56.2819" stroke="#2E2A47" stroke-linecap="round" stroke-linejoin="round"/>
<path d="M20.3509 37.8018L20.3418 37.782" stroke="#2E2A47" stroke-linecap="round" stroke-linejoin="round"/>
<path d="M28.4805 32.1474C27.794 32.9318 26.828 33.8672 25.7029 34.8051C25.6597 34.8422 25.6166 34.8769 25.5711 34.914C24.8006 35.55 24.0505 36.1092 23.3686 36.5695C21.8003 37.6261 20.5911 38.1483 20.3501 37.8018C20.1001 37.443 20.9479 36.2552 22.389 34.8348C22.5253 34.7012 22.6663 34.5626 22.814 34.424C23.2709 33.9959 23.7732 33.5505 24.3119 33.1075C26.1007 31.6327 27.7895 30.5538 28.7532 30.2222C29.1555 30.0836 29.4306 30.0737 29.5328 30.2222C29.7192 30.487 29.2987 31.212 28.4805 32.1499V32.1474Z" fill="#2E2A47" stroke="#2E2A47" stroke-linecap="round" stroke-linejoin="round"/>
<path d="M31.4459 32.432L31.4414 32.427" stroke="#2E2A47" stroke-linecap="round" stroke-linejoin="round"/>
<path d="M29.8461 29.9746C29.8461 29.9746 29.8461 29.9697 29.8438 29.9672C29.7347 29.8113 29.4392 29.8187 29.0119 29.9672C27.9846 30.321 26.1821 31.4717 24.2728 33.0456C23.6978 33.5182 23.1636 33.9933 22.6749 34.4511C22.5181 34.5996 22.3658 34.7456 22.2203 34.8891C20.7247 36.359 19.8292 37.5988 20.0247 38.017C20.0292 38.0319 20.0338 38.0418 20.0406 38.0516C20.2997 38.4228 21.5885 37.8661 23.2614 36.7376C23.9887 36.2502 24.7911 35.6513 25.6116 34.9733C25.6593 34.9337 25.7048 34.8966 25.7525 34.857C26.9526 33.8548 27.9823 32.86 28.7164 32.0211C29.5824 31.0288 30.0325 30.2617 29.8438 29.9746H29.8461ZM28.4801 32.1473C27.7936 32.9317 26.8276 33.8671 25.7025 34.805C25.6593 34.8421 25.6161 34.8768 25.5707 34.9139C24.8001 35.5498 24.0501 36.1091 23.3682 36.5694C21.7999 37.626 20.5906 38.1482 20.3497 37.8017C20.0997 37.4429 20.9475 36.2551 22.3885 34.8347C22.5249 34.7011 22.6658 34.5625 22.8136 34.4239C23.2705 33.9958 23.7728 33.5504 24.3115 33.1074C26.1003 31.6326 27.7891 30.5537 28.7528 30.2221C29.1551 30.0835 29.4301 30.0736 29.5324 30.2221C29.7188 30.4868 29.2983 31.2119 28.4801 32.1498V32.1473Z" fill="#5E58A5" stroke="#2E2A47" stroke-linecap="round" stroke-linejoin="round"/>
<path d="M30.9164 32.9465L24.7181 38.7321L22.9043 34.4115C23.7703 34.0007 24.8386 33.3894 25.9569 32.4862C27.2138 31.4692 28.1344 30.4051 28.7753 29.5439L30.9164 32.9465Z" fill="#EAC9F8" stroke="#2E2A47" stroke-linecap="round" stroke-linejoin="round"/>
<path d="M28.7766 29.544C28.1356 30.4052 27.2151 31.4692 25.9581 32.4863C24.8398 33.3895 23.7715 34.0007 22.9055 34.4115L21.4531 30.952L25.8195 24.8423L28.7766 29.5465V29.544Z" fill="white" stroke="#2E2A47" stroke-linecap="round" stroke-linejoin="round"/>
<path d="M22.4688 33.3696C23.2393 33.043 24.1826 32.5555 25.1691 31.813C26.6034 30.7341 27.5809 29.5338 28.2037 28.6331" stroke="#2E2A47" stroke-linecap="round" stroke-linejoin="round"/>
<path d="M29.5343 30.2195C29.7207 30.4843 29.3002 31.2093 28.4819 32.1472C27.7955 32.9316 26.8295 33.867 25.7044 34.8049C25.6612 34.842 25.618 34.8766 25.5725 34.9138C24.802 35.5497 24.0519 36.109 23.37 36.5693C21.8017 37.6259 20.5925 38.148 20.3516 37.8016" stroke="#2E2A47" stroke-linecap="round" stroke-linejoin="round"/>
<path d="M30.5829 35.0896C29.8238 35.9557 28.7577 36.9876 27.519 38.022C27.4713 38.0615 27.4235 38.1011 27.3735 38.1432C26.5234 38.8435 25.6961 39.4622 24.9437 39.9695C23.2117 41.135 21.8798 41.7116 21.6139 41.328C21.607 41.3181 21.6002 41.3057 21.5934 41.2909L20.0273 38.022C20.0273 38.022 20.0364 38.0418 20.0433 38.0517C20.3024 38.4228 21.5911 37.8661 23.264 36.7376C23.9914 36.2502 24.7937 35.6513 25.6143 34.9733C25.662 34.9337 25.7074 34.8966 25.7552 34.857C26.9553 33.8548 27.9849 32.86 28.7191 32.0211C29.5851 31.0288 30.0351 30.2617 29.8465 29.9746L31.7444 32.9664C31.949 33.2584 31.4853 34.0577 30.5829 35.092V35.0896Z" fill="#B5AEFF" stroke="#2E2A47" stroke-linecap="round" stroke-linejoin="round"/>
<g opacity="0.3">
<path d="M49.1778 68.3677L49.1619 68.3503C49.2506 68.2613 49.3392 68.1697 49.4233 68.0757C49.4347 68.0633 49.446 68.0509 49.4551 68.0385C49.887 67.5511 50.2507 66.9893 50.5007 66.3707C50.5007 66.3707 50.5007 66.3707 50.5007 66.3682C50.5143 66.3385 50.5257 66.3063 50.537 66.2766C50.5734 66.1875 50.6075 66.096 50.6416 66.002C50.653 65.9673 50.6666 65.9327 50.678 65.898C50.7189 65.7768 50.7575 65.653 50.7916 65.5268C50.7916 65.5268 50.7916 65.5219 50.7916 65.5194C50.9371 65.0567 51.0621 64.5816 51.178 64.1015C49.9324 66.0242 48.3436 67.5758 46.3162 68.3157C40.011 70.6146 33.4195 61.0206 30.6328 56.314L35.306 64.7226C35.3196 64.7473 35.3333 64.7721 35.3469 64.7968L35.7379 65.5021C35.7856 65.5887 35.8288 65.6679 35.8697 65.7397L35.9606 65.9054C36.0947 66.148 36.1697 66.2816 36.1697 66.2816L36.2061 66.3459C37.2585 68.2415 38.9404 69.7312 41.0429 70.4092C43.9955 71.3619 47.0481 70.4785 49.1687 68.3701L49.1778 68.3677Z" fill="#2E2A47"/>
<path d="M29.2698 53.8467L29.2676 53.8442L29.2698 53.8467Z" fill="#2E2A47"/>
</g>
<path d="M52.4027 45.2527C52.2777 48.3459 51.9572 52.9338 51.2844 56.8288C50.9207 58.9346 50.4934 60.9069 50.0343 62.7381C49.6047 64.448 47.534 64.8241 46.6249 63.3542C41.1925 54.5967 35.7624 45.8367 30.3301 37.0791" stroke="#2E2A47" stroke-linecap="round" stroke-linejoin="round"/>
<path d="M51.5685 43.0256C51.5071 46.4777 51.2571 50.3801 50.6752 54.624C50.3047 57.3238 49.8456 59.8429 49.3365 62.169C49.1183 63.1688 47.9113 63.4088 47.3817 62.5551C41.988 53.8569 36.3647 44.8395 30.9688 36.1414" stroke="#2E2A47" stroke-linecap="round" stroke-linejoin="round"/>
<path d="M48.8714 45.6116C48.8305 46.349 48.7486 47.1781 48.6054 48.0788C48.4986 48.7421 48.3736 49.3508 48.2417 49.8978C48.2372 49.9324 48.2099 50.0883 48.1008 50.1997C48.0304 50.2714 47.9394 50.3061 47.8462 50.2912C47.3643 50.3086 46.8052 50.2863 46.1892 50.1823C45.7096 50.1007 45.2777 49.9819 44.8935 49.8507C44.8708 49.8483 44.7412 49.826 44.648 49.6676C44.5889 49.5686 44.5594 49.4375 44.5708 49.3014C44.5867 49.1108 44.6026 48.9202 44.6208 48.7297" stroke="#2E2A47" stroke-width="1.17" stroke-linecap="round" stroke-linejoin="round"/>
<path opacity="0.3" d="M54.1578 44.1885L44.2363 45.7722C44.2363 45.7722 44.225 45.2229 43.7522 45.6015L43.3135 46.7274L43.1612 47.3634C43.1612 47.3634 42.8044 49.8553 42.8067 49.8528C43.8772 49.0411 45.1023 47.9523 48.3913 46.9427C51.3825 46.0246 53.9987 46.2919 53.9987 46.2919L53.9418 47.0417L54.16 44.1885H54.1578Z" fill="#2E2A47"/>
<path d="M47.8753 40.754C47.3321 40.6847 42.4839 39.6702 40.0223 42.944C39.6609 43.4241 39.379 43.8349 39.1699 44.3347C39.2904 44.5104 39.4109 44.6886 39.5313 44.8643C39.6632 45.0598 39.8904 45.5597 40.12 45.6017C40.2064 45.6166 40.295 45.6017 40.3814 45.5869C41.2724 45.4483 42.2157 45.77 43.0499 46.0843C43.6181 46.2971 44.1659 46.5718 44.7432 46.7623C45.1819 46.9058 45.6319 46.9949 46.0888 47.0296C48.2754 47.2003 48.6413 45.6364 51.2757 45.5745C52.0166 45.5572 52.7554 45.7156 53.46 45.9531C53.5782 45.9927 53.6918 46.0422 53.81 46.0818C53.9282 46.1214 54.0509 46.1585 54.1555 46.2352C54.2305 46.2921 54.2896 46.3664 54.3601 46.4258C54.4532 46.5074 54.5623 46.5643 54.6783 46.5965C54.7942 46.6287 54.9169 46.6064 55.0328 46.6361C55.051 46.6411 55.1488 46.6905 55.1579 46.6856C55.9079 46.1956 57.4126 44.5104 58.5491 44.0032C59.5651 43.5503 58.1945 43.6641 58.4309 43.3449C58.7537 42.9094 58.7014 42.5605 58.9378 42.1497C55.2511 41.6845 51.5643 41.2168 47.8776 40.7515L47.8753 40.754Z" fill="white" stroke="#2E2A47" stroke-linecap="round" stroke-linejoin="round"/>
<path d="M61.0943 33.9116L58.6758 35.7899L60.0373 37.641L61.3557 36.1488" fill="#EAC9F8"/>
<path d="M61.0943 33.9116L58.6758 35.7899L60.0373 37.641L61.3557 36.1488" stroke="#2E2A47" stroke-linecap="round" stroke-linejoin="round"/>
<path d="M60.7502 33.8844C60.6615 33.6345 60.3501 33.5132 60.1365 33.6469C59.9228 33.7805 59.8591 34.1319 60.0114 34.3423C60.1637 34.5526 60.4933 34.5675 60.6615 34.3744" fill="#EAC9F8"/>
<path d="M60.7502 33.8844C60.6615 33.6345 60.3501 33.5132 60.1365 33.6469C59.9228 33.7805 59.8591 34.1319 60.0114 34.3423C60.1637 34.5526 60.4933 34.5675 60.6615 34.3744" stroke="#2E2A47" stroke-linecap="round" stroke-linejoin="round"/>
<path d="M60.4282 33.9589C60.4169 33.9564 60.3578 33.9415 60.2987 33.9811C60.2532 34.0133 60.235 34.0603 60.2305 34.0752" stroke="#2E2A47" stroke-linecap="round" stroke-linejoin="round"/>
<path d="M60.3047 34.011L60.3683 34.11" stroke="#2E2A47" stroke-linecap="round" stroke-linejoin="round"/>
<path d="M62.8463 34.5107L62.8963 34.6493C62.9281 34.7384 62.9872 34.8127 62.9917 34.9116C62.9963 35.0082 62.9417 35.1121 62.869 35.1443C62.7963 35.1764 62.7099 35.1368 62.6758 35.0527" fill="#EAC9F8"/>
<path d="M62.8463 34.5107L62.8963 34.6493C62.9281 34.7384 62.9872 34.8127 62.9917 34.9116C62.9963 35.0082 62.9417 35.1121 62.869 35.1443C62.7963 35.1764 62.7099 35.1368 62.6758 35.0527" stroke="#2E2A47" stroke-linecap="round" stroke-linejoin="round"/>
<path d="M61.0658 36.0672C61.2635 36.2207 61.4772 36.3172 61.684 36.3469C62.4978 36.4558 62.8774 35.6861 62.8978 34.1691C62.916 32.8056 62.3182 32.37 61.5045 32.2611C60.6907 32.1522 60.2838 32.5309 60.1406 33.793" fill="#EAC9F8"/>
<path d="M61.0658 36.0672C61.2635 36.2207 61.4772 36.3172 61.684 36.3469C62.4978 36.4558 62.8774 35.6861 62.8978 34.1691C62.916 32.8056 62.3182 32.37 61.5045 32.2611C60.6907 32.1522 60.2838 32.5309 60.1406 33.793" stroke="#2E2A47" stroke-linecap="round" stroke-linejoin="round"/>
<path d="M62.7402 33.5902C62.622 33.511 62.4652 33.5011 62.3379 33.5654" stroke="#2E2A47" stroke-linecap="round" stroke-linejoin="round"/>
<mask id="mask0_339_20562" style="mask-type:luminance" maskUnits="userSpaceOnUse" x="60" y="32" width="3" height="5">
<path d="M61.0264 35.9584C61.2582 36.1712 61.5196 36.3098 61.7719 36.3444C62.5857 36.4533 62.9653 35.6837 62.9857 34.1667C63.0039 32.8031 62.4061 32.3676 61.5924 32.2587C60.7786 32.1498 60.3717 32.5284 60.2285 33.7905" fill="white"/>
</mask>
<g mask="url(#mask0_339_20562)">
<path d="M62.7849 35.8714C62.9008 35.8442 63.0122 35.77 63.0827 35.666C63.0872 35.6586 63.1213 35.5869 63.1259 35.5869C63.1259 35.5869 62.8304 35.6116 62.5644 35.4483C62.2985 35.2849 62.2871 35.2107 62.2871 35.2107" stroke="#2E2A47" stroke-linecap="round" stroke-linejoin="round"/>
<path d="M62.3142 34.0971C62.3097 34.1144 62.3074 34.1342 62.3029 34.154C62.2847 34.2876 62.3279 34.4139 62.4302 34.493C62.5279 34.5698 62.6529 34.5995 62.7734 34.5945C62.8939 34.5896 63.0212 34.5524 63.0984 34.4584C63.1212 34.4287 63.1394 34.3965 63.1485 34.3594C63.178 34.2431 63.1189 34.1293 63.0462 34.0501C62.9484 33.9461 62.812 33.8719 62.6779 33.8471C62.5711 33.8273 62.4574 33.8546 62.3847 33.9486C62.3506 33.9907 62.3279 34.0426 62.3142 34.0971Z" fill="white" stroke="#2E2A47" stroke-linecap="round" stroke-linejoin="round"/>
<path d="M62.8722 34.4114C62.9915 34.4114 63.0881 34.3061 63.0881 34.1763C63.0881 34.0464 62.9915 33.9412 62.8722 33.9412C62.7529 33.9412 62.6562 34.0464 62.6562 34.1763C62.6562 34.3061 62.7529 34.4114 62.8722 34.4114Z" fill="#2E2A47" stroke="#2E2A47" stroke-linecap="round" stroke-linejoin="round"/>
<path d="M62.8972 34.2729C62.9612 34.2729 63.0131 34.2164 63.0131 34.1467C63.0131 34.077 62.9612 34.0205 62.8972 34.0205C62.8332 34.0205 62.7812 34.077 62.7812 34.1467C62.7812 34.2164 62.8332 34.2729 62.8972 34.2729Z" fill="white"/>
<path d="M62.3142 34.0971C62.3097 34.1144 62.3074 34.1342 62.3029 34.154C62.2847 34.2876 62.3279 34.4139 62.4302 34.493C62.5279 34.5698 62.6529 34.5995 62.7734 34.5945C62.8939 34.5896 63.0212 34.5524 63.0984 34.4584C63.1212 34.4287 63.1394 34.3965 63.1485 34.3594C63.178 34.2431 63.1189 34.1293 63.0462 34.0501C62.9484 33.9461 62.812 33.8719 62.6779 33.8471C62.5711 33.8273 62.4574 33.8546 62.3847 33.9486C62.3506 33.9907 62.3279 34.0426 62.3142 34.0971Z" stroke="#2E2A47" stroke-linecap="round" stroke-linejoin="round"/>
</g>
<path d="M61.7476 36.3518C62.5182 36.4137 62.8796 35.6465 62.8978 34.1691C62.916 32.8056 62.3182 32.37 61.5044 32.2611C60.6906 32.1522 60.2838 32.5309 60.1406 33.793C60.1042 34.1097 60.1337 34.4191 60.2065 34.7086" stroke="#2E2A47" stroke-linecap="round" stroke-linejoin="round"/>
<path d="M60.5957 37.0096L61.2253 36.2944" stroke="#2E2A47" stroke-linecap="round" stroke-linejoin="round"/>
<path opacity="0.4" d="M59.3809 36.7478C59.4763 36.8072 59.8332 37.0126 60.2992 36.926C60.7561 36.8394 61.0266 36.53 61.1016 36.4385C60.747 36.8394 60.3924 37.2428 60.0378 37.6437L59.3809 36.7503V36.7478Z" fill="#2E2A47"/>
<path d="M43.1953 42.1448L47.4616 38.2548L57.5604 36.4607C57.5604 36.4607 61.3244 37.0422 61.6971 39.2496C62.0699 41.4569 58.6741 43.6271 58.6741 43.6271" fill="white"/>
<path d="M43.1953 42.1448L47.4616 38.2548L57.5604 36.4607C57.5604 36.4607 61.3244 37.0422 61.6971 39.2496C62.0699 41.4569 58.6741 43.6271 58.6741 43.6271" stroke="#2E2A47" stroke-linecap="round" stroke-linejoin="round"/>
<path d="M59.0488 38.3488C59.3852 38.3958 60.1854 38.5369 60.6127 38.6754C61.0218 38.8066 61.4014 39.0961 61.6992 39.2496C61.681 39.0986 61.6333 38.8536 61.4946 38.5888C61.3696 38.3537 61.1491 38.1211 61.0468 38.0295" fill="white"/>
<path d="M59.0488 38.3488C59.3852 38.3958 60.1854 38.5369 60.6127 38.6754C61.0218 38.8066 61.4014 39.0961 61.6992 39.2496C61.681 39.0986 61.6333 38.8536 61.4946 38.5888C61.3696 38.3537 61.1491 38.1211 61.0468 38.0295" stroke="#2E2A47" stroke-linecap="round" stroke-linejoin="round"/>
<path d="M74.5887 38.0813C75.3582 38.0813 75.9821 37.4022 75.9821 36.5644C75.9821 35.7265 75.3582 35.0474 74.5887 35.0474C73.8192 35.0474 73.1953 35.7265 73.1953 36.5644C73.1953 37.4022 73.8192 38.0813 74.5887 38.0813Z" fill="#B5AEFF" stroke="#2E2A47" stroke-linecap="round" stroke-linejoin="round"/>
<path d="M78.0395 32.9341C77.9895 32.9713 77.9031 33.043 77.8485 33.0975C77.7781 33.1668 77.7212 33.236 77.6735 33.2979C77.6599 33.3103 77.6485 33.3251 77.6394 33.34L77.6031 33.3919C77.6031 33.3919 77.9122 32.8995 77.9122 32.897C77.9122 32.8946 77.9167 32.8896 77.919 32.8871L78.2486 32.3625C78.3349 32.2363 78.3281 32.0581 78.2258 31.9394C78.1236 31.8206 77.9599 31.8033 77.8372 31.8874C77.7713 31.9369 77.6599 32.0309 77.5871 32.1027C77.494 32.1942 77.4189 32.2833 77.3576 32.365C77.3417 32.3823 77.3258 32.4021 77.3098 32.4194L77.4121 32.2314C77.4121 32.2314 77.4167 32.2215 77.4189 32.2165L77.7531 31.6127C77.8394 31.4667 77.8235 31.2688 77.7031 31.145C77.5826 31.0213 77.4008 31.0114 77.2712 31.1129C77.203 31.1722 77.0825 31.2861 77.0053 31.3702C76.9075 31.4766 76.8303 31.583 76.7666 31.6771C76.7484 31.6969 76.7325 31.7191 76.7189 31.7414L76.2756 32.4293C76.2756 32.4293 76.6257 31.7686 76.628 31.7661C76.6302 31.7612 76.6325 31.7587 76.6348 31.7538L76.9575 31.1426C77.0416 30.9965 77.0212 30.7986 76.9007 30.6773C76.778 30.5536 76.5961 30.5486 76.4666 30.6551C76.3984 30.7144 76.2802 30.8332 76.2052 30.9174C76.1097 31.0262 76.0324 31.1327 75.9711 31.2292C75.9529 31.249 75.937 31.2712 75.9256 31.296L75.5438 31.9121C75.5074 31.88 75.4665 31.8528 75.4187 31.833C75.1937 31.7389 74.9414 31.8602 74.8551 32.1052L74.4914 32.8921C74.4687 32.9267 74.4527 32.9638 74.4368 33.0059C74.4368 33.0084 74.4368 33.0109 74.4368 33.0133V33.0183L73.9595 34.4238L73.7595 35.0276C73.6095 35.4805 73.7277 35.9903 74.0595 36.3095L74.9232 36.9009C75.2528 37.2177 75.762 37.1558 76.0188 36.7673C76.3938 36.1981 76.8257 35.6512 77.2144 35.0821C77.6031 34.5129 77.9781 33.8992 78.3531 33.3029C78.419 33.2064 78.4145 33.0703 78.3372 32.9812C78.2599 32.8896 78.1349 32.8772 78.0417 32.9416L78.0395 32.9341ZM75.4483 32.068L75.4006 32.1398L75.5392 31.922L75.4483 32.068Z" fill="#EAC9F8" stroke="#2E2A47" stroke-linecap="round" stroke-linejoin="round"/>
<path d="M75.3987 32.1448L74.6895 33.3054Z" fill="#EAC9F8"/>
<path d="M75.3987 32.1448L74.6895 33.3054" stroke="#2E2A47" stroke-linecap="round" stroke-linejoin="round"/>
<path d="M75.6602 33.3352C75.6715 33.3154 75.6852 33.298 75.6965 33.2807L76.2284 32.5061L76.2762 32.4319" fill="#EAC9F8"/>
<path d="M75.6602 33.3352C75.6715 33.3154 75.6852 33.298 75.6965 33.2807L76.2284 32.5061L76.2762 32.4319" stroke="#2E2A47" stroke-linecap="round" stroke-linejoin="round"/>
<path d="M76.2832 33.7931C76.2946 33.7758 76.3059 33.7609 76.3196 33.7461L76.8356 33.0804L77.3129 32.4221" fill="#EAC9F8"/>
<path d="M76.2832 33.7931C76.2946 33.7758 76.3059 33.7609 76.3196 33.7461L76.8356 33.0804L77.3129 32.4221" stroke="#2E2A47" stroke-linecap="round" stroke-linejoin="round"/>
<path d="M76.8535 34.3844L77.274 33.8425L77.6013 33.3921" fill="#EAC9F8"/>
<path d="M76.8535 34.3844L77.274 33.8425L77.6013 33.3921" stroke="#2E2A47" stroke-linecap="round" stroke-linejoin="round"/>
<path d="M75.0511 35.7922C74.5011 35.3963 73.9578 35.3592 73.7442 35.3567C72.4054 36.5791 70.1279 39.4868 68.6959 41.2709C68.4868 41.5308 68.28 41.8154 68.0777 42.1074L61.7566 38.393C60.2883 37.5294 58.4518 38.1233 57.6562 39.7219C56.8584 41.3229 57.4039 43.3248 58.8745 44.1934C58.9427 44.233 59.0109 44.2701 59.0791 44.3023L67.7845 48.566C68.9505 49.1352 70.3597 48.7318 71.103 47.5415C71.1553 47.4574 71.203 47.3733 71.2462 47.2842C71.7667 46.3513 72.2849 45.3466 72.7941 44.2701C73.7283 42.2929 75.3534 38.69 75.9376 36.9528C75.8535 36.74 75.6125 36.1956 75.0511 35.7897V35.7922Z" fill="#EAC9F8" stroke="#2E2A47" stroke-linecap="round" stroke-linejoin="round"/>
<path opacity="0.3" d="M74.1785 41.2461C74.1785 41.2461 72.026 44.5546 70.6304 45.7152C69.1325 46.9624 66.2164 47.6429 59.9316 44.7204L67.7824 48.5659C68.9484 49.1351 70.3577 48.7317 71.1009 47.5415C71.1532 47.4573 71.2009 47.3732 71.2441 47.2841C71.7646 46.3512 72.2829 45.3465 72.792 44.2701C73.1761 43.4559 73.6784 42.3671 74.1762 41.2437L74.1785 41.2461Z" fill="#2E2A47"/>
<path d="M65.3652 40.1352C65.5538 40.8132 65.9903 42.7186 65.2538 44.8666C64.822 46.1237 63.4968 47.4872 63.0513 47.9697C60.8988 46.4132 58.3486 43.4437 55.7324 41.8996L57.0916 38.6356C57.0916 38.6356 59.6464 37.0469 61.4921 37.9699C63.3377 38.8929 65.3697 40.1327 65.3697 40.1327L65.3652 40.1352Z" fill="white"/>
<path d="M59.3811 37.8984C60.2425 37.5099 60.6539 37.6856 60.6539 37.6856C62.4996 38.6086 65.3658 40.1379 65.3658 40.1379C65.5158 40.4275 65.7158 40.8828 65.8204 41.4693C66.0613 42.8328 65.6181 43.9513 65.2544 44.8693C64.9998 45.5103 63.8815 46.9802 63.0519 47.9725C61.7131 47.0024 59.5106 44.6367 58.1719 43.6692" fill="white"/>
<path d="M59.3811 37.8984C60.2425 37.5099 60.6539 37.6856 60.6539 37.6856C62.4996 38.6086 65.3658 40.1379 65.3658 40.1379C65.5158 40.4275 65.7158 40.8828 65.8204 41.4693C66.0613 42.8328 65.6181 43.9513 65.2544 44.8693C64.9998 45.5103 63.8815 46.9802 63.0519 47.9725C61.7131 47.0024 59.5106 44.6367 58.1719 43.6692" stroke="#2E2A47" stroke-linecap="round" stroke-linejoin="round"/>
<path opacity="0.3" d="M58.6978 43.0305C58.6796 43.0008 58.6614 42.9686 58.6432 42.9364C58.275 42.2683 58.2454 41.4567 58.3068 40.6994C58.3682 39.9422 58.5273 39.2122 58.9637 38.6356C58.9887 38.6035 59.0137 38.554 58.9887 38.5193C58.9637 38.4872 58.916 38.5069 58.8819 38.5292C58.2386 38.9598 57.7249 39.6329 57.4908 40.4149C57.2567 41.1968 57.3113 42.0852 57.6727 42.8078C58.1454 43.7506 59.0455 44.3098 59.7797 44.978C60.4547 45.5942 61.1298 46.2128 61.8049 46.8265C62.2208 47.2051 62.6368 47.5862 63.0527 47.9648L63.7096 47.1531C62.7618 46.4528 61.8208 45.7352 60.8934 45.0003C60.4775 44.6711 60.0661 44.3395 59.6524 44.0079C59.3001 43.7258 58.9455 43.4215 58.7 43.0231L58.6978 43.0305Z" fill="#2E2A47"/>
<path d="M67.6191 41.8379L69.2739 42.8203" stroke="#2E2A47" stroke-linecap="round" stroke-linejoin="round"/>
<path d="M76.1129 36.0999L73.8587 35.0354C73.6606 34.9418 73.4303 35.0408 73.3444 35.2565L73.2594 35.4699C73.1735 35.6855 73.2644 35.9362 73.4625 36.0298L75.7167 37.0943C75.9148 37.1879 76.145 37.0889 76.231 36.8732L76.316 36.6598C76.4019 36.4441 76.311 36.1935 76.1129 36.0999Z" fill="#F59DB6" stroke="#2E2A47" stroke-linecap="round" stroke-linejoin="round"/>
<path d="M22.4415 32.6794C22.4415 32.6794 22.5142 32.4913 20.1458 33.7286C20.0163 33.7954 19.8822 33.8672 19.7458 33.9414C19.7367 33.9464 19.7276 33.9513 19.7185 33.9563C17.6865 35.05 13.877 37.1955 11.4222 38.7025C10.7108 39.138 10.1153 39.5216 9.70843 39.8086C7.8878 41.0954 7.01953 39.8334 7.01953 39.8334L7.72642 39.3286C8.04918 39.3113 8.36285 39.237 8.62423 39.1257C9.97437 38.554 11.0586 37.386 12.1087 36.2428L12.2382 36.1017L13.7747 35.003L16.2136 33.2584C16.2136 33.2584 16.3977 33.152 16.7091 32.9714C17.4933 32.5185 19.0798 31.6079 20.5595 30.7838C21.8778 30.0489 23.112 29.3832 23.6143 29.1754C23.7666 29.111 23.853 29.0912 23.853 29.1209C23.8553 29.2496 23.8985 29.554 23.9485 29.8905C24.0167 30.326 24.1144 30.8086 24.1485 31.0165C24.3167 32.0137 22.437 32.6769 22.437 32.6769L22.4415 32.6794Z" fill="#D8F2C8" stroke="#2E2A47" stroke-linecap="round" stroke-linejoin="round"/>
<path d="M26.7612 26.295C25.211 26.2282 24.5382 28.683 24.1132 29.5739C24.0768 29.6531 24.0223 29.7595 23.9496 29.8906C23.7018 30.3459 23.2427 31.0858 22.5153 31.8653C21.9175 32.5062 21.1356 33.1719 20.1446 33.7287C20.0151 33.8005 19.881 33.8722 19.7446 33.9415C19.7355 33.9465 19.7264 33.9514 19.7173 33.9564C19.6173 34.0058 19.515 34.0553 19.4082 34.1024C18.1694 34.6666 16.6511 35.0476 14.8055 35.0476C14.4236 35.0476 14.0804 35.0328 13.7758 35.0056C13.6076 34.9907 13.4485 34.9709 13.3008 34.9487C16.0056 32.0039 18.7081 29.0616 21.4107 26.1169C22.363 25.08 23.4677 24.1817 23.9723 22.6723C24.0155 22.5436 24.0541 22.4075 24.0837 22.2714C24.1064 22.1699 24.1246 22.066 24.1337 21.9596L24.4542 21.6973C24.4542 21.6973 24.4496 21.7616 24.4814 21.8928C24.5155 22.0239 24.5928 22.2268 24.7655 22.4916C24.9906 22.843 25.3815 23.3057 26.052 23.8749C26.3384 24.1174 26.6544 24.4366 26.9158 24.7608C26.9248 24.7732 26.9362 24.788 26.9476 24.8004C27.0908 24.9786 27.2135 25.1592 27.3067 25.33C27.609 25.8843 27.584 26.3346 26.7635 26.2975L26.7612 26.295Z" fill="#D8F2C8" stroke="#2E2A47" stroke-linecap="round" stroke-linejoin="round"/>
<path d="M27.307 25.3274C26.2546 25.1245 25.8819 25.3646 25.1272 26.097C24.9181 26.2999 24.5908 26.8048 24.4294 27.1017C24.0203 27.8589 23.6112 29.3264 23.2452 30.1257C22.9929 30.6775 22.6725 31.6154 22.5156 31.8678" stroke="#2E2A47" stroke-linecap="round" stroke-linejoin="round"/>
<path d="M24.3828 23.9514C24.5737 24.3672 25.1329 25.07 27.0127 24.7879Z" fill="#D8F2C8"/>
<path d="M24.3828 23.9514C24.5737 24.3672 25.1329 25.07 27.0127 24.7879" stroke="#2E2A47" stroke-linecap="round" stroke-linejoin="round"/>
<path d="M24.7724 22.5856C24.7724 22.5535 24.7679 22.5213 24.7633 22.4916C24.7338 22.2417 24.6588 22.019 24.5451 21.8309L23.9292 20.8237C24.0269 20.9895 24.0928 21.1825 24.1224 21.3978C24.1292 21.4449 24.136 21.4943 24.1383 21.5463C24.1474 21.6849 24.1451 21.821 24.1315 21.9571C24.1224 22.061 24.1042 22.165 24.0815 22.2689C24.0519 22.405 24.0133 22.5411 23.9701 22.6698C23.4655 24.1793 22.3631 25.0775 21.4085 26.1144C18.7059 29.0591 16.0034 32.0014 13.2986 34.9462L12.2371 36.1018L12.1076 36.2429C11.0575 37.3861 9.97326 38.5541 8.62312 39.1258C8.36174 39.2371 8.04807 39.3089 7.72531 39.3262C7.27526 39.3509 6.79795 39.2668 6.40018 39.0243C6.24335 38.9303 6.0956 38.809 5.96832 38.6605C5.91604 38.6011 5.86831 38.5368 5.82285 38.4675C5.76375 38.376 5.71147 38.2794 5.66602 38.178L6.12742 39.2841C6.432 40.0117 7.10934 40.4026 7.75486 40.4818C9.15045 40.6526 10.3665 39.7493 11.4211 38.7026C11.8553 38.272 12.2598 37.8192 12.6394 37.4059C13.3622 36.619 14.0828 35.8346 14.8056 35.0476C15.4397 34.3572 16.0761 33.6643 16.7103 32.9739C18.0377 31.5288 19.3628 30.0836 20.6902 28.6409C21.1334 28.1584 21.5767 27.6759 22.0199 27.1933C22.9018 26.2332 23.9064 25.3968 24.461 24.0951C24.4747 24.0605 24.4906 24.0258 24.5042 23.9912C24.5383 23.9046 24.5724 23.813 24.6042 23.719C24.7224 23.3651 24.8043 22.9791 24.7747 22.5856H24.7724Z" fill="white" stroke="#2E2A47" stroke-linecap="round" stroke-linejoin="round"/>
<path d="M24.1383 21.5462C24.136 21.4967 24.1292 21.4472 24.1224 21.3977C24.0929 21.1825 24.0269 20.9894 23.9292 20.8236C23.9247 20.8162 23.9201 20.8088 23.9156 20.7989C23.7951 20.5985 23.6269 20.4376 23.4201 20.3238C22.1995 19.6457 20.3993 19.8981 19.3083 20.7445C16.3603 23.0334 13.5009 25.5031 10.8984 28.2474C9.61416 29.601 8.37767 31.0338 7.33666 32.62C6.52976 33.8499 5.74332 35.2628 5.55921 36.7897C5.52057 37.1138 5.46375 37.5494 5.55467 37.8686C5.57967 37.9601 5.61149 38.0492 5.64786 38.1383C5.65241 38.1507 5.65922 38.1655 5.66377 38.1779C5.70696 38.2769 5.75923 38.3734 5.8206 38.4674C5.86606 38.5367 5.9138 38.6011 5.96607 38.6604C6.09336 38.8089 6.23883 38.9302 6.39793 39.0242C6.79797 39.2667 7.27302 39.3509 7.72534 39.3261C8.0481 39.3088 8.36176 39.237 8.62315 39.1257C9.97329 38.554 11.0575 37.386 12.1076 36.2428L12.2371 36.1017L13.2986 34.9461C16.0034 32.0013 18.706 29.0591 21.4085 26.1143C22.3609 25.0775 23.4655 24.1792 23.9701 22.6697C24.0133 22.541 24.0519 22.4049 24.0815 22.2688C24.1042 22.1673 24.1224 22.0634 24.1315 21.957C24.1451 21.8209 24.1497 21.6848 24.1383 21.5462Z" stroke="#2E2A47" stroke-linecap="round" stroke-linejoin="round"/>
<path d="M19.4062 34.1048C19.4062 34.1048 20.9247 31.3232 20.6883 28.6406" stroke="#2E2A47" stroke-linecap="round" stroke-linejoin="round"/>
<path d="M65.5989 68.3033C65.6694 68.437 65.6376 68.6077 65.5216 68.6968C64.8011 69.2511 63.9919 69.8227 63.0941 70.3845C62.2122 70.9363 61.3667 71.399 60.5757 71.7925C60.503 71.8296 60.4166 71.7974 60.3757 71.7232C60.1916 71.3768 59.7438 70.6196 59.562 70.2731C59.546 70.2459 59.5574 70.2088 59.5847 70.1964C60.4257 69.8079 61.3553 69.3179 62.335 68.6993C63.2487 68.1202 64.0488 67.5288 64.7397 66.9621C64.7761 66.9324 64.8307 66.9448 64.8534 66.9869C65.0125 67.2888 65.4375 68.0014 65.5989 68.3033Z" fill="#B5AEFF" stroke="#2E2A47" stroke-linecap="round" stroke-linejoin="round"/>
<path opacity="0.3" d="M45.252 40.5633L45.6247 41.2958C45.6247 41.2958 52.0935 37.8883 53.9619 37.7349C55.8303 37.5815 57.4327 37.6507 58.6169 37.1855C59.8011 36.7203 58.3214 36.0744 58.3214 36.0744L47.2362 35.4756L45.8816 38.5441L45.252 40.5609V40.5633Z" fill="#2E2A47"/>
<path d="M44.8805 32.541C44.9282 31.7194 44.2918 31.0463 43.6463 30.6133C43.0599 30.2223 42.4234 29.9204 41.7597 29.7224C40.7915 29.4354 39.78 29.371 38.7935 29.1731C37.8071 28.9751 36.6297 28.5297 35.9023 27.7799C37.0275 28.4134 38.3208 28.6831 39.5822 28.5519C41.1392 28.3886 42.5871 27.6363 44.0941 27.1736C47.2603 26.1986 50.7538 26.5451 53.7064 28.1263C54.961 28.7969 56.1839 29.7026 57.5817 29.7744" fill="#5E58A5"/>
<path d="M44.8805 32.541C44.9282 31.7194 44.2918 31.0463 43.6463 30.6133C43.0599 30.2223 42.4234 29.9204 41.7597 29.7224C40.7915 29.4354 39.78 29.371 38.7935 29.1731C37.8071 28.9751 36.6297 28.5297 35.9023 27.7799C37.0275 28.4134 38.3208 28.6831 39.5822 28.5519C41.1392 28.3886 42.5871 27.6363 44.0941 27.1736C47.2603 26.1986 50.7538 26.5451 53.7064 28.1263C54.961 28.7969 56.1839 29.7026 57.5817 29.7744" stroke="#2E2A47" stroke-linecap="round" stroke-linejoin="round"/>
<path opacity="0.3" d="M44.8823 32.4441C45.6073 32.4045 46.0619 32.1917 45.7301 31.6275C44.9891 30.3729 43.589 29.6058 42.2911 29.2717C41.4138 29.0465 40.5114 29.1331 39.6227 29.0168C38.8521 28.9154 38.0862 28.7842 37.3247 28.6308C37.2292 28.611 37.0929 28.6085 37.002 28.564C37.5793 28.8609 38.2203 29.0614 38.7953 29.1777C39.7818 29.3756 40.7932 29.44 41.7615 29.727C42.4252 29.925 43.0616 30.2244 43.6481 30.6179C44.2663 31.0311 44.8777 31.6696 44.8823 32.4466V32.4441Z" fill="#2E2A47"/>
<path opacity="0.3" d="M40.6309 42.1845C40.6309 42.1845 43.1335 42.8724 45.5884 41.6524C48.0433 40.4324 44.886 39.4351 44.886 39.4351L41.6833 39.9127L41.3037 41.4816L40.6331 42.182L40.6309 42.1845Z" fill="#2E2A47"/>
<path d="M54.7223 29.3485C56.2611 29.0441 57.8408 28.7397 59.3819 29.0391C60.9229 29.3386 62.4413 30.3729 62.9391 31.9889C63.1709 32.7362 63.0595 33.7508 62.389 34.0428C62.1072 34.1665 61.7821 34.1318 61.5048 34.263C60.9798 34.5105 60.8184 35.2157 60.5138 35.7428C59.916 36.7796 58.6886 37.1706 57.5658 37.1929C56.4407 37.2152 55.3179 36.9553 54.1973 37.0642C51.6289 37.3117 49.5741 39.3953 47.2216 40.546C45.6374 41.3205 43.8622 41.6744 42.1438 41.4121C41.1596 41.2611 40.2118 40.9171 39.2822 40.5361C37.2479 39.7046 35.2045 38.6455 33.8066 36.8341C33.8066 36.8341 34.2499 37.037 34.6204 37.0865C37.057 37.4032 39.2254 36.067 41.0255 34.2531C41.5892 33.6839 42.0961 33.043 42.7098 32.5407C43.6735 31.7513 44.8464 31.3405 45.9965 30.9446C47.358 30.4744 48.5013 30.3779 49.8832 30.3037C51.4743 30.217 53.154 29.6603 54.7223 29.3509V29.3485Z" fill="#5E58A5" stroke="#2E2A47" stroke-linecap="round" stroke-linejoin="round"/>
<path d="M58.667 31.3431C57.4146 31.5485 56.1827 30.2964 55.1962 29.6357C54.0166 28.8463 52.6642 28.287 51.2618 28.3192C49.8662 28.3514 48.5138 28.97 47.3977 29.8831C45.6498 31.3085 44.5452 33.4292 43.1269 35.201C42.5904 35.8716 42.0222 36.5101 41.4244 37.1163C40.913 37.6335 40.0084 38.1631 39.3242 38.2992C40.2834 38.4848 41.288 38.3759 42.195 37.9899C42.9178 37.6805 43.5678 37.2054 44.2361 36.7773C46.2135 35.5128 48.5183 34.6418 50.7844 35.0228C51.6141 35.1614 52.4164 35.4658 53.2415 35.6365C54.1348 35.8221 55.0508 35.8543 55.9599 35.8543C56.9419 35.8543 57.967 35.8023 58.8193 35.2752C59.258 35.0055 59.6262 34.6195 60.0558 34.3324C60.4854 34.0454 61.015 33.8573 61.49 34.0355" fill="#5E58A5"/>
<path d="M58.667 31.3431C57.4146 31.5485 56.1827 30.2964 55.1962 29.6357C54.0166 28.8463 52.6642 28.287 51.2618 28.3192C49.8662 28.3514 48.5138 28.97 47.3977 29.8831C45.6498 31.3085 44.5452 33.4292 43.1269 35.201C42.5904 35.8716 42.0222 36.5101 41.4244 37.1163C40.913 37.6335 40.0084 38.1631 39.3242 38.2992C40.2834 38.4848 41.288 38.3759 42.195 37.9899C42.9178 37.6805 43.5678 37.2054 44.2361 36.7773C46.2135 35.5128 48.5183 34.6418 50.7844 35.0228C51.6141 35.1614 52.4164 35.4658 53.2415 35.6365C54.1348 35.8221 55.0508 35.8543 55.9599 35.8543C56.9419 35.8543 57.967 35.8023 58.8193 35.2752C59.258 35.0055 59.6262 34.6195 60.0558 34.3324C60.4854 34.0454 61.015 33.8573 61.49 34.0355" stroke="#2E2A47" stroke-linecap="round" stroke-linejoin="round"/>
<path opacity="0.3" d="M39.7207 38.3588C40.5549 38.4504 41.4118 38.3241 42.1937 37.9901C42.9165 37.6808 43.5665 37.2056 44.2348 36.7775C46.2123 35.513 48.517 34.642 50.7832 35.0231C51.6128 35.1616 52.4151 35.466 53.2402 35.6367C53.8516 35.7654 54.4744 35.8174 55.0995 35.8397C53.0538 35.5699 50.9877 33.7041 49.2626 33.5903C47.3919 33.4665 46.1486 34.3524 44.2098 36.0673C42.2982 37.7575 39.7934 38.3415 39.723 38.3588H39.7207Z" fill="#2E2A47"/>
<path d="M61.9177 34.1518C61.8677 33.7831 61.5131 33.5702 61.2198 33.7311C60.9266 33.892 60.7652 34.3844 60.9039 34.7061C61.0425 35.0278 61.4449 35.0922 61.6972 34.8373" fill="#EAC9F8"/>
<path d="M61.9177 34.1518C61.8677 33.7831 61.5131 33.5702 61.2198 33.7311C60.9266 33.892 60.7652 34.3844 60.9039 34.7061C61.0425 35.0278 61.4449 35.0922 61.6972 34.8373" stroke="#2E2A47" stroke-linecap="round" stroke-linejoin="round"/>
<path d="M61.5065 34.2187C61.4929 34.2137 61.4224 34.184 61.3428 34.2335C61.2792 34.2731 61.2474 34.335 61.2383 34.3573" stroke="#2E2A47" stroke-linecap="round" stroke-linejoin="round"/>
<path d="M61.3398 34.2729L61.3944 34.4214" stroke="#2E2A47" stroke-linecap="round" stroke-linejoin="round"/>
<path d="M54.7777 29.7569C54.7777 29.7569 51.4842 27.6881 48.9044 29.4302C46.3246 31.1723 49.9227 28.2597 54.7777 29.7569Z" fill="#DEDAFF"/>
<path d="M48.8532 27.1093C48.8532 27.1093 46.0756 26.8099 44.7504 27.3989C43.4252 27.9878 47.528 26.9584 48.8532 27.1093Z" fill="#DEDAFF"/>
<path d="M36.0273 37.4504C36.0273 37.4504 38.33 37.5271 38.9801 36.5051C39.6301 35.483 38.3981 37.3613 36.0273 37.4504Z" fill="#DEDAFF"/>
<path d="M48.6992 45.4905C48.3787 45.6761 47.8513 45.9285 47.1581 46.0225C46.4466 46.119 45.8624 46.0077 45.5078 45.9112" stroke="#2E2A47" stroke-linecap="round" stroke-linejoin="round"/>
<path d="M57.6455 44.5574C57.6455 44.5574 56.4816 45.2008 55.2383 45.087Z" fill="white"/>
<path d="M57.6455 44.5574C57.6455 44.5574 56.4816 45.2008 55.2383 45.087" stroke="#2E2A47" stroke-linecap="round" stroke-linejoin="round"/>
<path d="M29.0615 46.8516C27.0522 48.6828 24.2611 50.8604 20.6539 52.7386C17.6309 54.3124 14.8397 55.2577 12.5645 55.8392" stroke="#2E2A47" stroke-linecap="round" stroke-linejoin="round"/>
<path d="M65.9031 54.4482C64.9075 55.542 63.737 56.71 62.3755 57.883C61.1231 58.9619 59.9116 59.8701 58.791 60.6298" stroke="#2E2A47" stroke-linecap="round" stroke-linejoin="round"/>
<path d="M33.0192 45.9705C31.7122 47.2548 30.1757 48.6183 28.396 49.9669C26.2481 51.5952 24.1933 52.8597 22.3613 53.8446" stroke="#2E2A47" stroke-linecap="round" stroke-linejoin="round"/>
<path d="M63.8954 54.7598C63.0817 55.6209 62.1475 56.5192 61.0838 57.4125C59.3518 58.8725 57.6743 59.9861 56.1855 60.8349" stroke="#2E2A47" stroke-linecap="round" stroke-linejoin="round"/>
<path d="M85.5239 11.9944L83.2259 12.3928C83.1622 12.4027 83.1031 12.4374 83.0599 12.4918L81.8643 13.9395C81.7097 14.1251 81.8143 14.4246 82.0416 14.4518C82.5553 14.5137 83.2099 14.6621 83.9169 14.9962C84.5624 15.3031 85.0716 15.6792 85.4512 16.0207C85.6376 16.1866 85.9172 16.0356 85.9126 15.7758C85.8922 14.6151 85.8717 13.4545 85.8512 12.2963C85.849 12.1082 85.6944 11.9672 85.5239 11.9969V11.9944Z" fill="#F59DB6" stroke="#2E2A47" stroke-linecap="round" stroke-linejoin="round"/>
<path d="M90.4829 15.5456L90.7488 18.0623C90.7556 18.1316 90.742 18.2034 90.7056 18.2628L89.7737 19.859C89.6464 20.0792 89.3441 20.0371 89.2668 19.7922C89.1372 19.3863 88.944 18.9161 88.6508 18.436C88.1348 17.5946 87.512 17.0428 87.0073 16.6988C86.7982 16.5552 86.846 16.2088 87.0869 16.1395C88.1007 15.8524 89.1145 15.5678 90.1283 15.2808C90.2942 15.2337 90.4601 15.3575 90.4806 15.5431L90.4829 15.5456Z" fill="#F59DB6" stroke="#2E2A47" stroke-linecap="round" stroke-linejoin="round"/>
<path opacity="0.2" d="M90.3538 15.9662C90.3538 15.9662 89.5218 16.7235 89.1081 16.8967C88.6944 17.07 87.8602 17.4238 87.8602 17.4238L87.4102 16.6888L90.4561 15.0283L90.3538 15.9662Z" fill="#2E2A47"/>
<path d="M84.7457 18.3517C84.7411 18.2873 84.7411 18.2255 84.7388 18.1611C84.682 18.176 84.6252 18.1908 84.5684 18.2032L84.7479 18.3517H84.7457Z" fill="white" stroke="#2E2A47" stroke-linecap="round" stroke-linejoin="round"/>
<path d="M93.7247 5.26831C91.845 5.31533 90.5198 5.91418 89.7243 6.39425C86.3649 8.41103 84.5102 12.9964 84.7375 18.1609C89.3675 17.0102 92.9246 13.8328 93.8065 9.7671C94.0156 8.80449 94.1907 7.25293 93.727 5.26831H93.7247ZM91.4836 13.1845C90.3403 14.2115 88.6492 14.0333 87.7082 12.7886C86.7672 11.5439 86.9286 9.70276 88.0719 8.67829C89.2152 7.65133 90.9062 7.8295 91.8472 9.07422C92.7882 10.3189 92.6269 12.16 91.4836 13.1845Z" fill="white" stroke="#2E2A47" stroke-linecap="round" stroke-linejoin="round"/>
<path d="M83.8422 17.0374L82.9375 17.1636C83.0648 17.5174 83.3853 18.2648 84.1081 18.8934C84.9151 19.5962 85.7606 19.7422 86.1039 19.7793C85.3492 18.8662 84.5968 17.9505 83.8422 17.0374Z" fill="#5E58A5" stroke="#2E2A47" stroke-linecap="round" stroke-linejoin="round"/>
<path d="M83.5319 17.2896L82.4568 18.2374C82.2817 18.3909 82.3704 18.7002 82.5954 18.7175C82.7932 18.7324 82.8955 18.9823 82.775 19.1531L82.1999 19.9672C82.034 20.2023 82.2863 20.5166 82.5227 20.3657L83.3274 19.8559C83.5137 19.7396 83.7388 19.9153 83.6956 20.1429L83.6706 20.2791C83.6229 20.5438 83.9183 20.7146 84.0911 20.5216L84.6298 19.9276C84.7753 19.7668 85.0276 19.8584 85.0526 20.0836C85.0844 20.3558 85.4231 20.4077 85.5254 20.1603L85.8846 19.2892C85.8982 19.2397 85.88 19.1852 85.8414 19.158C85.8095 18.9897 85.6481 18.2028 84.9571 17.6757C84.4161 17.2649 84.0888 17.0991 83.8956 17.0471C83.7842 17.0174 83.6683 17.0718 83.6138 17.1807C83.6115 17.1857 83.6069 17.1931 83.6047 17.1981C83.5865 17.2352 83.5592 17.2673 83.5297 17.2921L83.5319 17.2896Z" fill="white" stroke="#2E2A47" stroke-linecap="round" stroke-linejoin="round"/>
<path d="M84.3849 17.7256L83.6484 18.5967" stroke="#2E2A47" stroke-linecap="round" stroke-linejoin="round"/>
<g opacity="0.2">
<path d="M84.5645 18.203L84.744 18.3514C84.7395 18.2871 84.7395 18.2252 84.7372 18.1609C84.6804 18.1757 84.6236 18.1906 84.5667 18.203H84.5645Z" fill="#2E2A47"/>
<path d="M93.8044 9.7671C94.0135 8.80449 94.1885 7.25293 93.7226 5.26831C93.518 5.27326 93.3202 5.28563 93.1293 5.30295C93.4248 6.98567 93.268 8.31205 93.0816 9.17073C92.2451 13.0286 89.0016 16.0872 84.7148 17.374C84.7148 17.6338 84.7239 17.8961 84.7353 18.1609C89.3653 17.0102 92.9225 13.8328 93.8044 9.7671Z" fill="#2E2A47"/>
</g>
<path d="M86.779 17.4338L85.8061 16.6295L84.8332 15.8252L82.9375 17.164C83.4398 17.4634 84.0036 17.8446 84.5946 18.3296C85.1969 18.827 85.697 19.3244 86.1039 19.7798L86.779 17.4313V17.4338Z" fill="#5E58A5" stroke="#2E2A47" stroke-linecap="round" stroke-linejoin="round"/>
<path d="M93.8399 9.61141C93.2648 8.94819 92.492 8.22558 91.4896 7.61928C90.7486 7.17136 90.0394 6.88429 89.4279 6.69869C89.4097 6.67394 89.3893 6.64672 89.3711 6.62197C89.487 6.54278 89.6052 6.46607 89.7257 6.3943C90.5213 5.91668 91.8465 5.31533 93.7263 5.26831C94.1673 7.14908 94.0331 8.63886 93.8399 9.61141Z" fill="#DEDAFF" stroke="#2E2A47" stroke-linecap="round" stroke-linejoin="round"/>
<path opacity="0.2" d="M87.2319 14.5852L87.1909 17.4955L86.6022 17.686L86.0408 19.6361L85.2793 17.8271L87.2319 14.5852Z" fill="#2E2A47"/>
<path d="M87.7311 13.8863C87.8506 13.985 87.8737 14.1688 87.783 14.2989L85.5883 17.4469L85.1573 17.0908L87.3521 13.9428C87.4428 13.8127 87.6116 13.7876 87.7311 13.8863Z" fill="#F59DB6" stroke="#2E2A47" stroke-linecap="round" stroke-linejoin="round"/>
<path d="M83.7988 16.5549C84.1398 16.6514 84.6717 16.8494 85.2218 17.2825C85.8537 17.7799 86.2174 18.3565 86.4038 18.7054" stroke="#2E2A47" stroke-linecap="round" stroke-linejoin="round"/>
<path d="M84.4442 19.2078L84.1328 19.574" stroke="#2E2A47" stroke-linecap="round" stroke-linejoin="round"/>
<path d="M81.5562 19.0596L81.1714 19.4376C81.067 19.5402 81.0588 19.7154 81.153 19.8291L81.1545 19.8309C81.2487 19.9446 81.4097 19.9536 81.514 19.851L81.8988 19.473C82.0032 19.3705 82.0115 19.1952 81.9173 19.0816L81.9158 19.0797C81.8216 18.9661 81.6606 18.9571 81.5562 19.0596Z" fill="white" stroke="#2E2A47" stroke-linecap="round" stroke-linejoin="round"/>
<path d="M81.3121 21.2864C81.4641 21.2864 81.5872 21.1523 81.5872 20.9869C81.5872 20.8216 81.4641 20.6875 81.3121 20.6875C81.1602 20.6875 81.0371 20.8216 81.0371 20.9869C81.0371 21.1523 81.1602 21.2864 81.3121 21.2864Z" fill="white" stroke="#2E2A47" stroke-linecap="round" stroke-linejoin="round"/>
<path d="M82.926 15.2386C83.1897 15.2386 83.3806 14.9639 83.3124 14.6868C83.0237 13.4891 82.0214 12.6057 80.8303 12.6057C80.2166 12.6057 79.6552 12.8407 79.212 13.2317C78.9142 12.7467 78.4051 12.4275 77.83 12.4275C77.1163 12.4275 76.5094 12.9175 76.2731 13.6029C75.698 13.6747 75.2139 14.0681 74.9707 14.6101C74.8411 14.8996 75.0343 15.2386 75.3321 15.2386H82.926Z" fill="white" stroke="#B5AEFF" stroke-linecap="round" stroke-linejoin="round"/>
<path d="M100.476 21.9718C100.476 21.9718 100.476 21.9619 100.476 21.957C100.476 21.5289 100.158 21.1824 99.7648 21.1824C99.5761 21.1824 99.4056 21.2616 99.2783 21.3928C99.151 21.0735 98.8601 20.8483 98.5191 20.8483C98.2964 20.8483 98.0941 20.9448 97.9463 21.1007C97.7895 20.6998 97.4235 20.4177 96.9984 20.4177C96.4302 20.4177 95.9688 20.9201 95.9688 21.5388C95.9688 21.6922 95.9983 21.8407 96.0483 21.9743H100.476V21.9718Z" fill="white" stroke="#B5AEFF" stroke-linecap="round" stroke-linejoin="round"/>
<path d="M92.0841 28.7398C92 28.6507 91.8295 27.4035 91.6772 27.4134C91.5227 27.4233 91.3886 28.6606 91.3181 28.7423C91.1726 28.9056 90.1179 29.0219 90.127 29.1803C90.1361 29.3387 91.1726 29.4129 91.3204 29.5689C91.4022 29.6555 91.575 30.9052 91.7272 30.8953C91.8818 30.8854 92.0137 29.653 92.0864 29.5689C92.225 29.4105 93.2911 29.2892 93.282 29.1308C93.2729 28.9725 92.2273 28.8933 92.0864 28.7423L92.0841 28.7398Z" fill="#EAC9F8" stroke="#2E2A47" stroke-linecap="round" stroke-linejoin="round"/>
<path d="M31.2632 55.4483C31.1268 55.3048 30.854 53.2928 30.6062 53.3102C30.3585 53.3275 30.1403 55.3221 30.0266 55.4533C29.7925 55.7181 28.09 55.9037 28.1036 56.1586C28.1172 56.4134 29.7902 56.5347 30.0266 56.7822C30.1584 56.9208 30.4358 58.9376 30.6835 58.9228C30.9313 58.9079 31.1427 56.9183 31.2632 56.7822C31.4882 56.5273 33.2043 56.3318 33.1907 56.0744C33.1771 55.817 31.4905 55.6884 31.2609 55.4483H31.2632Z" fill="white" stroke="#2E2A47" stroke-linecap="round" stroke-linejoin="round"/>
<path d="M92.8419 20.7794C92.7578 20.6903 92.5873 19.443 92.435 19.4529C92.2805 19.4628 92.1464 20.7002 92.0759 20.7819C91.9304 20.9452 90.8757 21.0615 90.8848 21.2199C90.8939 21.3783 91.9304 21.4525 92.0782 21.6084C92.16 21.695 92.3328 22.9447 92.4851 22.9348C92.6396 22.9249 92.7715 21.6925 92.8442 21.6084C92.9829 21.45 94.0489 21.3288 94.0398 21.1704C94.0307 21.012 92.9851 20.9328 92.8442 20.7819L92.8419 20.7794Z" fill="#D8F2C8" stroke="#2E2A47" stroke-linecap="round" stroke-linejoin="round"/>
<path d="M71.6095 18.1139C71.5254 18.0248 71.3549 16.7775 71.2026 16.7874C71.0481 16.7973 70.9139 18.0347 70.8435 18.1163C70.698 18.2797 69.6433 18.396 69.6524 18.5544C69.6615 18.7127 70.698 18.787 70.8458 18.9429C70.9276 19.0295 71.1003 20.2792 71.2526 20.2693C71.4072 20.2594 71.539 19.027 71.6118 18.9429C71.7504 18.7845 72.8165 18.6632 72.8074 18.5049C72.7983 18.3465 71.7527 18.2673 71.6118 18.1163L71.6095 18.1139Z" fill="#C2E6F5" stroke="#2E2A47" stroke-linecap="round" stroke-linejoin="round"/>
<path d="M32.9446 23.2241C32.8446 23.1202 32.6469 21.6576 32.4673 21.6675C32.2877 21.6799 32.1286 23.1301 32.0445 23.2266C31.874 23.4171 30.6352 23.5533 30.6466 23.7389C30.6579 23.9245 31.874 24.0111 32.0445 24.1942C32.14 24.2957 32.3423 25.7632 32.5218 25.7508C32.7014 25.7384 32.856 24.2932 32.9446 24.1942C33.1083 24.0086 34.3562 23.8651 34.3471 23.6795C34.3357 23.4939 33.1106 23.3998 32.9446 23.2241Z" fill="#C2E6F5" stroke="#2E2A47" stroke-linecap="round" stroke-linejoin="round"/>
<path d="M80.1964 19.2004L79.4668 19.5815" stroke="#2E2A47" stroke-linecap="round" stroke-linejoin="round"/>
<path d="M83.0052 21.2866L81.7891 23.0486" stroke="#2E2A47" stroke-linecap="round" stroke-linejoin="round"/>
<path d="M84.9623 21.1924L84.7168 22.5658" stroke="#2E2A47" stroke-linecap="round" stroke-linejoin="round"/>
<path d="M83.3781 22.7017L83.0371 23.9192" stroke="#2E2A47" stroke-linecap="round" stroke-linejoin="round"/>
<path d="M80.2446 22.1675L79.3672 23.0509" stroke="#2E2A47" stroke-linecap="round" stroke-linejoin="round"/>
<path d="M50.8322 57.4054C49.7184 58.1428 48.8297 58.1404 48.0455 58.1379C47.3228 58.1379 46.6954 58.1329 45.8635 58.6774L45.809 58.7145C44.9839 59.2663 44.6952 59.8726 44.3634 60.5729C44.002 61.3326 43.5951 62.1937 42.4791 62.9312C41.3653 63.6686 40.4766 63.6661 39.6925 63.6636C38.9719 63.6636 38.3491 63.6587 37.5241 64.1932L37.4945 64.213C36.6853 64.7599 36.4012 65.3612 36.0716 66.0566C35.7102 66.8163 35.3034 67.6774 34.1874 68.4148C33.0736 69.1523 32.1849 69.1498 31.4007 69.1473C30.662 69.1473 30.0233 69.1399 29.1664 69.7189H29.1619L29.1573 69.7239C28.2913 70.2832 27.9981 70.9018 27.6595 71.617C27.3003 72.3767 26.8912 73.2378 25.7752 73.9752C25.5274 74.141 25.2047 74.0544 25.0524 73.7847C24.9024 73.515 24.9819 73.1636 25.2297 72.9978C26.0934 72.4261 26.3866 71.8075 26.7253 71.0923C27.0867 70.3326 27.4958 69.4715 28.6164 68.744C29.7256 67.9966 30.6166 68.0016 31.4007 68.0016C32.1394 68.0016 32.7781 68.0065 33.6396 67.4349C34.5033 66.8633 34.7965 66.2446 35.1352 65.5295C35.4829 64.797 35.8739 63.9705 36.9058 63.2603C36.924 63.2479 36.9422 63.2355 36.9604 63.2232C36.9831 63.2083 37.0058 63.191 37.0308 63.1761C38.0855 62.5105 38.9378 62.513 39.6947 62.5154C40.4334 62.5154 41.0721 62.5204 41.9336 61.9488C42.7973 61.3771 43.0905 60.7585 43.4292 60.0433C43.7883 59.2886 44.1884 58.4324 45.2976 57.7098C46.3931 56.9847 47.2727 56.9872 48.0501 56.9897C48.7888 56.9897 49.4275 56.9946 50.289 56.423C51.1527 55.8514 51.4459 55.2327 51.7846 54.5176C52.146 53.7554 52.5551 52.8893 53.6802 52.1642C53.9302 52.0034 54.253 52.0925 54.4007 52.3647C54.5485 52.6369 54.4666 52.9908 54.2166 53.1491C53.3506 53.7109 53.0574 54.327 52.7187 55.0422C52.3573 55.8019 51.9505 56.663 50.8345 57.4005L50.8322 57.4054Z" fill="#C2E6F5" stroke="#2E2A47" stroke-linecap="round" stroke-linejoin="round"/>
<path d="M49.4139 74.589C49.2798 74.589 49.1502 74.5173 49.0707 74.3985C48.9343 74.1931 48.9752 73.9036 49.1639 73.7551C49.1684 73.7526 49.173 73.7477 49.1775 73.7452C49.6253 73.3815 49.7548 73.04 49.9185 72.6119C50.1026 72.1318 50.3094 71.5874 50.9618 71.0826C51.6028 70.5678 52.1392 70.5208 52.6142 70.4788C53.0529 70.4416 53.3938 70.4119 53.8484 70.0531C54.303 69.6943 54.4348 69.3479 54.603 68.9099C54.7803 68.4471 54.9804 67.925 55.5759 67.435L55.6486 67.3781C56.2623 66.9129 56.7805 66.8683 57.2374 66.8288C57.6715 66.7916 58.0125 66.7619 58.4671 66.4031C58.9194 66.0443 59.0512 65.6979 59.2194 65.2623C59.4035 64.7823 59.6081 64.2453 60.2491 63.7429C60.8832 63.2406 61.4174 63.1936 61.8879 63.154C62.322 63.1169 62.6652 63.0872 63.1175 62.7284C63.5721 62.3696 63.7039 62.0231 63.8699 61.5876C64.054 61.1026 64.2631 60.5582 64.9154 60.0558C64.9882 60.0014 65.0723 59.9717 65.1609 59.9717C65.2973 59.9717 65.4268 60.0434 65.5064 60.1647C65.5723 60.2662 65.5973 60.3899 65.5791 60.5111C65.5609 60.6324 65.4996 60.7363 65.4064 60.8081C64.9518 61.162 64.82 61.5059 64.6518 61.9414C64.4677 62.4215 64.2608 62.9635 63.613 63.4757C62.9652 63.9879 62.4288 64.0349 61.9538 64.0745C61.5287 64.1117 61.1923 64.1413 60.7559 64.4828L60.7241 64.5076C60.29 64.8516 60.1604 65.1906 59.9968 65.6212C59.8127 66.1012 59.6058 66.6432 58.9603 67.1554C58.3125 67.6676 57.7738 67.7146 57.301 67.7542C56.8783 67.7914 56.5441 67.8186 56.11 68.1551C55.6713 68.509 55.5418 68.8455 55.3804 69.2712C55.1963 69.7512 54.9894 70.2932 54.3417 70.8054C53.6939 71.3176 53.1575 71.3647 52.6824 71.4043C52.246 71.4414 51.9051 71.4711 51.4573 71.8324C50.9959 72.1912 50.864 72.5351 50.6958 72.9731C50.5117 73.4532 50.3049 73.9951 49.6571 74.5074C49.5844 74.5668 49.498 74.5965 49.4094 74.5965L49.4139 74.589Z" fill="#EAC9F8"/>
<path d="M65.1631 60.0882C65.2608 60.0882 65.354 60.1377 65.4154 60.2293C65.5154 60.3802 65.4813 60.5931 65.3427 60.6995C64.8608 61.0731 64.7153 61.4517 64.5494 61.8873C64.3721 62.3525 64.1698 62.8771 63.5493 63.3695C62.9288 63.8595 62.4083 63.9041 61.9492 63.9461C61.5241 63.9832 61.1582 64.0154 60.6945 64.3767L60.6627 64.4014C60.2035 64.7677 60.0603 65.1389 59.8967 65.567C59.7194 66.0322 59.5171 66.5568 58.8966 67.0493C58.2761 67.5392 57.7556 67.5838 57.2964 67.6258C56.8737 67.6629 56.5077 67.6951 56.0486 68.0515L56.0327 68.0638C55.5826 68.4276 55.4417 68.7938 55.2803 69.2195C55.103 69.6847 54.9007 70.2093 54.2802 70.7017C53.6597 71.1917 53.1392 71.2362 52.6801 71.2783C52.2459 71.3154 51.8732 71.3476 51.3958 71.7312L51.3936 71.7336C50.9117 72.1073 50.7662 72.4859 50.6003 72.9214C50.423 73.3867 50.2207 73.9113 49.6002 74.4037C49.5457 74.4483 49.482 74.468 49.4184 74.468C49.3229 74.468 49.2274 74.421 49.1684 74.3295C49.0683 74.1785 49.0979 73.9682 49.2365 73.8593C49.7161 73.4807 49.8616 73.1021 50.0275 72.6641C50.2048 72.1989 50.4071 71.6718 51.0322 71.1868C51.6504 70.6894 52.1709 70.6448 52.6323 70.6052C53.0665 70.5681 53.4392 70.5359 53.9188 70.1549C54.3984 69.7762 54.5439 69.3976 54.7098 68.9596C54.8803 68.5117 55.0735 68.0069 55.6463 67.5367C55.6463 67.5367 55.6667 67.5194 55.6758 67.512C55.6894 67.5021 55.7008 67.4922 55.7145 67.4823C56.3031 67.0369 56.8032 66.9923 57.2464 66.9552C57.6806 66.9181 58.0533 66.8859 58.5329 66.5048C59.0125 66.1262 59.158 65.7476 59.3239 65.3096C59.5012 64.8469 59.6989 64.3272 60.3149 63.8422C60.9241 63.3596 61.44 63.3151 61.8969 63.2755C62.331 63.2384 62.7038 63.2062 63.1834 62.8251C63.663 62.4465 63.8084 62.0679 63.9744 61.6299C64.1516 61.1647 64.3539 60.6351 64.9813 60.1526C65.0358 60.1105 65.0972 60.0907 65.1608 60.0907M65.1608 59.8433C65.0495 59.8433 64.9426 59.8804 64.8494 59.9521C64.1698 60.4743 63.9471 61.0632 63.7675 61.5334C63.6061 61.9566 63.4789 62.2882 63.0538 62.6247C63.0538 62.6247 63.0493 62.6272 63.047 62.6296C62.6219 62.9662 62.2924 62.9934 61.8787 63.0305C61.4173 63.0701 60.8445 63.1196 60.1831 63.6442C59.5171 64.1664 59.2966 64.7454 59.1193 65.2106C58.9557 65.6363 58.8307 65.9679 58.4034 66.3044C58.4011 66.3044 58.3988 66.3093 58.3965 66.3093C57.9715 66.6434 57.6442 66.6731 57.2282 66.7102C56.7827 66.7498 56.2304 66.7968 55.5963 67.2744C55.5917 67.2769 55.5872 67.2794 55.5826 67.2843L55.5394 67.319L55.5099 67.3437C55.5099 67.3437 55.5008 67.3511 55.4962 67.3561C54.8826 67.8634 54.6689 68.4226 54.4984 68.873C54.3393 69.2912 54.212 69.6228 53.7847 69.9618C53.7847 69.9618 53.7802 69.9643 53.7779 69.9668C53.3529 70.3033 53.0233 70.3305 52.6096 70.3677C52.1414 70.4073 51.5618 70.4592 50.8935 70.9962C50.2185 71.5208 49.9957 72.1073 49.8139 72.5775C49.6525 72.9982 49.5275 73.3273 49.0979 73.6663C48.8592 73.8544 48.8047 74.2206 48.9797 74.4829C49.0797 74.6338 49.2434 74.7229 49.4138 74.7229C49.5275 74.7229 49.6366 74.6833 49.7298 74.6116C50.4026 74.0795 50.6276 73.4931 50.8072 73.0254C50.9663 72.6072 51.0935 72.278 51.5231 71.944C51.9527 71.5975 52.2777 71.5678 52.6914 71.5332C53.1619 71.4911 53.7415 71.4416 54.4143 70.9121C55.0848 70.38 55.3099 69.796 55.4894 69.3259C55.6463 68.9176 55.769 68.5959 56.1668 68.2742L56.1827 68.2618C56.5895 67.9475 56.9077 67.9203 57.3146 67.8832C57.7806 67.8436 58.3602 67.7916 59.0307 67.2621C59.7035 66.73 59.9285 66.146 60.1081 65.6759C60.2649 65.2651 60.3899 64.9409 60.7968 64.6143L60.8263 64.592C61.2377 64.2703 61.5582 64.2431 61.9651 64.2084C62.431 64.1688 63.0083 64.1169 63.6811 63.5873C64.3539 63.0553 64.579 62.4713 64.7585 62.0011C64.9176 61.5829 65.0449 61.2538 65.4745 60.9197C65.5904 60.8331 65.6677 60.6995 65.6927 60.5436C65.7177 60.3877 65.6859 60.2318 65.6018 60.1056C65.5018 59.9521 65.3381 59.8606 65.1654 59.8606L65.1608 59.8433Z" fill="#2E2A47"/>
<path fill-rule="evenodd" clip-rule="evenodd" d="M84.0561 33.9342L83.4197 33.3972C83.3674 33.3527 83.2947 33.3651 83.2537 33.4195L82.7605 34.1124C82.6968 34.204 82.5627 34.1644 82.5491 34.0505L82.3331 32.1797C82.3241 32.1079 82.3718 32.0436 82.4354 32.0361L83.897 31.8357C83.9629 31.8258 84.022 31.8778 84.0288 31.947L84.2448 33.8179C84.2584 33.9318 84.138 34.006 84.0538 33.9367L84.0561 33.9342Z" fill="#D8F2C8" stroke="#2E2A47" stroke-linecap="round" stroke-linejoin="round"/>
<path fill-rule="evenodd" clip-rule="evenodd" d="M56.6764 23.6201L56.9741 22.806C56.9991 22.7391 56.9696 22.6649 56.9082 22.6377L56.1604 22.3135C56.0626 22.2714 56.0604 22.1205 56.1581 22.0759L57.747 21.3286C57.8061 21.3013 57.8766 21.3286 57.9016 21.3954L58.4857 22.8678C58.5107 22.9322 58.4857 23.0089 58.4244 23.0361L56.8355 23.7835C56.7377 23.828 56.64 23.7241 56.6786 23.6177L56.6764 23.6201Z" fill="#EAC9F8" stroke="#2E2A47" stroke-linecap="round" stroke-linejoin="round"/>
<path fill-rule="evenodd" clip-rule="evenodd" d="M29.2016 42.5903L29.3221 41.7241C29.3312 41.6548 29.288 41.588 29.2221 41.5781L28.4265 41.4469C28.322 41.4296 28.2901 41.2836 28.3742 41.2168L29.7676 40.0982C29.8199 40.0562 29.8949 40.0685 29.9336 40.1254L30.8087 41.4172C30.8473 41.4742 30.836 41.5558 30.7837 41.5979L29.3903 42.7165C29.3062 42.7858 29.188 42.7066 29.2039 42.5927L29.2016 42.5903Z" fill="#D8F2C8" stroke="#2E2A47" stroke-linecap="round" stroke-linejoin="round"/>
<path fill-rule="evenodd" clip-rule="evenodd" d="M72.1501 52.6813L72.0114 51.8177C72.0001 51.7484 71.9387 51.7014 71.8751 51.7137L71.0818 51.8622C70.9772 51.882 70.9045 51.7558 70.9658 51.6618L71.9637 50.12C72.0024 50.0606 72.0751 50.0483 72.1297 50.0878L73.3344 51.0109C73.3889 51.053 73.4003 51.1322 73.3639 51.1916L72.3661 52.7333C72.3047 52.8273 72.1706 52.7952 72.1524 52.6813H72.1501Z" fill="#B5AEFF" stroke="#2E2A47" stroke-linecap="round" stroke-linejoin="round"/>
<path d="M76.3548 56.0051C76.2798 56.1214 76.132 56.1511 76.0229 56.067C75.9161 55.9853 75.8888 55.8244 75.9661 55.7057C76.1138 55.478 76.1229 55.3048 76.1366 55.087C76.1525 54.8395 76.1684 54.5574 76.3866 54.2184C76.6071 53.8719 76.848 53.7605 77.0594 53.6591C77.2435 53.5725 77.389 53.5032 77.5368 53.2755C77.6845 53.0478 77.6936 52.8746 77.7072 52.6568C77.7209 52.4168 77.7368 52.147 77.9345 51.8253C77.9368 51.8204 77.9414 51.8154 77.9436 51.8105L77.9527 51.7981C77.9527 51.7981 77.9618 51.7832 77.9664 51.7758C78.0436 51.6595 78.1914 51.6323 78.2982 51.7164C78.4051 51.7981 78.4301 51.959 78.3551 52.0753L78.3437 52.0951C78.205 52.3128 78.1959 52.4811 78.1823 52.6915C78.1664 52.9414 78.1505 53.226 77.9255 53.5725C77.7004 53.9189 77.4617 54.0328 77.2481 54.1342C77.0685 54.2184 76.9276 54.2852 76.7866 54.5005C76.7866 54.5005 76.7866 54.5005 76.7844 54.5029L76.773 54.5203C76.6343 54.738 76.6253 54.9063 76.6116 55.1191C76.5957 55.3691 76.5798 55.6537 76.3548 56.0001V56.0051Z" fill="#D8F2C8" stroke="#2E2A47" stroke-linecap="round" stroke-linejoin="round"/>
<path d="M44.0854 21.9346C43.8331 21.9643 43.6081 21.7663 43.5808 21.4941C43.5536 21.2194 43.7354 20.9744 43.9854 20.9423C44.4764 20.8829 44.7173 20.68 45.0242 20.4226C45.3719 20.1281 45.7674 19.7965 46.4993 19.7075C47.2403 19.611 47.6949 19.846 48.0972 20.0539C48.4472 20.2321 48.7245 20.3756 49.2155 20.3162C49.7064 20.2568 49.9474 20.0539 50.2542 19.7965C50.5906 19.5144 50.9679 19.1952 51.6498 19.0938C51.6589 19.0938 51.6703 19.0913 51.6794 19.0888H51.7066C51.7225 19.0839 51.7385 19.0814 51.7544 19.0789C52.0044 19.0517 52.2294 19.2497 52.2567 19.5219C52.284 19.7941 52.1021 20.0415 51.8521 20.0712L51.8112 20.0762C51.3475 20.1356 51.1088 20.336 50.8134 20.5859C50.4611 20.8829 50.061 21.2194 49.3155 21.3085C48.5677 21.3976 48.1108 21.165 47.7062 20.9571C47.3653 20.7839 47.0948 20.6453 46.6311 20.6973C46.6289 20.6973 46.6266 20.6973 46.6243 20.6973L46.5902 20.7022C46.5902 20.7022 46.5879 20.7022 46.5857 20.7022C46.1197 20.7616 45.8833 20.9621 45.5856 21.212C45.2333 21.509 44.8332 21.8455 44.0877 21.9346H44.0854Z" fill="#B5AEFF" stroke="#2E2A47" stroke-linecap="round" stroke-linejoin="round"/>
<path opacity="0.3" d="M65.4551 77.6474C69.7558 77.6474 73.2422 77.1189 73.2422 76.467C73.2422 75.8151 69.7558 75.2866 65.4551 75.2866C61.1544 75.2866 57.668 75.8151 57.668 76.467C57.668 77.1189 61.1544 77.6474 65.4551 77.6474Z" fill="#2E2A47"/>
<path d="M70.7753 67.5986C70.7525 67.5491 70.7071 67.5169 70.6389 67.5095L68.8705 69.3531L63.3723 75.0793C63.3063 75.2376 63.2904 75.3589 63.3382 75.4257L63.3563 75.448C63.3768 75.4653 63.4041 75.4752 63.4382 75.4802C63.5155 75.4901 63.62 75.4628 63.7428 75.4059C63.7541 75.401 63.7632 75.396 63.7746 75.3911C63.8882 75.3366 64.0178 75.2574 64.1542 75.1634C64.4565 74.9531 64.7997 74.6512 65.1156 74.3097H65.1179L69.682 69.4397C69.7229 69.3976 69.7615 69.3531 69.8024 69.3085C70.2184 68.8483 70.5207 68.4202 70.6753 68.096C70.6798 68.0886 70.6821 68.0812 70.6866 68.0737C70.698 68.0515 70.7071 68.0292 70.7162 68.0069C70.7184 67.9995 70.7207 67.9945 70.723 67.9871C70.7298 67.9673 70.7366 67.9525 70.7434 67.9352C70.798 67.7867 70.8071 67.6704 70.7707 67.5937L70.7753 67.5986Z" stroke="#2E2A47" stroke-linecap="round" stroke-linejoin="round"/>
<path d="M63.4883 73.6761L63.2109 73.29L66.6751 69.573L66.9365 71.2855L66.5842 73.2628L64.8294 75.1386L63.4883 73.6761Z" fill="#D8F2C8" stroke="#2E2A47" stroke-linecap="round" stroke-linejoin="round"/>
<path d="M62.9141 73.2084C62.9141 73.2084 65.2462 71.5676 65.7554 70.2833C66.2623 68.9964 66.3373 69.8378 66.3373 69.8378C66.3373 69.8378 65.8486 71.4315 64.8393 72.3224C63.8301 73.2133 63.1482 73.4929 63.1482 73.4929L62.9141 73.2084Z" fill="#D8F2C8" stroke="#2E2A47" stroke-linecap="round" stroke-linejoin="round"/>
<path d="M62.5117 72.8467C62.5117 72.8467 62.5935 74.5667 63.0595 75.0715C63.5255 75.5763 63.7142 75.6531 63.7142 75.6531L65.6781 73.896C65.6781 73.896 64.462 72.8368 62.5117 72.8467Z" fill="#D8F2C8" stroke="#2E2A47" stroke-linecap="round" stroke-linejoin="round"/>
<path d="M65.5316 69.1152C65.5316 69.1152 65.5657 69.1671 65.6407 69.4616C65.7157 69.7561 65.5838 70.3748 66.1453 70.1669C66.7067 69.959 69.1867 69.3206 69.1867 69.3206C69.1662 69.3131 68.9707 68.4841 68.948 68.4767C69.4253 67.9867 67.4205 68.7514 67.4114 68.7489C67.2909 68.739 67.4318 68.645 65.5293 69.1152H65.5316Z" fill="#D8F2C8" stroke="#2E2A47" stroke-linecap="round" stroke-linejoin="round"/>
<path d="M66.6855 68.8627C66.6855 68.8627 67.5948 68.1624 68.9109 67.7268C70.227 67.2913 70.6384 67.509 70.6384 67.509L70.9884 67.999C70.5497 68.5831 70.1133 69.1646 69.6746 69.7486C69.4359 69.5358 69.0768 69.2661 68.5926 69.0706C67.7789 68.7414 67.0583 68.8008 66.6855 68.8627Z" fill="#D8F2C8" stroke="#2E2A47" stroke-linecap="round" stroke-linejoin="round"/>
<path d="M69.7604 69.8524L69.1876 69.3203C69.1876 69.3203 66.9577 69.6866 66.1463 70.1667C65.3348 70.6467 65.753 72.4632 65.7667 72.9359C65.7803 73.4085 65.2598 74.3935 65.2598 74.3935" fill="#D8F2C8"/>
<path d="M69.7604 69.8524L69.1876 69.3203C69.1876 69.3203 66.9577 69.6866 66.1463 70.1667C65.3348 70.6467 65.753 72.4632 65.7667 72.9359C65.7803 73.4085 65.2598 74.3935 65.2598 74.3935" stroke="#2E2A47" stroke-linecap="round" stroke-linejoin="round"/>
<path d="M66.75 68.7835C66.75 68.7835 68.7003 68.4222 69.4686 69.5011" stroke="#2E2A47" stroke-linecap="round" stroke-linejoin="round"/>
<path fill-rule="evenodd" clip-rule="evenodd" d="M71.1483 68.0855L71.1415 68.0781L70.7733 67.5708C70.7733 67.5708 70.7733 67.5807 70.7756 67.598C70.812 67.6747 70.8006 67.791 70.7483 67.9395C70.7415 67.9568 70.7347 67.9742 70.7279 67.9915C70.7256 67.9964 70.7233 68.0039 70.721 68.0113C70.7142 68.0335 70.7028 68.0558 70.6915 68.0781C70.6869 68.0855 70.6847 68.0929 70.6801 68.1004C70.5256 68.4245 70.2233 68.8526 69.8073 69.3129C69.7664 69.3575 69.7255 69.3995 69.6868 69.4441C69.6868 69.4441 65.1228 74.3116 65.1182 74.314C65.0091 74.4303 64.9 74.5392 64.7886 74.6432C64.6318 74.7793 64.3295 75.002 63.8931 75.0911C63.5317 75.1653 63.2317 75.1158 63.0566 75.0713C63.1862 75.2618 63.318 75.4523 63.4476 75.6429C63.5521 75.7963 63.7203 75.878 63.8954 75.8607C63.9249 75.8582 63.9545 75.8557 63.984 75.8508C64.8818 75.7245 65.516 74.8189 66.1274 74.1656C66.7388 73.5123 67.3002 72.9159 67.8867 72.2923C68.4731 71.6687 69.0186 71.0847 69.5846 70.4834C69.7482 70.3102 69.9119 70.1345 70.0755 69.9612C70.1164 69.9192 70.1573 69.8746 70.1983 69.8301C70.6233 69.3599 70.9301 68.9219 71.0824 68.5953C71.1938 68.3577 71.2211 68.1795 71.1506 68.088L71.1483 68.0855Z" fill="white" stroke="#2E2A47" stroke-linecap="round" stroke-linejoin="round"/>
<path d="M67.4144 68.7488L65.6777 69.261" stroke="#2E2A47" stroke-linecap="round" stroke-linejoin="round"/>
<g opacity="0.2">
<path d="M84.2171 24.8574C83.176 26.4708 82.1032 28.0546 81.1304 29.6829C80.644 30.497 80.1848 31.3235 79.7734 32.1673C79.5643 32.588 79.3734 33.0136 79.1916 33.4442C79.0075 33.8723 78.8597 34.2856 78.7597 34.6865C78.5574 35.5006 78.6324 36.1465 78.9415 36.8691C79.2484 37.5842 79.7621 38.2796 80.3326 39.0318C81.46 40.524 82.6374 41.9766 83.8693 43.2386C84.1761 43.548 84.5194 43.8746 84.8762 44.2458C85.2331 44.617 85.6081 45.0376 85.9559 45.5548C86.3036 46.0671 86.6173 46.6783 86.8241 47.3415C87.0332 48.0022 87.131 48.7248 87.1333 49.3855C87.1401 50.0536 87.0651 50.6871 86.9514 51.2835C86.8355 51.8799 86.6832 52.4367 86.5014 52.986C86.1377 54.0798 85.6627 55.082 85.1558 56.0149C85.0285 56.2475 84.8989 56.4777 84.7694 56.7004L84.3921 57.3413C84.1602 57.7347 83.9829 58.0713 83.8852 58.3336C83.7829 58.6033 83.7716 58.7642 83.7806 58.8978C83.792 59.0364 83.8193 59.2022 83.9011 59.4892C83.9807 59.7688 84.1193 60.1524 84.2875 60.6226L84.4103 60.974L84.5171 61.261C84.5898 61.4466 84.6625 61.6273 84.7398 61.7906C85.0421 62.4587 85.3785 62.919 85.6854 63.1541C86.9241 64.1043 87.2219 65.9677 86.3491 67.3163C85.4763 68.665 83.7647 68.9891 82.526 68.0389C82.3896 67.9325 82.2623 67.8162 82.1487 67.69L81.935 67.45C81.4372 66.8932 81.0327 66.2819 80.719 65.6757C80.403 65.0694 80.1689 64.4656 79.9825 63.889C79.8871 63.5995 79.8075 63.3174 79.7325 63.0378L79.628 62.627L79.5461 62.2756C79.4393 61.8129 79.2916 61.2635 79.1847 60.5805C79.1325 60.239 79.0893 59.8728 79.0779 59.4768C79.0665 59.0809 79.0893 58.6627 79.1506 58.247C79.212 57.8312 79.3188 57.418 79.4507 57.0468C79.5825 56.6731 79.7371 56.3366 79.8984 56.0347C80.2235 55.4309 80.5667 54.9607 80.8622 54.5598L81.2781 54.0055C81.4077 53.8298 81.535 53.6542 81.6577 53.4785C82.1487 52.7757 82.5805 52.0704 82.9124 51.3503C83.2442 50.6302 83.4897 49.8829 83.5556 49.2593C83.6238 48.6332 83.5465 48.1457 83.242 47.5345C82.9397 46.9282 82.3601 46.2551 81.7304 45.4608C80.4894 43.8598 79.4461 42.2092 78.446 40.5314C77.9573 39.7 77.3982 38.7869 77.0527 37.6634C76.8822 37.1041 76.7709 36.4855 76.789 35.852C76.8004 35.2136 76.9436 34.6147 77.1345 34.0901C77.3277 33.5605 77.5664 33.0854 77.8119 32.6499C78.0551 32.2119 78.3074 31.7838 78.5733 31.3705C79.1006 30.5391 79.6666 29.7472 80.2485 28.9776C81.4145 27.4434 82.6487 26.0056 83.8443 24.5382C83.9307 24.4318 84.0807 24.4219 84.1784 24.5159C84.2693 24.605 84.283 24.751 84.2148 24.8574H84.2171Z" fill="#B5AEFF"/>
</g>
<path d="M55.5769 48.749L59.4704 57.2096C59.4704 57.2096 55.5155 50.9118 55.5769 48.749Z" fill="#DEDAFF"/>
<path d="M53.6165 46.4084L53.1255 50.4917C53.1255 50.4917 52.7232 47.7423 53.6165 46.4084Z" fill="#DEDAFF"/>
<path d="M33.806 37.208L34.5925 37.6188L36.461 40.3608L36.3268 41.1131L34.563 40.7147L33.4219 38.2078L33.806 37.208Z" fill="#B5AEFF"/>
<path d="M34.373 37.2996L36.7075 40.7246" stroke="#2E2A47" stroke-linecap="round" stroke-linejoin="round"/>
<path d="M55.0825 39.7024C55.0052 40.0192 54.8461 40.4794 54.4892 40.8705C53.9778 41.4322 53.4664 41.4075 52.7367 41.8999C52.4208 42.1128 51.9889 42.4765 51.5684 43.1076" stroke="#2E2A47" stroke-linecap="round" stroke-linejoin="round"/>
<path d="M57.3652 41.9021C57.3652 41.9021 57.6539 43.2285 58.4086 43.8769L57.4812 44.0972" fill="white"/>
<path d="M57.3652 41.9021C57.3652 41.9021 57.6539 43.2285 58.4086 43.8769L57.4812 44.0972" stroke="#2E2A47" stroke-linecap="round" stroke-linejoin="round"/>
<path d="M63.707 42.6665C63.5979 43.0402 63.4479 43.4634 63.2365 43.9162C62.916 44.5968 62.5523 45.1313 62.2363 45.5273" fill="white"/>
<path d="M63.707 42.6665C63.5979 43.0402 63.4479 43.4634 63.2365 43.9162C62.916 44.5968 62.5523 45.1313 62.2363 45.5273" stroke="#2E2A47" stroke-linecap="round" stroke-linejoin="round"/>
<path d="M21.1543 38.866L22.1476 39.1332" stroke="#2E2A47" stroke-linecap="round" stroke-linejoin="round"/>
<path d="M21.7388 38.5046L21.5547 39.4475" stroke="#2E2A47" stroke-linecap="round" stroke-linejoin="round"/>
<path d="M60.2383 70.3896L61.2589 69.8477" stroke="#2E2A47" stroke-linecap="round" stroke-linejoin="round"/>
</svg>
