<svg width="92" height="91" viewBox="0 0 92 91" fill="none" xmlns="http://www.w3.org/2000/svg">
<circle cx="42.6296" cy="48.8704" r="41.6296" fill="#EAC9F8" stroke="#5E58A5"/>
<circle cx="46.0007" cy="45.5002" r="41.6296" fill="#968CFF" stroke="#5E58A5"/>
<circle cx="49.3699" cy="42.1296" r="41.6296" fill="#F5F4FF" stroke="#5E58A5"/>
<path d="M90.9995 42.1296C90.9995 65.121 72.3613 83.7593 49.3699 83.7593C26.3785 83.7593 7.74023 65.121 7.74023 42.1296C7.74023 19.1382 26.3785 0.5 49.3699 0.5C72.3613 0.5 90.9995 19.1382 90.9995 42.1296ZM42.9148 27.5199C40.6629 25.2681 37.012 25.2681 34.7601 27.5199C32.5083 29.7717 32.5083 33.4227 34.7601 35.6745L41.2152 42.1296L34.7601 48.5847C32.5083 50.8366 32.5083 54.4875 34.7601 56.7394C37.012 58.9912 40.6629 58.9912 42.9148 56.7394L49.3699 50.2843L55.825 56.7394C58.0768 58.9912 61.7278 58.9912 63.9796 56.7394C66.2314 54.4875 66.2314 50.8366 63.9796 48.5847L57.5245 42.1296L63.9796 35.6745C66.2314 33.4227 66.2314 29.7717 63.9796 27.5199C61.7278 25.2681 58.0768 25.2681 55.825 27.5199L49.3699 33.975L42.9148 27.5199Z" fill="#E96980" stroke="#5E58A5"/>
<path d="M41.2302 30.0478C38.9784 27.7959 35.3274 27.7959 33.0756 30.0478C30.8238 32.2996 30.8238 35.9506 33.0756 38.2024L39.5307 44.6575L33.0756 51.1126C30.8238 53.3644 30.8238 57.0154 33.0756 59.2672C35.3274 61.5191 38.9784 61.5191 41.2302 59.2672L47.6853 52.8121L54.1404 59.2672C56.3923 61.5191 60.0432 61.5191 62.2951 59.2672C64.5469 57.0154 64.5469 53.3644 62.2951 51.1126L55.84 44.6575L62.2951 38.2024C64.5469 35.9506 64.5469 32.2996 62.2951 30.0478C60.0432 27.7959 56.3923 27.7959 54.1404 30.0478L47.6853 36.5029L41.2302 30.0478Z" fill="#5E58A5" stroke="#5E58A5"/>
<path d="M42.9138 27.5199C40.662 25.2681 37.011 25.2681 34.7592 27.5199C32.5074 29.7718 32.5074 33.4227 34.7592 35.6746L41.2143 42.1297L34.7592 48.5847C32.5074 50.8366 32.5074 54.4875 34.7592 56.7394C37.011 58.9912 40.662 58.9912 42.9138 56.7394L49.3689 50.2843L55.824 56.7394C58.0759 58.9912 61.7268 58.9912 63.9787 56.7394C66.2305 54.4876 66.2305 50.8366 63.9787 48.5848L57.5236 42.1297L63.9787 35.6746C66.2305 33.4227 66.2305 29.7718 63.9787 27.5199C61.7268 25.2681 58.0759 25.2681 55.824 27.5199L49.3689 33.975L42.9138 27.5199Z" fill="white" stroke="#5E58A5"/>
</svg>
