<svg width="125" height="90" viewBox="0 0 125 90" fill="none" xmlns="http://www.w3.org/2000/svg">
<g clip-path="url(#clip0_677_6147)">
<path d="M74.8383 1H31.2082C27.7008 1 24.8574 3.84335 24.8574 7.35081V75.6008C24.8574 79.1083 27.7008 81.9516 31.2082 81.9516H74.8383C78.3457 81.9516 81.1891 79.1083 81.1891 75.6008V7.35081C81.1891 3.84335 78.3457 1 74.8383 1Z" fill="white" stroke="#473E6B" stroke-miterlimit="10"/>
<path d="M43.2109 33.7066H33.8223V45.6144H43.2109V33.7066Z" fill="#C2E6F5" stroke="#473E6B" stroke-miterlimit="10"/>
<path d="M72.7519 26.6678H63.3633V45.6143H72.7519V26.6678Z" fill="#C2E6F5" stroke="#473E6B" stroke-miterlimit="10"/>
<path d="M57.9863 11.8915H48.5977V45.6143H57.9863V11.8915Z" fill="#C2E6F5" stroke="#473E6B" stroke-miterlimit="10"/>
<path d="M72.9543 50.9066H33.791V54.008H72.9543V50.9066Z" fill="#C2E6F5" stroke="#473E6B" stroke-miterlimit="10"/>
<path d="M68.9533 57.2258H33.791V60.3271H68.9533V57.2258Z" fill="#C2E6F5" stroke="#473E6B" stroke-miterlimit="10"/>
<path d="M71.1867 63.5554H33.791V66.6567H71.1867V63.5554Z" fill="#C2E6F5" stroke="#473E6B" stroke-miterlimit="10"/>
<path d="M83.5723 73.9918C91.0022 73.9918 97.0254 67.9687 97.0254 60.5387C97.0254 53.1088 91.0022 47.0856 83.5723 47.0856C76.1423 47.0856 70.1191 53.1088 70.1191 60.5387C70.1191 67.9687 76.1423 73.9918 83.5723 73.9918Z" fill="white"/>
<path d="M97.8715 70.9222C102.645 64.201 102.137 54.8124 96.2414 48.6415C89.5519 41.645 78.4168 41.4016 71.431 48.0911C64.4345 54.7806 64.1805 65.9157 70.87 72.9122C76.8503 79.1677 86.3871 80.0251 93.3412 75.3466C93.5 75.7489 93.7858 76.2675 94.1033 76.5956L106.826 89.456C106.826 89.456 108.721 90.832 110.827 88.895C112.933 86.958 111.727 84.8305 111.727 84.8305L99.057 71.8643C98.7288 71.5256 98.2843 71.1022 97.8715 70.9328V70.9222ZM92.3569 69.9802C87.2762 74.8386 79.2001 74.6586 74.3417 69.578C69.4834 64.4973 69.6633 56.4212 74.744 51.5629C79.8246 46.7045 87.9007 46.8844 92.7591 51.9651C97.6175 57.0457 97.4375 65.1324 92.3569 69.9802Z" fill="#B5AEFF" stroke="#473E6B" stroke-miterlimit="10"/>
<path d="M100.116 18.6763C99.5018 18.0835 98.2739 9.76397 97.152 9.82748C96.03 9.89099 95.0562 18.147 94.5376 18.6974C93.4897 19.7877 85.8158 20.5603 85.8793 21.6188C85.9428 22.6773 93.4791 23.1748 94.5481 24.2015C95.1409 24.773 96.3899 33.1244 97.5119 33.0608C98.6232 32.9973 99.5865 24.7625 100.126 24.2015C101.142 23.143 108.88 22.3386 108.816 21.2695C108.753 20.211 101.153 19.6818 100.126 18.6763H100.116Z" fill="#C2E6F5" stroke="#473E6B" stroke-width="1.06" stroke-miterlimit="10"/>
<path d="M22.7723 19.9466C22.3701 19.5655 21.5763 14.1462 20.8459 14.1885C20.1156 14.2308 19.4805 19.6079 19.1418 19.9572C18.4538 20.6663 13.4684 21.1744 13.5002 21.8624C13.5425 22.5504 18.4432 22.8785 19.1418 23.5454C19.5334 23.9158 20.3379 29.3564 21.0682 29.3034C21.7985 29.2611 22.4124 23.9052 22.7723 23.5348C23.4286 22.8468 28.4669 22.3175 28.4245 21.6295C28.3822 20.9415 23.4392 20.5922 22.7723 19.9466Z" fill="white" stroke="#473E6B" stroke-miterlimit="10"/>
<path d="M41.2433 76.2147C40.8728 75.8548 40.1425 70.8588 39.4651 70.9011C38.7982 70.9435 38.2055 75.8971 37.8985 76.2252C37.2635 76.8815 32.6591 77.3472 32.7015 77.9823C32.7438 78.6174 37.2635 78.9137 37.8985 79.5382C38.2584 79.8875 39.0099 84.8941 39.6768 84.8518C40.3436 84.8094 40.9258 79.8769 41.2433 79.5382C41.8466 78.9032 46.4933 78.4163 46.451 77.7812C46.4086 77.1461 41.8466 76.8286 41.2327 76.2252L41.2433 76.2147Z" fill="#C2E6F5" stroke="#473E6B" stroke-miterlimit="10"/>
<path d="M107.472 41.2111C107.155 40.9041 106.53 36.6279 105.948 36.6703C105.377 36.702 104.869 40.9465 104.604 41.2217C104.064 41.7827 100.127 42.1743 100.158 42.7247C100.19 43.2645 104.064 43.5185 104.604 44.0478C104.911 44.3442 105.546 48.6309 106.128 48.5992C106.7 48.5674 107.197 44.3442 107.472 44.0478C107.991 43.508 111.96 43.0846 111.929 42.5448C111.897 42.0049 107.991 41.7297 107.472 41.2111Z" fill="white" stroke="#473E6B" stroke-miterlimit="10"/>
</g>
<defs>
<clipPath id="clip0_677_6147">
<rect width="124" height="90" fill="white" transform="translate(0.5)"/>
</clipPath>
</defs>
</svg>
