<svg width="50" height="41" viewBox="0 0 50 41" fill="none" xmlns="http://www.w3.org/2000/svg">
<path d="M15.8478 23.6551C15.737 23.6381 15.6314 23.5955 15.5385 23.5304C15.4456 23.4654 15.3679 23.3797 15.3111 23.2794C15.2542 23.1791 15.2196 23.0669 15.2099 22.9509C15.2001 22.8349 15.2155 22.7181 15.2547 22.6091C15.9153 21.0479 17.1315 18.1051 17.2216 16.6767C17.3567 14.7096 18.0173 3.95309 28.4446 4.09359C31.8197 4.01345 35.1709 4.70078 38.2639 6.10752C41.1091 7.536 42.5879 9.94018 43.4663 13.0859C44.0969 15.3418 44.3746 20.8918 47.1522 21.7115C48.4284 22.0783 22.1988 24.0532 20.3896 23.9986C19.1809 23.9361 17.094 23.7644 15.8478 23.6551Z" fill="#473E6B"/>
<path d="M27.1235 22.7341L26.4629 32.7881L36.5449 31.5001L33.512 18.0506" fill="#B5AEFF"/>
<path d="M32.8284 20.1737L26.7852 27.9328L27.2806 21.0012L32.8284 20.1737Z" fill="#473E6B"/>
<path d="M35.1037 15.5586C35.4072 10.9306 32.6486 6.9659 28.9424 6.70317C25.2361 6.44045 21.9856 9.97918 21.6822 14.6071C21.3788 19.2351 24.1373 23.1998 27.8436 23.4625C31.5498 23.7252 34.8003 20.1865 35.1037 15.5586Z" fill="#B5AEFF"/>
<path d="M27.5083 18.7525C27.7736 18.4456 28.1047 18.2081 28.4747 18.059C28.8447 17.9099 29.2433 17.8534 29.6382 17.8943L29.4608 17.8248" stroke="black" stroke-width="0.334524" stroke-linecap="round" stroke-linejoin="round"/>
<path d="M32.1842 21.8755C31.5932 22.4306 30.9019 22.858 30.1505 23.1328C29.3991 23.4075 28.6027 23.5241 27.8076 23.4757C27.6061 23.4617 27.4056 23.4356 27.207 23.3976" stroke="#2E2A47" stroke-width="0.352131" stroke-miterlimit="10" stroke-linecap="round"/>
<path d="M25.0742 28.1595L27.9419 27.777L37.5585 27.2618V29.0572L32.2134 33.366L25.4271 29.385L25.0742 28.1595Z" fill="#B5AEFF"/>
<path d="M35.6433 15.5764C36.4559 15.5764 37.1147 14.8914 37.1147 14.0465C37.1147 13.2015 36.4559 12.5165 35.6433 12.5165C34.8307 12.5165 34.1719 13.2015 34.1719 14.0465C34.1719 14.8914 34.8307 15.5764 35.6433 15.5764Z" fill="#B5AEFF"/>
<path d="M34.1508 5.77976C36.398 5.77976 38.2197 4.50066 38.2197 2.92281C38.2197 1.34496 36.398 0.0658569 34.1508 0.0658569C31.9037 0.0658569 30.082 1.34496 30.082 2.92281C30.082 4.50066 31.9037 5.77976 34.1508 5.77976Z" fill="#473E6B"/>
<path d="M29.3089 46.4174C33.3245 46.4202 37.2848 45.4436 40.8715 43.566C44.4582 41.6883 47.5714 38.9621 49.9608 35.6062C49.9608 32.7961 49.9608 29.4006 49.9608 28.4717C49.9983 26.809 48.9173 23.554 46.8979 23.3822C44.8785 23.2105 42.5889 23.6398 39.7287 24.3502C36.8685 25.0605 34.3311 28.8307 30.998 29.182C27.6648 29.5333 25.668 26.9886 25.0599 26.5983C24.4518 26.208 21.2313 25.6928 18.6563 25.443C16.0814 25.1932 14.8277 27.7067 14.6926 30.4153C14.61 32.1795 14.5275 37.7997 14.4824 41.5309C18.8171 44.7201 23.9988 46.4279 29.3089 46.4174Z" fill="#FFCFD1"/>
<path d="M38.3709 24.9197C38.1907 25.0134 38.0181 25.1227 37.8379 25.232H49.1435C49.091 25.1227 49.0309 25.0212 48.9709 24.9197H38.3709Z" fill="#D8F2C8"/>
<path d="M35.2108 27.168L34.7754 27.4803H49.8946C49.8946 27.3788 49.8946 27.2695 49.8346 27.168H35.2108Z" fill="#D8F2C8"/>
<path d="M26.0957 27.4803L25.7354 27.168H15.5558C15.4947 27.2686 15.4396 27.3728 15.3906 27.4803H26.0957Z" fill="#D8F2C8"/>
<path d="M14.8145 29.4082C14.8145 29.5175 14.8145 29.619 14.8145 29.7283H50.0001C50.0001 29.619 50.0001 29.5097 50.0001 29.4082H14.8145Z" fill="#D8F2C8"/>
<path d="M49.9629 31.6559H14.6797C14.6797 31.7574 14.6797 31.8589 14.6797 31.9682H49.9629V31.6559Z" fill="#D8F2C8"/>
<path d="M14.6113 33.9049V34.2171H49.9621V33.9049H14.6113Z" fill="#D8F2C8"/>
<path d="M14.5645 36.4645H49.3222L49.5624 36.1445H14.572C14.572 36.2537 14.572 36.3552 14.5645 36.4645Z" fill="#D8F2C8"/>
<path d="M14.5332 38.705H47.3691L47.6694 38.3928H14.5332V38.705Z" fill="#D8F2C8"/>
<path d="M45.277 40.6411H14.498V40.9534H44.8716L45.277 40.6411Z" fill="#D8F2C8"/>
<path d="M40.6467 10.0574L43.139 20.4158L35.144 22.219C34.9188 19.6821 35.9398 17.3715 38.297 16.4426C38.6949 16.3334 39.0609 16.1244 39.363 15.8338C39.4963 15.6437 39.5905 15.427 39.6395 15.1973C39.6886 14.9676 39.6916 14.7299 39.6483 14.499C39.5998 14.0556 39.4305 13.6358 39.1603 13.2891C38.7928 12.8685 38.2969 12.5928 37.7565 12.5085C35.1515 11.9777 31.5782 14.0696 29.4987 11.6498C29.0918 11.1514 28.8077 10.5576 28.6709 9.91947C28.5341 9.28138 28.5488 8.61826 28.7136 7.98737C28.8784 7.35648 29.1884 6.77677 29.6168 6.29832C30.0453 5.81987 30.5793 5.45707 31.1728 5.24121" fill="#473E6B"/>
<path d="M35.6137 20.6423C35.5757 20.6406 35.5395 20.6246 35.5119 20.5974C35.4843 20.5701 35.4672 20.5334 35.4636 20.494C35.3398 19.0722 35.6441 17.6456 36.3344 16.4115C36.6586 15.8521 37.0905 15.3684 37.6031 14.9908C37.817 14.8472 38.0431 14.7244 38.2787 14.624C38.6207 14.4991 38.933 14.2995 39.1946 14.0385C39.3829 13.7814 39.5029 13.4772 39.5424 13.1566C39.582 12.836 39.5397 12.5102 39.4198 12.212C39.3022 11.9221 39.1261 11.662 38.9033 11.4492C38.6805 11.2364 38.4163 11.0759 38.1286 10.9786C37.2296 10.7407 36.2875 10.7407 35.3885 10.9786L34.7729 11.0879C33.2715 11.3143 31.5599 11.4392 30.4413 9.9873C30.4138 9.95812 30.3984 9.91887 30.3984 9.87801C30.3984 9.83715 30.4138 9.7979 30.4413 9.76872C30.4694 9.74011 30.5072 9.7241 30.5465 9.7241C30.5858 9.7241 30.6235 9.74011 30.6515 9.76872C31.665 11.0879 33.2115 10.9786 34.6979 10.7523L35.3134 10.643C36.2614 10.3892 37.2557 10.3892 38.2036 10.643C38.5306 10.756 38.8305 10.9406 39.083 11.1843C39.3355 11.428 39.5348 11.7252 39.6675 12.0559C39.8116 12.4065 39.8618 12.7911 39.8129 13.1689C39.764 13.5468 39.6178 13.9039 39.3898 14.2025C39.1037 14.505 38.7543 14.7347 38.3688 14.8738C38.1515 14.9652 37.9429 15.0775 37.7457 15.2094C37.2663 15.5616 36.8624 16.0135 36.5596 16.5364C35.901 17.7165 35.6123 19.0808 35.7338 20.4394C35.7359 20.4599 35.734 20.4806 35.7284 20.5004C35.7227 20.5202 35.7133 20.5386 35.7007 20.5545C35.6881 20.5705 35.6727 20.5837 35.6552 20.5934C35.6377 20.6031 35.6184 20.6091 35.5987 20.6111L35.6137 20.6423Z" fill="#2E2A47"/>
<path d="M30.0207 15.5607C30.5887 15.5607 31.0491 15.0819 31.0491 14.4913C31.0491 13.9006 30.5887 13.4219 30.0207 13.4219C29.4526 13.4219 28.9922 13.9006 28.9922 14.4913C28.9922 15.0819 29.4526 15.5607 30.0207 15.5607Z" fill="#FACDD3"/>
<path d="M23.3039 16.4585C23.8719 16.4585 24.3323 15.9797 24.3323 15.3891C24.3323 14.7985 23.8719 14.3197 23.3039 14.3197C22.7359 14.3197 22.2754 14.7985 22.2754 15.3891C22.2754 15.9797 22.7359 16.4585 23.3039 16.4585Z" fill="#FACDD3"/>
<path d="M23.2271 11.8319C23.2205 11.5649 23.2837 11.3011 23.41 11.0685C23.5363 10.836 23.7209 10.6435 23.9441 10.5114C24.1674 10.3794 24.4209 10.3129 24.6777 10.319C24.9345 10.325 25.1848 10.4035 25.4021 10.5459C25.4284 10.5684 25.4471 10.5991 25.4552 10.6336C25.4633 10.668 25.4604 10.7042 25.447 10.7368C25.4337 10.7694 25.4105 10.7967 25.381 10.8144C25.3515 10.8322 25.3172 10.8395 25.2834 10.8353C24.9195 10.7501 24.5381 10.8088 24.2135 10.9999C23.8889 11.1911 23.6444 11.501 23.5276 11.8693C23.4804 12.0341 23.2233 12.003 23.2271 11.8319Z" fill="#2E2A47"/>
<path d="M27.4937 11.0284C27.6302 10.8853 27.7936 10.773 27.9738 10.6988C28.154 10.6245 28.347 10.5899 28.5407 10.5971C28.7344 10.6042 28.9246 10.653 29.0993 10.7403C29.274 10.8277 29.4294 10.9517 29.5557 11.1045C29.703 11.2813 30.0542 11.8728 29.7444 11.9886C29.7154 11.9939 29.6857 11.9903 29.6587 11.9782C29.6318 11.9661 29.6088 11.946 29.5927 11.9205C29.3927 11.5978 29.0891 11.3593 28.7359 11.2473C28.3826 11.1353 28.0027 11.1571 27.6635 11.3088C27.6316 11.3212 27.5966 11.3226 27.5639 11.3127C27.5312 11.3027 27.5024 11.2821 27.482 11.2537C27.4615 11.2253 27.4504 11.1908 27.4504 11.1554C27.4504 11.1199 27.4614 11.0855 27.4818 11.0571L27.4937 11.0284Z" fill="#2E2A47"/>
<path d="M25.4351 13.1019C25.4802 13.3205 25.2925 13.2658 25.0823 13.3127C24.8721 13.3595 24.7219 13.4922 24.6769 13.3127C24.6659 13.2608 24.6651 13.2073 24.6743 13.1551C24.6835 13.103 24.7027 13.0532 24.7307 13.0089C24.7586 12.9645 24.7949 12.9264 24.8372 12.8968C24.8795 12.8672 24.9271 12.8467 24.9772 12.8365C25.0717 12.8119 25.1716 12.8256 25.2567 12.8749C25.3418 12.9242 25.4056 13.0054 25.4351 13.1019Z" fill="#473E6B"/>
<path d="M28.7596 13.1252C28.7596 13.3516 28.5869 13.2579 28.3692 13.2579C28.1515 13.2579 27.9863 13.3516 27.9863 13.1252C28.0096 13.0404 28.0589 12.9658 28.1266 12.9127C28.1943 12.8595 28.2768 12.8308 28.3617 12.8308C28.4465 12.8308 28.529 12.8595 28.5968 12.9127C28.6645 12.9658 28.7137 13.0404 28.737 13.1252H28.7596Z" fill="#473E6B"/>
<path d="M26.642 16.2553C26.4476 16.2525 26.2619 16.1713 26.124 16.029C26.0004 15.8928 25.9316 15.7127 25.9316 15.5255C25.9316 15.3383 26.0004 15.1582 26.124 15.022C26.1373 15.0069 26.1536 14.9948 26.1717 14.9865C26.1898 14.9782 26.2093 14.974 26.2291 14.974C26.2488 14.974 26.2684 14.9782 26.2865 14.9865C26.3046 14.9948 26.3208 15.0069 26.3342 15.022C26.3622 15.0525 26.3778 15.093 26.3778 15.1352C26.3778 15.1773 26.3622 15.2179 26.3342 15.2484C26.2671 15.3269 26.2302 15.4283 26.2302 15.5333C26.2302 15.6383 26.2671 15.7397 26.3342 15.8182C26.4009 15.8877 26.488 15.9324 26.5817 15.9451C26.6754 15.9578 26.7705 15.9379 26.8522 15.8885C26.8687 15.8774 26.8873 15.87 26.9067 15.8668C26.9261 15.8636 26.946 15.8646 26.965 15.8697C26.984 15.8749 27.0018 15.884 27.0173 15.8966C27.0328 15.9093 27.0456 15.9251 27.0549 15.9431C27.0656 15.9609 27.0728 15.9808 27.076 16.0016C27.0792 16.0224 27.0783 16.0436 27.0734 16.064C27.0685 16.0845 27.0597 16.1036 27.0474 16.1204C27.0352 16.1372 27.0199 16.1512 27.0023 16.1617C26.8916 16.2238 26.7677 16.256 26.642 16.2553Z" fill="#2E2A47"/>
<path d="M36.206 5.69405H36.1535C34.4139 5.18542 32.6271 4.8714 30.8234 4.75734C30.8037 4.75539 30.7845 4.7494 30.767 4.73969C30.7495 4.72998 30.734 4.71676 30.7214 4.70079C30.7089 4.68482 30.6995 4.66641 30.6938 4.64664C30.6881 4.62687 30.6862 4.60613 30.6883 4.58561C30.6921 4.54489 30.7103 4.50712 30.7395 4.47967C30.7686 4.45223 30.8066 4.43711 30.846 4.4373C32.6778 4.55654 34.4923 4.8784 36.2585 5.39743C36.293 5.40911 36.3223 5.43335 36.3409 5.4657C36.3595 5.49805 36.3662 5.53634 36.3598 5.57344C36.3534 5.61055 36.3343 5.64398 36.306 5.66759C36.2778 5.69119 36.2422 5.70336 36.206 5.70184V5.69405Z" fill="#2E2A47"/>
<path d="M18.4592 21.7352C18.4301 21.7466 18.3981 21.7466 18.3691 21.7352C18.3416 21.706 18.3262 21.6668 18.3262 21.6259C18.3262 21.585 18.3416 21.5458 18.3691 21.5166C19.0887 20.3747 19.5388 19.0722 19.6828 17.7152C19.7916 16.7062 19.7916 15.6877 19.6828 14.6787L19.6378 14.0932C19.6378 14.0518 19.6536 14.0121 19.6818 13.9828C19.7099 13.9536 19.7481 13.9371 19.7879 13.9371C19.8277 13.9371 19.8659 13.9536 19.8941 13.9828C19.9222 14.0121 19.9381 14.0518 19.9381 14.0932L19.9831 14.6787C20.097 15.7161 20.097 16.7636 19.9831 17.801C19.8331 19.2123 19.3622 20.5662 18.6093 21.7508C18.585 21.7615 18.5586 21.7656 18.5323 21.7629C18.5061 21.7602 18.4809 21.7506 18.4592 21.7352Z" fill="#2E2A47"/>
<path d="M35.0655 15.7324C35.0457 15.7295 35.0266 15.7226 35.0094 15.7119C34.9922 15.7013 34.9772 15.6872 34.9654 15.6705C34.9535 15.6538 34.9449 15.6348 34.9402 15.6146C34.9355 15.5943 34.9347 15.5733 34.9379 15.5528C34.9992 15.1371 35.0193 14.716 34.9979 14.2961C34.9689 13.8766 34.901 13.4609 34.7953 13.0549C34.7896 13.035 34.7878 13.014 34.79 12.9933C34.7922 12.9726 34.7984 12.9525 34.8082 12.9343C34.818 12.9161 34.8312 12.9002 34.847 12.8874C34.8629 12.8746 34.881 12.8652 34.9003 12.8598C34.9196 12.8539 34.9397 12.852 34.9597 12.8543C34.9796 12.8566 34.9989 12.8631 35.0164 12.8733C35.0339 12.8834 35.0492 12.8972 35.0615 12.9136C35.0738 12.9301 35.0828 12.9489 35.088 12.9691C35.2035 13.397 35.274 13.8367 35.2982 14.2805C35.3231 14.7212 35.303 15.1634 35.2382 15.5996C35.2354 15.6202 35.2287 15.6401 35.2185 15.658C35.2083 15.6758 35.1948 15.6914 35.1787 15.7038C35.1626 15.7162 35.1443 15.725 35.1249 15.7299C35.1054 15.7349 35.0852 15.7357 35.0655 15.7324Z" fill="#2E2A47"/>
<path d="M49.1577 25.9272L45.2765 24.7329L39.6462 30.5639L31.4785 47.8695C34.9335 47.5693 38.2942 46.5443 41.3578 44.8565L43.4373 34.2561C43.4373 34.2561 44.8486 32.6949 47.2659 30.2204C49.6831 27.746 49.1577 25.9272 49.1577 25.9272Z" fill="#B5AEFF"/>
<path d="M46.5293 29.1902C46.4178 29.1895 46.3067 29.1737 46.199 29.1433C46.0456 29.0986 45.9023 29.0224 45.7776 28.9191C45.653 28.8159 45.5494 28.6877 45.4732 28.5422C45.3969 28.3967 45.3494 28.2368 45.3336 28.0719C45.3177 27.907 45.3338 27.7405 45.3808 27.5822C45.589 26.8775 45.6779 26.1406 45.6435 25.4043C45.4483 25.217 45.2681 25.0296 45.1105 24.8657C44.9529 24.7018 44.8327 24.5691 44.7126 24.4598C44.3983 24.6435 44.1386 24.9136 43.9619 25.2404C43.9244 25.9663 43.9619 27.1841 43.9619 27.1997C43.9668 27.3637 43.9407 27.5271 43.8849 27.6806C43.829 27.8341 43.7447 27.9746 43.6366 28.0942C43.5286 28.2138 43.399 28.3101 43.2551 28.3776C43.1113 28.4451 42.9561 28.4825 42.7983 28.4876C42.6406 28.4928 42.4834 28.4655 42.3358 28.4075C42.1882 28.3495 42.053 28.2618 41.938 28.1494C41.823 28.0371 41.7304 27.9023 41.6654 27.7527C41.6005 27.6031 41.5646 27.4417 41.5597 27.2777C41.5597 27.2231 41.5221 25.9117 41.5597 25.0687C41.6347 23.6012 43.1587 22.3132 44.1796 21.9931C45.3883 21.6029 46.2441 22.5161 46.8221 23.125C46.9873 23.3045 47.1449 23.4685 47.3026 23.609C48.4587 24.6393 48.0533 26.9733 47.6779 28.2925C47.6062 28.5515 47.4553 28.7792 47.2481 28.9412C47.0408 29.1031 46.7886 29.1905 46.5293 29.1902Z" fill="#B5AEFF"/>
<path d="M46.9581 29.7832C46.8465 29.7829 46.7354 29.7672 46.6278 29.7363C46.4737 29.6924 46.3296 29.6168 46.2041 29.5139C46.0786 29.411 45.9743 29.283 45.8973 29.1374C45.8203 28.9918 45.7722 28.8316 45.7558 28.6663C45.7395 28.501 45.7552 28.334 45.8021 28.1752C46.0103 27.4705 46.0992 26.7336 46.0648 25.9973C45.8771 25.8178 45.697 25.6304 45.5393 25.4587C45.3817 25.287 45.254 25.1621 45.1339 25.0528C44.8214 25.239 44.5623 25.5085 44.3832 25.8334C44.3457 26.5671 44.3832 27.7771 44.3832 27.7927C44.3942 28.1239 44.2781 28.4461 44.0606 28.6884C43.8431 28.9306 43.542 29.0732 43.2234 29.0845C42.9048 29.0959 42.595 28.9753 42.362 28.7491C42.129 28.5229 41.9919 28.2098 41.981 27.8785C41.981 27.8161 41.9359 26.5047 41.981 25.6695C42.0635 24.1942 43.5875 22.914 44.6084 22.5861C45.8096 22.1959 46.6729 23.117 47.2434 23.718C47.4161 23.8975 47.5737 24.0614 47.7314 24.2098C48.8875 25.2323 48.4821 27.5663 48.1067 28.8933C48.0336 29.1508 47.8822 29.3768 47.6751 29.5373C47.468 29.6977 47.2164 29.784 46.9581 29.7832Z" fill="#B5AEFF"/>
<path d="M46.9727 23.3436C46.9727 23.3436 49.1122 25.3107 49.1572 25.9273C49.1491 26.417 49.047 26.9 48.8569 27.348L47.1378 26.9655L46.9727 23.3436Z" fill="#B5AEFF"/>
<path d="M45.0591 24.7329L45.4119 24.9749L44.3309 26.7937L44.2559 25.2403L44.9615 24.7329" fill="#473E6B"/>
<path d="M41.778 29.5648C41.7571 29.5656 41.7363 29.5618 41.7169 29.5537C41.6975 29.5457 41.68 29.5335 41.6653 29.518C41.6508 29.5041 41.6392 29.4872 41.6312 29.4684C41.6233 29.4496 41.6191 29.4292 41.6191 29.4087C41.6191 29.3881 41.6233 29.3678 41.6312 29.349C41.6392 29.3302 41.6508 29.3133 41.6653 29.2994L43.955 26.9577C44.0029 26.9126 44.0406 26.857 44.0652 26.7948C44.0899 26.7327 44.101 26.6657 44.0976 26.5986C44.0976 26.341 44.0976 25.818 44.0976 25.3887C44.0984 25.2173 44.1568 25.0516 44.2628 24.9203L44.4129 24.7486C44.4833 24.6739 44.5675 24.6147 44.6603 24.5745C44.7532 24.5342 44.8529 24.5138 44.9534 24.5144C45.0558 24.5138 45.1573 24.5349 45.2515 24.5765C45.3457 24.6181 45.4308 24.6793 45.5014 24.7564L45.2913 24.975C45.1992 24.8806 45.0752 24.8273 44.9459 24.8267C44.8857 24.8256 44.8259 24.8375 44.7704 24.8617C44.7148 24.8859 44.6647 24.9218 44.6231 24.9672L44.5255 25.0999C44.4623 25.1818 44.4279 25.2837 44.4279 25.3887C44.4279 25.8336 44.4279 26.3254 44.4279 26.5752C44.4285 26.7971 44.3449 27.0102 44.1952 27.1684L41.9431 29.5102C41.9244 29.5359 41.8985 29.555 41.8689 29.5648C41.8393 29.5746 41.8075 29.5746 41.778 29.5648Z" fill="#473E6B"/>
<path d="M44.0584 27.2233C44.0225 27.2222 43.9881 27.2084 43.9608 27.1843C43.946 27.1697 43.9343 27.1521 43.9263 27.1327C43.9182 27.1132 43.9141 27.0922 43.9141 27.0711C43.9141 27.0499 43.9182 27.0289 43.9263 27.0095C43.9343 26.99 43.946 26.9725 43.9608 26.9579L45.3046 25.4435C45.3347 25.4161 45.3734 25.401 45.4134 25.401C45.4535 25.401 45.4921 25.4161 45.5223 25.4435C45.5503 25.474 45.5659 25.5146 45.5659 25.5567C45.5659 25.5989 45.5503 25.6394 45.5223 25.6699L44.171 27.1843C44.1558 27.1984 44.1379 27.2091 44.1186 27.2158C44.0992 27.2225 44.0787 27.2251 44.0584 27.2233Z" fill="#473E6B"/>
<path d="M42.5821 28.7137C42.332 28.6598 42.1009 28.5356 41.914 28.3546C41.8865 28.3254 41.8711 28.2862 41.8711 28.2453C41.8711 28.2045 41.8865 28.1652 41.914 28.1361C41.9433 28.107 41.9823 28.0907 42.0229 28.0907C42.0634 28.0907 42.1024 28.107 42.1317 28.1361C42.274 28.275 42.4508 28.3696 42.6422 28.4092C42.6621 28.413 42.6811 28.4208 42.698 28.4324C42.7149 28.4439 42.7294 28.4588 42.7406 28.4763C42.7518 28.4938 42.7595 28.5135 42.7633 28.5342C42.767 28.5548 42.7667 28.5761 42.7623 28.5966C42.7579 28.6166 42.7497 28.6355 42.7382 28.6522C42.7268 28.6689 42.7123 28.6831 42.6956 28.694C42.6788 28.7048 42.6602 28.7122 42.6407 28.7156C42.6213 28.719 42.6014 28.7183 42.5821 28.7137Z" fill="#473E6B"/>
<path d="M46.9581 29.7832C46.8465 29.7829 46.7354 29.7672 46.6278 29.7363C46.4737 29.6924 46.3296 29.6168 46.2041 29.5139C46.0786 29.411 45.9743 29.283 45.8973 29.1374C45.8203 28.9918 45.7722 28.8316 45.7558 28.6663C45.7395 28.501 45.7552 28.334 45.8021 28.1752C46.0103 27.4705 46.0992 26.7336 46.0648 25.9973C45.8771 25.8178 45.697 25.6304 45.5393 25.4587C45.3817 25.287 45.254 25.1621 45.1339 25.0528C44.8214 25.239 44.5623 25.5085 44.3832 25.8334C44.3457 26.5671 44.3832 27.7771 44.3832 27.7927C44.3942 28.1239 44.2781 28.4461 44.0606 28.6884C43.8431 28.9306 43.542 29.0732 43.2234 29.0845C42.9048 29.0959 42.595 28.9753 42.362 28.7491C42.129 28.5229 41.9919 28.2098 41.981 27.8785C41.981 27.8161 41.9359 26.5047 41.981 25.6695C42.0635 24.1942 43.5875 22.914 44.6084 22.5861C45.8096 22.1959 46.6729 23.117 47.2434 23.718C47.4161 23.8975 47.5737 24.0614 47.7314 24.2098C48.8875 25.2323 48.4821 27.5663 48.1067 28.8933C48.0336 29.1508 47.8822 29.3768 47.6751 29.5373C47.468 29.6977 47.2164 29.784 46.9581 29.7832Z" fill="#B5AEFF"/>
<path fill-rule="evenodd" clip-rule="evenodd" d="M18.005 28.655C18.005 33.3563 14.4222 37.1674 10.0025 37.1674C5.58285 37.1674 2 33.3563 2 28.655C2 23.9538 5.58285 20.1427 10.0025 20.1427C14.4222 20.1427 18.005 23.9538 18.005 28.655ZM11.0028 32.9112C11.0028 33.4989 10.555 33.9752 10.0025 33.9752C9.45005 33.9752 9.0022 33.4989 9.0022 32.9112C9.0022 32.3236 9.45005 31.8472 10.0025 31.8472C10.555 31.8472 11.0028 32.3236 11.0028 32.9112ZM10.0025 23.3348C9.45005 23.3348 9.0022 23.8112 9.0022 24.3989V28.655C9.0022 29.2427 9.45005 29.7191 10.0025 29.7191C10.555 29.7191 11.0028 29.2427 11.0028 28.655V24.3989C11.0028 23.8112 10.555 23.3348 10.0025 23.3348Z" fill="#7C72E2"/>
</svg>
