<svg width="125" height="90" viewBox="0 0 125 90" fill="none" xmlns="http://www.w3.org/2000/svg">
<path d="M81.9357 73.3694C81.9357 69.7473 79.3842 66.4153 75.9522 65.6349C74.8416 65.3847 71.5497 64.4642 71.5497 64.4642C69.8187 64.144 68.558 63.2735 68.558 61.4625V61.3224C68.558 60.8221 68.558 60.3418 68.588 59.8815C69.5185 58.5608 70.1889 56.8398 70.8893 54.9987C72.5203 53.9981 73.5208 52.6474 73.5208 51.1665C73.5208 50.4261 73.2707 49.7257 72.8204 49.0853V46.0535C72.8204 41.0707 68.7381 37.0383 63.7052 37.0383C58.6722 37.0383 54.5899 41.0807 54.5899 46.0535V49.0853C54.1396 49.7357 53.8895 50.4361 53.8895 51.1665C53.8895 52.6474 54.8901 53.9881 56.521 54.9987C57.2214 56.8398 57.8818 58.5508 58.8223 59.8815C58.8423 60.3418 58.8523 60.8221 58.8523 61.3224V61.4625C58.8523 63.2735 57.5916 64.134 55.8606 64.4642C55.8606 64.4642 52.5687 65.3847 51.4581 65.6349C48.0261 66.4153 45.4746 69.7473 45.4746 73.3694V76.8314H81.9457V73.3694H81.9357Z" fill="#B5AEFF" stroke="#2E2A47" stroke-miterlimit="10"/>
<path d="M16.9787 10.333L7.18301 12.1941C6.83281 12.2641 6.60267 12.5943 6.67272 12.9445L8.53379 22.7402C8.64386 23.3005 9.37428 23.4506 9.69446 22.9803L12.5061 18.8379C13.0964 18.948 13.6267 18.978 14.087 18.998C14.9075 19.038 15.3177 19.048 15.9481 19.4883C15.9581 19.4883 15.9681 19.5083 15.9781 19.5083C16.6185 19.9285 16.7986 20.3088 17.1388 21.0492C17.589 22.0197 18.1994 23.3605 19.9404 24.5312C21.6814 25.7019 23.1523 25.7619 24.2229 25.8119C25.0033 25.842 25.4136 25.862 26.0039 26.2522L26.0339 26.2722C26.6343 26.6824 26.8044 27.0527 27.1346 27.7831C27.5848 28.7536 28.1952 30.0944 29.9362 31.2651C31.6772 32.4358 33.148 32.4958 34.2187 32.5458C35.0091 32.5759 35.4193 32.5959 36.0197 32.9861C36.0197 32.9861 36.0197 32.9861 36.0397 32.9961L36.1098 33.0361C36.1098 33.0361 36.1097 33.0361 36.1198 33.0361C36.7101 33.4464 36.8802 33.8166 37.2204 34.537C37.6707 35.5176 38.281 36.8483 40.022 38.019C41.763 39.1897 43.2339 39.2497 44.3045 39.2997C45.125 39.3398 45.5352 39.3498 46.1656 39.79C47.2262 40.5205 48.677 40.2503 49.3974 39.1897C49.8877 38.4693 49.9277 37.5788 49.5675 36.8483C49.3974 36.4981 49.1373 36.1879 48.7971 35.9578C47.0661 34.7671 45.5852 34.7071 44.5046 34.6571C43.6741 34.617 43.2639 34.607 42.6135 34.1668C41.9631 33.7365 41.793 33.3563 41.4528 32.6059C41.0026 31.6353 40.4022 30.3145 38.6912 29.1639C36.9702 28.0032 35.5094 27.9432 34.4388 27.8931C33.6083 27.8531 33.1981 27.8431 32.5477 27.4029C31.8973 26.9626 31.7272 26.5924 31.387 25.842C30.9568 24.9114 30.3864 23.6607 28.8355 22.54C28.8055 22.52 28.7755 22.5 28.7455 22.47C28.7055 22.44 28.6654 22.42 28.6254 22.39C28.6054 22.38 28.5854 22.3599 28.5654 22.3499C28.5354 22.3299 28.5154 22.3199 28.4853 22.2999C26.8544 21.2693 25.4736 21.2093 24.443 21.1693C23.6125 21.1292 23.2023 21.1192 22.5519 20.679C21.9015 20.2387 21.7314 19.8685 21.3912 19.1181C20.941 18.1375 20.3306 16.8067 18.5896 15.6461C17.4389 14.8656 16.4083 14.5754 15.5278 14.4554L17.6591 11.3236C17.9793 10.8533 17.569 10.2229 17.0087 10.333H16.9787Z" fill="#D8F2C8" stroke="#473E6B" stroke-miterlimit="10"/>
<path d="M110.421 10.333L120.217 12.1941C120.567 12.2641 120.797 12.5943 120.727 12.9445L118.866 22.7402C118.756 23.3005 118.026 23.4506 117.706 22.9803L114.894 18.8379C114.304 18.948 113.773 18.978 113.313 18.998C112.493 19.038 112.082 19.048 111.452 19.4883C111.442 19.4883 111.432 19.5083 111.422 19.5083C110.782 19.9285 110.601 20.3088 110.261 21.0492C109.811 22.0197 109.201 23.3605 107.46 24.5312C105.719 25.7019 104.248 25.7619 103.177 25.8119C102.397 25.842 101.986 25.862 101.396 26.2522L101.366 26.2722C100.766 26.6824 100.596 27.0527 100.265 27.7831C99.8152 28.7536 99.2049 30.0944 97.4639 31.2651C95.7229 32.4358 94.252 32.4958 93.1814 32.5458C92.3909 32.5759 91.9807 32.5959 91.3804 32.9861C91.3804 32.9861 91.3804 32.9861 91.3603 32.9961L91.2903 33.0361C91.2903 33.0361 91.2903 33.0361 91.2803 33.0361C90.69 33.4464 90.5199 33.8166 90.1797 34.537C89.7294 35.5176 89.119 36.8483 87.378 38.019C85.637 39.1897 84.1662 39.2497 83.0956 39.2997C82.2751 39.3398 81.8648 39.3498 81.2345 39.79C80.1739 40.5205 78.723 40.2503 78.0026 39.1897C77.5123 38.4693 77.4723 37.5788 77.8325 36.8483C78.0026 36.4981 78.2628 36.1879 78.603 35.9578C80.334 34.7671 81.8148 34.7071 82.8954 34.6571C83.7259 34.617 84.1362 34.607 84.7865 34.1668C85.4369 33.7365 85.607 33.3563 85.9472 32.6059C86.3975 31.6353 86.9978 30.3145 88.7088 29.1639C90.4298 28.0032 91.8907 27.9432 92.9613 27.8931C93.7918 27.8531 94.202 27.8431 94.8524 27.4029C95.5027 26.9626 95.6728 26.5924 96.013 25.842C96.4433 24.9114 97.0136 23.6607 98.5645 22.54C98.5945 22.52 98.6245 22.5 98.6546 22.47C98.6946 22.44 98.7346 22.42 98.7746 22.39C98.7946 22.38 98.8147 22.3599 98.8347 22.3499C98.8647 22.3299 98.8847 22.3199 98.9147 22.2999C100.546 21.2693 101.926 21.2093 102.957 21.1693C103.788 21.1292 104.198 21.1192 104.848 20.679C105.499 20.2387 105.669 19.8685 106.009 19.1181C106.459 18.1375 107.069 16.8067 108.81 15.6461C109.961 14.8656 110.992 14.5754 111.872 14.4554L109.741 11.3236C109.421 10.8533 109.831 10.2229 110.391 10.333H110.421Z" fill="#D8F2C8" stroke="#473E6B" stroke-miterlimit="10"/>
<path d="M16.9787 86.9274L7.18301 85.0663C6.83281 84.9963 6.60267 84.6661 6.67272 84.3159L8.53379 74.5202C8.64386 73.9599 9.37428 73.8098 9.69446 74.2801L12.5061 78.4225C13.0964 78.3124 13.6267 78.2824 14.087 78.2624C14.9075 78.2223 15.3177 78.2123 15.9481 77.7721C15.9581 77.7721 15.9681 77.7521 15.9781 77.7521C16.6185 77.3318 16.7986 76.9516 17.1388 76.2112C17.589 75.2406 18.1994 73.8998 19.9404 72.7292C21.6814 71.5585 23.1523 71.4985 24.2229 71.4484C25.0033 71.4184 25.4136 71.3984 26.0039 71.0082L26.0339 70.9882C26.6343 70.5779 26.8044 70.2077 27.1346 69.4773C27.5848 68.5067 28.1952 67.1659 29.9362 65.9953C31.6772 64.8246 33.148 64.7646 34.2187 64.7145C35.0091 64.6845 35.4193 64.6645 36.0197 64.2743C36.0197 64.2743 36.0197 64.2743 36.0397 64.2643L36.1098 64.2242C36.1098 64.2242 36.1097 64.2242 36.1198 64.2242C36.7101 63.814 36.8802 63.4438 37.2204 62.7234C37.6707 61.7428 38.281 60.412 40.022 59.2414C41.763 58.0707 43.2339 58.0106 44.3045 57.9606C45.125 57.9206 45.5352 57.9106 46.1656 57.4703C47.2262 56.7399 48.677 57.0101 49.3974 58.0707C49.8877 58.7911 49.9277 59.6816 49.5675 60.412C49.3974 60.7622 49.1373 61.0724 48.7971 61.3026C47.0661 62.4932 45.5852 62.5533 44.5046 62.6033C43.6741 62.6433 43.2639 62.6533 42.6135 63.0936C41.9631 63.5238 41.793 63.9041 41.4528 64.6545C41.0026 65.6251 40.4022 66.9458 38.6912 68.0965C36.9702 69.2572 35.5094 69.3172 34.4388 69.3672C33.6083 69.4072 33.1981 69.4172 32.5477 69.8575C31.8973 70.2978 31.7272 70.668 31.387 71.4184C30.9568 72.3489 30.3864 73.5997 28.8355 74.7203C28.8055 74.7403 28.7755 74.7603 28.7455 74.7904C28.7055 74.8204 28.6654 74.8404 28.6254 74.8704C28.6054 74.8804 28.5854 74.9004 28.5654 74.9104C28.5354 74.9304 28.5154 74.9404 28.4853 74.9605C26.8544 75.991 25.4736 76.0511 24.443 76.0911C23.6125 76.1311 23.2023 76.1411 22.5519 76.5814C21.9015 77.0216 21.7314 77.3919 21.3912 78.1423C20.941 79.1229 20.3306 80.4536 18.5896 81.6143C17.4389 82.3948 16.4083 82.6849 15.5278 82.805L17.6591 85.9368C17.9793 86.4071 17.569 87.0374 17.0087 86.9274H16.9787Z" fill="#D8F2C8" stroke="#473E6B" stroke-miterlimit="10"/>
<path d="M110.421 86.9274L120.217 85.0663C120.567 84.9963 120.797 84.6661 120.727 84.3159L118.866 74.5202C118.756 73.9599 118.026 73.8098 117.706 74.2801L114.894 78.4225C114.304 78.3124 113.773 78.2824 113.313 78.2624C112.493 78.2223 112.082 78.2123 111.452 77.7721C111.442 77.7721 111.432 77.7521 111.422 77.7521C110.782 77.3318 110.601 76.9516 110.261 76.2112C109.811 75.2406 109.201 73.8998 107.46 72.7292C105.719 71.5585 104.248 71.4985 103.177 71.4484C102.397 71.4184 101.986 71.3984 101.396 71.0082L101.366 70.9882C100.766 70.5779 100.596 70.2077 100.265 69.4773C99.8152 68.5067 99.2049 67.1659 97.4639 65.9953C95.7229 64.8246 94.252 64.7646 93.1814 64.7145C92.3909 64.6845 91.9807 64.6645 91.3804 64.2743C91.3804 64.2743 91.3804 64.2743 91.3603 64.2643L91.2903 64.2242C91.2903 64.2242 91.2903 64.2242 91.2803 64.2242C90.69 63.814 90.5199 63.4438 90.1797 62.7234C89.7294 61.7428 89.119 60.412 87.378 59.2414C85.637 58.0707 84.1662 58.0106 83.0956 57.9606C82.2751 57.9206 81.8648 57.9106 81.2345 57.4703C80.1739 56.7399 78.723 57.0101 78.0026 58.0707C77.5123 58.7911 77.4723 59.6816 77.8325 60.412C78.0026 60.7622 78.2628 61.0724 78.603 61.3026C80.334 62.4932 81.8148 62.5533 82.8954 62.6033C83.7259 62.6433 84.1362 62.6533 84.7865 63.0936C85.4369 63.5238 85.607 63.9041 85.9472 64.6545C86.3975 65.6251 86.9978 66.9458 88.7088 68.0965C90.4298 69.2572 91.8907 69.3172 92.9613 69.3672C93.7918 69.4072 94.202 69.4172 94.8524 69.8575C95.5027 70.2978 95.6728 70.668 96.013 71.4184C96.4433 72.3489 97.0136 73.5997 98.5645 74.7203C98.5945 74.7403 98.6245 74.7603 98.6546 74.7904C98.6946 74.8204 98.7346 74.8404 98.7746 74.8704C98.7946 74.8804 98.8147 74.9004 98.8347 74.9104C98.8647 74.9304 98.8847 74.9404 98.9147 74.9605C100.546 75.991 101.926 76.0511 102.957 76.0911C103.788 76.1311 104.198 76.1411 104.848 76.5814C105.499 77.0216 105.669 77.3919 106.009 78.1423C106.459 79.1229 107.069 80.4536 108.81 81.6143C109.961 82.3948 110.992 82.6849 111.872 82.805L109.741 85.9368C109.421 86.4071 109.831 87.0374 110.391 86.9274H110.421Z" fill="#D8F2C8" stroke="#473E6B" stroke-miterlimit="10"/>
<path d="M71.5793 8.21167L64.4952 1.18761C64.245 0.937464 63.8348 0.937464 63.5846 1.18761L56.5606 8.27171C56.1603 8.68195 56.4505 9.37234 57.0208 9.37234L61.1232 9.35233C61.3934 10.2328 61.7836 10.9232 62.1138 11.4636C62.544 12.164 62.7542 12.5242 62.7542 13.3046C62.7542 14.0851 62.534 14.4353 62.1038 15.1457C61.5435 16.0562 60.773 17.3069 60.773 19.3881C60.773 21.4493 61.5234 22.6901 62.0838 23.6006C62.514 24.301 62.7241 24.6612 62.7241 25.4416C62.7241 26.2221 62.504 26.5823 62.0738 27.2827C61.5034 28.2032 60.733 29.464 60.743 31.5752C60.743 31.9854 60.8531 32.3757 61.0532 32.7159C61.4534 33.4163 62.2239 33.8965 63.0944 33.8865C64.3751 33.8865 65.4157 32.8259 65.4057 31.5452C65.4057 30.7747 65.6158 30.4245 66.0461 29.7241C66.6064 28.8036 67.3768 27.5529 67.3868 25.4617C67.3868 23.3704 66.6264 22.1197 66.0661 21.1992C65.6558 20.5188 65.4457 20.1686 65.4357 19.4482V19.3581C65.4357 19.3581 65.4357 19.3481 65.4357 19.3381C65.4357 18.6177 65.6558 18.2675 66.0761 17.5971C66.6364 16.6766 67.4068 15.4258 67.4169 13.3346C67.4169 11.4535 66.7965 10.2428 66.2662 9.35233L71.139 9.33232C71.7093 9.33232 71.9995 8.63192 71.5893 8.23168L71.5793 8.21167Z" fill="#D8F2C8" stroke="#473E6B" stroke-miterlimit="10"/>
<path d="M104.589 56.8L111.613 49.7159C111.863 49.4657 111.863 49.0555 111.613 48.8053L104.529 41.7813C104.119 41.381 103.428 41.6712 103.428 42.2415L103.448 46.3439C102.568 46.6141 101.877 47.0043 101.337 47.3345C100.637 47.7647 100.277 47.9749 99.4961 47.9749C98.7157 47.9749 98.3655 47.7547 97.6551 47.3245C96.7445 46.7642 95.4938 45.9937 93.4126 45.9937C91.3514 45.9937 90.1107 46.7441 89.2002 47.3045C88.4998 47.7347 88.1395 47.9448 87.3591 47.9448C86.5786 47.9448 86.2184 47.7247 85.518 47.2945C84.5975 46.7241 83.3368 45.9537 81.2256 45.9637C80.8153 45.9637 80.4251 46.0738 80.0849 46.2739C79.3845 46.6741 78.9042 47.4446 78.9142 48.3151C78.9142 49.5958 79.9748 50.6364 81.2556 50.6264C82.026 50.6264 82.3762 50.8365 83.0766 51.2668C83.9972 51.8271 85.2479 52.5975 87.3391 52.6075C89.4303 52.6075 90.681 51.8471 91.6016 51.2868C92.282 50.8765 92.6322 50.6664 93.3526 50.6564H93.4426C93.4426 50.6564 93.4526 50.6564 93.4626 50.6564C94.1831 50.6564 94.5333 50.8765 95.2036 51.2968C96.1242 51.8571 97.3749 52.6276 99.4661 52.6376C101.347 52.6376 102.558 52.0172 103.448 51.4869L103.468 56.3597C103.468 56.93 104.169 57.2202 104.569 56.81L104.589 56.8Z" fill="#D8F2C8" stroke="#473E6B" stroke-miterlimit="10"/>
<path d="M24.3328 56.8L17.3087 49.7159C17.0586 49.4657 17.0586 49.0555 17.3087 48.8053L24.3928 41.7813C24.803 41.381 25.4934 41.6712 25.4934 42.2415L25.4734 46.3439C26.3539 46.6141 27.0443 47.0043 27.5846 47.3345C28.2851 47.7647 28.6453 47.9749 29.4257 47.9749C30.2062 47.9749 30.5564 47.7547 31.2668 47.3245C32.1773 46.7642 33.428 45.9937 35.5092 45.9937C37.5704 45.9937 38.8111 46.7441 39.7217 47.3045C40.4221 47.7347 40.7823 47.9448 41.5627 47.9448C42.3432 47.9448 42.7034 47.7247 43.4038 47.2945C44.3243 46.7241 45.5851 45.9537 47.6963 45.9637C48.1065 45.9637 48.4968 46.0738 48.8369 46.2739C49.5374 46.6741 50.0176 47.4446 50.0076 48.3151C50.0076 49.5958 48.947 50.6364 47.6663 50.6264C46.8958 50.6264 46.5456 50.8365 45.8452 51.2668C44.9247 51.8271 43.674 52.5975 41.5828 52.6075C39.4915 52.6075 38.2408 51.8471 37.3203 51.2868C36.6399 50.8765 36.2897 50.6664 35.5693 50.6564H35.4792C35.4792 50.6564 35.4692 50.6564 35.4592 50.6564C34.7388 50.6564 34.3886 50.8765 33.7182 51.2968C32.7977 51.8571 31.5469 52.6276 29.4557 52.6376C27.5746 52.6376 26.3639 52.0172 25.4734 51.4869L25.4534 56.3597C25.4534 56.93 24.753 57.2202 24.3528 56.81L24.3328 56.8Z" fill="#D8F2C8" stroke="#473E6B" stroke-miterlimit="10"/>
<path d="M86.6572 12.184C86.2069 11.7538 85.3064 5.65023 84.4859 5.70026C83.6655 5.75029 82.9551 11.8038 82.5648 12.204C81.7944 13.0045 76.1711 13.5748 76.2112 14.3453C76.2612 15.1157 81.7844 15.4859 82.5648 16.2364C83.0051 16.6566 83.9156 22.7801 84.7361 22.7301C85.5566 22.6801 86.257 16.6466 86.6572 16.2364C87.3976 15.4659 93.0709 14.8656 93.0209 14.0851C92.9709 13.3047 87.3976 12.9144 86.6472 12.184H86.6572Z" fill="white" stroke="#473E6B" stroke-miterlimit="10"/>
<path d="M46.8362 17.7272C46.5261 17.437 45.9157 13.2946 45.3654 13.3246C44.8051 13.3546 44.3248 17.467 44.0646 17.7372C43.5443 18.2775 39.7221 18.6677 39.7521 19.188C39.7821 19.7083 43.5343 19.9585 44.0646 20.4688C44.3648 20.7589 44.9852 24.9013 45.5355 24.8713C46.0858 24.8413 46.5661 20.7489 46.8362 20.4688C47.3365 19.9485 51.1887 19.5382 51.1587 19.0079C51.1287 18.4776 47.3465 18.2175 46.8362 17.7172V17.7272Z" fill="white" stroke="#473E6B" stroke-miterlimit="10"/>
<path d="M10.5843 54.0482C10.2741 53.7581 9.66374 49.6157 9.11343 49.6457C8.5531 49.6757 8.07282 53.7881 7.81267 54.0582C7.29237 54.5985 3.47016 54.9888 3.50018 55.5091C3.53019 56.0294 7.28237 56.2795 7.81267 56.7898C8.11285 57.08 8.73321 61.2224 9.28352 61.1924C9.83384 61.1623 10.3141 57.07 10.5843 56.7898C11.0846 56.2695 14.9368 55.8593 14.9068 55.329C14.8768 54.7987 11.0946 54.5385 10.5843 54.0382V54.0482Z" fill="white" stroke="#473E6B" stroke-miterlimit="10"/>
<path d="M114.283 33.2462C113.973 32.956 113.363 28.8137 112.813 28.8437C112.252 28.8737 111.772 32.9861 111.512 33.2562C110.992 33.7965 107.169 34.1868 107.199 34.7071C107.229 35.2274 110.982 35.4775 111.512 35.9878C111.812 36.278 112.432 40.4204 112.983 40.3904C113.533 40.3603 114.013 36.268 114.283 35.9878C114.784 35.4675 118.636 35.0573 118.606 34.527C118.576 33.9966 114.794 33.7365 114.283 33.2362V33.2462Z" fill="white" stroke="#473E6B" stroke-miterlimit="10"/>
</svg>
