<svg width="122" height="89" viewBox="0 0 122 89" fill="none" xmlns="http://www.w3.org/2000/svg">
<path d="M107.911 72.8882C107.631 72.6164 107.066 68.8505 106.554 68.8791C106.042 68.9077 105.588 72.6498 105.357 72.8929C104.874 73.3696 101.354 73.7367 101.383 74.2134C101.412 74.6901 104.869 74.9189 105.357 75.3861C105.627 75.6483 106.202 79.4238 106.713 79.3952C107.225 79.3666 107.679 75.6388 107.916 75.3861C108.399 74.9094 111.928 74.5376 111.899 74.0609C111.87 73.5842 108.384 73.3363 107.911 72.8882Z" stroke="#473E6B" stroke-miterlimit="10"/>
<path d="M116.516 5.00926C116.236 4.73753 115.671 0.97156 115.16 1.00016C114.648 1.02876 114.194 4.77091 113.962 5.01403C113.479 5.49074 109.959 5.85778 109.988 6.33449C110.017 6.8112 113.475 7.04002 113.962 7.5072C114.233 7.76939 114.807 11.5449 115.319 11.5163C115.831 11.4877 116.285 7.75985 116.521 7.5072C117.004 7.03049 120.534 6.65867 120.505 6.18197C120.476 5.70526 116.99 5.45736 116.516 5.00926Z" fill="#F5F4FF" stroke="#473E6B" stroke-miterlimit="10"/>
<path d="M29.5164 58.5478C29.2363 58.2761 28.6714 54.5101 28.1596 54.5387C27.6478 54.5673 27.194 58.3095 26.9622 58.5526C26.4794 59.0293 22.9595 59.3964 22.9885 59.8731C23.0174 60.3498 26.4745 60.5786 26.9622 61.0458C27.2326 61.308 27.8071 65.0835 28.319 65.0549C28.8308 65.0263 29.2846 61.2984 29.5212 61.0458C30.004 60.5691 33.5336 60.1972 33.5046 59.7205C33.4756 59.2438 29.9896 58.9959 29.5164 58.5478Z" fill="#F7FDFF" stroke="#473E6B" stroke-miterlimit="10"/>
<path d="M7.52811 17.438C7.24806 17.1662 6.68315 13.4003 6.17134 13.4289C5.65954 13.4575 5.20567 17.1996 4.97391 17.4427C4.49107 17.9194 0.971208 18.2865 1.00018 18.7632C1.02915 19.2399 4.48625 19.4687 4.97391 19.9359C5.2443 20.1981 5.81887 23.9736 6.33067 23.945C6.84248 23.9164 7.29633 20.1886 7.53292 19.9359C8.01576 19.4592 11.5453 19.0874 11.5163 18.6107C11.4873 18.134 8.00128 17.8861 7.52811 17.438Z" stroke="#473E6B" stroke-miterlimit="10"/>
<path d="M97.8805 12.9507L34.3036 12.4727L21.875 28.7254L65.853 87.5221L110.468 30.1595L97.8805 12.9507Z" fill="#C2E6F5"/>
<g opacity="0.7">
<path d="M65.4708 85.8455L49.8141 30.368H82.747L67.0904 85.8455H65.4708Z" fill="white"/>
<path d="M61.6916 13.1323L48.7344 29.2908H81.6673L68.1702 13.1323H61.6916Z" fill="white"/>
</g>
<path opacity="0.4" d="M47.5344 28.7254L35.418 13.4287H61.2312L47.5344 28.7254Z" fill="white"/>
<path opacity="0.2" d="M34.699 13.1325L47.6562 29.291L21.202 29.291L34.699 13.1325Z" fill="white"/>
<path opacity="0.2" d="M95.7044 12.0553L110.281 29.291L82.7472 29.291L95.7044 12.0553Z" fill="white"/>
<path opacity="0.4" d="M80.9953 28.7254L68.8789 13.4287H94.6921L80.9953 28.7254Z" fill="white"/>
<path d="M48.1953 29.2909L61.1525 12.0552H68.171L82.208 29.2909H48.1953Z" fill="white"/>
<path d="M111.389 29.3498L97.4881 11.8887H95.6168H67.8154H64.0655H36.2641H34.3929L20.4922 29.3498V30.6449L65.016 86.7124H67.006L111.53 30.6449V29.3498H111.389Z" stroke="#5E58A5" stroke-linecap="round" stroke-linejoin="round"/>
<path d="M111.389 29.3498L97.4881 11.8887H95.6168H67.8154H64.0655H36.2641H34.3929L20.4922 29.3498L65.016 86.7124H67.006L111.53 29.3498H111.389Z" stroke="#473E6B" stroke-width="3" stroke-linecap="round" stroke-linejoin="round"/>
<path d="M111.9 29.8296L21.1992 29.8296" stroke="#473E6B" stroke-linecap="round" stroke-linejoin="round"/>
<path d="M54.5703 46.96L65.0181 86.7126" stroke="#473E6B" stroke-width="2" stroke-linecap="round" stroke-linejoin="round"/>
<path d="M79.8392 39.8818L67.0078 86.7127" stroke="#473E6B" stroke-width="2" stroke-linecap="round" stroke-linejoin="round"/>
<path d="M67.8164 11.8887H95.6178L81.7171 29.3498L67.8164 11.8887Z" stroke="#473E6B" stroke-width="2" stroke-linecap="round" stroke-linejoin="round"/>
<path d="M34.1562 11.8887H61.9576L48.0569 29.3498L34.1562 11.8887Z" stroke="#473E6B" stroke-width="2" stroke-linecap="round" stroke-linejoin="round"/>
</svg>
