<svg width="147" height="127" viewBox="0 0 147 127" fill="none" xmlns="http://www.w3.org/2000/svg">
<path d="M74.2534 126.126C96.2669 126.126 114.112 108.23 114.112 86.1546C114.112 64.079 96.2669 46.1831 74.2534 46.1831C52.24 46.1831 34.3945 64.079 34.3945 86.1546C34.3945 108.23 52.24 126.126 74.2534 126.126Z" fill="white" stroke="#473E6B" stroke-width="1.02476" stroke-miterlimit="10"/>
<path d="M46.2022 60.142L43.0531 57.0034C43.0531 57.0034 34.9018 81.9687 42.3568 83.6485" fill="#473E6B"/>
<path d="M46.2022 60.142L43.0531 57.0034C43.0531 57.0034 34.9018 81.9687 42.3568 83.6485" stroke="#2E2A47" stroke-width="0.683171" stroke-linejoin="round"/>
<path d="M134.339 68.9913C134.057 68.7197 133.496 64.8905 132.981 64.9216C132.467 64.9526 132.022 68.7507 131.782 68.999C131.298 69.4995 127.782 69.8564 127.809 70.3414C127.84 70.8263 131.294 71.0552 131.782 71.5285C132.057 71.7923 132.629 75.6332 133.14 75.6021C133.65 75.5711 134.091 71.7885 134.339 71.5285C134.803 71.0436 138.351 70.6711 138.324 70.1823C138.293 69.6935 134.807 69.4491 134.339 68.9913Z" fill="#EAC9F8" stroke="#473E6B" stroke-width="0.683171" stroke-miterlimit="10"/>
<path d="M49.3195 16.8726C49.0371 16.6011 48.4762 12.7719 47.9616 12.8029C47.4471 12.834 47.0022 16.6321 46.7623 16.8804C46.2788 17.3809 42.7621 17.7378 42.7892 18.2227C42.8202 18.7077 46.2749 18.9366 46.7623 19.4099C47.037 19.6737 47.6096 23.5145 48.1202 23.4835C48.6309 23.4524 49.0719 19.6698 49.3195 19.4099C49.7838 18.9249 53.3313 18.5525 53.3043 18.0637C53.2733 17.5748 49.7876 17.3304 49.3195 16.8726Z" fill="#EAC9F8" stroke="#473E6B" stroke-width="0.683171" stroke-miterlimit="10"/>
<path d="M103.373 29.2602C103.149 29.0429 102.7 25.9935 102.294 26.0207C101.884 26.044 101.528 29.0662 101.338 29.2679C100.955 29.6675 98.1546 29.9507 98.1739 30.3387C98.1971 30.7266 100.948 30.909 101.338 31.2853C101.555 31.4948 102.012 34.5519 102.422 34.5287C102.828 34.5054 103.18 31.4909 103.377 31.2853C103.749 30.9012 106.573 30.6025 106.55 30.2145C106.526 29.8266 103.753 29.6326 103.377 29.2679L103.373 29.2602Z" fill="#C2E6F5" stroke="#473E6B" stroke-width="0.683171" stroke-miterlimit="10"/>
<path d="M15.8324 66.2641C15.608 66.0468 15.1593 62.9974 14.753 63.0246C14.343 63.0479 13.987 66.0701 13.7975 66.2718C13.4145 66.6714 10.6136 66.9546 10.6329 67.3426C10.6561 67.7306 13.4067 67.9129 13.7975 68.2892C14.0141 68.4987 14.4706 71.5558 14.8807 71.5326C15.2869 71.5093 15.639 68.4948 15.8363 68.2892C16.2077 67.9051 19.0318 67.6064 19.0086 67.2184C18.9854 66.8305 16.2115 66.6365 15.8363 66.2718L15.8324 66.2641Z" fill="white" stroke="#473E6B" stroke-width="0.683171" stroke-miterlimit="10"/>
<path d="M142.78 54.039C142.555 53.8217 142.107 50.7723 141.7 50.7995C141.29 50.8228 140.934 53.845 140.745 54.0467C140.362 54.4463 137.561 54.7295 137.58 55.1175C137.603 55.5055 140.354 55.6878 140.745 56.0641C140.961 56.2736 141.418 59.3307 141.828 59.3075C142.234 59.2842 142.586 56.2697 142.784 56.0641C143.155 55.68 145.979 55.3813 145.956 54.9933C145.933 54.6054 143.159 54.4114 142.784 54.0467L142.78 54.039Z" fill="white" stroke="#473E6B" stroke-width="0.683171" stroke-miterlimit="10"/>
<path d="M6.05701 56.6464C5.83263 56.4291 5.38386 53.3798 4.97765 53.4069C4.56757 53.4302 4.21166 56.4524 4.02209 56.6541C3.63909 57.0537 0.838178 57.337 0.857522 57.7249C0.880734 58.1129 3.63136 58.2952 4.02209 58.6715C4.23874 58.881 4.69524 61.9382 5.10532 61.9149C5.51153 61.8916 5.86358 58.8772 6.06088 58.6715C6.43227 58.2875 9.2564 57.9887 9.23319 57.6008C9.20998 57.2128 6.43614 57.0188 6.06088 56.6541L6.05701 56.6464Z" fill="white" stroke="#473E6B" stroke-width="0.683171" stroke-miterlimit="10"/>
<path d="M45.3965 37.753C47.1741 37.753 48.6152 36.3079 48.6152 34.5252C48.6152 32.7425 47.1741 31.2974 45.3965 31.2974C43.6188 31.2974 42.1777 32.7425 42.1777 34.5252C42.1777 36.3079 43.6188 37.753 45.3965 37.753Z" fill="#D8F2C8" stroke="#2E2A47" stroke-width="0.683171" stroke-miterlimit="10"/>
<path d="M43.0984 34.7348L45.1527 32.4187C45.2804 32.2751 45.5086 32.2751 45.6363 32.4187L47.6905 34.7348C47.8762 34.9443 47.7292 35.2741 47.4507 35.2741H43.3422C43.0636 35.2741 42.9166 34.9443 43.1023 34.7348H43.0984Z" fill="#C2E6F5" stroke="#2E2A47" stroke-width="0.683171" stroke-miterlimit="10"/>
<mask id="mask0_464_1609" style="mask-type:alpha" maskUnits="userSpaceOnUse" x="10" y="0" width="124" height="127">
<path d="M133.065 0H10.6328V90.7245H34.6534C36.9165 110.646 53.7801 126.122 74.253 126.122C94.726 126.122 111.59 110.646 113.853 90.7245H133.068V0H133.065Z" fill="#ED1C24"/>
</mask>
<g mask="url(#mask0_464_1609)">
<path d="M90.9581 76.0288C95.2271 76.0288 98.6877 72.5583 98.6877 68.2773C98.6877 63.9963 95.2271 60.5259 90.9581 60.5259C86.6892 60.5259 83.2285 63.9963 83.2285 68.2773C83.2285 72.5583 86.6892 76.0288 90.9581 76.0288Z" fill="#FFCFD1" stroke="#2E2A47" stroke-width="0.683171" stroke-miterlimit="10"/>
<path d="M120.453 34.614C122.814 34.614 124.727 32.6946 124.727 30.327C124.727 27.9594 122.814 26.04 120.453 26.04C118.092 26.04 116.178 27.9594 116.178 30.327C116.178 32.6946 118.092 34.614 120.453 34.614Z" fill="#FFCFD1"/>
<path d="M120.848 27.7588C118.852 27.433 117.293 28.0265 116.689 28.2903C115.181 33.5744 114.291 37.0544 111.857 43.6536C110.666 46.8853 107.997 51.0714 105.366 52.6504C99.4429 55.4165 101.633 54.9471 95.5549 57.5231C92.4445 58.8422 89.5856 60.235 86.9781 61.6355C86.6918 62.233 86.185 65.5112 88.011 69.8642C89.6243 73.705 91.5625 75.6021 92.282 75.9125C95.2532 75.2219 98.3442 74.4149 101.536 73.4683C107.606 71.6682 111.807 68.6964 116.481 64.1573C119.819 60.9139 121.839 56.3864 122.86 51.8977C123.607 48.6156 123.893 45.252 124.079 41.8961C124.264 38.5402 124.713 35.4792 124.744 32.2359C124.748 31.7781 124.744 31.3242 124.732 30.8664C124.729 30.6647 124.814 29.7607 124.671 29.6288C124.191 29.1827 122.883 28.0886 120.844 27.7588H120.848Z" fill="#B5AEFF" stroke="#2E2A47" stroke-width="0.683171" stroke-miterlimit="10"/>
<path d="M121.707 32.8911C119.351 32.8911 116.937 31.4634 115.703 29.3374L115.687 29.3102L115.679 29.2792C115.107 26.5945 114.646 23.9098 114.306 21.3066C114.26 20.9458 114.205 20.5229 114.174 20.0962C114.124 19.6617 114.124 19.2233 114.174 18.8004C114.252 18.0865 114.457 17.5512 114.805 17.1516C114.867 17.074 114.929 17.0158 114.971 16.9731C115.08 16.8684 115.656 16.3485 116.175 16.3485H116.225C116.225 16.3485 116.24 16.3485 116.264 16.3485C116.283 16.3485 116.302 16.3485 116.325 16.3485L116.612 8.0345C116.654 6.82406 117.633 5.87744 118.84 5.87744H118.917L124.059 6.0559C125.08 6.09082 125.943 6.81631 126.16 7.81724C126.283 8.08881 126.345 8.4147 126.334 8.74835L126.055 16.849C126.078 16.814 126.109 16.783 126.136 16.752C126.361 16.5153 126.686 16.3795 127.038 16.3795C127.254 16.3795 127.456 16.4261 127.63 16.5192C128.086 16.752 128.392 17.2563 128.407 17.7995C128.423 18.3271 128.179 18.878 127.684 19.4405C127.556 19.588 127.417 19.7276 127.281 19.8712C127.281 19.8712 127.274 19.8789 127.274 19.8828C127.347 19.8983 127.39 19.91 127.432 19.9255C127.618 19.9876 127.769 20.0768 127.889 20.1932C128.326 20.6199 128.299 21.3066 128.075 21.7916C127.893 22.1873 127.603 22.5093 127.324 22.8158L127.15 23.0098C126.256 24.0223 125.579 25.2754 125.196 26.6294C125.158 26.7613 125.076 27.6187 124.999 28.4451C124.686 31.7505 124.604 32.0648 124.442 32.1734C123.606 32.6506 122.693 32.8911 121.711 32.8911H121.707Z" fill="#FFCFD1"/>
<path d="M118.837 6.07551C118.86 6.07551 118.883 6.07551 118.906 6.07551L124.048 6.25398C125 6.28501 125.773 6.9717 125.967 7.86401C126.083 8.13558 126.145 8.43431 126.137 8.74468L125.789 18.9248C125.893 18.7851 126.021 18.6648 126.164 18.564V18.467C125.928 17.9044 125.909 17.2798 126.276 16.888C126.47 16.6823 126.752 16.5776 127.034 16.5776H127.042C127.212 16.5776 127.383 16.6164 127.537 16.694C127.944 16.8996 128.199 17.3535 128.211 17.8074C128.226 18.37 127.909 18.8898 127.537 19.3166C127.317 19.5688 127.073 19.8015 126.849 20.046C126.876 20.046 126.903 20.046 126.93 20.046C127.004 20.046 127.073 20.0498 127.147 20.0615C127.174 20.0615 127.201 20.0692 127.228 20.0731C127.236 20.0731 127.247 20.077 127.255 20.0809C127.294 20.0886 127.332 20.1003 127.371 20.1119C127.371 20.1119 127.379 20.1119 127.383 20.1119C127.522 20.1585 127.65 20.2283 127.754 20.3331C128.106 20.6783 128.102 21.2642 127.901 21.7142C127.7 22.1642 127.332 22.5134 127.007 22.8858C126.075 23.9411 125.398 25.2213 125.015 26.5792C124.903 26.9788 124.562 31.8632 124.338 32.0145C123.518 32.484 122.616 32.6973 121.711 32.6973C119.417 32.6973 117.084 31.324 115.873 29.2406C115.189 26.0283 114.771 23.332 114.504 21.2836C114.454 20.8956 114.403 20.4882 114.372 20.0848C114.326 19.6852 114.318 19.2623 114.372 18.8278C114.372 18.82 114.372 18.8161 114.372 18.8122C114.434 18.2225 114.601 17.6872 114.956 17.2837C115.015 17.21 115.069 17.1557 115.107 17.1207C115.138 17.0897 115.711 16.5466 116.175 16.5466C116.187 16.5466 116.202 16.5466 116.214 16.5466C116.233 16.5466 116.249 16.5466 116.264 16.5466C116.353 16.5466 116.434 16.5621 116.512 16.6048L116.806 8.05023C116.844 6.94842 117.746 6.07939 118.841 6.07939M126.756 22.0168C126.787 21.978 126.814 21.9392 126.833 21.8927C126.814 21.9392 126.787 21.978 126.756 22.0168ZM118.841 5.69531C117.529 5.69531 116.465 6.72729 116.419 8.04247L116.14 16.1664C115.579 16.1858 115.007 16.6862 114.84 16.8414C114.798 16.8802 114.732 16.95 114.655 17.0393C114.287 17.4621 114.067 18.0247 113.985 18.7618V18.7851C113.931 19.2235 113.927 19.6813 113.985 20.1391C114.016 20.5542 114.071 20.9771 114.117 21.3417C114.457 23.9527 114.922 26.6413 115.494 29.3299L115.506 29.3919L115.537 29.4462C116.806 31.6305 119.289 33.0969 121.711 33.0969C122.729 33.0969 123.676 32.8486 124.528 32.3637L124.539 32.3559L124.551 32.3482C124.787 32.1891 124.856 32.0184 125.193 28.4763C125.266 27.7082 125.348 26.8353 125.386 26.6956C125.762 25.3727 126.419 24.1467 127.298 23.1535C127.356 23.0914 127.41 23.0255 127.468 22.9634C127.758 22.6453 128.06 22.3116 128.253 21.8888C128.505 21.3379 128.532 20.5619 128.025 20.0692C127.913 19.9606 127.781 19.8714 127.63 19.8054C127.7 19.7317 127.766 19.6619 127.831 19.5843C128.358 18.983 128.617 18.3855 128.601 17.8113C128.586 17.1983 128.238 16.628 127.715 16.3603C127.514 16.2556 127.282 16.2013 127.046 16.2013C126.76 16.2013 126.489 16.2789 126.265 16.4147L126.528 8.76796C126.539 8.41879 126.477 8.07739 126.342 7.7515C126.094 6.68073 125.166 5.91257 124.067 5.87378L118.926 5.69531C118.899 5.69531 118.868 5.69531 118.841 5.69531Z" fill="#2E2A47"/>
<path d="M125.896 12.4456L126.005 8.78711L126.322 8.79875C126.392 8.79875 126.457 8.83366 126.508 8.88798C126.577 8.96169 126.612 9.0742 126.608 9.20223L126.527 12.0809C126.519 12.302 126.392 12.4611 126.221 12.4611L125.896 12.4495V12.4456Z" fill="#FFCFD1"/>
<path d="M126.191 8.98895H126.314C126.372 8.99671 126.419 9.08594 126.415 9.19457L126.334 12.0732C126.334 12.1819 126.28 12.2672 126.221 12.2672H126.098L126.194 8.99283M125.819 8.58936L125.808 8.98119L125.711 12.2517L125.699 12.6358L126.082 12.6513H126.206V12.6552C126.496 12.6552 126.709 12.4108 126.721 12.0888L126.802 9.20621C126.81 9.03163 126.752 8.86869 126.647 8.75618C126.562 8.66307 126.446 8.61263 126.326 8.60875H126.206L125.815 8.58936H125.819Z" fill="#2E2A47"/>
<path d="M126.646 20.0692C126.185 20.1468 125.733 20.3873 125.497 20.7908C125.261 21.1943 125.295 21.7684 125.644 22.0788C125.992 22.3892 126.638 22.3038 126.831 21.8771L126.417 20.5813C126.541 20.3912 126.688 20.2166 126.843 20.0459C126.773 20.0459 126.707 20.0537 126.642 20.0653L126.646 20.0692Z" fill="#B5AEFF"/>
<path d="M127.002 22.8858C127.327 22.5173 127.691 22.1642 127.896 21.7142C128.101 21.2641 128.101 20.6783 127.749 20.333C127.517 20.1041 127.176 20.0304 126.847 20.0459C126.693 20.2128 126.546 20.3874 126.422 20.5813L126.836 21.8771C126.642 22.3039 125.996 22.3892 125.648 22.0789C125.3 21.7685 125.265 21.1943 125.501 20.7908C125.737 20.3874 126.19 20.1429 126.65 20.0692C126.716 20.0576 126.785 20.0537 126.851 20.0498C127.079 19.8054 127.319 19.5726 127.54 19.3205C127.911 18.8976 128.228 18.3777 128.213 17.8113C128.201 17.3574 127.946 16.9035 127.54 16.6979C127.134 16.4922 126.596 16.5621 126.282 16.8918C125.899 17.2992 125.934 17.9587 126.201 18.5368C126.027 18.6493 125.872 18.8006 125.752 18.9713L121.648 14.793L116.862 20.9926C116.998 19.9179 117.036 18.8316 116.974 17.7531C116.951 17.3496 116.889 16.8957 116.572 16.6435C116.189 16.3409 115.45 16.8104 115.11 17.1207C114.104 18.0286 114.301 19.7899 114.495 21.2835C114.762 23.332 115.183 26.0283 115.864 29.2406C117.555 32.1464 121.427 33.6711 124.329 32.0145C124.553 31.8632 124.704 29.4501 124.828 28.1621C124.882 27.6034 124.894 26.9788 125.006 26.5792C125.389 25.2213 126.066 23.9411 126.998 22.8858H127.002Z" fill="#B5AEFF"/>
<path d="M126.766 21.9974L124.658 24.1544L123.996 23.6734L125.257 21.8267L125.516 21.943L125.64 22.0788L125.845 22.1991L126.081 22.2573L126.352 22.2457L126.53 22.1875L126.766 21.9974Z" fill="#2E2A47"/>
<path d="M124.174 6.63877L119.028 6.46126C117.905 6.42252 116.963 7.30421 116.924 8.43058L116.444 22.4393C116.405 23.5657 117.284 24.5102 118.407 24.5489L123.554 24.7264C124.677 24.7652 125.619 23.8835 125.657 22.7571L126.138 8.74839C126.176 7.62202 125.297 6.67752 124.174 6.63877Z" fill="white" stroke="#F59DB6" stroke-width="1.14773" stroke-miterlimit="10"/>
<path d="M124.053 6.2584L118.907 6.08089C117.784 6.04215 116.842 6.92384 116.803 8.05021L116.323 22.0589C116.284 23.1853 117.163 24.1298 118.286 24.1685L123.433 24.3461C124.556 24.3848 125.498 23.5031 125.536 22.3767L126.017 8.36802C126.055 7.24165 125.176 6.29715 124.053 6.2584Z" fill="white"/>
<path d="M124.053 6.2584L118.907 6.08089C117.784 6.04215 116.842 6.92384 116.803 8.05021L116.323 22.0589C116.284 23.1853 117.163 24.1298 118.286 24.1685L123.433 24.3461C124.556 24.3848 125.498 23.5031 125.536 22.3767L126.017 8.36802C126.055 7.24165 125.176 6.29715 124.053 6.2584Z" stroke="#5E58A5" stroke-width="0.314259" stroke-miterlimit="10"/>
<path d="M121.31 13.7148C122.78 13.7148 123.972 12.5198 123.972 11.0456C123.972 9.57149 122.78 8.37646 121.31 8.37646C119.84 8.37646 118.648 9.57149 118.648 11.0456C118.648 12.5198 119.84 13.7148 121.31 13.7148Z" fill="#D8F2C8"/>
<path fill-rule="evenodd" clip-rule="evenodd" d="M121.376 9.15625L121.801 9.42394L122.308 9.44334L122.544 9.88949L122.973 10.1572L122.954 10.6615L123.19 11.1077L122.923 11.5383L122.908 12.0427L122.463 12.2832L122.196 12.71L121.689 12.6944L121.244 12.9311L120.819 12.6634L120.312 12.6479L120.076 12.1979L119.65 11.9302L119.666 11.4258L119.43 10.9797L119.697 10.549L119.712 10.0447L120.157 9.80802L120.424 9.37739L120.931 9.39678L121.376 9.15625Z" fill="white" stroke="#5E58A5" stroke-width="0.314259" stroke-miterlimit="10"/>
<path opacity="0.6" fill-rule="evenodd" clip-rule="evenodd" d="M118.522 8.63986L118.154 8.24803C118.123 8.21699 118.073 8.21311 118.042 8.24803L117.651 8.61659C117.601 8.66314 117.516 8.62823 117.52 8.55451L117.558 7.39839C117.558 7.35572 117.597 7.3208 117.64 7.3208L118.622 7.35572C118.665 7.35572 118.7 7.39451 118.7 7.43719L118.661 8.59331C118.661 8.66314 118.572 8.69418 118.526 8.64374L118.522 8.63986Z" fill="#EAC9F8"/>
<path d="M123.435 20.8721L118.521 20.7025C118.053 20.6864 117.661 21.0526 117.645 21.5205C117.629 21.9884 117.995 22.3808 118.462 22.3969L123.377 22.5664C123.844 22.5826 124.236 22.2163 124.252 21.7485C124.268 21.2806 123.902 20.8882 123.435 20.8721Z" fill="#B5AEFF" stroke="#5E58A5" stroke-width="0.314259" stroke-miterlimit="10"/>
<path d="M123.597 14.768L118.277 14.5844C118.168 14.5807 118.077 14.6662 118.073 14.7754C118.07 14.8846 118.155 14.9762 118.264 14.9799L123.584 15.1634C123.693 15.1672 123.784 15.0817 123.788 14.9725C123.792 14.8633 123.706 14.7717 123.597 14.768Z" fill="#EAC9F8"/>
<path d="M122.484 15.4624L119.336 15.3538C119.253 15.351 119.183 15.4163 119.18 15.4998L119.177 15.5929C119.174 15.6764 119.239 15.7464 119.323 15.7493L122.47 15.8579C122.553 15.8608 122.623 15.7954 122.626 15.7119L122.629 15.6188C122.632 15.5353 122.567 15.4653 122.484 15.4624Z" fill="#EAC9F8"/>
<path d="M126.189 8.98926H126.312C126.37 8.99702 126.417 9.08625 126.413 9.19488L126.332 12.0735C126.332 12.1822 126.277 12.2675 126.216 12.2675H126.092" stroke="#5E58A5" stroke-width="0.314259" stroke-miterlimit="10"/>
<path d="M120.975 6.74707L123.362 6.82854" stroke="#5E58A5" stroke-width="0.314259" stroke-miterlimit="10"/>
<path d="M120.478 6.73139L120.246 6.72363" stroke="#5E58A5" stroke-width="0.314259" stroke-miterlimit="10"/>
<path d="M126.847 20.0383C127.072 19.7977 127.312 19.565 127.528 19.3167C127.9 18.8938 128.217 18.3739 128.201 17.8075C128.19 17.3536 127.935 16.8997 127.528 16.6941C127.122 16.4884 126.584 16.5583 126.271 16.888C125.888 17.2954 125.923 17.9549 126.19 18.533" fill="#B5AEFF"/>
<path d="M115.362 22.859C114.929 22.1374 114.143 20.5972 114.368 18.8281C114.507 17.7341 114.94 17.2763 115.107 17.1172C115.145 17.0784 116 16.2637 116.476 16.64C116.793 16.8922 117.041 17.4586 116.6 17.8699C116.012 18.4169 116.035 19.3713 115.896 20.4421" fill="#B5AEFF"/>
<path d="M114.158 18.9288C114.317 17.6796 114.812 17.1559 115.002 16.9774C115.048 16.9347 116.023 16.0036 116.565 16.4342C116.928 16.7213 117.211 17.3692 116.708 17.8387C116.035 18.4672 116.062 19.5534 115.903 20.7794" stroke="#2E2A47" stroke-width="0.683171" stroke-miterlimit="10" stroke-linecap="round"/>
<path d="M126.994 22.8859C127.319 22.5173 127.682 22.1643 127.887 21.7142C128.092 21.2642 128.092 20.6784 127.74 20.3331C127.458 20.0576 127.025 20.0033 126.638 20.0693C126.177 20.1469 125.725 20.3874 125.489 20.7909C125.253 21.1944 125.288 21.7686 125.636 22.0789C125.984 22.3893 126.63 22.3039 126.823 21.8772" fill="#B5AEFF"/>
<path d="M126.847 20.0383C127.072 19.7977 127.312 19.565 127.528 19.3167C127.9 18.8938 128.217 18.3739 128.201 17.8075C128.19 17.3536 127.935 16.8997 127.528 16.6941C127.122 16.4884 126.584 16.5583 126.271 16.888C125.888 17.2954 125.923 17.9549 126.19 18.533" fill="#B5AEFF"/>
<path d="M126.994 22.8859C127.319 22.5173 127.682 22.1643 127.887 21.7142C128.092 21.2642 128.092 20.6784 127.74 20.3331C127.458 20.0576 127.025 20.0033 126.638 20.0693C126.177 20.1469 125.725 20.3874 125.489 20.7909C125.253 21.1944 125.288 21.7686 125.636 22.0789C125.984 22.3893 126.63 22.3039 126.823 21.8772" fill="#B5AEFF"/>
<path d="M127.208 19.8793C127.34 19.7436 127.471 19.6039 127.599 19.4603C128.025 18.9754 128.388 18.3818 128.369 17.7378C128.353 17.2179 128.063 16.7019 127.599 16.4653C127.135 16.2286 126.52 16.3101 126.164 16.6864C125.727 17.152 125.769 17.9085 126.071 18.568" stroke="#2E2A47" stroke-width="0.683171" stroke-miterlimit="10" stroke-linecap="round"/>
<path d="M127.033 23.0565C127.396 22.6453 127.802 22.2496 128.031 21.7491C128.259 21.2486 128.263 20.5891 127.868 20.205C127.555 19.8985 127.067 19.8365 126.634 19.9063C126.12 19.9917 125.613 20.2632 125.35 20.7133C125.087 21.1633 125.125 21.8073 125.516 22.1526C125.907 22.4979 126.63 22.4048 126.843 21.9276" stroke="#2E2A47" stroke-width="0.683171" stroke-miterlimit="10" stroke-linecap="round"/>
<path d="M126.171 18.4634C126.194 18.5022 126.218 18.5371 126.249 18.572C126.38 18.7194 126.566 18.8087 126.748 18.8901C126.721 18.8785 126.26 19.4566 126.222 19.507C126.183 19.5497 126.148 19.5923 126.109 19.635L126.171 18.4634Z" fill="#2E2A47"/>
<path d="M56.0323 82.7793C60.3013 82.7793 63.7619 79.3088 63.7619 75.0278C63.7619 70.7468 60.3013 67.2764 56.0323 67.2764C51.7634 67.2764 48.3027 70.7468 48.3027 75.0278C48.3027 79.3088 51.7634 82.7793 56.0323 82.7793Z" fill="#B5AEFF" stroke="#2E2A47" stroke-width="0.683171" stroke-miterlimit="10"/>
<path d="M26.4565 45.0153C28.8175 45.0153 30.7314 43.096 30.7314 40.7284C30.7314 38.3607 28.8175 36.4414 26.4565 36.4414C24.0956 36.4414 22.1816 38.3607 22.1816 40.7284C22.1816 43.096 24.0956 45.0153 26.4565 45.0153Z" fill="#B5AEFF" stroke="#2E2A47" stroke-width="0.683171" stroke-miterlimit="10"/>
<path d="M60.0796 68.4244C57.4876 66.9967 54.6403 65.5768 51.5453 64.2267C46.9571 62.2287 42.5816 60.7273 38.5428 59.5828C38.1327 58.1745 37.6878 56.739 37.2003 55.2726C35.0842 48.9255 32.6198 43.3544 30.1594 38.5786C29.552 38.3303 27.9774 37.7833 25.9889 38.1674C23.9618 38.5592 22.6851 39.6882 22.217 40.1499C21.9926 45.3718 22.0313 51.1641 22.5303 57.4257C22.8012 60.8165 23.1841 64.0249 23.6407 67.0627C23.6677 67.3575 23.7103 67.6562 23.7722 67.955C24.1242 69.6814 25.0295 71.2681 26.3371 72.4437C26.8865 72.9364 27.5132 73.3864 28.1747 73.7045C28.8363 74.0227 29.5945 74.2089 30.3141 74.4378C31.7765 74.9033 33.1614 75.5823 34.5812 76.1526C36.237 76.816 37.8967 77.46 39.568 78.0846C41.2392 78.7092 42.926 79.3183 44.6282 79.8692C44.8874 79.9546 45.1466 80.036 45.4096 80.1136C48.5897 81.0913 51.673 81.9293 54.6403 82.647C55.3598 82.3444 57.3174 80.4667 58.9693 76.6414C60.8417 72.304 60.3659 69.0219 60.0835 68.4205L60.0796 68.4244Z" fill="#B5AEFF" stroke="#2E2A47" stroke-width="0.683171" stroke-miterlimit="10"/>
<path d="M22.3092 40.7049C22.4059 41.4304 22.4987 42.1597 22.5955 42.8852C25.377 42.9861 28.0851 41.4265 30.3212 39.3237C30.1896 38.7457 30.0581 38.1637 29.9304 37.5818C31.4818 35.5528 32.7198 33.3026 33.9268 31.0524C34.1628 30.614 34.3988 30.1679 34.4877 29.679C34.5767 29.1863 34.4916 28.6432 34.155 28.2785C33.772 27.8711 33.0911 27.7897 32.623 28.0962C32.2749 28.3251 32.0737 28.713 31.8532 29.0661C31.3812 29.8148 30.7622 30.4666 30.0272 30.9787C29.7022 28.6005 29.1258 26.2572 28.3172 23.9993C28.089 23.3592 27.4971 22.591 26.9129 22.9285C26.5222 23.1536 26.5144 23.7083 26.5608 24.1622C26.6576 25.0701 26.7465 25.974 26.8432 26.8818L26.8278 26.8896C26.6073 25.8382 26.2823 24.8179 25.7678 23.8713C25.6362 23.6269 25.4583 23.3669 25.1875 23.3204C24.6691 23.2311 24.4021 23.914 24.3596 24.4416C24.2745 25.5201 24.3054 26.5986 24.406 27.681C24.4447 27.8556 24.4795 28.0263 24.5143 28.2009L24.464 28.2281C24.4447 28.0457 24.4215 27.8634 24.4021 27.681C24.2512 27.0099 24.0849 26.3426 23.8992 25.683C23.7058 24.9847 23.2222 24.1273 22.5219 24.3019C21.8565 24.4649 21.783 25.3688 21.8604 26.0516C21.9881 27.1806 22.1467 28.3134 22.3285 29.4385H22.3246C22.2125 28.841 22.1003 28.2436 21.9881 27.65C21.8604 26.9672 21.7173 26.2534 21.2685 25.7218C21.0402 25.4464 20.7037 25.2253 20.3439 25.2447C19.8913 25.2718 19.5353 25.6714 19.4115 26.1098C19.2877 26.5482 19.3535 27.0138 19.4193 27.4599C20.1118 32.1115 21.106 36.7166 22.3092 40.7087V40.7049ZM23.0713 33.4423C23.0713 33.4578 23.079 33.4772 23.079 33.4927C23.079 33.4772 23.0713 33.4578 23.0674 33.4423H23.0713Z" fill="#B5AEFF" stroke="#2E2A47" stroke-width="0.683171" stroke-miterlimit="10"/>
<path d="M26.8398 26.8779L27.9308 32.3404" stroke="#2E2A47" stroke-width="0.683171" stroke-linecap="round" stroke-linejoin="round"/>
<path d="M24.3984 27.6772L25.3733 32.8682" stroke="#2E2A47" stroke-width="0.683171" stroke-linecap="round" stroke-linejoin="round"/>
<path d="M22.1348 28.2046L23.187 33.314" stroke="#2E2A47" stroke-width="0.683171" stroke-linecap="round" stroke-linejoin="round"/>
<path d="M30.0276 30.9746C29.4938 31.5372 28.7355 32.476 28.2055 33.8222C27.8612 34.699 27.7103 35.4982 27.6445 36.1112" stroke="#2E2A47" stroke-width="0.683171" stroke-linecap="round" stroke-linejoin="round"/>
<path d="M23.1228 43.6875L31.4093 41.9741C32.0915 41.8331 32.5305 41.1642 32.3899 40.4801L32.282 39.9557C32.1414 39.2716 31.4744 38.8313 30.7922 38.9724L22.5057 40.6857C21.8235 40.8268 21.3845 41.4957 21.5252 42.1798L21.633 42.7042C21.7736 43.3883 22.4407 43.8285 23.1228 43.6875Z" fill="#F59DB6" stroke="#2E2A47" stroke-width="0.683171" stroke-miterlimit="10"/>
<path d="M103.512 155.816C102.672 142.575 102.251 129.109 101.953 117.719C92.6718 113.222 82.6288 110.852 72.5625 110.809C72.5741 111.119 72.5818 111.426 72.5935 111.736C72.8449 121.738 73.7773 133.291 75.9824 145.982C76.5627 149.314 77.143 152.965 77.7388 156.724C79.5764 168.34 81.561 180.999 84.1414 188.545C91.6505 188.064 99.1596 187.579 106.669 187.098C105.202 177.721 104.212 166.846 103.512 155.816Z" fill="#5E58A5" stroke="#2E2A47" stroke-width="0.683171" stroke-miterlimit="10"/>
<path d="M66.0053 123.321C66.0053 123.321 65.8893 129.722 60.3223 131.646" stroke="#5E58A5" stroke-width="0.826637" stroke-miterlimit="10" stroke-linecap="round"/>
<path d="M58.3491 118.192C56.585 129.036 55.3586 141.443 55.3586 155.13C55.3586 156.286 55.3625 157.45 55.3819 158.625C55.4786 165.081 54.8364 184.824 55.3896 190.597C58.3723 192.087 73.5723 190.698 77.2398 191.478C77.7853 180.968 78.5745 168.933 79.5378 156.81C80.6481 142.87 81.9906 128.811 83.4606 116.803C75.0231 117.315 66.5855 117.824 58.3491 118.196V118.192Z" fill="#5E58A5" stroke="#2E2A47" stroke-width="0.683171" stroke-miterlimit="10"/>
<path d="M101.314 119.41C101.372 127.526 101.67 136.1 102.297 145.085C103.051 155.89 103.241 173.084 104.618 182.558" stroke="white" stroke-width="0.826637" stroke-miterlimit="10" stroke-linecap="round"/>
<path d="M59.3899 118.778C58.268 127.018 57.3782 135.988 56.9062 145.601C56.3762 156.379 56.1054 173.496 56.5348 182.659" stroke="#EAC9F8" stroke-width="0.826637" stroke-miterlimit="10" stroke-linecap="round"/>
<path d="M62.2991 64.5141L67.4715 48.5146L83.4568 55.7617L91.5578 71.125L70.8914 75.0278L61.7227 66.3026L62.2991 64.5141Z" fill="#B5AEFF" stroke="#2E2A47" stroke-width="0.683171" stroke-miterlimit="10"/>
<path d="M62.2988 59.9866L63.2931 59.1176C63.2931 59.1176 68.0167 62.3532 73.576 62.0544C79.1353 61.7557 84.1568 58.8188 84.1568 58.8188L85.623 59.7073L86.2072 62.6558L67.9548 69.2511L62.2988 64.5141V59.9866Z" fill="#EAC9F8" stroke="#2E2A47" stroke-width="0.683171" stroke-miterlimit="10"/>
<path d="M113.966 73.5537C111.045 72.4984 106.975 63.5598 105.927 59.9751C104.875 56.3903 99.9422 50.5205 98.7545 51.3701C97.8028 52.0529 92.994 56.2894 92.0501 57.1197C91.9921 57.1585 91.9379 57.205 91.8876 57.2632C90.6264 58.722 85.6204 59.7074 85.6204 59.7074C85.6204 59.7074 82.5757 63.3969 74.1536 63.8198C65.7316 64.2426 62.2962 59.9867 62.2962 59.9867H59.4218C56.2997 58.9547 43.0496 57.0033 43.0496 57.0033C44.8369 59.5483 43.0534 69.2124 41.8657 72.7506C40.6742 76.2888 41.3551 83.9355 42.8174 83.9239L53.7116 86.7017C53.3286 94.2902 52.6439 102.189 51.4368 105.37C48.8139 112.268 42.7671 131.852 42.3222 133.497C42.3222 133.497 52.1951 135.449 70.9543 137.587C89.7134 139.72 103.312 138.902 104.294 135.945C104.294 135.945 100.41 107.372 98.3019 88.8665L113.962 73.5614L113.966 73.5537Z" fill="#D8F2C8" stroke="#2E2A47" stroke-width="0.683171" stroke-linejoin="round"/>
<path d="M112.805 74.7172C109.885 73.662 105.815 64.7234 104.766 61.1386C103.714 57.5539 98.7814 51.6841 97.5938 52.5337" stroke="#2E2A47" stroke-width="0.683171" stroke-linejoin="round"/>
<path d="M44.991 57.3911C46.7783 59.9361 44.9948 69.6002 43.8072 73.1384C42.6156 76.6766 43.2965 84.3233 44.7588 84.3117" stroke="#2E2A47" stroke-width="0.683171" stroke-linejoin="round"/>
<path d="M75.4922 64.4248L77.6122 80.4126" stroke="#2E2A47" stroke-width="0.683171" stroke-linejoin="round"/>
<path d="M74.6795 71.7031C74.9145 71.7031 75.105 71.5121 75.105 71.2764C75.105 71.0407 74.9145 70.8496 74.6795 70.8496C74.4444 70.8496 74.2539 71.0407 74.2539 71.2764C74.2539 71.5121 74.4444 71.7031 74.6795 71.7031Z" stroke="#2E2A47" stroke-width="0.683171" stroke-linejoin="round"/>
<path d="M75.24 74.7602C75.475 74.7602 75.6656 74.5692 75.6656 74.3335C75.6656 74.0978 75.475 73.9067 75.24 73.9067C75.005 73.9067 74.8145 74.0978 74.8145 74.3335C74.8145 74.5692 75.005 74.7602 75.24 74.7602Z" stroke="#2E2A47" stroke-width="0.683171" stroke-linejoin="round"/>
<path d="M65.2595 54.7255C65.8321 54.7255 66.2963 54.26 66.2963 53.6857C66.2963 53.1115 65.8321 52.646 65.2595 52.646C64.6869 52.646 64.2227 53.1115 64.2227 53.6857C64.2227 54.26 64.6869 54.7255 65.2595 54.7255Z" fill="#473E6B" stroke="#2E2A47" stroke-width="0.683171" stroke-miterlimit="10"/>
<path d="M65.3727 53.6859C65.9453 53.6859 66.4095 53.2204 66.4095 52.6462C66.4095 52.0719 65.9453 51.6064 65.3727 51.6064C64.8001 51.6064 64.3359 52.0719 64.3359 52.6462C64.3359 53.2204 64.8001 53.6859 65.3727 53.6859Z" fill="#473E6B"/>
<path d="M64.2223 53.0189C64.795 53.0189 65.2592 52.5534 65.2592 51.9792C65.2592 51.405 64.795 50.9395 64.2223 50.9395C63.6497 50.9395 63.1855 51.405 63.1855 51.9792C63.1855 52.5534 63.6497 53.0189 64.2223 53.0189Z" fill="#473E6B" stroke="#2E2A47" stroke-width="0.683171" stroke-miterlimit="10"/>
<path d="M83.5114 45.9501C84.084 45.9501 84.5482 45.4846 84.5482 44.9103C84.5482 44.3361 84.084 43.8706 83.5114 43.8706C82.9388 43.8706 82.4746 44.3361 82.4746 44.9103C82.4746 45.4846 82.9388 45.9501 83.5114 45.9501Z" fill="#473E6B"/>
<path d="M83.5114 45.3602C84.084 45.3602 84.5482 44.8947 84.5482 44.3205C84.5482 43.7463 84.084 43.2808 83.5114 43.2808C82.9388 43.2808 82.4746 43.7463 82.4746 44.3205C82.4746 44.8947 82.9388 45.3602 83.5114 45.3602Z" fill="#473E6B"/>
<path d="M83.0524 43.785C83.625 43.785 84.0892 43.3195 84.0892 42.7453C84.0892 42.1711 83.625 41.7056 83.0524 41.7056C82.4798 41.7056 82.0156 42.1711 82.0156 42.7453C82.0156 43.3195 82.4798 43.785 83.0524 43.785Z" fill="#473E6B"/>
<path d="M64.459 43.8823L66.0645 58.0312L83.458 55.7616L83.5122 40.9105L74.2777 37.0542L64.459 43.8823Z" fill="#B5AEFF" stroke="#2E2A47" stroke-width="0.683171" stroke-miterlimit="10"/>
<path d="M64.459 51.5366C66.1234 51.5366 67.4727 50.1835 67.4727 48.5144C67.4727 46.8453 66.1234 45.4922 64.459 45.4922C62.7946 45.4922 61.4453 46.8453 61.4453 48.5144C61.4453 50.1835 62.7946 51.5366 64.459 51.5366Z" fill="#B5AEFF" stroke="#2E2A47" stroke-width="0.683171" stroke-miterlimit="10"/>
<path d="M67.1446 50.9277C68.809 50.9277 70.1582 49.5746 70.1582 47.9055C70.1582 46.2364 68.809 44.8833 67.1446 44.8833C65.4801 44.8833 64.1309 46.2364 64.1309 47.9055C64.1309 49.5746 65.4801 50.9277 67.1446 50.9277Z" fill="#B5AEFF"/>
<path d="M65.2595 45.9501C65.8321 45.9501 66.2963 45.4846 66.2963 44.9103C66.2963 44.3361 65.8321 43.8706 65.2595 43.8706C64.6869 43.8706 64.2227 44.3361 64.2227 44.9103C64.2227 45.4846 64.6869 45.9501 65.2595 45.9501Z" fill="#473E6B" stroke="#2E2A47" stroke-width="0.683171" stroke-miterlimit="10"/>
<path d="M64.7179 46.4C64.9892 46.4 65.2092 46.1794 65.2092 45.9073C65.2092 45.6351 64.9892 45.4146 64.7179 45.4146C64.4465 45.4146 64.2266 45.6351 64.2266 45.9073C64.2266 46.1794 64.4465 46.4 64.7179 46.4Z" fill="#473E6B" stroke="#2E2A47" stroke-width="0.683171" stroke-miterlimit="10"/>
<path d="M64.0213 45.1662C63.9903 45.077 61.1507 36.3324 67.8397 33.12C69.8165 32.1695 71.8166 31.6885 73.7858 31.6885C77.1515 31.6885 79.229 33.0735 79.3141 33.1356L79.3373 33.1511L81.5038 35.9366L64.0909 45.3835L64.0174 45.1662H64.0213Z" fill="#D8F2C8"/>
<path d="M73.7856 31.8826C77.1281 31.8826 79.2056 33.2948 79.2056 33.2948L81.2134 35.8747L64.2029 45.1043C64.2029 45.1043 61.3091 36.4722 67.9207 33.2948C70.1258 32.2356 72.1143 31.8826 73.7856 31.8826ZM73.7856 31.4946C71.7855 31.4946 69.7583 31.9835 67.7543 32.9456C60.9145 36.2316 63.8044 45.1392 63.8354 45.2284L63.9824 45.6668L64.3886 45.4457L81.3991 36.2161L81.8015 35.9988L81.519 35.638L79.5112 33.0581L79.4725 33.0116L79.4222 32.9766C79.3333 32.9146 77.2093 31.4985 73.7856 31.4985V31.4946Z" fill="#2E2A47"/>
<path d="M72.3926 32.7863C72.3926 32.7863 77.1201 32.6816 78.5902 37.3953" stroke="#B1C6A3" stroke-width="0.683171" stroke-miterlimit="10"/>
<path d="M64.4582 42.7612C64.0133 38.5751 67.8974 33.8808 67.8974 33.8808C68.1063 33.5898 68.3191 33.2988 68.5358 33.0156C68.3346 33.101 68.1295 33.1941 67.9245 33.295C61.5528 36.356 64.0094 44.4876 64.1951 45.0695C64.4504 44.635 64.582 43.9173 64.462 42.7651L64.4582 42.7612Z" fill="#B5AEFF"/>
<path d="M82.8532 42.7455C83.4258 42.7455 83.89 42.28 83.89 41.7057C83.89 41.1315 83.4258 40.666 82.8532 40.666C82.2806 40.666 81.8164 41.1315 81.8164 41.7057C81.8164 42.28 82.2806 42.7455 82.8532 42.7455Z" fill="#473E6B"/>
<path d="M83.2293 43.3703C83.5156 43.3703 83.7477 43.1375 83.7477 42.8504C83.7477 42.5633 83.5156 42.3306 83.2293 42.3306C82.943 42.3306 82.7109 42.5633 82.7109 42.8504C82.7109 43.1375 82.943 43.3703 83.2293 43.3703Z" fill="#473E6B"/>
<path d="M83.5711 43.8898C83.8574 43.8898 84.0895 43.6571 84.0895 43.37C84.0895 43.0828 83.8574 42.8501 83.5711 42.8501C83.2848 42.8501 83.0527 43.0828 83.0527 43.37C83.0527 43.6571 83.2848 43.8898 83.5711 43.8898Z" fill="#473E6B"/>
<path d="M66.0645 44.4564L78.2546 34.7186C78.2546 34.7186 84.7269 29.2639 88.7232 32.5771C92.7157 35.8903 83.6282 43.2809 83.6282 43.2809C83.6282 43.2809 80.1155 39.413 76.123 39.8281C72.1305 40.2432 66.0683 44.4564 66.0683 44.4564H66.0645Z" fill="#D8F2C8" stroke="#2E2A47" stroke-width="0.683171" stroke-miterlimit="10"/>
<path d="M88.3014 33.2443C87.4967 32.577 86.5837 32.2977 85.6474 32.2705C86.0614 32.6352 86.3593 33.1822 86.1929 34.0008C85.7751 36.0298 84.336 37.1316 84.1464 38.6137C84.0149 39.6417 83.334 41.3837 82.9316 42.3536C83.3804 42.7493 83.6357 43.0325 83.6357 43.0325C83.6357 43.0325 91.9456 36.2781 88.2936 33.2443H88.3014Z" fill="#5E58A5"/>
<path d="M66.8927 49.6355L67.7206 51.3619C67.7206 51.3619 70.4054 50.0506 72.746 50.1864C75.0865 50.326 75.0169 51.1524 76.603 51.0166C78.3749 50.8614 81.6865 48.7432 83.145 49.36C83.9032 49.6781 83.8181 50.5976 84.4719 55.3346C85.1373 60.1608 85.528 61.3984 84.6963 63.1054C84.1237 64.281 83.3268 64.9483 82.5724 65.5806C79.3111 68.3119 75.3264 68.3158 74.2548 68.3002C72.3049 68.2731 68.208 68.2731 66.1886 65.5651C64.1498 62.83 65.4729 53.5616 65.4729 53.5616L66.3627 48.9565L66.8965 49.6355H66.8927Z" fill="#473E6B" stroke="#2E2A47" stroke-width="0.683171" stroke-miterlimit="10"/>
<path d="M79.759 52.5413C79.4302 52.1961 78.7299 52.8478 76.9039 53.069C74.1456 53.4026 72.7567 52.2853 72.3312 52.8401C71.689 53.6703 73.5769 57.7749 76.2463 57.6547C78.9234 57.5344 80.4399 53.2552 79.759 52.5413Z" fill="white" stroke="#2E2A47" stroke-width="0.683171" stroke-miterlimit="10"/>
<path d="M82.1779 46.3146C82.1044 46.2021 81.4313 45.1972 80.1778 45.1197C79.2068 45.0615 78.2744 45.5813 77.7754 46.462" stroke="#2E2A47" stroke-width="0.894954" stroke-miterlimit="10" stroke-linecap="round"/>
<path d="M74.1994 46.4622C74.095 46.3303 73.3754 45.4613 72.1529 45.4186C70.706 45.3682 69.8626 46.5204 69.7969 46.6096" stroke="#2E2A47" stroke-width="0.894954" stroke-miterlimit="10" stroke-linecap="round"/>
<path d="M76.6567 45.7871L76.9275 50.0236L75.6934 49.6473" stroke="#2E2A47" stroke-width="0.894954" stroke-linecap="round" stroke-linejoin="round"/>
<path d="M62.9844 48.0332L64.4583 48.9255" stroke="#2E2A47" stroke-width="0.894954" stroke-miterlimit="10" stroke-linecap="round"/>
<path d="M64.1837 47.7578L63.3945 49.2709" stroke="#2E2A47" stroke-width="0.894954" stroke-miterlimit="10" stroke-linecap="round"/>
<path d="M66.0645 44.4565L64.459 45.4924" stroke="#473E6B" stroke-width="0.683171" stroke-miterlimit="10" stroke-linecap="round"/>
<path d="M107.469 79.9006L98.3042 88.8586L97.252 75.9473C97.4299 76.3934 98.5131 78.9578 101.426 80.1217C104.428 81.3205 107.051 80.1023 107.473 79.9006H107.469Z" fill="#473E6B"/>
<path d="M53.6802 87.3765C53.2895 94.7555 52.6125 102.282 51.4403 105.366C50.9606 106.627 50.3686 108.311 49.7148 110.235C57.9706 99.4925 58.4155 88.8585 58.4155 88.8585L53.6802 87.3765Z" fill="#473E6B"/>
</g>
<path d="M125.586 33.2797C125.513 33.2914 125.435 33.2914 125.358 33.272L114.901 30.9403C114.503 30.8511 114.216 30.3894 114.263 29.9045C114.309 29.4234 114.669 29.1014 115.067 29.1906L125.524 31.5223C125.923 31.6115 126.209 32.0732 126.163 32.5581C126.124 32.9461 125.884 33.2293 125.586 33.2797Z" fill="#473E6B" stroke="#2E2A47" stroke-width="0.683171" stroke-miterlimit="10"/>
<path d="M126.052 33.004C126.021 33.0078 125.99 33.0117 125.959 33.0117L115.629 33.0738C115.231 33.0738 114.883 32.682 114.852 32.1892C114.821 31.7004 115.123 31.3008 115.525 31.2969L125.854 31.2349C126.253 31.2349 126.601 31.6267 126.632 32.1194C126.659 32.5733 126.404 32.9458 126.052 33.004Z" fill="#C2E6F5" stroke="#2E2A47" stroke-width="0.683171" stroke-miterlimit="10"/>
<path d="M34.6543 90.7246C36.9175 110.646 53.781 126.122 74.254 126.122C94.727 126.122 111.59 110.646 113.854 90.7246" stroke="#473E6B" stroke-width="1.02476" stroke-miterlimit="10"/>
<path d="M31.8348 103.861C35.4521 103.861 38.3845 100.92 38.3845 97.2928C38.3845 93.6653 35.4521 90.7246 31.8348 90.7246C28.2175 90.7246 25.2852 93.6653 25.2852 97.2928C25.2852 100.92 28.2175 103.861 31.8348 103.861Z" fill="#C2E6F5" stroke="#2E2A47" stroke-width="0.683171" stroke-miterlimit="10"/>
<path fill-rule="evenodd" clip-rule="evenodd" d="M32.4724 92.1292L32.8167 92.3309C33.0101 92.4434 33.2306 92.5016 33.455 92.5016H33.8535C34.31 92.5016 34.7317 92.746 34.9599 93.1418L35.1611 93.4871C35.2733 93.681 35.4358 93.844 35.6292 93.9565L35.9735 94.1582C36.3681 94.3871 36.6119 94.81 36.6119 95.2678V95.6674C36.6119 95.8924 36.6699 96.1135 36.7821 96.3075L36.9833 96.6528C37.2115 97.0485 37.2115 97.5374 36.9833 97.9331L36.7821 98.2784C36.6699 98.4723 36.6119 98.6935 36.6119 98.9185V99.3181C36.6119 99.7759 36.3681 100.199 35.9735 100.428L35.6292 100.629C35.4358 100.742 35.2733 100.905 35.1611 101.099L34.9599 101.444C34.7317 101.84 34.31 102.084 33.8535 102.084H33.455C33.2306 102.084 33.0101 102.142 32.8167 102.255L32.4724 102.457C32.0778 102.686 31.5903 102.686 31.1957 102.457L30.8514 102.255C30.658 102.142 30.4375 102.084 30.2131 102.084H29.8146C29.3581 102.084 28.9364 101.84 28.7082 101.444L28.507 101.099C28.3948 100.905 28.2323 100.742 28.0389 100.629L27.6946 100.428C27.3 100.199 27.0563 99.7759 27.0563 99.3181V98.9185C27.0563 98.6935 26.9982 98.4723 26.886 98.2784L26.6849 97.9331C26.4566 97.5374 26.4566 97.0485 26.6849 96.6528L26.886 96.3075C26.9982 96.1135 27.0563 95.8924 27.0563 95.6674V95.2678C27.0563 94.81 27.3 94.3871 27.6946 94.1582L28.0389 93.9565C28.2323 93.844 28.3948 93.681 28.507 93.4871L28.7082 93.1418C28.9364 92.746 29.3581 92.5016 29.8146 92.5016H30.2131C30.4375 92.5016 30.658 92.4434 30.8514 92.3309L31.1957 92.1292C31.5903 91.9003 32.0778 91.9003 32.4724 92.1292Z" fill="#EAC9F8" stroke="#2E2A47" stroke-width="0.683171" stroke-miterlimit="10"/>
</svg>
