<svg width="90" height="70" viewBox="0 0 90 70" fill="none" xmlns="http://www.w3.org/2000/svg">
<path fill-rule="evenodd" clip-rule="evenodd" d="M18.648 47.6333C15.9724 50.352 14.4511 53.9982 14.4014 57.8108C14.4015 53.9915 12.8851 50.3282 10.1852 47.6246C7.48526 44.9211 3.82233 43.3982 0 43.39C3.81951 43.39 7.4825 41.874 10.1833 39.1753C12.8841 36.4767 14.4014 32.8165 14.4014 29C14.4096 32.8193 15.9337 36.4794 18.6394 39.1772C21.3451 41.875 25.0113 43.39 28.8337 43.39C25.018 43.4396 21.3689 44.9598 18.648 47.6333Z" fill="#FFCFD1"/>
<path fill-rule="evenodd" clip-rule="evenodd" d="M64.648 18.6333C61.9724 21.352 60.4511 24.9982 60.4014 28.8108C60.4015 24.9915 58.8851 21.3282 56.1852 18.6246C53.4853 15.9211 49.8223 14.3982 46 14.39C49.8195 14.39 53.4825 12.874 56.1833 10.1753C58.8841 7.47666 60.4014 3.81648 60.4014 0C60.4096 3.8193 61.9337 7.47942 64.6394 10.1772C67.3451 12.875 71.0113 14.39 74.8337 14.39C71.018 14.4396 67.3689 15.9598 64.648 18.6333Z" fill="#EFEFEF"/>
<path d="M76.2937 69.5662C83.6355 69.5662 89.5872 63.6192 89.5872 56.2831C89.5872 48.947 83.6355 43 76.2937 43C68.9518 43 63 48.947 63 56.2831C63 63.6192 68.9518 69.5662 76.2937 69.5662Z" fill="#B5AEFF"/>
</svg>
