<svg width="120" height="100" viewBox="0 0 120 100" fill="none" xmlns="http://www.w3.org/2000/svg">
<path opacity="0.6" fill-rule="evenodd" clip-rule="evenodd" d="M89.5773 89.8151L99.7177 86.7264C100.115 86.6074 100.544 86.6508 100.91 86.847C101.276 87.0433 101.549 87.3764 101.669 87.7734L104.704 97.9302C104.794 98.2264 104.97 98.4895 105.209 98.6862C105.448 98.8828 105.74 99.0043 106.049 99.0354C106.357 99.0664 106.667 99.0055 106.941 98.8605C107.214 98.7155 107.438 98.4928 107.585 98.2204L118.419 78.027C118.615 77.6606 118.658 77.2311 118.538 76.8329C118.418 76.4348 118.144 76.1006 117.777 75.9039L100.699 66.7417C100.332 66.545 99.9025 66.5018 99.5043 66.6218C99.106 66.7418 98.7719 67.015 98.5753 67.3814L87.6766 87.6967C87.5587 87.9714 87.5219 88.2741 87.5705 88.5691C87.6191 88.8642 87.751 89.1394 87.9508 89.362C88.1505 89.5847 88.4098 89.7457 88.6979 89.826C88.9861 89.9063 89.2912 89.9024 89.5773 89.8151Z" fill="#EAC9F8"/>
<circle cx="27" cy="67" r="27" fill="#F4E2A1"/>
<circle cx="71.5" cy="16.5" r="16.5" fill="#EAC9F8"/>
</svg>
