<svg width="1641" height="131" viewBox="0 0 1641 131" fill="none" xmlns="http://www.w3.org/2000/svg" ><path d="M0.532689 71.8999C110.439 38.505 226.059 59.5084 335.883 81.9655C446.018 104.485 556.119 124.007 668.639 129.351C781.16 134.695 893.112 127.427 1002.21 101.993C1111.26 76.5727 1214.87 31.3262 1325.15 10.7313C1419.22 -6.83145 1523.87 -4.60926 1608.65 44.4516C1619.41 50.6751 1629.68 57.6462 1639.51 65.2473C1639.95 65.5865 1640.57 64.9773 1640.12 64.6381C1565.26 6.75772 1466.86 -6.5684 1374.89 2.67335C1265.2 13.7011 1162.21 56.6424 1057.06 86.756C945.933 118.586 830.84 131.732 715.359 129.953C599.316 128.167 484.507 111.608 371.002 88.2997C263.481 66.2233 151.466 40.2219 41.5735 60.8791C27.6297 63.5028 13.8732 66.9295 0.303876 71.0554C-0.230021 71.2146 -0.00120831 72.0523 0.532689 71.893V71.893V71.8999Z" fill="#B8ACFF"></path></svg>