<svg width="1460" height="394" viewBox="0 0 1460 394" preserveAspectRatio="none" fill="none" xmlns="http://www.w3.org/2000/svg">
<path d="M0.234375 0.440186H1459.95C1459.95 0.440186 1475.66 174.352 943.982 243.34C412.301 312.329 0.234375 394 0.234375 394V0.440186Z" fill="#C2E6F5"/>
<path opacity="0.2" d="M0 1H1459.95C1459.95 1 1475.67 155.221 943.899 216.398C412.132 277.576 0 350 0 350V1Z" fill="#F5F4FF"/>
<path d="M-16.5 -53.5H1442.25C1442.26 -53.1959 1442.27 -52.7413 1442.26 -52.1439C1442.25 -50.9429 1442.16 -49.165 1441.86 -46.8743C1441.26 -42.2934 1439.8 -35.66 1436.4 -27.4873C1429.61 -11.1447 1415.01 11.3753 1383.8 35.9532C1321.38 85.1188 1192.49 142.503 926.687 175.104C660.838 207.71 424.895 243.314 255.413 270.766C170.673 284.492 102.547 296.18 55.6062 304.437C32.1359 308.565 13.9617 311.835 1.65493 314.074C-4.49846 315.193 -9.185 316.054 -12.3333 316.636C-13.9075 316.927 -15.097 317.147 -15.8931 317.295C-16.1305 317.34 -16.3328 317.377 -16.5 317.408V-53.5Z" stroke="#7C72E2"/>
</svg>
