<svg width="17" height="17" viewBox="0 0 17 17" fill="none" xmlns="http://www.w3.org/2000/svg">
<path fill-rule="evenodd" clip-rule="evenodd" d="M4.49961 1.61459C4.94144 1.61459 5.29961 1.97277 5.29961 2.41459V3.21459H6.09961C6.54144 3.21459 6.89961 3.57277 6.89961 4.01459C6.89961 4.45642 6.54144 4.81459 6.09961 4.81459H5.29961V5.61459C5.29961 6.05642 4.94144 6.41459 4.49961 6.41459C4.05778 6.41459 3.69961 6.05642 3.69961 5.61459V4.81459H2.89961C2.45778 4.81459 2.09961 4.45642 2.09961 4.01459C2.09961 3.57277 2.45778 3.21459 2.89961 3.21459H3.69961V2.41459C3.69961 1.97277 4.05778 1.61459 4.49961 1.61459ZM4.49961 9.61459C4.94144 9.61459 5.29961 9.97276 5.29961 10.4146V11.2146H6.09961C6.54144 11.2146 6.89961 11.5728 6.89961 12.0146C6.89961 12.4564 6.54144 12.8146 6.09961 12.8146H5.29961V13.6146C5.29961 14.0564 4.94144 14.4146 4.49961 14.4146C4.05778 14.4146 3.69961 14.0564 3.69961 13.6146V12.8146H2.89961C2.45778 12.8146 2.09961 12.4564 2.09961 12.0146C2.09961 11.5728 2.45778 11.2146 2.89961 11.2146H3.69961V10.4146C3.69961 9.97276 4.05778 9.61459 4.49961 9.61459Z" fill="#D1BA68"/>
<path fill-rule="evenodd" clip-rule="evenodd" d="M10.0996 1.61459C10.4626 1.61459 10.78 1.85898 10.8729 2.20988L11.8163 5.77374L14.4993 7.32164C14.747 7.46452 14.8996 7.72869 14.8996 8.01459C14.8996 8.3005 14.747 8.56467 14.4993 8.70754L11.8163 10.2554L10.8729 13.8193C10.78 14.1702 10.4626 14.4146 10.0996 14.4146C9.73658 14.4146 9.41909 14.1702 9.3262 13.8193L8.38283 10.2554L5.69983 8.70754C5.45218 8.56467 5.29961 8.3005 5.29961 8.01459C5.29961 7.72869 5.45218 7.46452 5.69983 7.32165L8.38283 5.77374L9.3262 2.20988C9.41909 1.85898 9.73658 1.61459 10.0996 1.61459Z" fill="#D1BA68"/>
</svg>
