<svg width="256" height="256" viewBox="0 0 256 256" fill="none" xmlns="http://www.w3.org/2000/svg">
<g clip-path="url(#clip0_5_9)">
<path d="M54.303 0H62.0606V7.75758H54.303V0ZM85.3333 0H93.0909V7.75758H85.3333V0ZM131.879 0H139.636V7.75758H131.879V0ZM147.394 0H155.152V7.75758H147.394V0ZM155.152 0H162.909V7.75758H155.152V0ZM162.909 0H170.667V7.75758H162.909V0ZM186.182 0H193.939V7.75758H186.182V0ZM193.939 0H201.697V7.75758H193.939V0ZM7.75758 7.75758H15.5152V15.5152H7.75758V7.75758ZM15.5152 7.75758H23.2727V15.5152H15.5152V7.75758ZM23.2727 7.75758H31.0303V15.5152H23.2727V7.75758ZM31.0303 7.75758H38.7879V15.5152H31.0303V7.75758ZM38.7879 7.75758H46.5455V15.5152H38.7879V7.75758ZM54.303 7.75758H62.0606V15.5152H54.303V7.75758ZM85.3333 7.75758H93.0909V15.5152H85.3333V7.75758ZM93.0909 7.75758H100.848V15.5152H93.0909V7.75758ZM108.606 7.75758H116.364V15.5152H108.606V7.75758ZM116.364 7.75758H124.121V15.5152H116.364V7.75758ZM124.121 7.75758H131.879V15.5152H124.121V7.75758ZM131.879 7.75758H139.636V15.5152H131.879V7.75758ZM155.152 7.75758H162.909V15.5152H155.152V7.75758ZM162.909 7.75758H170.667V15.5152H162.909V7.75758ZM170.667 7.75758H178.424V15.5152H170.667V7.75758ZM178.424 7.75758H186.182V15.5152H178.424V7.75758ZM193.939 7.75758H201.697V15.5152H193.939V7.75758ZM209.455 7.75758H217.212V15.5152H209.455V7.75758ZM217.212 7.75758H224.97V15.5152H217.212V7.75758ZM224.97 7.75758H232.727V15.5152H224.97V7.75758ZM232.727 7.75758H240.485V15.5152H232.727V7.75758ZM240.485 7.75758H248.242V15.5152H240.485V7.75758ZM7.75758 15.5152H15.5152V23.2727H7.75758V15.5152ZM38.7879 15.5152H46.5455V23.2727H38.7879V15.5152ZM54.303 15.5152H62.0606V23.2727H54.303V15.5152ZM69.8182 15.5152H77.5758V23.2727H69.8182V15.5152ZM93.0909 15.5152H100.848V23.2727H93.0909V15.5152ZM100.848 15.5152H108.606V23.2727H100.848V15.5152ZM124.121 15.5152H131.879V23.2727H124.121V15.5152ZM147.394 15.5152H155.152V23.2727H147.394V15.5152ZM186.182 15.5152H193.939V23.2727H186.182V15.5152ZM193.939 15.5152H201.697V23.2727H193.939V15.5152ZM209.455 15.5152H217.212V23.2727H209.455V15.5152ZM240.485 15.5152H248.242V23.2727H240.485V15.5152ZM7.75758 23.2727H15.5152V31.0303H7.75758V23.2727ZM38.7879 23.2727H46.5455V31.0303H38.7879V23.2727ZM54.303 23.2727H62.0606V31.0303H54.303V23.2727ZM77.5758 23.2727H85.3333V31.0303H77.5758V23.2727ZM93.0909 23.2727H100.848V31.0303H93.0909V23.2727ZM131.879 23.2727H139.636V31.0303H131.879V23.2727ZM155.152 23.2727H162.909V31.0303H155.152V23.2727ZM162.909 23.2727H170.667V31.0303H162.909V23.2727ZM193.939 23.2727H201.697V31.0303H193.939V23.2727ZM209.455 23.2727H217.212V31.0303H209.455V23.2727ZM240.485 23.2727H248.242V31.0303H240.485V23.2727ZM7.75758 31.0303H15.5152V38.7879H7.75758V31.0303ZM38.7879 31.0303H46.5455V38.7879H38.7879V31.0303ZM54.303 31.0303H62.0606V38.7879H54.303V31.0303ZM62.0606 31.0303H69.8182V38.7879H62.0606V31.0303ZM69.8182 31.0303H77.5758V38.7879H69.8182V31.0303ZM77.5758 31.0303H85.3333V38.7879H77.5758V31.0303ZM85.3333 31.0303H93.0909V38.7879H85.3333V31.0303ZM93.0909 31.0303H100.848V38.7879H93.0909V31.0303ZM131.879 31.0303H139.636V38.7879H131.879V31.0303ZM155.152 31.0303H162.909V38.7879H155.152V31.0303ZM170.667 31.0303H178.424V38.7879H170.667V31.0303ZM186.182 31.0303H193.939V38.7879H186.182V31.0303ZM193.939 31.0303H201.697V38.7879H193.939V31.0303ZM209.455 31.0303H217.212V38.7879H209.455V31.0303ZM240.485 31.0303H248.242V38.7879H240.485V31.0303ZM7.75758 38.7879H15.5152V46.5455H7.75758V38.7879ZM15.5152 38.7879H23.2727V46.5455H15.5152V38.7879ZM23.2727 38.7879H31.0303V46.5455H23.2727V38.7879ZM31.0303 38.7879H38.7879V46.5455H31.0303V38.7879ZM38.7879 38.7879H46.5455V46.5455H38.7879V38.7879ZM54.303 38.7879H62.0606V46.5455H54.303V38.7879ZM69.8182 38.7879H77.5758V46.5455H69.8182V38.7879ZM77.5758 38.7879H85.3333V46.5455H77.5758V38.7879ZM100.848 38.7879H108.606V46.5455H100.848V38.7879ZM108.606 38.7879H116.364V46.5455H108.606V38.7879ZM116.364 38.7879H124.121V46.5455H116.364V38.7879ZM124.121 38.7879H131.879V46.5455H124.121V38.7879ZM139.636 38.7879H147.394V46.5455H139.636V38.7879ZM155.152 38.7879H162.909V46.5455H155.152V38.7879ZM178.424 38.7879H186.182V46.5455H178.424V38.7879ZM186.182 38.7879H193.939V46.5455H186.182V38.7879ZM193.939 38.7879H201.697V46.5455H193.939V38.7879ZM209.455 38.7879H217.212V46.5455H209.455V38.7879ZM217.212 38.7879H224.97V46.5455H217.212V38.7879ZM224.97 38.7879H232.727V46.5455H224.97V38.7879ZM232.727 38.7879H240.485V46.5455H232.727V38.7879ZM240.485 38.7879H248.242V46.5455H240.485V38.7879ZM54.303 46.5455H62.0606V54.303H54.303V46.5455ZM69.8182 46.5455H77.5758V54.303H69.8182V46.5455ZM85.3333 46.5455H93.0909V54.303H85.3333V46.5455ZM100.848 46.5455H108.606V54.303H100.848V46.5455ZM116.364 46.5455H124.121V54.303H116.364V46.5455ZM131.879 46.5455H139.636V54.303H131.879V46.5455ZM147.394 46.5455H155.152V54.303H147.394V46.5455ZM162.909 46.5455H170.667V54.303H162.909V46.5455ZM178.424 46.5455H186.182V54.303H178.424V46.5455ZM193.939 46.5455H201.697V54.303H193.939V46.5455ZM0 54.303H7.75758V62.0606H0V54.303ZM7.75758 54.303H15.5152V62.0606H7.75758V54.303ZM15.5152 54.303H23.2727V62.0606H15.5152V54.303ZM23.2727 54.303H31.0303V62.0606H23.2727V54.303ZM31.0303 54.303H38.7879V62.0606H31.0303V54.303ZM38.7879 54.303H46.5455V62.0606H38.7879V54.303ZM46.5455 54.303H54.303V62.0606H46.5455V54.303ZM54.303 54.303H62.0606V62.0606H54.303V54.303ZM62.0606 54.303H69.8182V62.0606H62.0606V54.303ZM77.5758 54.303H85.3333V62.0606H77.5758V54.303ZM85.3333 54.303H93.0909V62.0606H85.3333V54.303ZM100.848 54.303H108.606V62.0606H100.848V54.303ZM108.606 54.303H116.364V62.0606H108.606V54.303ZM116.364 54.303H124.121V62.0606H116.364V54.303ZM124.121 54.303H131.879V62.0606H124.121V54.303ZM139.636 54.303H147.394V62.0606H139.636V54.303ZM147.394 54.303H155.152V62.0606H147.394V54.303ZM170.667 54.303H178.424V62.0606H170.667V54.303ZM186.182 54.303H193.939V62.0606H186.182V54.303ZM193.939 54.303H201.697V62.0606H193.939V54.303ZM201.697 54.303H209.455V62.0606H201.697V54.303ZM209.455 54.303H217.212V62.0606H209.455V54.303ZM217.212 54.303H224.97V62.0606H217.212V54.303ZM224.97 54.303H232.727V62.0606H224.97V54.303ZM232.727 54.303H240.485V62.0606H232.727V54.303ZM240.485 54.303H248.242V62.0606H240.485V54.303ZM248.242 54.303H256V62.0606H248.242V54.303ZM15.5152 62.0606H23.2727V69.8182H15.5152V62.0606ZM23.2727 62.0606H31.0303V69.8182H23.2727V62.0606ZM54.303 62.0606H62.0606V69.8182H54.303V62.0606ZM62.0606 62.0606H69.8182V69.8182H62.0606V62.0606ZM69.8182 62.0606H77.5758V69.8182H69.8182V62.0606ZM77.5758 62.0606H85.3333V69.8182H77.5758V62.0606ZM93.0909 62.0606H100.848V69.8182H93.0909V62.0606ZM100.848 62.0606H108.606V69.8182H100.848V62.0606ZM108.606 62.0606H116.364V69.8182H108.606V62.0606ZM124.121 62.0606H131.879V69.8182H124.121V62.0606ZM131.879 62.0606H139.636V69.8182H131.879V62.0606ZM139.636 62.0606H147.394V69.8182H139.636V62.0606ZM147.394 62.0606H155.152V69.8182H147.394V62.0606ZM178.424 62.0606H186.182V69.8182H178.424V62.0606ZM193.939 62.0606H201.697V69.8182H193.939V62.0606ZM201.697 62.0606H209.455V69.8182H201.697V62.0606ZM217.212 62.0606H224.97V69.8182H217.212V62.0606ZM7.75758 69.8182H15.5152V77.5758H7.75758V69.8182ZM15.5152 69.8182H23.2727V77.5758H15.5152V69.8182ZM31.0303 69.8182H38.7879V77.5758H31.0303V69.8182ZM46.5455 69.8182H54.303V77.5758H46.5455V69.8182ZM85.3333 69.8182H93.0909V77.5758H85.3333V69.8182ZM100.848 69.8182H108.606V77.5758H100.848V69.8182ZM131.879 69.8182H139.636V77.5758H131.879V69.8182ZM139.636 69.8182H147.394V77.5758H139.636V69.8182ZM147.394 69.8182H155.152V77.5758H147.394V69.8182ZM155.152 69.8182H162.909V77.5758H155.152V69.8182ZM162.909 69.8182H170.667V77.5758H162.909V69.8182ZM170.667 69.8182H178.424V77.5758H170.667V69.8182ZM186.182 69.8182H193.939V77.5758H186.182V69.8182ZM201.697 69.8182H209.455V77.5758H201.697V69.8182ZM217.212 69.8182H224.97V77.5758H217.212V69.8182ZM224.97 69.8182H232.727V77.5758H224.97V69.8182ZM240.485 69.8182H248.242V77.5758H240.485V69.8182ZM248.242 69.8182H256V77.5758H248.242V69.8182ZM0 77.5758H7.75758V85.3333H0V77.5758ZM7.75758 77.5758H15.5152V85.3333H7.75758V77.5758ZM31.0303 77.5758H38.7879V85.3333H31.0303V77.5758ZM38.7879 77.5758H46.5455V85.3333H38.7879V77.5758ZM54.303 77.5758H62.0606V85.3333H54.303V77.5758ZM62.0606 77.5758H69.8182V85.3333H62.0606V77.5758ZM69.8182 77.5758H77.5758V85.3333H69.8182V77.5758ZM77.5758 77.5758H85.3333V85.3333H77.5758V77.5758ZM100.848 77.5758H108.606V85.3333H100.848V77.5758ZM108.606 77.5758H116.364V85.3333H108.606V77.5758ZM124.121 77.5758H131.879V85.3333H124.121V77.5758ZM139.636 77.5758H147.394V85.3333H139.636V77.5758ZM147.394 77.5758H155.152V85.3333H147.394V77.5758ZM162.909 77.5758H170.667V85.3333H162.909V77.5758ZM186.182 77.5758H193.939V85.3333H186.182V77.5758ZM193.939 77.5758H201.697V85.3333H193.939V77.5758ZM209.455 77.5758H217.212V85.3333H209.455V77.5758ZM217.212 77.5758H224.97V85.3333H217.212V77.5758ZM224.97 77.5758H232.727V85.3333H224.97V77.5758ZM248.242 77.5758H256V85.3333H248.242V77.5758ZM0 85.3333H7.75758V93.0909H0V85.3333ZM7.75758 85.3333H15.5152V93.0909H7.75758V85.3333ZM15.5152 85.3333H23.2727V93.0909H15.5152V85.3333ZM23.2727 85.3333H31.0303V93.0909H23.2727V85.3333ZM46.5455 85.3333H54.303V93.0909H46.5455V85.3333ZM62.0606 85.3333H69.8182V93.0909H62.0606V85.3333ZM69.8182 85.3333H77.5758V93.0909H69.8182V85.3333ZM93.0909 85.3333H100.848V93.0909H93.0909V85.3333ZM100.848 85.3333H108.606V93.0909H100.848V85.3333ZM124.121 85.3333H131.879V93.0909H124.121V85.3333ZM139.636 85.3333H147.394V93.0909H139.636V85.3333ZM170.667 85.3333H178.424V93.0909H170.667V85.3333ZM178.424 85.3333H186.182V93.0909H178.424V85.3333ZM232.727 85.3333H240.485V93.0909H232.727V85.3333ZM240.485 85.3333H248.242V93.0909H240.485V85.3333ZM248.242 85.3333H256V93.0909H248.242V85.3333ZM0 93.0909H7.75758V100.848H0V93.0909ZM15.5152 93.0909H23.2727V100.848H15.5152V93.0909ZM23.2727 93.0909H31.0303V100.848H23.2727V93.0909ZM31.0303 93.0909H38.7879V100.848H31.0303V93.0909ZM62.0606 93.0909H69.8182V100.848H62.0606V93.0909ZM69.8182 93.0909H77.5758V100.848H69.8182V93.0909ZM85.3333 93.0909H93.0909V100.848H85.3333V93.0909ZM100.848 93.0909H108.606V100.848H100.848V93.0909ZM108.606 93.0909H116.364V100.848H108.606V93.0909ZM116.364 93.0909H124.121V100.848H116.364V93.0909ZM131.879 93.0909H139.636V100.848H131.879V93.0909ZM139.636 93.0909H147.394V100.848H139.636V93.0909ZM232.727 93.0909H240.485V100.848H232.727V93.0909ZM0 100.848H7.75758V108.606H0V100.848ZM7.75758 100.848H15.5152V108.606H7.75758V100.848ZM31.0303 100.848H38.7879V108.606H31.0303V100.848ZM46.5455 100.848H54.303V108.606H46.5455V100.848ZM54.303 100.848H62.0606V108.606H54.303V100.848ZM77.5758 100.848H85.3333V108.606H77.5758V100.848ZM85.3333 100.848H93.0909V108.606H85.3333V100.848ZM93.0909 100.848H100.848V108.606H93.0909V100.848ZM100.848 100.848H108.606V108.606H100.848V100.848ZM131.879 100.848H139.636V108.606H131.879V100.848ZM139.636 100.848H147.394V108.606H139.636V100.848ZM147.394 100.848H155.152V108.606H147.394V100.848ZM155.152 100.848H162.909V108.606H155.152V100.848ZM170.667 100.848H178.424V108.606H170.667V100.848ZM201.697 100.848H209.455V108.606H201.697V100.848ZM217.212 100.848H224.97V108.606H217.212V100.848ZM224.97 100.848H232.727V108.606H224.97V100.848ZM232.727 100.848H240.485V108.606H232.727V100.848ZM240.485 100.848H248.242V108.606H240.485V100.848ZM248.242 100.848H256V108.606H248.242V100.848ZM0 108.606H7.75758V116.364H0V108.606ZM23.2727 108.606H31.0303V116.364H23.2727V108.606ZM38.7879 108.606H46.5455V116.364H38.7879V108.606ZM62.0606 108.606H69.8182V116.364H62.0606V108.606ZM69.8182 108.606H77.5758V116.364H69.8182V108.606ZM77.5758 108.606H85.3333V116.364H77.5758V108.606ZM85.3333 108.606H93.0909V116.364H85.3333V108.606ZM93.0909 108.606H100.848V116.364H93.0909V108.606ZM124.121 108.606H131.879V116.364H124.121V108.606ZM131.879 108.606H139.636V116.364H131.879V108.606ZM147.394 108.606H155.152V116.364H147.394V108.606ZM170.667 108.606H178.424V116.364H170.667V108.606ZM186.182 108.606H193.939V116.364H186.182V108.606ZM209.455 108.606H217.212V116.364H209.455V108.606ZM217.212 108.606H224.97V116.364H217.212V108.606ZM248.242 108.606H256V116.364H248.242V108.606ZM0 116.364H7.75758V124.121H0V116.364ZM7.75758 116.364H15.5152V124.121H7.75758V116.364ZM31.0303 116.364H38.7879V124.121H31.0303V116.364ZM38.7879 116.364H46.5455V124.121H38.7879V116.364ZM46.5455 116.364H54.303V124.121H46.5455V116.364ZM54.303 116.364H62.0606V124.121H54.303V116.364ZM62.0606 116.364H69.8182V124.121H62.0606V116.364ZM69.8182 116.364H77.5758V124.121H69.8182V116.364ZM85.3333 116.364H93.0909V124.121H85.3333V116.364ZM100.848 116.364H108.606V124.121H100.848V116.364ZM108.606 116.364H116.364V124.121H108.606V116.364ZM116.364 116.364H124.121V124.121H116.364V116.364ZM124.121 116.364H131.879V124.121H124.121V116.364ZM139.636 116.364H147.394V124.121H139.636V116.364ZM147.394 116.364H155.152V124.121H147.394V116.364ZM155.152 116.364H162.909V124.121H155.152V116.364ZM178.424 116.364H186.182V124.121H178.424V116.364ZM186.182 116.364H193.939V124.121H186.182V116.364ZM201.697 116.364H209.455V124.121H201.697V116.364ZM209.455 116.364H217.212V124.121H209.455V116.364ZM217.212 116.364H224.97V124.121H217.212V116.364ZM232.727 116.364H240.485V124.121H232.727V116.364ZM240.485 116.364H248.242V124.121H240.485V116.364ZM248.242 116.364H256V124.121H248.242V116.364ZM7.75758 124.121H15.5152V131.879H7.75758V124.121ZM31.0303 124.121H38.7879V131.879H31.0303V124.121ZM54.303 124.121H62.0606V131.879H54.303V124.121ZM62.0606 124.121H69.8182V131.879H62.0606V124.121ZM93.0909 124.121H100.848V131.879H93.0909V124.121ZM100.848 124.121H108.606V131.879H100.848V124.121ZM108.606 124.121H116.364V131.879H108.606V124.121ZM124.121 124.121H131.879V131.879H124.121V124.121ZM139.636 124.121H147.394V131.879H139.636V124.121ZM155.152 124.121H162.909V131.879H155.152V124.121ZM178.424 124.121H186.182V131.879H178.424V124.121ZM193.939 124.121H201.697V131.879H193.939V124.121ZM209.455 124.121H217.212V131.879H209.455V124.121ZM224.97 124.121H232.727V131.879H224.97V124.121ZM232.727 124.121H240.485V131.879H232.727V124.121ZM240.485 124.121H248.242V131.879H240.485V124.121ZM7.75758 131.879H15.5152V139.636H7.75758V131.879ZM23.2727 131.879H31.0303V139.636H23.2727V131.879ZM46.5455 131.879H54.303V139.636H46.5455V131.879ZM62.0606 131.879H69.8182V139.636H62.0606V131.879ZM77.5758 131.879H85.3333V139.636H77.5758V131.879ZM85.3333 131.879H93.0909V139.636H85.3333V131.879ZM124.121 131.879H131.879V139.636H124.121V131.879ZM147.394 131.879H155.152V139.636H147.394V131.879ZM162.909 131.879H170.667V139.636H162.909V131.879ZM170.667 131.879H178.424V139.636H170.667V131.879ZM186.182 131.879H193.939V139.636H186.182V131.879ZM201.697 131.879H209.455V139.636H201.697V131.879ZM217.212 131.879H224.97V139.636H217.212V131.879ZM232.727 131.879H240.485V139.636H232.727V131.879ZM240.485 131.879H248.242V139.636H240.485V131.879ZM248.242 131.879H256V139.636H248.242V131.879ZM0 139.636H7.75758V147.394H0V139.636ZM7.75758 139.636H15.5152V147.394H7.75758V139.636ZM23.2727 139.636H31.0303V147.394H23.2727V139.636ZM54.303 139.636H62.0606V147.394H54.303V139.636ZM62.0606 139.636H69.8182V147.394H62.0606V139.636ZM69.8182 139.636H77.5758V147.394H69.8182V139.636ZM77.5758 139.636H85.3333V147.394H77.5758V139.636ZM100.848 139.636H108.606V147.394H100.848V139.636ZM124.121 139.636H131.879V147.394H124.121V139.636ZM147.394 139.636H155.152V147.394H147.394V139.636ZM155.152 139.636H162.909V147.394H155.152V139.636ZM201.697 139.636H209.455V147.394H201.697V139.636ZM209.455 139.636H217.212V147.394H209.455V139.636ZM224.97 139.636H232.727V147.394H224.97V139.636ZM248.242 139.636H256V147.394H248.242V139.636ZM0 147.394H7.75758V155.152H0V147.394ZM7.75758 147.394H15.5152V155.152H7.75758V147.394ZM23.2727 147.394H31.0303V155.152H23.2727V147.394ZM38.7879 147.394H46.5455V155.152H38.7879V147.394ZM46.5455 147.394H54.303V155.152H46.5455V147.394ZM54.303 147.394H62.0606V155.152H54.303V147.394ZM69.8182 147.394H77.5758V155.152H69.8182V147.394ZM93.0909 147.394H100.848V155.152H93.0909V147.394ZM100.848 147.394H108.606V155.152H100.848V147.394ZM116.364 147.394H124.121V155.152H116.364V147.394ZM147.394 147.394H155.152V155.152H147.394V147.394ZM170.667 147.394H178.424V155.152H170.667V147.394ZM193.939 147.394H201.697V155.152H193.939V147.394ZM201.697 147.394H209.455V155.152H201.697V147.394ZM217.212 147.394H224.97V155.152H217.212V147.394ZM232.727 147.394H240.485V155.152H232.727V147.394ZM240.485 147.394H248.242V155.152H240.485V147.394ZM248.242 147.394H256V155.152H248.242V147.394ZM15.5152 155.152H23.2727V162.909H15.5152V155.152ZM23.2727 155.152H31.0303V162.909H23.2727V155.152ZM31.0303 155.152H38.7879V162.909H31.0303V155.152ZM69.8182 155.152H77.5758V162.909H69.8182V155.152ZM85.3333 155.152H93.0909V162.909H85.3333V155.152ZM100.848 155.152H108.606V162.909H100.848V155.152ZM108.606 155.152H116.364V162.909H108.606V155.152ZM116.364 155.152H124.121V162.909H116.364V155.152ZM124.121 155.152H131.879V162.909H124.121V155.152ZM131.879 155.152H139.636V162.909H131.879V155.152ZM139.636 155.152H147.394V162.909H139.636V155.152ZM155.152 155.152H162.909V162.909H155.152V155.152ZM178.424 155.152H186.182V162.909H178.424V155.152ZM193.939 155.152H201.697V162.909H193.939V155.152ZM209.455 155.152H217.212V162.909H209.455V155.152ZM224.97 155.152H232.727V162.909H224.97V155.152ZM232.727 155.152H240.485V162.909H232.727V155.152ZM240.485 155.152H248.242V162.909H240.485V155.152ZM23.2727 162.909H31.0303V170.667H23.2727V162.909ZM31.0303 162.909H38.7879V170.667H31.0303V162.909ZM46.5455 162.909H54.303V170.667H46.5455V162.909ZM62.0606 162.909H69.8182V170.667H62.0606V162.909ZM69.8182 162.909H77.5758V170.667H69.8182V162.909ZM77.5758 162.909H85.3333V170.667H77.5758V162.909ZM85.3333 162.909H93.0909V170.667H85.3333V162.909ZM93.0909 162.909H100.848V170.667H93.0909V162.909ZM147.394 162.909H155.152V170.667H147.394V162.909ZM155.152 162.909H162.909V170.667H155.152V162.909ZM170.667 162.909H178.424V170.667H170.667V162.909ZM186.182 162.909H193.939V170.667H186.182V162.909ZM201.697 162.909H209.455V170.667H201.697V162.909ZM217.212 162.909H224.97V170.667H217.212V162.909ZM232.727 162.909H240.485V170.667H232.727V162.909ZM240.485 162.909H248.242V170.667H240.485V162.909ZM248.242 162.909H256V170.667H248.242V162.909ZM0 170.667H7.75758V178.424H0V170.667ZM7.75758 170.667H15.5152V178.424H7.75758V170.667ZM23.2727 170.667H31.0303V178.424H23.2727V170.667ZM31.0303 170.667H38.7879V178.424H31.0303V170.667ZM38.7879 170.667H46.5455V178.424H38.7879V170.667ZM69.8182 170.667H77.5758V178.424H69.8182V170.667ZM85.3333 170.667H93.0909V178.424H85.3333V170.667ZM93.0909 170.667H100.848V178.424H93.0909V170.667ZM100.848 170.667H108.606V178.424H100.848V170.667ZM124.121 170.667H131.879V178.424H124.121V170.667ZM147.394 170.667H155.152V178.424H147.394V170.667ZM155.152 170.667H162.909V178.424H155.152V170.667ZM201.697 170.667H209.455V178.424H201.697V170.667ZM209.455 170.667H217.212V178.424H209.455V170.667ZM217.212 170.667H224.97V178.424H217.212V170.667ZM224.97 170.667H232.727V178.424H224.97V170.667ZM248.242 170.667H256V178.424H248.242V170.667ZM0 178.424H7.75758V186.182H0V178.424ZM7.75758 178.424H15.5152V186.182H7.75758V178.424ZM31.0303 178.424H38.7879V186.182H31.0303V178.424ZM46.5455 178.424H54.303V186.182H46.5455V178.424ZM77.5758 178.424H85.3333V186.182H77.5758V178.424ZM85.3333 178.424H93.0909V186.182H85.3333V178.424ZM100.848 178.424H108.606V186.182H100.848V178.424ZM108.606 178.424H116.364V186.182H108.606V178.424ZM124.121 178.424H131.879V186.182H124.121V178.424ZM139.636 178.424H147.394V186.182H139.636V178.424ZM147.394 178.424H155.152V186.182H147.394V178.424ZM155.152 178.424H162.909V186.182H155.152V178.424ZM170.667 178.424H178.424V186.182H170.667V178.424ZM178.424 178.424H186.182V186.182H178.424V178.424ZM201.697 178.424H209.455V186.182H201.697V178.424ZM217.212 178.424H224.97V186.182H217.212V178.424ZM224.97 178.424H232.727V186.182H224.97V178.424ZM232.727 178.424H240.485V186.182H232.727V178.424ZM240.485 178.424H248.242V186.182H240.485V178.424ZM248.242 178.424H256V186.182H248.242V178.424ZM15.5152 186.182H23.2727V193.939H15.5152V186.182ZM23.2727 186.182H31.0303V193.939H23.2727V186.182ZM31.0303 186.182H38.7879V193.939H31.0303V186.182ZM69.8182 186.182H77.5758V193.939H69.8182V186.182ZM77.5758 186.182H85.3333V193.939H77.5758V186.182ZM93.0909 186.182H100.848V193.939H93.0909V186.182ZM116.364 186.182H124.121V193.939H116.364V186.182ZM139.636 186.182H147.394V193.939H139.636V186.182ZM155.152 186.182H162.909V193.939H155.152V186.182ZM178.424 186.182H186.182V193.939H178.424V186.182ZM232.727 186.182H240.485V193.939H232.727V186.182ZM248.242 186.182H256V193.939H248.242V186.182ZM0 193.939H7.75758V201.697H0V193.939ZM7.75758 193.939H15.5152V201.697H7.75758V193.939ZM15.5152 193.939H23.2727V201.697H15.5152V193.939ZM23.2727 193.939H31.0303V201.697H23.2727V193.939ZM31.0303 193.939H38.7879V201.697H31.0303V193.939ZM38.7879 193.939H46.5455V201.697H38.7879V193.939ZM46.5455 193.939H54.303V201.697H46.5455V193.939ZM54.303 193.939H62.0606V201.697H54.303V193.939ZM77.5758 193.939H85.3333V201.697H77.5758V193.939ZM85.3333 193.939H93.0909V201.697H85.3333V193.939ZM100.848 193.939H108.606V201.697H100.848V193.939ZM131.879 193.939H139.636V201.697H131.879V193.939ZM139.636 193.939H147.394V201.697H139.636V193.939ZM155.152 193.939H162.909V201.697H155.152V193.939ZM170.667 193.939H178.424V201.697H170.667V193.939ZM193.939 193.939H201.697V201.697H193.939V193.939ZM201.697 193.939H209.455V201.697H201.697V193.939ZM209.455 193.939H217.212V201.697H209.455V193.939ZM224.97 193.939H232.727V201.697H224.97V193.939ZM248.242 193.939H256V201.697H248.242V193.939ZM54.303 201.697H62.0606V209.455H54.303V201.697ZM62.0606 201.697H69.8182V209.455H62.0606V201.697ZM69.8182 201.697H77.5758V209.455H69.8182V201.697ZM124.121 201.697H131.879V209.455H124.121V201.697ZM131.879 201.697H139.636V209.455H131.879V201.697ZM139.636 201.697H147.394V209.455H139.636V201.697ZM147.394 201.697H155.152V209.455H147.394V201.697ZM155.152 201.697H162.909V209.455H155.152V201.697ZM170.667 201.697H178.424V209.455H170.667V201.697ZM178.424 201.697H186.182V209.455H178.424V201.697ZM193.939 201.697H201.697V209.455H193.939V201.697ZM209.455 201.697H217.212V209.455H209.455V201.697ZM224.97 201.697H232.727V209.455H224.97V201.697ZM232.727 201.697H240.485V209.455H232.727V201.697ZM248.242 201.697H256V209.455H248.242V201.697ZM7.75758 209.455H15.5152V217.212H7.75758V209.455ZM15.5152 209.455H23.2727V217.212H15.5152V209.455ZM23.2727 209.455H31.0303V217.212H23.2727V209.455ZM31.0303 209.455H38.7879V217.212H31.0303V209.455ZM38.7879 209.455H46.5455V217.212H38.7879V209.455ZM54.303 209.455H62.0606V217.212H54.303V209.455ZM77.5758 209.455H85.3333V217.212H77.5758V209.455ZM93.0909 209.455H100.848V217.212H93.0909V209.455ZM108.606 209.455H116.364V217.212H108.606V209.455ZM116.364 209.455H124.121V217.212H116.364V209.455ZM124.121 209.455H131.879V217.212H124.121V209.455ZM170.667 209.455H178.424V217.212H170.667V209.455ZM178.424 209.455H186.182V217.212H178.424V209.455ZM193.939 209.455H201.697V217.212H193.939V209.455ZM201.697 209.455H209.455V217.212H201.697V209.455ZM209.455 209.455H217.212V217.212H209.455V209.455ZM224.97 209.455H232.727V217.212H224.97V209.455ZM232.727 209.455H240.485V217.212H232.727V209.455ZM248.242 209.455H256V217.212H248.242V209.455ZM7.75758 217.212H15.5152V224.97H7.75758V217.212ZM38.7879 217.212H46.5455V224.97H38.7879V217.212ZM54.303 217.212H62.0606V224.97H54.303V217.212ZM77.5758 217.212H85.3333V224.97H77.5758V217.212ZM85.3333 217.212H93.0909V224.97H85.3333V217.212ZM108.606 217.212H116.364V224.97H108.606V217.212ZM116.364 217.212H124.121V224.97H116.364V217.212ZM131.879 217.212H139.636V224.97H131.879V217.212ZM139.636 217.212H147.394V224.97H139.636V217.212ZM155.152 217.212H162.909V224.97H155.152V217.212ZM170.667 217.212H178.424V224.97H170.667V217.212ZM178.424 217.212H186.182V224.97H178.424V217.212ZM232.727 217.212H240.485V224.97H232.727V217.212ZM7.75758 224.97H15.5152V232.727H7.75758V224.97ZM38.7879 224.97H46.5455V232.727H38.7879V224.97ZM54.303 224.97H62.0606V232.727H54.303V224.97ZM62.0606 224.97H69.8182V232.727H62.0606V224.97ZM85.3333 224.97H93.0909V232.727H85.3333V224.97ZM93.0909 224.97H100.848V232.727H93.0909V224.97ZM124.121 224.97H131.879V232.727H124.121V224.97ZM131.879 224.97H139.636V232.727H131.879V224.97ZM147.394 224.97H155.152V232.727H147.394V224.97ZM170.667 224.97H178.424V232.727H170.667V224.97ZM178.424 224.97H186.182V232.727H178.424V224.97ZM186.182 224.97H193.939V232.727H186.182V224.97ZM193.939 224.97H201.697V232.727H193.939V224.97ZM209.455 224.97H217.212V232.727H209.455V224.97ZM224.97 224.97H232.727V232.727H224.97V224.97ZM7.75758 232.727H15.5152V240.485H7.75758V232.727ZM38.7879 232.727H46.5455V240.485H38.7879V232.727ZM54.303 232.727H62.0606V240.485H54.303V232.727ZM62.0606 232.727H69.8182V240.485H62.0606V232.727ZM69.8182 232.727H77.5758V240.485H69.8182V232.727ZM85.3333 232.727H93.0909V240.485H85.3333V232.727ZM93.0909 232.727H100.848V240.485H93.0909V232.727ZM100.848 232.727H108.606V240.485H100.848V232.727ZM108.606 232.727H116.364V240.485H108.606V232.727ZM124.121 232.727H131.879V240.485H124.121V232.727ZM131.879 232.727H139.636V240.485H131.879V232.727ZM139.636 232.727H147.394V240.485H139.636V232.727ZM147.394 232.727H155.152V240.485H147.394V232.727ZM162.909 232.727H170.667V240.485H162.909V232.727ZM170.667 232.727H178.424V240.485H170.667V232.727ZM178.424 232.727H186.182V240.485H178.424V232.727ZM209.455 232.727H217.212V240.485H209.455V232.727ZM248.242 232.727H256V240.485H248.242V232.727ZM7.75758 240.485H15.5152V248.242H7.75758V240.485ZM15.5152 240.485H23.2727V248.242H15.5152V240.485ZM23.2727 240.485H31.0303V248.242H23.2727V240.485ZM31.0303 240.485H38.7879V248.242H31.0303V240.485ZM38.7879 240.485H46.5455V248.242H38.7879V240.485ZM54.303 240.485H62.0606V248.242H54.303V240.485ZM69.8182 240.485H77.5758V248.242H69.8182V240.485ZM77.5758 240.485H85.3333V248.242H77.5758V240.485ZM85.3333 240.485H93.0909V248.242H85.3333V240.485ZM100.848 240.485H108.606V248.242H100.848V240.485ZM124.121 240.485H131.879V248.242H124.121V240.485ZM139.636 240.485H147.394V248.242H139.636V240.485ZM147.394 240.485H155.152V248.242H147.394V240.485ZM170.667 240.485H178.424V248.242H170.667V240.485ZM201.697 240.485H209.455V248.242H201.697V240.485ZM209.455 240.485H217.212V248.242H209.455V240.485ZM232.727 240.485H240.485V248.242H232.727V240.485ZM240.485 240.485H248.242V248.242H240.485V240.485ZM248.242 240.485H256V248.242H248.242V240.485ZM54.303 248.242H62.0606V256H54.303V248.242ZM77.5758 248.242H85.3333V256H77.5758V248.242ZM93.0909 248.242H100.848V256H93.0909V248.242ZM116.364 248.242H124.121V256H116.364V248.242ZM124.121 248.242H131.879V256H124.121V248.242ZM131.879 248.242H139.636V256H131.879V248.242ZM139.636 248.242H147.394V256H139.636V248.242ZM155.152 248.242H162.909V256H155.152V248.242ZM170.667 248.242H178.424V256H170.667V248.242ZM178.424 248.242H186.182V256H178.424V248.242ZM201.697 248.242H209.455V256H201.697V248.242ZM224.97 248.242H232.727V256H224.97V248.242ZM232.727 248.242H240.485V256H232.727V248.242ZM240.485 248.242H248.242V256H240.485V248.242Z" fill="white"/>
<path d="M0 0H7.75758V7.75758H0V0ZM7.75758 0H15.5152V7.75758H7.75758V0ZM15.5152 0H23.2727V7.75758H15.5152V0ZM23.2727 0H31.0303V7.75758H23.2727V0ZM31.0303 0H38.7879V7.75758H31.0303V0ZM38.7879 0H46.5455V7.75758H38.7879V0ZM46.5455 0H54.303V7.75758H46.5455V0ZM62.0606 0H69.8182V7.75758H62.0606V0ZM69.8182 0H77.5758V7.75758H69.8182V0ZM77.5758 0H85.3333V7.75758H77.5758V0ZM93.0909 0H100.848V7.75758H93.0909V0ZM100.848 0H108.606V7.75758H100.848V0ZM108.606 0H116.364V7.75758H108.606V0ZM116.364 0H124.121V7.75758H116.364V0ZM124.121 0H131.879V7.75758H124.121V0ZM139.636 0H147.394V7.75758H139.636V0ZM170.667 0H178.424V7.75758H170.667V0ZM178.424 0H186.182V7.75758H178.424V0ZM201.697 0H209.455V7.75758H201.697V0ZM209.455 0H217.212V7.75758H209.455V0ZM217.212 0H224.97V7.75758H217.212V0ZM224.97 0H232.727V7.75758H224.97V0ZM232.727 0H240.485V7.75758H232.727V0ZM240.485 0H248.242V7.75758H240.485V0ZM248.242 0H256V7.75758H248.242V0ZM0 7.75758H7.75758V15.5152H0V7.75758ZM46.5455 7.75758H54.303V15.5152H46.5455V7.75758ZM62.0606 7.75758H69.8182V15.5152H62.0606V7.75758ZM69.8182 7.75758H77.5758V15.5152H69.8182V7.75758ZM77.5758 7.75758H85.3333V15.5152H77.5758V7.75758ZM100.848 7.75758H108.606V15.5152H100.848V7.75758ZM139.636 7.75758H147.394V15.5152H139.636V7.75758ZM147.394 7.75758H155.152V15.5152H147.394V7.75758ZM186.182 7.75758H193.939V15.5152H186.182V7.75758ZM201.697 7.75758H209.455V15.5152H201.697V7.75758ZM248.242 7.75758H256V15.5152H248.242V7.75758ZM0 15.5152H7.75758V23.2727H0V15.5152ZM15.5152 15.5152H23.2727V23.2727H15.5152V15.5152ZM23.2727 15.5152H31.0303V23.2727H23.2727V15.5152ZM31.0303 15.5152H38.7879V23.2727H31.0303V15.5152ZM46.5455 15.5152H54.303V23.2727H46.5455V15.5152ZM62.0606 15.5152H69.8182V23.2727H62.0606V15.5152ZM77.5758 15.5152H85.3333V23.2727H77.5758V15.5152ZM85.3333 15.5152H93.0909V23.2727H85.3333V15.5152ZM108.606 15.5152H116.364V23.2727H108.606V15.5152ZM116.364 15.5152H124.121V23.2727H116.364V15.5152ZM131.879 15.5152H139.636V23.2727H131.879V15.5152ZM139.636 15.5152H147.394V23.2727H139.636V15.5152ZM155.152 15.5152H162.909V23.2727H155.152V15.5152ZM162.909 15.5152H170.667V23.2727H162.909V15.5152ZM170.667 15.5152H178.424V23.2727H170.667V15.5152ZM178.424 15.5152H186.182V23.2727H178.424V15.5152ZM201.697 15.5152H209.455V23.2727H201.697V15.5152ZM217.212 15.5152H224.97V23.2727H217.212V15.5152ZM224.97 15.5152H232.727V23.2727H224.97V15.5152ZM232.727 15.5152H240.485V23.2727H232.727V15.5152ZM248.242 15.5152H256V23.2727H248.242V15.5152ZM0 23.2727H7.75758V31.0303H0V23.2727ZM15.5152 23.2727H23.2727V31.0303H15.5152V23.2727ZM23.2727 23.2727H31.0303V31.0303H23.2727V23.2727ZM31.0303 23.2727H38.7879V31.0303H31.0303V23.2727ZM46.5455 23.2727H54.303V31.0303H46.5455V23.2727ZM62.0606 23.2727H69.8182V31.0303H62.0606V23.2727ZM69.8182 23.2727H77.5758V31.0303H69.8182V23.2727ZM85.3333 23.2727H93.0909V31.0303H85.3333V23.2727ZM100.848 23.2727H108.606V31.0303H100.848V23.2727ZM108.606 23.2727H116.364V31.0303H108.606V23.2727ZM116.364 23.2727H124.121V31.0303H116.364V23.2727ZM124.121 23.2727H131.879V31.0303H124.121V23.2727ZM139.636 23.2727H147.394V31.0303H139.636V23.2727ZM147.394 23.2727H155.152V31.0303H147.394V23.2727ZM170.667 23.2727H178.424V31.0303H170.667V23.2727ZM178.424 23.2727H186.182V31.0303H178.424V23.2727ZM186.182 23.2727H193.939V31.0303H186.182V23.2727ZM201.697 23.2727H209.455V31.0303H201.697V23.2727ZM217.212 23.2727H224.97V31.0303H217.212V23.2727ZM224.97 23.2727H232.727V31.0303H224.97V23.2727ZM232.727 23.2727H240.485V31.0303H232.727V23.2727ZM248.242 23.2727H256V31.0303H248.242V23.2727ZM0 31.0303H7.75758V38.7879H0V31.0303ZM15.5152 31.0303H23.2727V38.7879H15.5152V31.0303ZM23.2727 31.0303H31.0303V38.7879H23.2727V31.0303ZM31.0303 31.0303H38.7879V38.7879H31.0303V31.0303ZM46.5455 31.0303H54.303V38.7879H46.5455V31.0303ZM100.848 31.0303H108.606V38.7879H100.848V31.0303ZM108.606 31.0303H116.364V38.7879H108.606V31.0303ZM116.364 31.0303H124.121V38.7879H116.364V31.0303ZM124.121 31.0303H131.879V38.7879H124.121V31.0303ZM139.636 31.0303H147.394V38.7879H139.636V31.0303ZM147.394 31.0303H155.152V38.7879H147.394V31.0303ZM162.909 31.0303H170.667V38.7879H162.909V31.0303ZM178.424 31.0303H186.182V38.7879H178.424V31.0303ZM201.697 31.0303H209.455V38.7879H201.697V31.0303ZM217.212 31.0303H224.97V38.7879H217.212V31.0303ZM224.97 31.0303H232.727V38.7879H224.97V31.0303ZM232.727 31.0303H240.485V38.7879H232.727V31.0303ZM248.242 31.0303H256V38.7879H248.242V31.0303ZM0 38.7879H7.75758V46.5455H0V38.7879ZM46.5455 38.7879H54.303V46.5455H46.5455V38.7879ZM62.0606 38.7879H69.8182V46.5455H62.0606V38.7879ZM85.3333 38.7879H93.0909V46.5455H85.3333V38.7879ZM93.0909 38.7879H100.848V46.5455H93.0909V38.7879ZM131.879 38.7879H139.636V46.5455H131.879V38.7879ZM147.394 38.7879H155.152V46.5455H147.394V38.7879ZM162.909 38.7879H170.667V46.5455H162.909V38.7879ZM170.667 38.7879H178.424V46.5455H170.667V38.7879ZM201.697 38.7879H209.455V46.5455H201.697V38.7879ZM248.242 38.7879H256V46.5455H248.242V38.7879ZM0 46.5455H7.75758V54.303H0V46.5455ZM7.75758 46.5455H15.5152V54.303H7.75758V46.5455ZM15.5152 46.5455H23.2727V54.303H15.5152V46.5455ZM23.2727 46.5455H31.0303V54.303H23.2727V46.5455ZM31.0303 46.5455H38.7879V54.303H31.0303V46.5455ZM38.7879 46.5455H46.5455V54.303H38.7879V46.5455ZM46.5455 46.5455H54.303V54.303H46.5455V46.5455ZM62.0606 46.5455H69.8182V54.303H62.0606V46.5455ZM77.5758 46.5455H85.3333V54.303H77.5758V46.5455ZM93.0909 46.5455H100.848V54.303H93.0909V46.5455ZM108.606 46.5455H116.364V54.303H108.606V46.5455ZM124.121 46.5455H131.879V54.303H124.121V46.5455ZM139.636 46.5455H147.394V54.303H139.636V46.5455ZM155.152 46.5455H162.909V54.303H155.152V46.5455ZM170.667 46.5455H178.424V54.303H170.667V46.5455ZM186.182 46.5455H193.939V54.303H186.182V46.5455ZM201.697 46.5455H209.455V54.303H201.697V46.5455ZM209.455 46.5455H217.212V54.303H209.455V46.5455ZM217.212 46.5455H224.97V54.303H217.212V46.5455ZM224.97 46.5455H232.727V54.303H224.97V46.5455ZM232.727 46.5455H240.485V54.303H232.727V46.5455ZM240.485 46.5455H248.242V54.303H240.485V46.5455ZM248.242 46.5455H256V54.303H248.242V46.5455ZM69.8182 54.303H77.5758V62.0606H69.8182V54.303ZM93.0909 54.303H100.848V62.0606H93.0909V54.303ZM131.879 54.303H139.636V62.0606H131.879V54.303ZM155.152 54.303H162.909V62.0606H155.152V54.303ZM162.909 54.303H170.667V62.0606H162.909V54.303ZM178.424 54.303H186.182V62.0606H178.424V54.303ZM0 62.0606H7.75758V69.8182H0V62.0606ZM7.75758 62.0606H15.5152V69.8182H7.75758V62.0606ZM31.0303 62.0606H38.7879V69.8182H31.0303V62.0606ZM38.7879 62.0606H46.5455V69.8182H38.7879V62.0606ZM46.5455 62.0606H54.303V69.8182H46.5455V62.0606ZM85.3333 62.0606H93.0909V69.8182H85.3333V62.0606ZM116.364 62.0606H124.121V69.8182H116.364V62.0606ZM155.152 62.0606H162.909V69.8182H155.152V62.0606ZM162.909 62.0606H170.667V69.8182H162.909V62.0606ZM170.667 62.0606H178.424V69.8182H170.667V62.0606ZM186.182 62.0606H193.939V69.8182H186.182V62.0606ZM209.455 62.0606H217.212V69.8182H209.455V62.0606ZM224.97 62.0606H232.727V69.8182H224.97V62.0606ZM232.727 62.0606H240.485V69.8182H232.727V62.0606ZM240.485 62.0606H248.242V69.8182H240.485V62.0606ZM248.242 62.0606H256V69.8182H248.242V62.0606ZM0 69.8182H7.75758V77.5758H0V69.8182ZM23.2727 69.8182H31.0303V77.5758H23.2727V69.8182ZM38.7879 69.8182H46.5455V77.5758H38.7879V69.8182ZM54.303 69.8182H62.0606V77.5758H54.303V69.8182ZM62.0606 69.8182H69.8182V77.5758H62.0606V69.8182ZM69.8182 69.8182H77.5758V77.5758H69.8182V69.8182ZM77.5758 69.8182H85.3333V77.5758H77.5758V69.8182ZM93.0909 69.8182H100.848V77.5758H93.0909V69.8182ZM108.606 69.8182H116.364V77.5758H108.606V69.8182ZM116.364 69.8182H124.121V77.5758H116.364V69.8182ZM124.121 69.8182H131.879V77.5758H124.121V69.8182ZM178.424 69.8182H186.182V77.5758H178.424V69.8182ZM193.939 69.8182H201.697V77.5758H193.939V69.8182ZM209.455 69.8182H217.212V77.5758H209.455V69.8182ZM232.727 69.8182H240.485V77.5758H232.727V69.8182ZM15.5152 77.5758H23.2727V85.3333H15.5152V77.5758ZM23.2727 77.5758H31.0303V85.3333H23.2727V77.5758ZM46.5455 77.5758H54.303V85.3333H46.5455V77.5758ZM85.3333 77.5758H93.0909V85.3333H85.3333V77.5758ZM93.0909 77.5758H100.848V85.3333H93.0909V77.5758ZM116.364 77.5758H124.121V85.3333H116.364V77.5758ZM131.879 77.5758H139.636V85.3333H131.879V77.5758ZM155.152 77.5758H162.909V85.3333H155.152V77.5758ZM170.667 77.5758H178.424V85.3333H170.667V77.5758ZM178.424 77.5758H186.182V85.3333H178.424V77.5758ZM201.697 77.5758H209.455V85.3333H201.697V77.5758ZM232.727 77.5758H240.485V85.3333H232.727V77.5758ZM240.485 77.5758H248.242V85.3333H240.485V77.5758ZM31.0303 85.3333H38.7879V93.0909H31.0303V85.3333ZM38.7879 85.3333H46.5455V93.0909H38.7879V85.3333ZM54.303 85.3333H62.0606V93.0909H54.303V85.3333ZM77.5758 85.3333H85.3333V93.0909H77.5758V85.3333ZM85.3333 85.3333H93.0909V93.0909H85.3333V85.3333ZM108.606 85.3333H116.364V93.0909H108.606V85.3333ZM116.364 85.3333H124.121V93.0909H116.364V85.3333ZM131.879 85.3333H139.636V93.0909H131.879V85.3333ZM147.394 85.3333H155.152V93.0909H147.394V85.3333ZM155.152 85.3333H162.909V93.0909H155.152V85.3333ZM162.909 85.3333H170.667V93.0909H162.909V85.3333ZM186.182 85.3333H193.939V93.0909H186.182V85.3333ZM193.939 85.3333H201.697V93.0909H193.939V85.3333ZM201.697 85.3333H209.455V93.0909H201.697V85.3333ZM209.455 85.3333H217.212V93.0909H209.455V85.3333ZM217.212 85.3333H224.97V93.0909H217.212V85.3333ZM224.97 85.3333H232.727V93.0909H224.97V85.3333ZM7.75758 93.0909H15.5152V100.848H7.75758V93.0909ZM38.7879 93.0909H46.5455V100.848H38.7879V93.0909ZM46.5455 93.0909H54.303V100.848H46.5455V93.0909ZM54.303 93.0909H62.0606V100.848H54.303V93.0909ZM77.5758 93.0909H85.3333V100.848H77.5758V93.0909ZM93.0909 93.0909H100.848V100.848H93.0909V93.0909ZM124.121 93.0909H131.879V100.848H124.121V93.0909ZM147.394 93.0909H155.152V100.848H147.394V93.0909ZM155.152 93.0909H162.909V100.848H155.152V93.0909ZM162.909 93.0909H170.667V100.848H162.909V93.0909ZM170.667 93.0909H178.424V100.848H170.667V93.0909ZM178.424 93.0909H186.182V100.848H178.424V93.0909ZM186.182 93.0909H193.939V100.848H186.182V93.0909ZM193.939 93.0909H201.697V100.848H193.939V93.0909ZM201.697 93.0909H209.455V100.848H201.697V93.0909ZM209.455 93.0909H217.212V100.848H209.455V93.0909ZM217.212 93.0909H224.97V100.848H217.212V93.0909ZM224.97 93.0909H232.727V100.848H224.97V93.0909ZM240.485 93.0909H248.242V100.848H240.485V93.0909ZM248.242 93.0909H256V100.848H248.242V93.0909ZM15.5152 100.848H23.2727V108.606H15.5152V100.848ZM23.2727 100.848H31.0303V108.606H23.2727V100.848ZM38.7879 100.848H46.5455V108.606H38.7879V100.848ZM62.0606 100.848H69.8182V108.606H62.0606V100.848ZM69.8182 100.848H77.5758V108.606H69.8182V100.848ZM108.606 100.848H116.364V108.606H108.606V100.848ZM116.364 100.848H124.121V108.606H116.364V100.848ZM124.121 100.848H131.879V108.606H124.121V100.848ZM162.909 100.848H170.667V108.606H162.909V100.848ZM178.424 100.848H186.182V108.606H178.424V100.848ZM186.182 100.848H193.939V108.606H186.182V100.848ZM193.939 100.848H201.697V108.606H193.939V100.848ZM209.455 100.848H217.212V108.606H209.455V100.848ZM7.75758 108.606H15.5152V116.364H7.75758V108.606ZM15.5152 108.606H23.2727V116.364H15.5152V108.606ZM31.0303 108.606H38.7879V116.364H31.0303V108.606ZM46.5455 108.606H54.303V116.364H46.5455V108.606ZM54.303 108.606H62.0606V116.364H54.303V108.606ZM100.848 108.606H108.606V116.364H100.848V108.606ZM108.606 108.606H116.364V116.364H108.606V108.606ZM116.364 108.606H124.121V116.364H116.364V108.606ZM139.636 108.606H147.394V116.364H139.636V108.606ZM155.152 108.606H162.909V116.364H155.152V108.606ZM162.909 108.606H170.667V116.364H162.909V108.606ZM178.424 108.606H186.182V116.364H178.424V108.606ZM193.939 108.606H201.697V116.364H193.939V108.606ZM201.697 108.606H209.455V116.364H201.697V108.606ZM224.97 108.606H232.727V116.364H224.97V108.606ZM232.727 108.606H240.485V116.364H232.727V108.606ZM240.485 108.606H248.242V116.364H240.485V108.606ZM15.5152 116.364H23.2727V124.121H15.5152V116.364ZM23.2727 116.364H31.0303V124.121H23.2727V116.364ZM77.5758 116.364H85.3333V124.121H77.5758V116.364ZM93.0909 116.364H100.848V124.121H93.0909V116.364ZM131.879 116.364H139.636V124.121H131.879V116.364ZM162.909 116.364H170.667V124.121H162.909V116.364ZM170.667 116.364H178.424V124.121H170.667V116.364ZM193.939 116.364H201.697V124.121H193.939V116.364ZM224.97 116.364H232.727V124.121H224.97V116.364ZM0 124.121H7.75758V131.879H0V124.121ZM15.5152 124.121H23.2727V131.879H15.5152V124.121ZM23.2727 124.121H31.0303V131.879H23.2727V124.121ZM38.7879 124.121H46.5455V131.879H38.7879V124.121ZM46.5455 124.121H54.303V131.879H46.5455V124.121ZM69.8182 124.121H77.5758V131.879H69.8182V124.121ZM77.5758 124.121H85.3333V131.879H77.5758V124.121ZM85.3333 124.121H93.0909V131.879H85.3333V124.121ZM116.364 124.121H124.121V131.879H116.364V124.121ZM131.879 124.121H139.636V131.879H131.879V124.121ZM147.394 124.121H155.152V131.879H147.394V124.121ZM162.909 124.121H170.667V131.879H162.909V124.121ZM170.667 124.121H178.424V131.879H170.667V124.121ZM186.182 124.121H193.939V131.879H186.182V124.121ZM201.697 124.121H209.455V131.879H201.697V124.121ZM217.212 124.121H224.97V131.879H217.212V124.121ZM248.242 124.121H256V131.879H248.242V124.121ZM0 131.879H7.75758V139.636H0V131.879ZM15.5152 131.879H23.2727V139.636H15.5152V131.879ZM31.0303 131.879H38.7879V139.636H31.0303V131.879ZM38.7879 131.879H46.5455V139.636H38.7879V131.879ZM54.303 131.879H62.0606V139.636H54.303V131.879ZM69.8182 131.879H77.5758V139.636H69.8182V131.879ZM93.0909 131.879H100.848V139.636H93.0909V131.879ZM100.848 131.879H108.606V139.636H100.848V131.879ZM108.606 131.879H116.364V139.636H108.606V131.879ZM116.364 131.879H124.121V139.636H116.364V131.879ZM131.879 131.879H139.636V139.636H131.879V131.879ZM139.636 131.879H147.394V139.636H139.636V131.879ZM155.152 131.879H162.909V139.636H155.152V131.879ZM178.424 131.879H186.182V139.636H178.424V131.879ZM193.939 131.879H201.697V139.636H193.939V131.879ZM209.455 131.879H217.212V139.636H209.455V131.879ZM224.97 131.879H232.727V139.636H224.97V131.879ZM15.5152 139.636H23.2727V147.394H15.5152V139.636ZM31.0303 139.636H38.7879V147.394H31.0303V139.636ZM38.7879 139.636H46.5455V147.394H38.7879V139.636ZM46.5455 139.636H54.303V147.394H46.5455V139.636ZM85.3333 139.636H93.0909V147.394H85.3333V139.636ZM93.0909 139.636H100.848V147.394H93.0909V139.636ZM108.606 139.636H116.364V147.394H108.606V139.636ZM116.364 139.636H124.121V147.394H116.364V139.636ZM131.879 139.636H139.636V147.394H131.879V139.636ZM139.636 139.636H147.394V147.394H139.636V139.636ZM162.909 139.636H170.667V147.394H162.909V139.636ZM170.667 139.636H178.424V147.394H170.667V139.636ZM178.424 139.636H186.182V147.394H178.424V139.636ZM186.182 139.636H193.939V147.394H186.182V139.636ZM193.939 139.636H201.697V147.394H193.939V139.636ZM217.212 139.636H224.97V147.394H217.212V139.636ZM232.727 139.636H240.485V147.394H232.727V139.636ZM240.485 139.636H248.242V147.394H240.485V139.636ZM15.5152 147.394H23.2727V155.152H15.5152V147.394ZM31.0303 147.394H38.7879V155.152H31.0303V147.394ZM62.0606 147.394H69.8182V155.152H62.0606V147.394ZM77.5758 147.394H85.3333V155.152H77.5758V147.394ZM85.3333 147.394H93.0909V155.152H85.3333V147.394ZM108.606 147.394H116.364V155.152H108.606V147.394ZM124.121 147.394H131.879V155.152H124.121V147.394ZM131.879 147.394H139.636V155.152H131.879V147.394ZM139.636 147.394H147.394V155.152H139.636V147.394ZM155.152 147.394H162.909V155.152H155.152V147.394ZM162.909 147.394H170.667V155.152H162.909V147.394ZM178.424 147.394H186.182V155.152H178.424V147.394ZM186.182 147.394H193.939V155.152H186.182V147.394ZM209.455 147.394H217.212V155.152H209.455V147.394ZM224.97 147.394H232.727V155.152H224.97V147.394ZM0 155.152H7.75758V162.909H0V155.152ZM7.75758 155.152H15.5152V162.909H7.75758V155.152ZM38.7879 155.152H46.5455V162.909H38.7879V155.152ZM46.5455 155.152H54.303V162.909H46.5455V155.152ZM54.303 155.152H62.0606V162.909H54.303V155.152ZM62.0606 155.152H69.8182V162.909H62.0606V155.152ZM77.5758 155.152H85.3333V162.909H77.5758V155.152ZM93.0909 155.152H100.848V162.909H93.0909V155.152ZM147.394 155.152H155.152V162.909H147.394V155.152ZM162.909 155.152H170.667V162.909H162.909V155.152ZM170.667 155.152H178.424V162.909H170.667V155.152ZM186.182 155.152H193.939V162.909H186.182V155.152ZM201.697 155.152H209.455V162.909H201.697V155.152ZM217.212 155.152H224.97V162.909H217.212V155.152ZM248.242 155.152H256V162.909H248.242V155.152ZM0 162.909H7.75758V170.667H0V162.909ZM7.75758 162.909H15.5152V170.667H7.75758V162.909ZM15.5152 162.909H23.2727V170.667H15.5152V162.909ZM38.7879 162.909H46.5455V170.667H38.7879V162.909ZM54.303 162.909H62.0606V170.667H54.303V162.909ZM100.848 162.909H108.606V170.667H100.848V162.909ZM108.606 162.909H116.364V170.667H108.606V162.909ZM116.364 162.909H124.121V170.667H116.364V162.909ZM124.121 162.909H131.879V170.667H124.121V162.909ZM131.879 162.909H139.636V170.667H131.879V162.909ZM139.636 162.909H147.394V170.667H139.636V162.909ZM162.909 162.909H170.667V170.667H162.909V162.909ZM178.424 162.909H186.182V170.667H178.424V162.909ZM193.939 162.909H201.697V170.667H193.939V162.909ZM209.455 162.909H217.212V170.667H209.455V162.909ZM224.97 162.909H232.727V170.667H224.97V162.909ZM15.5152 170.667H23.2727V178.424H15.5152V170.667ZM46.5455 170.667H54.303V178.424H46.5455V170.667ZM54.303 170.667H62.0606V178.424H54.303V170.667ZM62.0606 170.667H69.8182V178.424H62.0606V170.667ZM77.5758 170.667H85.3333V178.424H77.5758V170.667ZM108.606 170.667H116.364V178.424H108.606V170.667ZM116.364 170.667H124.121V178.424H116.364V170.667ZM131.879 170.667H139.636V178.424H131.879V170.667ZM139.636 170.667H147.394V178.424H139.636V170.667ZM162.909 170.667H170.667V178.424H162.909V170.667ZM170.667 170.667H178.424V178.424H170.667V170.667ZM178.424 170.667H186.182V178.424H178.424V170.667ZM186.182 170.667H193.939V178.424H186.182V170.667ZM193.939 170.667H201.697V178.424H193.939V170.667ZM232.727 170.667H240.485V178.424H232.727V170.667ZM240.485 170.667H248.242V178.424H240.485V170.667ZM15.5152 178.424H23.2727V186.182H15.5152V178.424ZM23.2727 178.424H31.0303V186.182H23.2727V178.424ZM38.7879 178.424H46.5455V186.182H38.7879V178.424ZM54.303 178.424H62.0606V186.182H54.303V178.424ZM62.0606 178.424H69.8182V186.182H62.0606V178.424ZM69.8182 178.424H77.5758V186.182H69.8182V178.424ZM93.0909 178.424H100.848V186.182H93.0909V178.424ZM116.364 178.424H124.121V186.182H116.364V178.424ZM131.879 178.424H139.636V186.182H131.879V178.424ZM162.909 178.424H170.667V186.182H162.909V178.424ZM186.182 178.424H193.939V186.182H186.182V178.424ZM193.939 178.424H201.697V186.182H193.939V178.424ZM209.455 178.424H217.212V186.182H209.455V178.424ZM0 186.182H7.75758V193.939H0V186.182ZM7.75758 186.182H15.5152V193.939H7.75758V186.182ZM38.7879 186.182H46.5455V193.939H38.7879V186.182ZM46.5455 186.182H54.303V193.939H46.5455V186.182ZM54.303 186.182H62.0606V193.939H54.303V186.182ZM62.0606 186.182H69.8182V193.939H62.0606V186.182ZM85.3333 186.182H93.0909V193.939H85.3333V186.182ZM100.848 186.182H108.606V193.939H100.848V186.182ZM108.606 186.182H116.364V193.939H108.606V186.182ZM124.121 186.182H131.879V193.939H124.121V186.182ZM131.879 186.182H139.636V193.939H131.879V186.182ZM147.394 186.182H155.152V193.939H147.394V186.182ZM162.909 186.182H170.667V193.939H162.909V186.182ZM170.667 186.182H178.424V193.939H170.667V186.182ZM186.182 186.182H193.939V193.939H186.182V186.182ZM193.939 186.182H201.697V193.939H193.939V186.182ZM201.697 186.182H209.455V193.939H201.697V186.182ZM209.455 186.182H217.212V193.939H209.455V186.182ZM217.212 186.182H224.97V193.939H217.212V186.182ZM224.97 186.182H232.727V193.939H224.97V186.182ZM240.485 186.182H248.242V193.939H240.485V186.182ZM62.0606 193.939H69.8182V201.697H62.0606V193.939ZM69.8182 193.939H77.5758V201.697H69.8182V193.939ZM93.0909 193.939H100.848V201.697H93.0909V193.939ZM108.606 193.939H116.364V201.697H108.606V193.939ZM116.364 193.939H124.121V201.697H116.364V193.939ZM124.121 193.939H131.879V201.697H124.121V193.939ZM147.394 193.939H155.152V201.697H147.394V193.939ZM162.909 193.939H170.667V201.697H162.909V193.939ZM178.424 193.939H186.182V201.697H178.424V193.939ZM186.182 193.939H193.939V201.697H186.182V193.939ZM217.212 193.939H224.97V201.697H217.212V193.939ZM232.727 193.939H240.485V201.697H232.727V193.939ZM240.485 193.939H248.242V201.697H240.485V193.939ZM0 201.697H7.75758V209.455H0V201.697ZM7.75758 201.697H15.5152V209.455H7.75758V201.697ZM15.5152 201.697H23.2727V209.455H15.5152V201.697ZM23.2727 201.697H31.0303V209.455H23.2727V201.697ZM31.0303 201.697H38.7879V209.455H31.0303V201.697ZM38.7879 201.697H46.5455V209.455H38.7879V201.697ZM46.5455 201.697H54.303V209.455H46.5455V201.697ZM77.5758 201.697H85.3333V209.455H77.5758V201.697ZM85.3333 201.697H93.0909V209.455H85.3333V201.697ZM93.0909 201.697H100.848V209.455H93.0909V201.697ZM100.848 201.697H108.606V209.455H100.848V201.697ZM108.606 201.697H116.364V209.455H108.606V201.697ZM116.364 201.697H124.121V209.455H116.364V201.697ZM162.909 201.697H170.667V209.455H162.909V201.697ZM186.182 201.697H193.939V209.455H186.182V201.697ZM201.697 201.697H209.455V209.455H201.697V201.697ZM217.212 201.697H224.97V209.455H217.212V201.697ZM240.485 201.697H248.242V209.455H240.485V201.697ZM0 209.455H7.75758V217.212H0V209.455ZM46.5455 209.455H54.303V217.212H46.5455V209.455ZM62.0606 209.455H69.8182V217.212H62.0606V209.455ZM69.8182 209.455H77.5758V217.212H69.8182V209.455ZM85.3333 209.455H93.0909V217.212H85.3333V209.455ZM100.848 209.455H108.606V217.212H100.848V209.455ZM131.879 209.455H139.636V217.212H131.879V209.455ZM139.636 209.455H147.394V217.212H139.636V209.455ZM147.394 209.455H155.152V217.212H147.394V209.455ZM155.152 209.455H162.909V217.212H155.152V209.455ZM162.909 209.455H170.667V217.212H162.909V209.455ZM186.182 209.455H193.939V217.212H186.182V209.455ZM217.212 209.455H224.97V217.212H217.212V209.455ZM240.485 209.455H248.242V217.212H240.485V209.455ZM0 217.212H7.75758V224.97H0V217.212ZM15.5152 217.212H23.2727V224.97H15.5152V217.212ZM23.2727 217.212H31.0303V224.97H23.2727V217.212ZM31.0303 217.212H38.7879V224.97H31.0303V217.212ZM46.5455 217.212H54.303V224.97H46.5455V217.212ZM62.0606 217.212H69.8182V224.97H62.0606V217.212ZM69.8182 217.212H77.5758V224.97H69.8182V217.212ZM93.0909 217.212H100.848V224.97H93.0909V217.212ZM100.848 217.212H108.606V224.97H100.848V217.212ZM124.121 217.212H131.879V224.97H124.121V217.212ZM147.394 217.212H155.152V224.97H147.394V217.212ZM162.909 217.212H170.667V224.97H162.909V217.212ZM186.182 217.212H193.939V224.97H186.182V217.212ZM193.939 217.212H201.697V224.97H193.939V217.212ZM201.697 217.212H209.455V224.97H201.697V217.212ZM209.455 217.212H217.212V224.97H209.455V217.212ZM217.212 217.212H224.97V224.97H217.212V217.212ZM224.97 217.212H232.727V224.97H224.97V217.212ZM240.485 217.212H248.242V224.97H240.485V217.212ZM248.242 217.212H256V224.97H248.242V217.212ZM0 224.97H7.75758V232.727H0V224.97ZM15.5152 224.97H23.2727V232.727H15.5152V224.97ZM23.2727 224.97H31.0303V232.727H23.2727V224.97ZM31.0303 224.97H38.7879V232.727H31.0303V224.97ZM46.5455 224.97H54.303V232.727H46.5455V224.97ZM69.8182 224.97H77.5758V232.727H69.8182V224.97ZM77.5758 224.97H85.3333V232.727H77.5758V224.97ZM100.848 224.97H108.606V232.727H100.848V224.97ZM108.606 224.97H116.364V232.727H108.606V224.97ZM116.364 224.97H124.121V232.727H116.364V224.97ZM139.636 224.97H147.394V232.727H139.636V224.97ZM155.152 224.97H162.909V232.727H155.152V224.97ZM162.909 224.97H170.667V232.727H162.909V224.97ZM201.697 224.97H209.455V232.727H201.697V224.97ZM217.212 224.97H224.97V232.727H217.212V224.97ZM232.727 224.97H240.485V232.727H232.727V224.97ZM240.485 224.97H248.242V232.727H240.485V224.97ZM248.242 224.97H256V232.727H248.242V224.97ZM0 232.727H7.75758V240.485H0V232.727ZM15.5152 232.727H23.2727V240.485H15.5152V232.727ZM23.2727 232.727H31.0303V240.485H23.2727V232.727ZM31.0303 232.727H38.7879V240.485H31.0303V232.727ZM46.5455 232.727H54.303V240.485H46.5455V232.727ZM77.5758 232.727H85.3333V240.485H77.5758V232.727ZM116.364 232.727H124.121V240.485H116.364V232.727ZM155.152 232.727H162.909V240.485H155.152V232.727ZM186.182 232.727H193.939V240.485H186.182V232.727ZM193.939 232.727H201.697V240.485H193.939V232.727ZM201.697 232.727H209.455V240.485H201.697V232.727ZM217.212 232.727H224.97V240.485H217.212V232.727ZM224.97 232.727H232.727V240.485H224.97V232.727ZM232.727 232.727H240.485V240.485H232.727V232.727ZM240.485 232.727H248.242V240.485H240.485V232.727ZM0 240.485H7.75758V248.242H0V240.485ZM46.5455 240.485H54.303V248.242H46.5455V240.485ZM62.0606 240.485H69.8182V248.242H62.0606V240.485ZM93.0909 240.485H100.848V248.242H93.0909V240.485ZM108.606 240.485H116.364V248.242H108.606V240.485ZM116.364 240.485H124.121V248.242H116.364V240.485ZM131.879 240.485H139.636V248.242H131.879V240.485ZM155.152 240.485H162.909V248.242H155.152V240.485ZM162.909 240.485H170.667V248.242H162.909V240.485ZM178.424 240.485H186.182V248.242H178.424V240.485ZM186.182 240.485H193.939V248.242H186.182V240.485ZM193.939 240.485H201.697V248.242H193.939V240.485ZM217.212 240.485H224.97V248.242H217.212V240.485ZM224.97 240.485H232.727V248.242H224.97V240.485ZM0 248.242H7.75758V256H0V248.242ZM7.75758 248.242H15.5152V256H7.75758V248.242ZM15.5152 248.242H23.2727V256H15.5152V248.242ZM23.2727 248.242H31.0303V256H23.2727V248.242ZM31.0303 248.242H38.7879V256H31.0303V248.242ZM38.7879 248.242H46.5455V256H38.7879V248.242ZM46.5455 248.242H54.303V256H46.5455V248.242ZM62.0606 248.242H69.8182V256H62.0606V248.242ZM69.8182 248.242H77.5758V256H69.8182V248.242ZM85.3333 248.242H93.0909V256H85.3333V248.242ZM100.848 248.242H108.606V256H100.848V248.242ZM108.606 248.242H116.364V256H108.606V248.242ZM147.394 248.242H155.152V256H147.394V248.242ZM162.909 248.242H170.667V256H162.909V248.242ZM186.182 248.242H193.939V256H186.182V248.242ZM193.939 248.242H201.697V256H193.939V248.242ZM209.455 248.242H217.212V256H209.455V248.242ZM217.212 248.242H224.97V256H217.212V248.242ZM248.242 248.242H256V256H248.242V248.242Z" fill="black" fill-opacity="0.5"/>
<rect x="44" y="99" width="168.141" height="57" fill="white" stroke="black" stroke-width="8"/>
<path d="M78.7757 133C78.6584 133 78.5677 132.968 78.5037 132.904C78.4397 132.829 78.4077 132.739 78.4077 132.632V122.184C78.4077 122.067 78.4397 121.976 78.5037 121.912C78.5677 121.837 78.6584 121.8 78.7757 121.8H85.3837C85.5011 121.8 85.5917 121.837 85.6557 121.912C85.7197 121.976 85.7517 122.067 85.7517 122.184V122.792C85.7517 122.909 85.7197 123 85.6557 123.064C85.5917 123.128 85.5011 123.16 85.3837 123.16H79.9437V126.664H85.0317C85.1491 126.664 85.2397 126.701 85.3037 126.776C85.3677 126.84 85.3997 126.931 85.3997 127.048V127.64C85.3997 127.747 85.3677 127.837 85.3037 127.912C85.2397 127.976 85.1491 128.008 85.0317 128.008H79.9437V131.64H85.5117C85.6291 131.64 85.7197 131.672 85.7837 131.736C85.8477 131.8 85.8797 131.891 85.8797 132.008V132.632C85.8797 132.739 85.8477 132.829 85.7837 132.904C85.7197 132.968 85.6291 133 85.5117 133H78.7757ZM90.5645 133C90.4045 133 90.2765 132.963 90.1805 132.888C90.0951 132.813 90.0258 132.717 89.9725 132.6L87.0125 125.176C86.9911 125.123 86.9805 125.069 86.9805 125.016C86.9805 124.92 87.0125 124.84 87.0765 124.776C87.1405 124.712 87.2205 124.68 87.3165 124.68H88.0845C88.2018 124.68 88.2925 124.712 88.3565 124.776C88.4205 124.84 88.4578 124.899 88.4685 124.952L90.9165 131.256L93.3485 124.952C93.3698 124.899 93.4071 124.84 93.4605 124.776C93.5245 124.712 93.6151 124.68 93.7325 124.68H94.5165C94.6018 124.68 94.6765 124.712 94.7405 124.776C94.8151 124.84 94.8525 124.92 94.8525 125.016C94.8525 125.069 94.8418 125.123 94.8205 125.176L91.8445 132.6C91.8018 132.717 91.7325 132.813 91.6365 132.888C91.5511 132.963 91.4231 133 91.2525 133H90.5645ZM99.543 133.16C98.4443 133.16 97.5696 132.824 96.919 132.152C96.2683 131.469 95.911 130.541 95.847 129.368C95.8363 129.229 95.831 129.053 95.831 128.84C95.831 128.616 95.8363 128.435 95.847 128.296C95.8896 127.539 96.0656 126.877 96.375 126.312C96.6843 125.736 97.1056 125.293 97.639 124.984C98.183 124.675 98.8176 124.52 99.543 124.52C100.354 124.52 101.031 124.691 101.575 125.032C102.13 125.373 102.551 125.859 102.839 126.488C103.127 127.117 103.271 127.853 103.271 128.696V128.968C103.271 129.085 103.234 129.176 103.159 129.24C103.095 129.304 103.01 129.336 102.903 129.336H97.367C97.367 129.347 97.367 129.368 97.367 129.4C97.367 129.432 97.367 129.459 97.367 129.48C97.3883 129.917 97.4843 130.328 97.655 130.712C97.8256 131.085 98.071 131.389 98.391 131.624C98.711 131.859 99.095 131.976 99.543 131.976C99.927 131.976 100.247 131.917 100.503 131.8C100.759 131.683 100.967 131.555 101.127 131.416C101.287 131.267 101.394 131.155 101.447 131.08C101.543 130.941 101.618 130.861 101.671 130.84C101.724 130.808 101.81 130.792 101.927 130.792H102.695C102.802 130.792 102.887 130.824 102.951 130.888C103.026 130.941 103.058 131.021 103.047 131.128C103.036 131.288 102.951 131.485 102.791 131.72C102.631 131.944 102.402 132.168 102.103 132.392C101.804 132.616 101.442 132.803 101.015 132.952C100.588 133.091 100.098 133.16 99.543 133.16ZM97.367 128.232H101.751V128.184C101.751 127.704 101.66 127.277 101.479 126.904C101.308 126.531 101.058 126.237 100.727 126.024C100.396 125.8 100.002 125.688 99.543 125.688C99.0843 125.688 98.6896 125.8 98.359 126.024C98.039 126.237 97.7936 126.531 97.623 126.904C97.4523 127.277 97.367 127.704 97.367 128.184V128.232ZM105.552 133C105.445 133 105.355 132.968 105.28 132.904C105.216 132.829 105.184 132.739 105.184 132.632V125.048C105.184 124.941 105.216 124.856 105.28 124.792C105.355 124.717 105.445 124.68 105.552 124.68H106.304C106.411 124.68 106.496 124.717 106.56 124.792C106.635 124.856 106.672 124.941 106.672 125.048V125.752C106.949 125.389 107.296 125.096 107.712 124.872C108.139 124.637 108.683 124.52 109.344 124.52C110.037 124.52 110.624 124.675 111.104 124.984C111.595 125.283 111.963 125.704 112.208 126.248C112.453 126.781 112.576 127.405 112.576 128.12V132.632C112.576 132.739 112.544 132.829 112.48 132.904C112.416 132.968 112.331 133 112.224 133H111.424C111.317 133 111.227 132.968 111.152 132.904C111.088 132.829 111.056 132.739 111.056 132.632V128.2C111.056 127.453 110.875 126.872 110.512 126.456C110.149 126.029 109.616 125.816 108.912 125.816C108.251 125.816 107.717 126.029 107.312 126.456C106.917 126.872 106.72 127.453 106.72 128.2V132.632C106.72 132.739 106.683 132.829 106.608 132.904C106.544 132.968 106.459 133 106.352 133H105.552ZM118.026 133C117.429 133 116.943 132.888 116.57 132.664C116.197 132.429 115.925 132.104 115.754 131.688C115.583 131.261 115.498 130.76 115.498 130.184V125.96H114.25C114.143 125.96 114.053 125.928 113.978 125.864C113.914 125.789 113.882 125.699 113.882 125.592V125.048C113.882 124.941 113.914 124.856 113.978 124.792C114.053 124.717 114.143 124.68 114.25 124.68H115.498V122.008C115.498 121.901 115.53 121.816 115.594 121.752C115.669 121.677 115.759 121.64 115.866 121.64H116.618C116.725 121.64 116.81 121.677 116.874 121.752C116.949 121.816 116.986 121.901 116.986 122.008V124.68H118.97C119.077 124.68 119.162 124.717 119.226 124.792C119.301 124.856 119.338 124.941 119.338 125.048V125.592C119.338 125.699 119.301 125.789 119.226 125.864C119.162 125.928 119.077 125.96 118.97 125.96H116.986V130.072C116.986 130.573 117.071 130.968 117.242 131.256C117.413 131.544 117.717 131.688 118.154 131.688H119.13C119.237 131.688 119.322 131.725 119.386 131.8C119.461 131.864 119.498 131.949 119.498 132.056V132.632C119.498 132.739 119.461 132.829 119.386 132.904C119.322 132.968 119.237 133 119.13 133H118.026ZM128.262 133.16C127.163 133.16 126.288 132.824 125.638 132.152C124.987 131.469 124.63 130.541 124.566 129.368C124.555 129.229 124.55 129.053 124.55 128.84C124.55 128.616 124.555 128.435 124.566 128.296C124.608 127.539 124.784 126.877 125.094 126.312C125.403 125.736 125.824 125.293 126.358 124.984C126.902 124.675 127.536 124.52 128.262 124.52C129.072 124.52 129.75 124.691 130.294 125.032C130.848 125.373 131.27 125.859 131.558 126.488C131.846 127.117 131.99 127.853 131.99 128.696V128.968C131.99 129.085 131.952 129.176 131.878 129.24C131.814 129.304 131.728 129.336 131.622 129.336H126.086C126.086 129.347 126.086 129.368 126.086 129.4C126.086 129.432 126.086 129.459 126.086 129.48C126.107 129.917 126.203 130.328 126.374 130.712C126.544 131.085 126.79 131.389 127.11 131.624C127.43 131.859 127.814 131.976 128.262 131.976C128.646 131.976 128.966 131.917 129.222 131.8C129.478 131.683 129.686 131.555 129.846 131.416C130.006 131.267 130.112 131.155 130.166 131.08C130.262 130.941 130.336 130.861 130.39 130.84C130.443 130.808 130.528 130.792 130.646 130.792H131.414C131.52 130.792 131.606 130.824 131.67 130.888C131.744 130.941 131.776 131.021 131.766 131.128C131.755 131.288 131.67 131.485 131.51 131.72C131.35 131.944 131.12 132.168 130.822 132.392C130.523 132.616 130.16 132.803 129.734 132.952C129.307 133.091 128.816 133.16 128.262 133.16ZM126.086 128.232H130.47V128.184C130.47 127.704 130.379 127.277 130.198 126.904C130.027 126.531 129.776 126.237 129.446 126.024C129.115 125.8 128.72 125.688 128.262 125.688C127.803 125.688 127.408 125.8 127.078 126.024C126.758 126.237 126.512 126.531 126.342 126.904C126.171 127.277 126.086 127.704 126.086 128.184V128.232ZM133.347 133C133.262 133 133.182 132.968 133.107 132.904C133.043 132.84 133.011 132.76 133.011 132.664C133.011 132.632 133.016 132.595 133.027 132.552C133.048 132.499 133.08 132.44 133.123 132.376L135.907 128.744L133.299 125.304C133.256 125.24 133.224 125.187 133.203 125.144C133.192 125.101 133.187 125.059 133.187 125.016C133.187 124.92 133.219 124.84 133.283 124.776C133.347 124.712 133.427 124.68 133.523 124.68H134.339C134.456 124.68 134.542 124.712 134.595 124.776C134.659 124.829 134.712 124.883 134.755 124.936L136.883 127.704L139.011 124.952C139.054 124.899 139.102 124.84 139.155 124.776C139.219 124.712 139.31 124.68 139.427 124.68H140.211C140.307 124.68 140.387 124.712 140.451 124.776C140.515 124.84 140.547 124.92 140.547 125.016C140.547 125.059 140.536 125.101 140.515 125.144C140.504 125.187 140.478 125.24 140.435 125.304L137.795 128.776L140.579 132.376C140.622 132.44 140.648 132.493 140.659 132.536C140.68 132.579 140.691 132.621 140.691 132.664C140.691 132.76 140.659 132.84 140.595 132.904C140.531 132.968 140.451 133 140.355 133H139.507C139.4 133 139.315 132.973 139.251 132.92C139.187 132.867 139.134 132.813 139.091 132.76L136.835 129.832L134.579 132.76C134.536 132.803 134.483 132.856 134.419 132.92C134.366 132.973 134.28 133 134.163 133H133.347ZM142.74 136.04C142.633 136.04 142.543 136.003 142.468 135.928C142.404 135.864 142.372 135.779 142.372 135.672V125.048C142.372 124.941 142.404 124.856 142.468 124.792C142.543 124.717 142.633 124.68 142.74 124.68H143.476C143.583 124.68 143.668 124.717 143.732 124.792C143.807 124.856 143.844 124.941 143.844 125.048V125.752C144.1 125.4 144.441 125.107 144.868 124.872C145.295 124.637 145.828 124.52 146.468 124.52C147.065 124.52 147.572 124.621 147.988 124.824C148.415 125.027 148.761 125.304 149.028 125.656C149.305 126.008 149.513 126.408 149.652 126.856C149.791 127.304 149.865 127.784 149.876 128.296C149.887 128.467 149.892 128.648 149.892 128.84C149.892 129.032 149.887 129.213 149.876 129.384C149.865 129.885 149.791 130.365 149.652 130.824C149.513 131.272 149.305 131.672 149.028 132.024C148.761 132.365 148.415 132.643 147.988 132.856C147.572 133.059 147.065 133.16 146.468 133.16C145.849 133.16 145.327 133.048 144.9 132.824C144.484 132.589 144.143 132.301 143.876 131.96V135.672C143.876 135.779 143.844 135.864 143.78 135.928C143.716 136.003 143.625 136.04 143.508 136.04H142.74ZM146.132 131.864C146.687 131.864 147.119 131.747 147.428 131.512C147.748 131.267 147.977 130.952 148.116 130.568C148.255 130.173 148.335 129.752 148.356 129.304C148.367 128.995 148.367 128.685 148.356 128.376C148.335 127.928 148.255 127.512 148.116 127.128C147.977 126.733 147.748 126.419 147.428 126.184C147.119 125.939 146.687 125.816 146.132 125.816C145.609 125.816 145.183 125.939 144.852 126.184C144.532 126.429 144.292 126.744 144.132 127.128C143.983 127.501 143.897 127.885 143.876 128.28C143.865 128.451 143.86 128.653 143.86 128.888C143.86 129.123 143.865 129.331 143.876 129.512C143.887 129.885 143.972 130.253 144.132 130.616C144.303 130.979 144.553 131.277 144.884 131.512C145.215 131.747 145.631 131.864 146.132 131.864ZM152.255 133C152.149 133 152.058 132.968 151.983 132.904C151.919 132.829 151.887 132.739 151.887 132.632V125.048C151.887 124.941 151.919 124.856 151.983 124.792C152.058 124.717 152.149 124.68 152.255 124.68H153.023C153.13 124.68 153.215 124.717 153.279 124.792C153.343 124.856 153.375 124.941 153.375 125.048V132.632C153.375 132.739 153.343 132.829 153.279 132.904C153.215 132.968 153.13 133 153.023 133H152.255ZM152.127 123.128C152.021 123.128 151.93 123.096 151.855 123.032C151.791 122.957 151.759 122.867 151.759 122.76V121.896C151.759 121.789 151.791 121.704 151.855 121.64C151.93 121.565 152.021 121.528 152.127 121.528H153.135C153.242 121.528 153.327 121.565 153.391 121.64C153.466 121.704 153.503 121.789 153.503 121.896V122.76C153.503 122.867 153.466 122.957 153.391 123.032C153.327 123.096 153.242 123.128 153.135 123.128H152.127ZM156.286 133C156.18 133 156.089 132.968 156.014 132.904C155.95 132.829 155.918 132.739 155.918 132.632V125.064C155.918 124.957 155.95 124.867 156.014 124.792C156.089 124.717 156.18 124.68 156.286 124.68H157.022C157.129 124.68 157.22 124.717 157.294 124.792C157.369 124.867 157.406 124.957 157.406 125.064V125.768C157.62 125.405 157.913 125.133 158.286 124.952C158.66 124.771 159.108 124.68 159.63 124.68H160.27C160.377 124.68 160.462 124.717 160.526 124.792C160.59 124.856 160.622 124.941 160.622 125.048V125.704C160.622 125.811 160.59 125.896 160.526 125.96C160.462 126.024 160.377 126.056 160.27 126.056H159.31C158.734 126.056 158.281 126.227 157.95 126.568C157.62 126.899 157.454 127.352 157.454 127.928V132.632C157.454 132.739 157.417 132.829 157.342 132.904C157.268 132.968 157.177 133 157.07 133H156.286ZM165.152 133.16C164.054 133.16 163.179 132.824 162.528 132.152C161.878 131.469 161.52 130.541 161.456 129.368C161.446 129.229 161.44 129.053 161.44 128.84C161.44 128.616 161.446 128.435 161.456 128.296C161.499 127.539 161.675 126.877 161.984 126.312C162.294 125.736 162.715 125.293 163.248 124.984C163.792 124.675 164.427 124.52 165.152 124.52C165.963 124.52 166.64 124.691 167.184 125.032C167.739 125.373 168.16 125.859 168.448 126.488C168.736 127.117 168.88 127.853 168.88 128.696V128.968C168.88 129.085 168.843 129.176 168.768 129.24C168.704 129.304 168.619 129.336 168.512 129.336H162.976C162.976 129.347 162.976 129.368 162.976 129.4C162.976 129.432 162.976 129.459 162.976 129.48C162.998 129.917 163.094 130.328 163.264 130.712C163.435 131.085 163.68 131.389 164 131.624C164.32 131.859 164.704 131.976 165.152 131.976C165.536 131.976 165.856 131.917 166.112 131.8C166.368 131.683 166.576 131.555 166.736 131.416C166.896 131.267 167.003 131.155 167.056 131.08C167.152 130.941 167.227 130.861 167.28 130.84C167.334 130.808 167.419 130.792 167.536 130.792H168.304C168.411 130.792 168.496 130.824 168.56 130.888C168.635 130.941 168.667 131.021 168.656 131.128C168.646 131.288 168.56 131.485 168.4 131.72C168.24 131.944 168.011 132.168 167.712 132.392C167.414 132.616 167.051 132.803 166.624 132.952C166.198 133.091 165.707 133.16 165.152 133.16ZM162.976 128.232H167.36V128.184C167.36 127.704 167.27 127.277 167.088 126.904C166.918 126.531 166.667 126.237 166.336 126.024C166.006 125.8 165.611 125.688 165.152 125.688C164.694 125.688 164.299 125.8 163.968 126.024C163.648 126.237 163.403 126.531 163.232 126.904C163.062 127.277 162.976 127.704 162.976 128.184V128.232ZM173.833 133.16C173.247 133.16 172.74 133.059 172.313 132.856C171.887 132.643 171.535 132.36 171.257 132.008C170.991 131.645 170.788 131.235 170.649 130.776C170.521 130.317 170.447 129.832 170.425 129.32C170.415 129.149 170.409 128.989 170.409 128.84C170.409 128.691 170.415 128.531 170.425 128.36C170.447 127.859 170.521 127.379 170.649 126.92C170.788 126.461 170.991 126.051 171.257 125.688C171.535 125.325 171.887 125.043 172.313 124.84C172.74 124.627 173.247 124.52 173.833 124.52C174.463 124.52 174.985 124.632 175.401 124.856C175.817 125.08 176.159 125.357 176.425 125.688V122.008C176.425 121.901 176.457 121.816 176.521 121.752C176.596 121.677 176.687 121.64 176.793 121.64H177.561C177.668 121.64 177.753 121.677 177.817 121.752C177.892 121.816 177.929 121.901 177.929 122.008V132.632C177.929 132.739 177.892 132.829 177.817 132.904C177.753 132.968 177.668 133 177.561 133H176.841C176.724 133 176.633 132.968 176.569 132.904C176.505 132.829 176.473 132.739 176.473 132.632V131.96C176.207 132.301 175.86 132.589 175.433 132.824C175.007 133.048 174.473 133.16 173.833 133.16ZM174.169 131.864C174.703 131.864 175.129 131.741 175.449 131.496C175.769 131.251 176.009 130.941 176.169 130.568C176.329 130.184 176.415 129.795 176.425 129.4C176.436 129.229 176.441 129.027 176.441 128.792C176.441 128.547 176.436 128.339 176.425 128.168C176.415 127.795 176.324 127.427 176.153 127.064C175.993 126.701 175.748 126.403 175.417 126.168C175.097 125.933 174.681 125.816 174.169 125.816C173.625 125.816 173.193 125.939 172.873 126.184C172.553 126.419 172.324 126.733 172.185 127.128C172.047 127.512 171.967 127.928 171.945 128.376C171.935 128.685 171.935 128.995 171.945 129.304C171.967 129.752 172.047 130.173 172.185 130.568C172.324 130.952 172.553 131.267 172.873 131.512C173.193 131.747 173.625 131.864 174.169 131.864Z" fill="black"/>
</g>
<defs>
<clipPath id="clip0_5_9">
<rect width="256" height="256" fill="white"/>
</clipPath>
</defs>
</svg>
