<svg width="256" height="256" viewBox="0 0 256 256" fill="none" xmlns="http://www.w3.org/2000/svg">
<g clip-path="url(#clip0_4_2)">
<path d="M54.303 0H62.0606V7.75758H54.303V0ZM85.3333 0H93.0909V7.75758H85.3333V0ZM131.879 0H139.636V7.75758H131.879V0ZM147.394 0H155.152V7.75758H147.394V0ZM155.152 0H162.909V7.75758H155.152V0ZM162.909 0H170.667V7.75758H162.909V0ZM186.182 0H193.939V7.75758H186.182V0ZM193.939 0H201.697V7.75758H193.939V0ZM7.75758 7.75758H15.5152V15.5152H7.75758V7.75758ZM15.5152 7.75758H23.2727V15.5152H15.5152V7.75758ZM23.2727 7.75758H31.0303V15.5152H23.2727V7.75758ZM31.0303 7.75758H38.7879V15.5152H31.0303V7.75758ZM38.7879 7.75758H46.5455V15.5152H38.7879V7.75758ZM54.303 7.75758H62.0606V15.5152H54.303V7.75758ZM85.3333 7.75758H93.0909V15.5152H85.3333V7.75758ZM93.0909 7.75758H100.848V15.5152H93.0909V7.75758ZM108.606 7.75758H116.364V15.5152H108.606V7.75758ZM116.364 7.75758H124.121V15.5152H116.364V7.75758ZM124.121 7.75758H131.879V15.5152H124.121V7.75758ZM131.879 7.75758H139.636V15.5152H131.879V7.75758ZM155.152 7.75758H162.909V15.5152H155.152V7.75758ZM162.909 7.75758H170.667V15.5152H162.909V7.75758ZM170.667 7.75758H178.424V15.5152H170.667V7.75758ZM178.424 7.75758H186.182V15.5152H178.424V7.75758ZM193.939 7.75758H201.697V15.5152H193.939V7.75758ZM209.455 7.75758H217.212V15.5152H209.455V7.75758ZM217.212 7.75758H224.97V15.5152H217.212V7.75758ZM224.97 7.75758H232.727V15.5152H224.97V7.75758ZM232.727 7.75758H240.485V15.5152H232.727V7.75758ZM240.485 7.75758H248.242V15.5152H240.485V7.75758ZM7.75758 15.5152H15.5152V23.2727H7.75758V15.5152ZM38.7879 15.5152H46.5455V23.2727H38.7879V15.5152ZM54.303 15.5152H62.0606V23.2727H54.303V15.5152ZM69.8182 15.5152H77.5758V23.2727H69.8182V15.5152ZM93.0909 15.5152H100.848V23.2727H93.0909V15.5152ZM100.848 15.5152H108.606V23.2727H100.848V15.5152ZM124.121 15.5152H131.879V23.2727H124.121V15.5152ZM147.394 15.5152H155.152V23.2727H147.394V15.5152ZM186.182 15.5152H193.939V23.2727H186.182V15.5152ZM193.939 15.5152H201.697V23.2727H193.939V15.5152ZM209.455 15.5152H217.212V23.2727H209.455V15.5152ZM240.485 15.5152H248.242V23.2727H240.485V15.5152ZM7.75758 23.2727H15.5152V31.0303H7.75758V23.2727ZM38.7879 23.2727H46.5455V31.0303H38.7879V23.2727ZM54.303 23.2727H62.0606V31.0303H54.303V23.2727ZM77.5758 23.2727H85.3333V31.0303H77.5758V23.2727ZM93.0909 23.2727H100.848V31.0303H93.0909V23.2727ZM131.879 23.2727H139.636V31.0303H131.879V23.2727ZM155.152 23.2727H162.909V31.0303H155.152V23.2727ZM162.909 23.2727H170.667V31.0303H162.909V23.2727ZM193.939 23.2727H201.697V31.0303H193.939V23.2727ZM209.455 23.2727H217.212V31.0303H209.455V23.2727ZM240.485 23.2727H248.242V31.0303H240.485V23.2727ZM7.75758 31.0303H15.5152V38.7879H7.75758V31.0303ZM38.7879 31.0303H46.5455V38.7879H38.7879V31.0303ZM54.303 31.0303H62.0606V38.7879H54.303V31.0303ZM62.0606 31.0303H69.8182V38.7879H62.0606V31.0303ZM69.8182 31.0303H77.5758V38.7879H69.8182V31.0303ZM77.5758 31.0303H85.3333V38.7879H77.5758V31.0303ZM85.3333 31.0303H93.0909V38.7879H85.3333V31.0303ZM93.0909 31.0303H100.848V38.7879H93.0909V31.0303ZM131.879 31.0303H139.636V38.7879H131.879V31.0303ZM155.152 31.0303H162.909V38.7879H155.152V31.0303ZM170.667 31.0303H178.424V38.7879H170.667V31.0303ZM186.182 31.0303H193.939V38.7879H186.182V31.0303ZM193.939 31.0303H201.697V38.7879H193.939V31.0303ZM209.455 31.0303H217.212V38.7879H209.455V31.0303ZM240.485 31.0303H248.242V38.7879H240.485V31.0303ZM7.75758 38.7879H15.5152V46.5455H7.75758V38.7879ZM15.5152 38.7879H23.2727V46.5455H15.5152V38.7879ZM23.2727 38.7879H31.0303V46.5455H23.2727V38.7879ZM31.0303 38.7879H38.7879V46.5455H31.0303V38.7879ZM38.7879 38.7879H46.5455V46.5455H38.7879V38.7879ZM54.303 38.7879H62.0606V46.5455H54.303V38.7879ZM69.8182 38.7879H77.5758V46.5455H69.8182V38.7879ZM77.5758 38.7879H85.3333V46.5455H77.5758V38.7879ZM100.848 38.7879H108.606V46.5455H100.848V38.7879ZM108.606 38.7879H116.364V46.5455H108.606V38.7879ZM116.364 38.7879H124.121V46.5455H116.364V38.7879ZM124.121 38.7879H131.879V46.5455H124.121V38.7879ZM139.636 38.7879H147.394V46.5455H139.636V38.7879ZM155.152 38.7879H162.909V46.5455H155.152V38.7879ZM178.424 38.7879H186.182V46.5455H178.424V38.7879ZM186.182 38.7879H193.939V46.5455H186.182V38.7879ZM193.939 38.7879H201.697V46.5455H193.939V38.7879ZM209.455 38.7879H217.212V46.5455H209.455V38.7879ZM217.212 38.7879H224.97V46.5455H217.212V38.7879ZM224.97 38.7879H232.727V46.5455H224.97V38.7879ZM232.727 38.7879H240.485V46.5455H232.727V38.7879ZM240.485 38.7879H248.242V46.5455H240.485V38.7879ZM54.303 46.5455H62.0606V54.303H54.303V46.5455ZM69.8182 46.5455H77.5758V54.303H69.8182V46.5455ZM85.3333 46.5455H93.0909V54.303H85.3333V46.5455ZM100.848 46.5455H108.606V54.303H100.848V46.5455ZM116.364 46.5455H124.121V54.303H116.364V46.5455ZM131.879 46.5455H139.636V54.303H131.879V46.5455ZM147.394 46.5455H155.152V54.303H147.394V46.5455ZM162.909 46.5455H170.667V54.303H162.909V46.5455ZM178.424 46.5455H186.182V54.303H178.424V46.5455ZM193.939 46.5455H201.697V54.303H193.939V46.5455ZM0 54.303H7.75758V62.0606H0V54.303ZM7.75758 54.303H15.5152V62.0606H7.75758V54.303ZM15.5152 54.303H23.2727V62.0606H15.5152V54.303ZM23.2727 54.303H31.0303V62.0606H23.2727V54.303ZM31.0303 54.303H38.7879V62.0606H31.0303V54.303ZM38.7879 54.303H46.5455V62.0606H38.7879V54.303ZM46.5455 54.303H54.303V62.0606H46.5455V54.303ZM54.303 54.303H62.0606V62.0606H54.303V54.303ZM62.0606 54.303H69.8182V62.0606H62.0606V54.303ZM77.5758 54.303H85.3333V62.0606H77.5758V54.303ZM85.3333 54.303H93.0909V62.0606H85.3333V54.303ZM100.848 54.303H108.606V62.0606H100.848V54.303ZM108.606 54.303H116.364V62.0606H108.606V54.303ZM116.364 54.303H124.121V62.0606H116.364V54.303ZM124.121 54.303H131.879V62.0606H124.121V54.303ZM139.636 54.303H147.394V62.0606H139.636V54.303ZM147.394 54.303H155.152V62.0606H147.394V54.303ZM170.667 54.303H178.424V62.0606H170.667V54.303ZM186.182 54.303H193.939V62.0606H186.182V54.303ZM193.939 54.303H201.697V62.0606H193.939V54.303ZM201.697 54.303H209.455V62.0606H201.697V54.303ZM209.455 54.303H217.212V62.0606H209.455V54.303ZM217.212 54.303H224.97V62.0606H217.212V54.303ZM224.97 54.303H232.727V62.0606H224.97V54.303ZM232.727 54.303H240.485V62.0606H232.727V54.303ZM240.485 54.303H248.242V62.0606H240.485V54.303ZM248.242 54.303H256V62.0606H248.242V54.303ZM15.5152 62.0606H23.2727V69.8182H15.5152V62.0606ZM23.2727 62.0606H31.0303V69.8182H23.2727V62.0606ZM54.303 62.0606H62.0606V69.8182H54.303V62.0606ZM62.0606 62.0606H69.8182V69.8182H62.0606V62.0606ZM69.8182 62.0606H77.5758V69.8182H69.8182V62.0606ZM77.5758 62.0606H85.3333V69.8182H77.5758V62.0606ZM93.0909 62.0606H100.848V69.8182H93.0909V62.0606ZM100.848 62.0606H108.606V69.8182H100.848V62.0606ZM108.606 62.0606H116.364V69.8182H108.606V62.0606ZM124.121 62.0606H131.879V69.8182H124.121V62.0606ZM131.879 62.0606H139.636V69.8182H131.879V62.0606ZM139.636 62.0606H147.394V69.8182H139.636V62.0606ZM147.394 62.0606H155.152V69.8182H147.394V62.0606ZM178.424 62.0606H186.182V69.8182H178.424V62.0606ZM193.939 62.0606H201.697V69.8182H193.939V62.0606ZM201.697 62.0606H209.455V69.8182H201.697V62.0606ZM217.212 62.0606H224.97V69.8182H217.212V62.0606ZM7.75758 69.8182H15.5152V77.5758H7.75758V69.8182ZM15.5152 69.8182H23.2727V77.5758H15.5152V69.8182ZM31.0303 69.8182H38.7879V77.5758H31.0303V69.8182ZM46.5455 69.8182H54.303V77.5758H46.5455V69.8182ZM85.3333 69.8182H93.0909V77.5758H85.3333V69.8182ZM100.848 69.8182H108.606V77.5758H100.848V69.8182ZM131.879 69.8182H139.636V77.5758H131.879V69.8182ZM139.636 69.8182H147.394V77.5758H139.636V69.8182ZM147.394 69.8182H155.152V77.5758H147.394V69.8182ZM155.152 69.8182H162.909V77.5758H155.152V69.8182ZM162.909 69.8182H170.667V77.5758H162.909V69.8182ZM170.667 69.8182H178.424V77.5758H170.667V69.8182ZM186.182 69.8182H193.939V77.5758H186.182V69.8182ZM201.697 69.8182H209.455V77.5758H201.697V69.8182ZM217.212 69.8182H224.97V77.5758H217.212V69.8182ZM224.97 69.8182H232.727V77.5758H224.97V69.8182ZM240.485 69.8182H248.242V77.5758H240.485V69.8182ZM248.242 69.8182H256V77.5758H248.242V69.8182ZM0 77.5758H7.75758V85.3333H0V77.5758ZM7.75758 77.5758H15.5152V85.3333H7.75758V77.5758ZM31.0303 77.5758H38.7879V85.3333H31.0303V77.5758ZM38.7879 77.5758H46.5455V85.3333H38.7879V77.5758ZM54.303 77.5758H62.0606V85.3333H54.303V77.5758ZM62.0606 77.5758H69.8182V85.3333H62.0606V77.5758ZM69.8182 77.5758H77.5758V85.3333H69.8182V77.5758ZM77.5758 77.5758H85.3333V85.3333H77.5758V77.5758ZM100.848 77.5758H108.606V85.3333H100.848V77.5758ZM108.606 77.5758H116.364V85.3333H108.606V77.5758ZM124.121 77.5758H131.879V85.3333H124.121V77.5758ZM139.636 77.5758H147.394V85.3333H139.636V77.5758ZM147.394 77.5758H155.152V85.3333H147.394V77.5758ZM162.909 77.5758H170.667V85.3333H162.909V77.5758ZM186.182 77.5758H193.939V85.3333H186.182V77.5758ZM193.939 77.5758H201.697V85.3333H193.939V77.5758ZM209.455 77.5758H217.212V85.3333H209.455V77.5758ZM217.212 77.5758H224.97V85.3333H217.212V77.5758ZM224.97 77.5758H232.727V85.3333H224.97V77.5758ZM248.242 77.5758H256V85.3333H248.242V77.5758ZM0 85.3333H7.75758V93.0909H0V85.3333ZM7.75758 85.3333H15.5152V93.0909H7.75758V85.3333ZM15.5152 85.3333H23.2727V93.0909H15.5152V85.3333ZM23.2727 85.3333H31.0303V93.0909H23.2727V85.3333ZM46.5455 85.3333H54.303V93.0909H46.5455V85.3333ZM62.0606 85.3333H69.8182V93.0909H62.0606V85.3333ZM69.8182 85.3333H77.5758V93.0909H69.8182V85.3333ZM93.0909 85.3333H100.848V93.0909H93.0909V85.3333ZM100.848 85.3333H108.606V93.0909H100.848V85.3333ZM124.121 85.3333H131.879V93.0909H124.121V85.3333ZM139.636 85.3333H147.394V93.0909H139.636V85.3333ZM170.667 85.3333H178.424V93.0909H170.667V85.3333ZM178.424 85.3333H186.182V93.0909H178.424V85.3333ZM232.727 85.3333H240.485V93.0909H232.727V85.3333ZM240.485 85.3333H248.242V93.0909H240.485V85.3333ZM248.242 85.3333H256V93.0909H248.242V85.3333ZM0 93.0909H7.75758V100.848H0V93.0909ZM15.5152 93.0909H23.2727V100.848H15.5152V93.0909ZM23.2727 93.0909H31.0303V100.848H23.2727V93.0909ZM31.0303 93.0909H38.7879V100.848H31.0303V93.0909ZM62.0606 93.0909H69.8182V100.848H62.0606V93.0909ZM69.8182 93.0909H77.5758V100.848H69.8182V93.0909ZM85.3333 93.0909H93.0909V100.848H85.3333V93.0909ZM100.848 93.0909H108.606V100.848H100.848V93.0909ZM108.606 93.0909H116.364V100.848H108.606V93.0909ZM116.364 93.0909H124.121V100.848H116.364V93.0909ZM131.879 93.0909H139.636V100.848H131.879V93.0909ZM139.636 93.0909H147.394V100.848H139.636V93.0909ZM232.727 93.0909H240.485V100.848H232.727V93.0909ZM0 100.848H7.75758V108.606H0V100.848ZM7.75758 100.848H15.5152V108.606H7.75758V100.848ZM31.0303 100.848H38.7879V108.606H31.0303V100.848ZM46.5455 100.848H54.303V108.606H46.5455V100.848ZM54.303 100.848H62.0606V108.606H54.303V100.848ZM77.5758 100.848H85.3333V108.606H77.5758V100.848ZM85.3333 100.848H93.0909V108.606H85.3333V100.848ZM93.0909 100.848H100.848V108.606H93.0909V100.848ZM100.848 100.848H108.606V108.606H100.848V100.848ZM131.879 100.848H139.636V108.606H131.879V100.848ZM139.636 100.848H147.394V108.606H139.636V100.848ZM147.394 100.848H155.152V108.606H147.394V100.848ZM155.152 100.848H162.909V108.606H155.152V100.848ZM170.667 100.848H178.424V108.606H170.667V100.848ZM201.697 100.848H209.455V108.606H201.697V100.848ZM217.212 100.848H224.97V108.606H217.212V100.848ZM224.97 100.848H232.727V108.606H224.97V100.848ZM232.727 100.848H240.485V108.606H232.727V100.848ZM240.485 100.848H248.242V108.606H240.485V100.848ZM248.242 100.848H256V108.606H248.242V100.848ZM0 108.606H7.75758V116.364H0V108.606ZM23.2727 108.606H31.0303V116.364H23.2727V108.606ZM38.7879 108.606H46.5455V116.364H38.7879V108.606ZM62.0606 108.606H69.8182V116.364H62.0606V108.606ZM69.8182 108.606H77.5758V116.364H69.8182V108.606ZM77.5758 108.606H85.3333V116.364H77.5758V108.606ZM85.3333 108.606H93.0909V116.364H85.3333V108.606ZM93.0909 108.606H100.848V116.364H93.0909V108.606ZM124.121 108.606H131.879V116.364H124.121V108.606ZM131.879 108.606H139.636V116.364H131.879V108.606ZM147.394 108.606H155.152V116.364H147.394V108.606ZM170.667 108.606H178.424V116.364H170.667V108.606ZM186.182 108.606H193.939V116.364H186.182V108.606ZM209.455 108.606H217.212V116.364H209.455V108.606ZM217.212 108.606H224.97V116.364H217.212V108.606ZM248.242 108.606H256V116.364H248.242V108.606ZM0 116.364H7.75758V124.121H0V116.364ZM7.75758 116.364H15.5152V124.121H7.75758V116.364ZM31.0303 116.364H38.7879V124.121H31.0303V116.364ZM38.7879 116.364H46.5455V124.121H38.7879V116.364ZM46.5455 116.364H54.303V124.121H46.5455V116.364ZM54.303 116.364H62.0606V124.121H54.303V116.364ZM62.0606 116.364H69.8182V124.121H62.0606V116.364ZM69.8182 116.364H77.5758V124.121H69.8182V116.364ZM85.3333 116.364H93.0909V124.121H85.3333V116.364ZM100.848 116.364H108.606V124.121H100.848V116.364ZM108.606 116.364H116.364V124.121H108.606V116.364ZM116.364 116.364H124.121V124.121H116.364V116.364ZM124.121 116.364H131.879V124.121H124.121V116.364ZM139.636 116.364H147.394V124.121H139.636V116.364ZM147.394 116.364H155.152V124.121H147.394V116.364ZM155.152 116.364H162.909V124.121H155.152V116.364ZM178.424 116.364H186.182V124.121H178.424V116.364ZM186.182 116.364H193.939V124.121H186.182V116.364ZM201.697 116.364H209.455V124.121H201.697V116.364ZM209.455 116.364H217.212V124.121H209.455V116.364ZM217.212 116.364H224.97V124.121H217.212V116.364ZM232.727 116.364H240.485V124.121H232.727V116.364ZM240.485 116.364H248.242V124.121H240.485V116.364ZM248.242 116.364H256V124.121H248.242V116.364ZM7.75758 124.121H15.5152V131.879H7.75758V124.121ZM31.0303 124.121H38.7879V131.879H31.0303V124.121ZM54.303 124.121H62.0606V131.879H54.303V124.121ZM62.0606 124.121H69.8182V131.879H62.0606V124.121ZM93.0909 124.121H100.848V131.879H93.0909V124.121ZM100.848 124.121H108.606V131.879H100.848V124.121ZM108.606 124.121H116.364V131.879H108.606V124.121ZM124.121 124.121H131.879V131.879H124.121V124.121ZM139.636 124.121H147.394V131.879H139.636V124.121ZM155.152 124.121H162.909V131.879H155.152V124.121ZM178.424 124.121H186.182V131.879H178.424V124.121ZM193.939 124.121H201.697V131.879H193.939V124.121ZM209.455 124.121H217.212V131.879H209.455V124.121ZM224.97 124.121H232.727V131.879H224.97V124.121ZM232.727 124.121H240.485V131.879H232.727V124.121ZM240.485 124.121H248.242V131.879H240.485V124.121ZM7.75758 131.879H15.5152V139.636H7.75758V131.879ZM23.2727 131.879H31.0303V139.636H23.2727V131.879ZM46.5455 131.879H54.303V139.636H46.5455V131.879ZM62.0606 131.879H69.8182V139.636H62.0606V131.879ZM77.5758 131.879H85.3333V139.636H77.5758V131.879ZM85.3333 131.879H93.0909V139.636H85.3333V131.879ZM124.121 131.879H131.879V139.636H124.121V131.879ZM147.394 131.879H155.152V139.636H147.394V131.879ZM162.909 131.879H170.667V139.636H162.909V131.879ZM170.667 131.879H178.424V139.636H170.667V131.879ZM186.182 131.879H193.939V139.636H186.182V131.879ZM201.697 131.879H209.455V139.636H201.697V131.879ZM217.212 131.879H224.97V139.636H217.212V131.879ZM232.727 131.879H240.485V139.636H232.727V131.879ZM240.485 131.879H248.242V139.636H240.485V131.879ZM248.242 131.879H256V139.636H248.242V131.879ZM0 139.636H7.75758V147.394H0V139.636ZM7.75758 139.636H15.5152V147.394H7.75758V139.636ZM23.2727 139.636H31.0303V147.394H23.2727V139.636ZM54.303 139.636H62.0606V147.394H54.303V139.636ZM62.0606 139.636H69.8182V147.394H62.0606V139.636ZM69.8182 139.636H77.5758V147.394H69.8182V139.636ZM77.5758 139.636H85.3333V147.394H77.5758V139.636ZM100.848 139.636H108.606V147.394H100.848V139.636ZM124.121 139.636H131.879V147.394H124.121V139.636ZM147.394 139.636H155.152V147.394H147.394V139.636ZM155.152 139.636H162.909V147.394H155.152V139.636ZM201.697 139.636H209.455V147.394H201.697V139.636ZM209.455 139.636H217.212V147.394H209.455V139.636ZM224.97 139.636H232.727V147.394H224.97V139.636ZM248.242 139.636H256V147.394H248.242V139.636ZM0 147.394H7.75758V155.152H0V147.394ZM7.75758 147.394H15.5152V155.152H7.75758V147.394ZM23.2727 147.394H31.0303V155.152H23.2727V147.394ZM38.7879 147.394H46.5455V155.152H38.7879V147.394ZM46.5455 147.394H54.303V155.152H46.5455V147.394ZM54.303 147.394H62.0606V155.152H54.303V147.394ZM69.8182 147.394H77.5758V155.152H69.8182V147.394ZM93.0909 147.394H100.848V155.152H93.0909V147.394ZM100.848 147.394H108.606V155.152H100.848V147.394ZM116.364 147.394H124.121V155.152H116.364V147.394ZM147.394 147.394H155.152V155.152H147.394V147.394ZM170.667 147.394H178.424V155.152H170.667V147.394ZM193.939 147.394H201.697V155.152H193.939V147.394ZM201.697 147.394H209.455V155.152H201.697V147.394ZM217.212 147.394H224.97V155.152H217.212V147.394ZM232.727 147.394H240.485V155.152H232.727V147.394ZM240.485 147.394H248.242V155.152H240.485V147.394ZM248.242 147.394H256V155.152H248.242V147.394ZM15.5152 155.152H23.2727V162.909H15.5152V155.152ZM23.2727 155.152H31.0303V162.909H23.2727V155.152ZM31.0303 155.152H38.7879V162.909H31.0303V155.152ZM69.8182 155.152H77.5758V162.909H69.8182V155.152ZM85.3333 155.152H93.0909V162.909H85.3333V155.152ZM100.848 155.152H108.606V162.909H100.848V155.152ZM108.606 155.152H116.364V162.909H108.606V155.152ZM116.364 155.152H124.121V162.909H116.364V155.152ZM124.121 155.152H131.879V162.909H124.121V155.152ZM131.879 155.152H139.636V162.909H131.879V155.152ZM139.636 155.152H147.394V162.909H139.636V155.152ZM155.152 155.152H162.909V162.909H155.152V155.152ZM178.424 155.152H186.182V162.909H178.424V155.152ZM193.939 155.152H201.697V162.909H193.939V155.152ZM209.455 155.152H217.212V162.909H209.455V155.152ZM224.97 155.152H232.727V162.909H224.97V155.152ZM232.727 155.152H240.485V162.909H232.727V155.152ZM240.485 155.152H248.242V162.909H240.485V155.152ZM23.2727 162.909H31.0303V170.667H23.2727V162.909ZM31.0303 162.909H38.7879V170.667H31.0303V162.909ZM46.5455 162.909H54.303V170.667H46.5455V162.909ZM62.0606 162.909H69.8182V170.667H62.0606V162.909ZM69.8182 162.909H77.5758V170.667H69.8182V162.909ZM77.5758 162.909H85.3333V170.667H77.5758V162.909ZM85.3333 162.909H93.0909V170.667H85.3333V162.909ZM93.0909 162.909H100.848V170.667H93.0909V162.909ZM147.394 162.909H155.152V170.667H147.394V162.909ZM155.152 162.909H162.909V170.667H155.152V162.909ZM170.667 162.909H178.424V170.667H170.667V162.909ZM186.182 162.909H193.939V170.667H186.182V162.909ZM201.697 162.909H209.455V170.667H201.697V162.909ZM217.212 162.909H224.97V170.667H217.212V162.909ZM232.727 162.909H240.485V170.667H232.727V162.909ZM240.485 162.909H248.242V170.667H240.485V162.909ZM248.242 162.909H256V170.667H248.242V162.909ZM0 170.667H7.75758V178.424H0V170.667ZM7.75758 170.667H15.5152V178.424H7.75758V170.667ZM23.2727 170.667H31.0303V178.424H23.2727V170.667ZM31.0303 170.667H38.7879V178.424H31.0303V170.667ZM38.7879 170.667H46.5455V178.424H38.7879V170.667ZM69.8182 170.667H77.5758V178.424H69.8182V170.667ZM85.3333 170.667H93.0909V178.424H85.3333V170.667ZM93.0909 170.667H100.848V178.424H93.0909V170.667ZM100.848 170.667H108.606V178.424H100.848V170.667ZM124.121 170.667H131.879V178.424H124.121V170.667ZM147.394 170.667H155.152V178.424H147.394V170.667ZM155.152 170.667H162.909V178.424H155.152V170.667ZM201.697 170.667H209.455V178.424H201.697V170.667ZM209.455 170.667H217.212V178.424H209.455V170.667ZM217.212 170.667H224.97V178.424H217.212V170.667ZM224.97 170.667H232.727V178.424H224.97V170.667ZM248.242 170.667H256V178.424H248.242V170.667ZM0 178.424H7.75758V186.182H0V178.424ZM7.75758 178.424H15.5152V186.182H7.75758V178.424ZM31.0303 178.424H38.7879V186.182H31.0303V178.424ZM46.5455 178.424H54.303V186.182H46.5455V178.424ZM77.5758 178.424H85.3333V186.182H77.5758V178.424ZM85.3333 178.424H93.0909V186.182H85.3333V178.424ZM100.848 178.424H108.606V186.182H100.848V178.424ZM108.606 178.424H116.364V186.182H108.606V178.424ZM124.121 178.424H131.879V186.182H124.121V178.424ZM139.636 178.424H147.394V186.182H139.636V178.424ZM147.394 178.424H155.152V186.182H147.394V178.424ZM155.152 178.424H162.909V186.182H155.152V178.424ZM170.667 178.424H178.424V186.182H170.667V178.424ZM178.424 178.424H186.182V186.182H178.424V178.424ZM201.697 178.424H209.455V186.182H201.697V178.424ZM217.212 178.424H224.97V186.182H217.212V178.424ZM224.97 178.424H232.727V186.182H224.97V178.424ZM232.727 178.424H240.485V186.182H232.727V178.424ZM240.485 178.424H248.242V186.182H240.485V178.424ZM248.242 178.424H256V186.182H248.242V178.424ZM15.5152 186.182H23.2727V193.939H15.5152V186.182ZM23.2727 186.182H31.0303V193.939H23.2727V186.182ZM31.0303 186.182H38.7879V193.939H31.0303V186.182ZM69.8182 186.182H77.5758V193.939H69.8182V186.182ZM77.5758 186.182H85.3333V193.939H77.5758V186.182ZM93.0909 186.182H100.848V193.939H93.0909V186.182ZM116.364 186.182H124.121V193.939H116.364V186.182ZM139.636 186.182H147.394V193.939H139.636V186.182ZM155.152 186.182H162.909V193.939H155.152V186.182ZM178.424 186.182H186.182V193.939H178.424V186.182ZM232.727 186.182H240.485V193.939H232.727V186.182ZM248.242 186.182H256V193.939H248.242V186.182ZM0 193.939H7.75758V201.697H0V193.939ZM7.75758 193.939H15.5152V201.697H7.75758V193.939ZM15.5152 193.939H23.2727V201.697H15.5152V193.939ZM23.2727 193.939H31.0303V201.697H23.2727V193.939ZM31.0303 193.939H38.7879V201.697H31.0303V193.939ZM38.7879 193.939H46.5455V201.697H38.7879V193.939ZM46.5455 193.939H54.303V201.697H46.5455V193.939ZM54.303 193.939H62.0606V201.697H54.303V193.939ZM77.5758 193.939H85.3333V201.697H77.5758V193.939ZM85.3333 193.939H93.0909V201.697H85.3333V193.939ZM100.848 193.939H108.606V201.697H100.848V193.939ZM131.879 193.939H139.636V201.697H131.879V193.939ZM139.636 193.939H147.394V201.697H139.636V193.939ZM155.152 193.939H162.909V201.697H155.152V193.939ZM170.667 193.939H178.424V201.697H170.667V193.939ZM193.939 193.939H201.697V201.697H193.939V193.939ZM201.697 193.939H209.455V201.697H201.697V193.939ZM209.455 193.939H217.212V201.697H209.455V193.939ZM224.97 193.939H232.727V201.697H224.97V193.939ZM248.242 193.939H256V201.697H248.242V193.939ZM54.303 201.697H62.0606V209.455H54.303V201.697ZM62.0606 201.697H69.8182V209.455H62.0606V201.697ZM69.8182 201.697H77.5758V209.455H69.8182V201.697ZM124.121 201.697H131.879V209.455H124.121V201.697ZM131.879 201.697H139.636V209.455H131.879V201.697ZM139.636 201.697H147.394V209.455H139.636V201.697ZM147.394 201.697H155.152V209.455H147.394V201.697ZM155.152 201.697H162.909V209.455H155.152V201.697ZM170.667 201.697H178.424V209.455H170.667V201.697ZM178.424 201.697H186.182V209.455H178.424V201.697ZM193.939 201.697H201.697V209.455H193.939V201.697ZM209.455 201.697H217.212V209.455H209.455V201.697ZM224.97 201.697H232.727V209.455H224.97V201.697ZM232.727 201.697H240.485V209.455H232.727V201.697ZM248.242 201.697H256V209.455H248.242V201.697ZM7.75758 209.455H15.5152V217.212H7.75758V209.455ZM15.5152 209.455H23.2727V217.212H15.5152V209.455ZM23.2727 209.455H31.0303V217.212H23.2727V209.455ZM31.0303 209.455H38.7879V217.212H31.0303V209.455ZM38.7879 209.455H46.5455V217.212H38.7879V209.455ZM54.303 209.455H62.0606V217.212H54.303V209.455ZM77.5758 209.455H85.3333V217.212H77.5758V209.455ZM93.0909 209.455H100.848V217.212H93.0909V209.455ZM108.606 209.455H116.364V217.212H108.606V209.455ZM116.364 209.455H124.121V217.212H116.364V209.455ZM124.121 209.455H131.879V217.212H124.121V209.455ZM170.667 209.455H178.424V217.212H170.667V209.455ZM178.424 209.455H186.182V217.212H178.424V209.455ZM193.939 209.455H201.697V217.212H193.939V209.455ZM201.697 209.455H209.455V217.212H201.697V209.455ZM209.455 209.455H217.212V217.212H209.455V209.455ZM224.97 209.455H232.727V217.212H224.97V209.455ZM232.727 209.455H240.485V217.212H232.727V209.455ZM248.242 209.455H256V217.212H248.242V209.455ZM7.75758 217.212H15.5152V224.97H7.75758V217.212ZM38.7879 217.212H46.5455V224.97H38.7879V217.212ZM54.303 217.212H62.0606V224.97H54.303V217.212ZM77.5758 217.212H85.3333V224.97H77.5758V217.212ZM85.3333 217.212H93.0909V224.97H85.3333V217.212ZM108.606 217.212H116.364V224.97H108.606V217.212ZM116.364 217.212H124.121V224.97H116.364V217.212ZM131.879 217.212H139.636V224.97H131.879V217.212ZM139.636 217.212H147.394V224.97H139.636V217.212ZM155.152 217.212H162.909V224.97H155.152V217.212ZM170.667 217.212H178.424V224.97H170.667V217.212ZM178.424 217.212H186.182V224.97H178.424V217.212ZM232.727 217.212H240.485V224.97H232.727V217.212ZM7.75758 224.97H15.5152V232.727H7.75758V224.97ZM38.7879 224.97H46.5455V232.727H38.7879V224.97ZM54.303 224.97H62.0606V232.727H54.303V224.97ZM62.0606 224.97H69.8182V232.727H62.0606V224.97ZM85.3333 224.97H93.0909V232.727H85.3333V224.97ZM93.0909 224.97H100.848V232.727H93.0909V224.97ZM124.121 224.97H131.879V232.727H124.121V224.97ZM131.879 224.97H139.636V232.727H131.879V224.97ZM147.394 224.97H155.152V232.727H147.394V224.97ZM170.667 224.97H178.424V232.727H170.667V224.97ZM178.424 224.97H186.182V232.727H178.424V224.97ZM186.182 224.97H193.939V232.727H186.182V224.97ZM193.939 224.97H201.697V232.727H193.939V224.97ZM209.455 224.97H217.212V232.727H209.455V224.97ZM224.97 224.97H232.727V232.727H224.97V224.97ZM7.75758 232.727H15.5152V240.485H7.75758V232.727ZM38.7879 232.727H46.5455V240.485H38.7879V232.727ZM54.303 232.727H62.0606V240.485H54.303V232.727ZM62.0606 232.727H69.8182V240.485H62.0606V232.727ZM69.8182 232.727H77.5758V240.485H69.8182V232.727ZM85.3333 232.727H93.0909V240.485H85.3333V232.727ZM93.0909 232.727H100.848V240.485H93.0909V232.727ZM100.848 232.727H108.606V240.485H100.848V232.727ZM108.606 232.727H116.364V240.485H108.606V232.727ZM124.121 232.727H131.879V240.485H124.121V232.727ZM131.879 232.727H139.636V240.485H131.879V232.727ZM139.636 232.727H147.394V240.485H139.636V232.727ZM147.394 232.727H155.152V240.485H147.394V232.727ZM162.909 232.727H170.667V240.485H162.909V232.727ZM170.667 232.727H178.424V240.485H170.667V232.727ZM178.424 232.727H186.182V240.485H178.424V232.727ZM209.455 232.727H217.212V240.485H209.455V232.727ZM248.242 232.727H256V240.485H248.242V232.727ZM7.75758 240.485H15.5152V248.242H7.75758V240.485ZM15.5152 240.485H23.2727V248.242H15.5152V240.485ZM23.2727 240.485H31.0303V248.242H23.2727V240.485ZM31.0303 240.485H38.7879V248.242H31.0303V240.485ZM38.7879 240.485H46.5455V248.242H38.7879V240.485ZM54.303 240.485H62.0606V248.242H54.303V240.485ZM69.8182 240.485H77.5758V248.242H69.8182V240.485ZM77.5758 240.485H85.3333V248.242H77.5758V240.485ZM85.3333 240.485H93.0909V248.242H85.3333V240.485ZM100.848 240.485H108.606V248.242H100.848V240.485ZM124.121 240.485H131.879V248.242H124.121V240.485ZM139.636 240.485H147.394V248.242H139.636V240.485ZM147.394 240.485H155.152V248.242H147.394V240.485ZM170.667 240.485H178.424V248.242H170.667V240.485ZM201.697 240.485H209.455V248.242H201.697V240.485ZM209.455 240.485H217.212V248.242H209.455V240.485ZM232.727 240.485H240.485V248.242H232.727V240.485ZM240.485 240.485H248.242V248.242H240.485V240.485ZM248.242 240.485H256V248.242H248.242V240.485ZM54.303 248.242H62.0606V256H54.303V248.242ZM77.5758 248.242H85.3333V256H77.5758V248.242ZM93.0909 248.242H100.848V256H93.0909V248.242ZM116.364 248.242H124.121V256H116.364V248.242ZM124.121 248.242H131.879V256H124.121V248.242ZM131.879 248.242H139.636V256H131.879V248.242ZM139.636 248.242H147.394V256H139.636V248.242ZM155.152 248.242H162.909V256H155.152V248.242ZM170.667 248.242H178.424V256H170.667V248.242ZM178.424 248.242H186.182V256H178.424V248.242ZM201.697 248.242H209.455V256H201.697V248.242ZM224.97 248.242H232.727V256H224.97V248.242ZM232.727 248.242H240.485V256H232.727V248.242ZM240.485 248.242H248.242V256H240.485V248.242Z" fill="white"/>
<path d="M0 0H7.75758V7.75758H0V0ZM7.75758 0H15.5152V7.75758H7.75758V0ZM15.5152 0H23.2727V7.75758H15.5152V0ZM23.2727 0H31.0303V7.75758H23.2727V0ZM31.0303 0H38.7879V7.75758H31.0303V0ZM38.7879 0H46.5455V7.75758H38.7879V0ZM46.5455 0H54.303V7.75758H46.5455V0ZM62.0606 0H69.8182V7.75758H62.0606V0ZM69.8182 0H77.5758V7.75758H69.8182V0ZM77.5758 0H85.3333V7.75758H77.5758V0ZM93.0909 0H100.848V7.75758H93.0909V0ZM100.848 0H108.606V7.75758H100.848V0ZM108.606 0H116.364V7.75758H108.606V0ZM116.364 0H124.121V7.75758H116.364V0ZM124.121 0H131.879V7.75758H124.121V0ZM139.636 0H147.394V7.75758H139.636V0ZM170.667 0H178.424V7.75758H170.667V0ZM178.424 0H186.182V7.75758H178.424V0ZM201.697 0H209.455V7.75758H201.697V0ZM209.455 0H217.212V7.75758H209.455V0ZM217.212 0H224.97V7.75758H217.212V0ZM224.97 0H232.727V7.75758H224.97V0ZM232.727 0H240.485V7.75758H232.727V0ZM240.485 0H248.242V7.75758H240.485V0ZM248.242 0H256V7.75758H248.242V0ZM0 7.75758H7.75758V15.5152H0V7.75758ZM46.5455 7.75758H54.303V15.5152H46.5455V7.75758ZM62.0606 7.75758H69.8182V15.5152H62.0606V7.75758ZM69.8182 7.75758H77.5758V15.5152H69.8182V7.75758ZM77.5758 7.75758H85.3333V15.5152H77.5758V7.75758ZM100.848 7.75758H108.606V15.5152H100.848V7.75758ZM139.636 7.75758H147.394V15.5152H139.636V7.75758ZM147.394 7.75758H155.152V15.5152H147.394V7.75758ZM186.182 7.75758H193.939V15.5152H186.182V7.75758ZM201.697 7.75758H209.455V15.5152H201.697V7.75758ZM248.242 7.75758H256V15.5152H248.242V7.75758ZM0 15.5152H7.75758V23.2727H0V15.5152ZM15.5152 15.5152H23.2727V23.2727H15.5152V15.5152ZM23.2727 15.5152H31.0303V23.2727H23.2727V15.5152ZM31.0303 15.5152H38.7879V23.2727H31.0303V15.5152ZM46.5455 15.5152H54.303V23.2727H46.5455V15.5152ZM62.0606 15.5152H69.8182V23.2727H62.0606V15.5152ZM77.5758 15.5152H85.3333V23.2727H77.5758V15.5152ZM85.3333 15.5152H93.0909V23.2727H85.3333V15.5152ZM108.606 15.5152H116.364V23.2727H108.606V15.5152ZM116.364 15.5152H124.121V23.2727H116.364V15.5152ZM131.879 15.5152H139.636V23.2727H131.879V15.5152ZM139.636 15.5152H147.394V23.2727H139.636V15.5152ZM155.152 15.5152H162.909V23.2727H155.152V15.5152ZM162.909 15.5152H170.667V23.2727H162.909V15.5152ZM170.667 15.5152H178.424V23.2727H170.667V15.5152ZM178.424 15.5152H186.182V23.2727H178.424V15.5152ZM201.697 15.5152H209.455V23.2727H201.697V15.5152ZM217.212 15.5152H224.97V23.2727H217.212V15.5152ZM224.97 15.5152H232.727V23.2727H224.97V15.5152ZM232.727 15.5152H240.485V23.2727H232.727V15.5152ZM248.242 15.5152H256V23.2727H248.242V15.5152ZM0 23.2727H7.75758V31.0303H0V23.2727ZM15.5152 23.2727H23.2727V31.0303H15.5152V23.2727ZM23.2727 23.2727H31.0303V31.0303H23.2727V23.2727ZM31.0303 23.2727H38.7879V31.0303H31.0303V23.2727ZM46.5455 23.2727H54.303V31.0303H46.5455V23.2727ZM62.0606 23.2727H69.8182V31.0303H62.0606V23.2727ZM69.8182 23.2727H77.5758V31.0303H69.8182V23.2727ZM85.3333 23.2727H93.0909V31.0303H85.3333V23.2727ZM100.848 23.2727H108.606V31.0303H100.848V23.2727ZM108.606 23.2727H116.364V31.0303H108.606V23.2727ZM116.364 23.2727H124.121V31.0303H116.364V23.2727ZM124.121 23.2727H131.879V31.0303H124.121V23.2727ZM139.636 23.2727H147.394V31.0303H139.636V23.2727ZM147.394 23.2727H155.152V31.0303H147.394V23.2727ZM170.667 23.2727H178.424V31.0303H170.667V23.2727ZM178.424 23.2727H186.182V31.0303H178.424V23.2727ZM186.182 23.2727H193.939V31.0303H186.182V23.2727ZM201.697 23.2727H209.455V31.0303H201.697V23.2727ZM217.212 23.2727H224.97V31.0303H217.212V23.2727ZM224.97 23.2727H232.727V31.0303H224.97V23.2727ZM232.727 23.2727H240.485V31.0303H232.727V23.2727ZM248.242 23.2727H256V31.0303H248.242V23.2727ZM0 31.0303H7.75758V38.7879H0V31.0303ZM15.5152 31.0303H23.2727V38.7879H15.5152V31.0303ZM23.2727 31.0303H31.0303V38.7879H23.2727V31.0303ZM31.0303 31.0303H38.7879V38.7879H31.0303V31.0303ZM46.5455 31.0303H54.303V38.7879H46.5455V31.0303ZM100.848 31.0303H108.606V38.7879H100.848V31.0303ZM108.606 31.0303H116.364V38.7879H108.606V31.0303ZM116.364 31.0303H124.121V38.7879H116.364V31.0303ZM124.121 31.0303H131.879V38.7879H124.121V31.0303ZM139.636 31.0303H147.394V38.7879H139.636V31.0303ZM147.394 31.0303H155.152V38.7879H147.394V31.0303ZM162.909 31.0303H170.667V38.7879H162.909V31.0303ZM178.424 31.0303H186.182V38.7879H178.424V31.0303ZM201.697 31.0303H209.455V38.7879H201.697V31.0303ZM217.212 31.0303H224.97V38.7879H217.212V31.0303ZM224.97 31.0303H232.727V38.7879H224.97V31.0303ZM232.727 31.0303H240.485V38.7879H232.727V31.0303ZM248.242 31.0303H256V38.7879H248.242V31.0303ZM0 38.7879H7.75758V46.5455H0V38.7879ZM46.5455 38.7879H54.303V46.5455H46.5455V38.7879ZM62.0606 38.7879H69.8182V46.5455H62.0606V38.7879ZM85.3333 38.7879H93.0909V46.5455H85.3333V38.7879ZM93.0909 38.7879H100.848V46.5455H93.0909V38.7879ZM131.879 38.7879H139.636V46.5455H131.879V38.7879ZM147.394 38.7879H155.152V46.5455H147.394V38.7879ZM162.909 38.7879H170.667V46.5455H162.909V38.7879ZM170.667 38.7879H178.424V46.5455H170.667V38.7879ZM201.697 38.7879H209.455V46.5455H201.697V38.7879ZM248.242 38.7879H256V46.5455H248.242V38.7879ZM0 46.5455H7.75758V54.303H0V46.5455ZM7.75758 46.5455H15.5152V54.303H7.75758V46.5455ZM15.5152 46.5455H23.2727V54.303H15.5152V46.5455ZM23.2727 46.5455H31.0303V54.303H23.2727V46.5455ZM31.0303 46.5455H38.7879V54.303H31.0303V46.5455ZM38.7879 46.5455H46.5455V54.303H38.7879V46.5455ZM46.5455 46.5455H54.303V54.303H46.5455V46.5455ZM62.0606 46.5455H69.8182V54.303H62.0606V46.5455ZM77.5758 46.5455H85.3333V54.303H77.5758V46.5455ZM93.0909 46.5455H100.848V54.303H93.0909V46.5455ZM108.606 46.5455H116.364V54.303H108.606V46.5455ZM124.121 46.5455H131.879V54.303H124.121V46.5455ZM139.636 46.5455H147.394V54.303H139.636V46.5455ZM155.152 46.5455H162.909V54.303H155.152V46.5455ZM170.667 46.5455H178.424V54.303H170.667V46.5455ZM186.182 46.5455H193.939V54.303H186.182V46.5455ZM201.697 46.5455H209.455V54.303H201.697V46.5455ZM209.455 46.5455H217.212V54.303H209.455V46.5455ZM217.212 46.5455H224.97V54.303H217.212V46.5455ZM224.97 46.5455H232.727V54.303H224.97V46.5455ZM232.727 46.5455H240.485V54.303H232.727V46.5455ZM240.485 46.5455H248.242V54.303H240.485V46.5455ZM248.242 46.5455H256V54.303H248.242V46.5455ZM69.8182 54.303H77.5758V62.0606H69.8182V54.303ZM93.0909 54.303H100.848V62.0606H93.0909V54.303ZM131.879 54.303H139.636V62.0606H131.879V54.303ZM155.152 54.303H162.909V62.0606H155.152V54.303ZM162.909 54.303H170.667V62.0606H162.909V54.303ZM178.424 54.303H186.182V62.0606H178.424V54.303ZM0 62.0606H7.75758V69.8182H0V62.0606ZM7.75758 62.0606H15.5152V69.8182H7.75758V62.0606ZM31.0303 62.0606H38.7879V69.8182H31.0303V62.0606ZM38.7879 62.0606H46.5455V69.8182H38.7879V62.0606ZM46.5455 62.0606H54.303V69.8182H46.5455V62.0606ZM85.3333 62.0606H93.0909V69.8182H85.3333V62.0606ZM116.364 62.0606H124.121V69.8182H116.364V62.0606ZM155.152 62.0606H162.909V69.8182H155.152V62.0606ZM162.909 62.0606H170.667V69.8182H162.909V62.0606ZM170.667 62.0606H178.424V69.8182H170.667V62.0606ZM186.182 62.0606H193.939V69.8182H186.182V62.0606ZM209.455 62.0606H217.212V69.8182H209.455V62.0606ZM224.97 62.0606H232.727V69.8182H224.97V62.0606ZM232.727 62.0606H240.485V69.8182H232.727V62.0606ZM240.485 62.0606H248.242V69.8182H240.485V62.0606ZM248.242 62.0606H256V69.8182H248.242V62.0606ZM0 69.8182H7.75758V77.5758H0V69.8182ZM23.2727 69.8182H31.0303V77.5758H23.2727V69.8182ZM38.7879 69.8182H46.5455V77.5758H38.7879V69.8182ZM54.303 69.8182H62.0606V77.5758H54.303V69.8182ZM62.0606 69.8182H69.8182V77.5758H62.0606V69.8182ZM69.8182 69.8182H77.5758V77.5758H69.8182V69.8182ZM77.5758 69.8182H85.3333V77.5758H77.5758V69.8182ZM93.0909 69.8182H100.848V77.5758H93.0909V69.8182ZM108.606 69.8182H116.364V77.5758H108.606V69.8182ZM116.364 69.8182H124.121V77.5758H116.364V69.8182ZM124.121 69.8182H131.879V77.5758H124.121V69.8182ZM178.424 69.8182H186.182V77.5758H178.424V69.8182ZM193.939 69.8182H201.697V77.5758H193.939V69.8182ZM209.455 69.8182H217.212V77.5758H209.455V69.8182ZM232.727 69.8182H240.485V77.5758H232.727V69.8182ZM15.5152 77.5758H23.2727V85.3333H15.5152V77.5758ZM23.2727 77.5758H31.0303V85.3333H23.2727V77.5758ZM46.5455 77.5758H54.303V85.3333H46.5455V77.5758ZM85.3333 77.5758H93.0909V85.3333H85.3333V77.5758ZM93.0909 77.5758H100.848V85.3333H93.0909V77.5758ZM116.364 77.5758H124.121V85.3333H116.364V77.5758ZM131.879 77.5758H139.636V85.3333H131.879V77.5758ZM155.152 77.5758H162.909V85.3333H155.152V77.5758ZM170.667 77.5758H178.424V85.3333H170.667V77.5758ZM178.424 77.5758H186.182V85.3333H178.424V77.5758ZM201.697 77.5758H209.455V85.3333H201.697V77.5758ZM232.727 77.5758H240.485V85.3333H232.727V77.5758ZM240.485 77.5758H248.242V85.3333H240.485V77.5758ZM31.0303 85.3333H38.7879V93.0909H31.0303V85.3333ZM38.7879 85.3333H46.5455V93.0909H38.7879V85.3333ZM54.303 85.3333H62.0606V93.0909H54.303V85.3333ZM77.5758 85.3333H85.3333V93.0909H77.5758V85.3333ZM85.3333 85.3333H93.0909V93.0909H85.3333V85.3333ZM108.606 85.3333H116.364V93.0909H108.606V85.3333ZM116.364 85.3333H124.121V93.0909H116.364V85.3333ZM131.879 85.3333H139.636V93.0909H131.879V85.3333ZM147.394 85.3333H155.152V93.0909H147.394V85.3333ZM155.152 85.3333H162.909V93.0909H155.152V85.3333ZM162.909 85.3333H170.667V93.0909H162.909V85.3333ZM186.182 85.3333H193.939V93.0909H186.182V85.3333ZM193.939 85.3333H201.697V93.0909H193.939V85.3333ZM201.697 85.3333H209.455V93.0909H201.697V85.3333ZM209.455 85.3333H217.212V93.0909H209.455V85.3333ZM217.212 85.3333H224.97V93.0909H217.212V85.3333ZM224.97 85.3333H232.727V93.0909H224.97V85.3333ZM7.75758 93.0909H15.5152V100.848H7.75758V93.0909ZM38.7879 93.0909H46.5455V100.848H38.7879V93.0909ZM46.5455 93.0909H54.303V100.848H46.5455V93.0909ZM54.303 93.0909H62.0606V100.848H54.303V93.0909ZM77.5758 93.0909H85.3333V100.848H77.5758V93.0909ZM93.0909 93.0909H100.848V100.848H93.0909V93.0909ZM124.121 93.0909H131.879V100.848H124.121V93.0909ZM147.394 93.0909H155.152V100.848H147.394V93.0909ZM155.152 93.0909H162.909V100.848H155.152V93.0909ZM162.909 93.0909H170.667V100.848H162.909V93.0909ZM170.667 93.0909H178.424V100.848H170.667V93.0909ZM178.424 93.0909H186.182V100.848H178.424V93.0909ZM186.182 93.0909H193.939V100.848H186.182V93.0909ZM193.939 93.0909H201.697V100.848H193.939V93.0909ZM201.697 93.0909H209.455V100.848H201.697V93.0909ZM209.455 93.0909H217.212V100.848H209.455V93.0909ZM217.212 93.0909H224.97V100.848H217.212V93.0909ZM224.97 93.0909H232.727V100.848H224.97V93.0909ZM240.485 93.0909H248.242V100.848H240.485V93.0909ZM248.242 93.0909H256V100.848H248.242V93.0909ZM15.5152 100.848H23.2727V108.606H15.5152V100.848ZM23.2727 100.848H31.0303V108.606H23.2727V100.848ZM38.7879 100.848H46.5455V108.606H38.7879V100.848ZM62.0606 100.848H69.8182V108.606H62.0606V100.848ZM69.8182 100.848H77.5758V108.606H69.8182V100.848ZM108.606 100.848H116.364V108.606H108.606V100.848ZM116.364 100.848H124.121V108.606H116.364V100.848ZM124.121 100.848H131.879V108.606H124.121V100.848ZM162.909 100.848H170.667V108.606H162.909V100.848ZM178.424 100.848H186.182V108.606H178.424V100.848ZM186.182 100.848H193.939V108.606H186.182V100.848ZM193.939 100.848H201.697V108.606H193.939V100.848ZM209.455 100.848H217.212V108.606H209.455V100.848ZM7.75758 108.606H15.5152V116.364H7.75758V108.606ZM15.5152 108.606H23.2727V116.364H15.5152V108.606ZM31.0303 108.606H38.7879V116.364H31.0303V108.606ZM46.5455 108.606H54.303V116.364H46.5455V108.606ZM54.303 108.606H62.0606V116.364H54.303V108.606ZM100.848 108.606H108.606V116.364H100.848V108.606ZM108.606 108.606H116.364V116.364H108.606V108.606ZM116.364 108.606H124.121V116.364H116.364V108.606ZM139.636 108.606H147.394V116.364H139.636V108.606ZM155.152 108.606H162.909V116.364H155.152V108.606ZM162.909 108.606H170.667V116.364H162.909V108.606ZM178.424 108.606H186.182V116.364H178.424V108.606ZM193.939 108.606H201.697V116.364H193.939V108.606ZM201.697 108.606H209.455V116.364H201.697V108.606ZM224.97 108.606H232.727V116.364H224.97V108.606ZM232.727 108.606H240.485V116.364H232.727V108.606ZM240.485 108.606H248.242V116.364H240.485V108.606ZM15.5152 116.364H23.2727V124.121H15.5152V116.364ZM23.2727 116.364H31.0303V124.121H23.2727V116.364ZM77.5758 116.364H85.3333V124.121H77.5758V116.364ZM93.0909 116.364H100.848V124.121H93.0909V116.364ZM131.879 116.364H139.636V124.121H131.879V116.364ZM162.909 116.364H170.667V124.121H162.909V116.364ZM170.667 116.364H178.424V124.121H170.667V116.364ZM193.939 116.364H201.697V124.121H193.939V116.364ZM224.97 116.364H232.727V124.121H224.97V116.364ZM0 124.121H7.75758V131.879H0V124.121ZM15.5152 124.121H23.2727V131.879H15.5152V124.121ZM23.2727 124.121H31.0303V131.879H23.2727V124.121ZM38.7879 124.121H46.5455V131.879H38.7879V124.121ZM46.5455 124.121H54.303V131.879H46.5455V124.121ZM69.8182 124.121H77.5758V131.879H69.8182V124.121ZM77.5758 124.121H85.3333V131.879H77.5758V124.121ZM85.3333 124.121H93.0909V131.879H85.3333V124.121ZM116.364 124.121H124.121V131.879H116.364V124.121ZM131.879 124.121H139.636V131.879H131.879V124.121ZM147.394 124.121H155.152V131.879H147.394V124.121ZM162.909 124.121H170.667V131.879H162.909V124.121ZM170.667 124.121H178.424V131.879H170.667V124.121ZM186.182 124.121H193.939V131.879H186.182V124.121ZM201.697 124.121H209.455V131.879H201.697V124.121ZM217.212 124.121H224.97V131.879H217.212V124.121ZM248.242 124.121H256V131.879H248.242V124.121ZM0 131.879H7.75758V139.636H0V131.879ZM15.5152 131.879H23.2727V139.636H15.5152V131.879ZM31.0303 131.879H38.7879V139.636H31.0303V131.879ZM38.7879 131.879H46.5455V139.636H38.7879V131.879ZM54.303 131.879H62.0606V139.636H54.303V131.879ZM69.8182 131.879H77.5758V139.636H69.8182V131.879ZM93.0909 131.879H100.848V139.636H93.0909V131.879ZM100.848 131.879H108.606V139.636H100.848V131.879ZM108.606 131.879H116.364V139.636H108.606V131.879ZM116.364 131.879H124.121V139.636H116.364V131.879ZM131.879 131.879H139.636V139.636H131.879V131.879ZM139.636 131.879H147.394V139.636H139.636V131.879ZM155.152 131.879H162.909V139.636H155.152V131.879ZM178.424 131.879H186.182V139.636H178.424V131.879ZM193.939 131.879H201.697V139.636H193.939V131.879ZM209.455 131.879H217.212V139.636H209.455V131.879ZM224.97 131.879H232.727V139.636H224.97V131.879ZM15.5152 139.636H23.2727V147.394H15.5152V139.636ZM31.0303 139.636H38.7879V147.394H31.0303V139.636ZM38.7879 139.636H46.5455V147.394H38.7879V139.636ZM46.5455 139.636H54.303V147.394H46.5455V139.636ZM85.3333 139.636H93.0909V147.394H85.3333V139.636ZM93.0909 139.636H100.848V147.394H93.0909V139.636ZM108.606 139.636H116.364V147.394H108.606V139.636ZM116.364 139.636H124.121V147.394H116.364V139.636ZM131.879 139.636H139.636V147.394H131.879V139.636ZM139.636 139.636H147.394V147.394H139.636V139.636ZM162.909 139.636H170.667V147.394H162.909V139.636ZM170.667 139.636H178.424V147.394H170.667V139.636ZM178.424 139.636H186.182V147.394H178.424V139.636ZM186.182 139.636H193.939V147.394H186.182V139.636ZM193.939 139.636H201.697V147.394H193.939V139.636ZM217.212 139.636H224.97V147.394H217.212V139.636ZM232.727 139.636H240.485V147.394H232.727V139.636ZM240.485 139.636H248.242V147.394H240.485V139.636ZM15.5152 147.394H23.2727V155.152H15.5152V147.394ZM31.0303 147.394H38.7879V155.152H31.0303V147.394ZM62.0606 147.394H69.8182V155.152H62.0606V147.394ZM77.5758 147.394H85.3333V155.152H77.5758V147.394ZM85.3333 147.394H93.0909V155.152H85.3333V147.394ZM108.606 147.394H116.364V155.152H108.606V147.394ZM124.121 147.394H131.879V155.152H124.121V147.394ZM131.879 147.394H139.636V155.152H131.879V147.394ZM139.636 147.394H147.394V155.152H139.636V147.394ZM155.152 147.394H162.909V155.152H155.152V147.394ZM162.909 147.394H170.667V155.152H162.909V147.394ZM178.424 147.394H186.182V155.152H178.424V147.394ZM186.182 147.394H193.939V155.152H186.182V147.394ZM209.455 147.394H217.212V155.152H209.455V147.394ZM224.97 147.394H232.727V155.152H224.97V147.394ZM0 155.152H7.75758V162.909H0V155.152ZM7.75758 155.152H15.5152V162.909H7.75758V155.152ZM38.7879 155.152H46.5455V162.909H38.7879V155.152ZM46.5455 155.152H54.303V162.909H46.5455V155.152ZM54.303 155.152H62.0606V162.909H54.303V155.152ZM62.0606 155.152H69.8182V162.909H62.0606V155.152ZM77.5758 155.152H85.3333V162.909H77.5758V155.152ZM93.0909 155.152H100.848V162.909H93.0909V155.152ZM147.394 155.152H155.152V162.909H147.394V155.152ZM162.909 155.152H170.667V162.909H162.909V155.152ZM170.667 155.152H178.424V162.909H170.667V155.152ZM186.182 155.152H193.939V162.909H186.182V155.152ZM201.697 155.152H209.455V162.909H201.697V155.152ZM217.212 155.152H224.97V162.909H217.212V155.152ZM248.242 155.152H256V162.909H248.242V155.152ZM0 162.909H7.75758V170.667H0V162.909ZM7.75758 162.909H15.5152V170.667H7.75758V162.909ZM15.5152 162.909H23.2727V170.667H15.5152V162.909ZM38.7879 162.909H46.5455V170.667H38.7879V162.909ZM54.303 162.909H62.0606V170.667H54.303V162.909ZM100.848 162.909H108.606V170.667H100.848V162.909ZM108.606 162.909H116.364V170.667H108.606V162.909ZM116.364 162.909H124.121V170.667H116.364V162.909ZM124.121 162.909H131.879V170.667H124.121V162.909ZM131.879 162.909H139.636V170.667H131.879V162.909ZM139.636 162.909H147.394V170.667H139.636V162.909ZM162.909 162.909H170.667V170.667H162.909V162.909ZM178.424 162.909H186.182V170.667H178.424V162.909ZM193.939 162.909H201.697V170.667H193.939V162.909ZM209.455 162.909H217.212V170.667H209.455V162.909ZM224.97 162.909H232.727V170.667H224.97V162.909ZM15.5152 170.667H23.2727V178.424H15.5152V170.667ZM46.5455 170.667H54.303V178.424H46.5455V170.667ZM54.303 170.667H62.0606V178.424H54.303V170.667ZM62.0606 170.667H69.8182V178.424H62.0606V170.667ZM77.5758 170.667H85.3333V178.424H77.5758V170.667ZM108.606 170.667H116.364V178.424H108.606V170.667ZM116.364 170.667H124.121V178.424H116.364V170.667ZM131.879 170.667H139.636V178.424H131.879V170.667ZM139.636 170.667H147.394V178.424H139.636V170.667ZM162.909 170.667H170.667V178.424H162.909V170.667ZM170.667 170.667H178.424V178.424H170.667V170.667ZM178.424 170.667H186.182V178.424H178.424V170.667ZM186.182 170.667H193.939V178.424H186.182V170.667ZM193.939 170.667H201.697V178.424H193.939V170.667ZM232.727 170.667H240.485V178.424H232.727V170.667ZM240.485 170.667H248.242V178.424H240.485V170.667ZM15.5152 178.424H23.2727V186.182H15.5152V178.424ZM23.2727 178.424H31.0303V186.182H23.2727V178.424ZM38.7879 178.424H46.5455V186.182H38.7879V178.424ZM54.303 178.424H62.0606V186.182H54.303V178.424ZM62.0606 178.424H69.8182V186.182H62.0606V178.424ZM69.8182 178.424H77.5758V186.182H69.8182V178.424ZM93.0909 178.424H100.848V186.182H93.0909V178.424ZM116.364 178.424H124.121V186.182H116.364V178.424ZM131.879 178.424H139.636V186.182H131.879V178.424ZM162.909 178.424H170.667V186.182H162.909V178.424ZM186.182 178.424H193.939V186.182H186.182V178.424ZM193.939 178.424H201.697V186.182H193.939V178.424ZM209.455 178.424H217.212V186.182H209.455V178.424ZM0 186.182H7.75758V193.939H0V186.182ZM7.75758 186.182H15.5152V193.939H7.75758V186.182ZM38.7879 186.182H46.5455V193.939H38.7879V186.182ZM46.5455 186.182H54.303V193.939H46.5455V186.182ZM54.303 186.182H62.0606V193.939H54.303V186.182ZM62.0606 186.182H69.8182V193.939H62.0606V186.182ZM85.3333 186.182H93.0909V193.939H85.3333V186.182ZM100.848 186.182H108.606V193.939H100.848V186.182ZM108.606 186.182H116.364V193.939H108.606V186.182ZM124.121 186.182H131.879V193.939H124.121V186.182ZM131.879 186.182H139.636V193.939H131.879V186.182ZM147.394 186.182H155.152V193.939H147.394V186.182ZM162.909 186.182H170.667V193.939H162.909V186.182ZM170.667 186.182H178.424V193.939H170.667V186.182ZM186.182 186.182H193.939V193.939H186.182V186.182ZM193.939 186.182H201.697V193.939H193.939V186.182ZM201.697 186.182H209.455V193.939H201.697V186.182ZM209.455 186.182H217.212V193.939H209.455V186.182ZM217.212 186.182H224.97V193.939H217.212V186.182ZM224.97 186.182H232.727V193.939H224.97V186.182ZM240.485 186.182H248.242V193.939H240.485V186.182ZM62.0606 193.939H69.8182V201.697H62.0606V193.939ZM69.8182 193.939H77.5758V201.697H69.8182V193.939ZM93.0909 193.939H100.848V201.697H93.0909V193.939ZM108.606 193.939H116.364V201.697H108.606V193.939ZM116.364 193.939H124.121V201.697H116.364V193.939ZM124.121 193.939H131.879V201.697H124.121V193.939ZM147.394 193.939H155.152V201.697H147.394V193.939ZM162.909 193.939H170.667V201.697H162.909V193.939ZM178.424 193.939H186.182V201.697H178.424V193.939ZM186.182 193.939H193.939V201.697H186.182V193.939ZM217.212 193.939H224.97V201.697H217.212V193.939ZM232.727 193.939H240.485V201.697H232.727V193.939ZM240.485 193.939H248.242V201.697H240.485V193.939ZM0 201.697H7.75758V209.455H0V201.697ZM7.75758 201.697H15.5152V209.455H7.75758V201.697ZM15.5152 201.697H23.2727V209.455H15.5152V201.697ZM23.2727 201.697H31.0303V209.455H23.2727V201.697ZM31.0303 201.697H38.7879V209.455H31.0303V201.697ZM38.7879 201.697H46.5455V209.455H38.7879V201.697ZM46.5455 201.697H54.303V209.455H46.5455V201.697ZM77.5758 201.697H85.3333V209.455H77.5758V201.697ZM85.3333 201.697H93.0909V209.455H85.3333V201.697ZM93.0909 201.697H100.848V209.455H93.0909V201.697ZM100.848 201.697H108.606V209.455H100.848V201.697ZM108.606 201.697H116.364V209.455H108.606V201.697ZM116.364 201.697H124.121V209.455H116.364V201.697ZM162.909 201.697H170.667V209.455H162.909V201.697ZM186.182 201.697H193.939V209.455H186.182V201.697ZM201.697 201.697H209.455V209.455H201.697V201.697ZM217.212 201.697H224.97V209.455H217.212V201.697ZM240.485 201.697H248.242V209.455H240.485V201.697ZM0 209.455H7.75758V217.212H0V209.455ZM46.5455 209.455H54.303V217.212H46.5455V209.455ZM62.0606 209.455H69.8182V217.212H62.0606V209.455ZM69.8182 209.455H77.5758V217.212H69.8182V209.455ZM85.3333 209.455H93.0909V217.212H85.3333V209.455ZM100.848 209.455H108.606V217.212H100.848V209.455ZM131.879 209.455H139.636V217.212H131.879V209.455ZM139.636 209.455H147.394V217.212H139.636V209.455ZM147.394 209.455H155.152V217.212H147.394V209.455ZM155.152 209.455H162.909V217.212H155.152V209.455ZM162.909 209.455H170.667V217.212H162.909V209.455ZM186.182 209.455H193.939V217.212H186.182V209.455ZM217.212 209.455H224.97V217.212H217.212V209.455ZM240.485 209.455H248.242V217.212H240.485V209.455ZM0 217.212H7.75758V224.97H0V217.212ZM15.5152 217.212H23.2727V224.97H15.5152V217.212ZM23.2727 217.212H31.0303V224.97H23.2727V217.212ZM31.0303 217.212H38.7879V224.97H31.0303V217.212ZM46.5455 217.212H54.303V224.97H46.5455V217.212ZM62.0606 217.212H69.8182V224.97H62.0606V217.212ZM69.8182 217.212H77.5758V224.97H69.8182V217.212ZM93.0909 217.212H100.848V224.97H93.0909V217.212ZM100.848 217.212H108.606V224.97H100.848V217.212ZM124.121 217.212H131.879V224.97H124.121V217.212ZM147.394 217.212H155.152V224.97H147.394V217.212ZM162.909 217.212H170.667V224.97H162.909V217.212ZM186.182 217.212H193.939V224.97H186.182V217.212ZM193.939 217.212H201.697V224.97H193.939V217.212ZM201.697 217.212H209.455V224.97H201.697V217.212ZM209.455 217.212H217.212V224.97H209.455V217.212ZM217.212 217.212H224.97V224.97H217.212V217.212ZM224.97 217.212H232.727V224.97H224.97V217.212ZM240.485 217.212H248.242V224.97H240.485V217.212ZM248.242 217.212H256V224.97H248.242V217.212ZM0 224.97H7.75758V232.727H0V224.97ZM15.5152 224.97H23.2727V232.727H15.5152V224.97ZM23.2727 224.97H31.0303V232.727H23.2727V224.97ZM31.0303 224.97H38.7879V232.727H31.0303V224.97ZM46.5455 224.97H54.303V232.727H46.5455V224.97ZM69.8182 224.97H77.5758V232.727H69.8182V224.97ZM77.5758 224.97H85.3333V232.727H77.5758V224.97ZM100.848 224.97H108.606V232.727H100.848V224.97ZM108.606 224.97H116.364V232.727H108.606V224.97ZM116.364 224.97H124.121V232.727H116.364V224.97ZM139.636 224.97H147.394V232.727H139.636V224.97ZM155.152 224.97H162.909V232.727H155.152V224.97ZM162.909 224.97H170.667V232.727H162.909V224.97ZM201.697 224.97H209.455V232.727H201.697V224.97ZM217.212 224.97H224.97V232.727H217.212V224.97ZM232.727 224.97H240.485V232.727H232.727V224.97ZM240.485 224.97H248.242V232.727H240.485V224.97ZM248.242 224.97H256V232.727H248.242V224.97ZM0 232.727H7.75758V240.485H0V232.727ZM15.5152 232.727H23.2727V240.485H15.5152V232.727ZM23.2727 232.727H31.0303V240.485H23.2727V232.727ZM31.0303 232.727H38.7879V240.485H31.0303V232.727ZM46.5455 232.727H54.303V240.485H46.5455V232.727ZM77.5758 232.727H85.3333V240.485H77.5758V232.727ZM116.364 232.727H124.121V240.485H116.364V232.727ZM155.152 232.727H162.909V240.485H155.152V232.727ZM186.182 232.727H193.939V240.485H186.182V232.727ZM193.939 232.727H201.697V240.485H193.939V232.727ZM201.697 232.727H209.455V240.485H201.697V232.727ZM217.212 232.727H224.97V240.485H217.212V232.727ZM224.97 232.727H232.727V240.485H224.97V232.727ZM232.727 232.727H240.485V240.485H232.727V232.727ZM240.485 232.727H248.242V240.485H240.485V232.727ZM0 240.485H7.75758V248.242H0V240.485ZM46.5455 240.485H54.303V248.242H46.5455V240.485ZM62.0606 240.485H69.8182V248.242H62.0606V240.485ZM93.0909 240.485H100.848V248.242H93.0909V240.485ZM108.606 240.485H116.364V248.242H108.606V240.485ZM116.364 240.485H124.121V248.242H116.364V240.485ZM131.879 240.485H139.636V248.242H131.879V240.485ZM155.152 240.485H162.909V248.242H155.152V240.485ZM162.909 240.485H170.667V248.242H162.909V240.485ZM178.424 240.485H186.182V248.242H178.424V240.485ZM186.182 240.485H193.939V248.242H186.182V240.485ZM193.939 240.485H201.697V248.242H193.939V240.485ZM217.212 240.485H224.97V248.242H217.212V240.485ZM224.97 240.485H232.727V248.242H224.97V240.485ZM0 248.242H7.75758V256H0V248.242ZM7.75758 248.242H15.5152V256H7.75758V248.242ZM15.5152 248.242H23.2727V256H15.5152V248.242ZM23.2727 248.242H31.0303V256H23.2727V248.242ZM31.0303 248.242H38.7879V256H31.0303V248.242ZM38.7879 248.242H46.5455V256H38.7879V248.242ZM46.5455 248.242H54.303V256H46.5455V248.242ZM62.0606 248.242H69.8182V256H62.0606V248.242ZM69.8182 248.242H77.5758V256H69.8182V248.242ZM85.3333 248.242H93.0909V256H85.3333V248.242ZM100.848 248.242H108.606V256H100.848V248.242ZM108.606 248.242H116.364V256H108.606V248.242ZM147.394 248.242H155.152V256H147.394V248.242ZM162.909 248.242H170.667V256H162.909V248.242ZM186.182 248.242H193.939V256H186.182V248.242ZM193.939 248.242H201.697V256H193.939V248.242ZM209.455 248.242H217.212V256H209.455V248.242ZM217.212 248.242H224.97V256H217.212V248.242ZM248.242 248.242H256V256H248.242V248.242Z" fill="black" fill-opacity="0.5"/>
<rect x="44" y="99" width="168.141" height="57" fill="white" stroke="black" stroke-width="8"/>
<path d="M60.9398 133C60.8225 133 60.7318 132.968 60.6678 132.904C60.6038 132.829 60.5718 132.739 60.5718 132.632V122.184C60.5718 122.067 60.6038 121.976 60.6678 121.912C60.7318 121.837 60.8225 121.8 60.9398 121.8H61.6758C61.8038 121.8 61.8998 121.832 61.9638 121.896C62.0278 121.949 62.0651 121.992 62.0758 122.024L67.3878 130.184V122.184C67.3878 122.067 67.4198 121.976 67.4838 121.912C67.5478 121.837 67.6385 121.8 67.7558 121.8H68.5238C68.6411 121.8 68.7318 121.837 68.7958 121.912C68.8705 121.976 68.9078 122.067 68.9078 122.184V132.616C68.9078 132.723 68.8705 132.813 68.7958 132.888C68.7318 132.963 68.6465 133 68.5398 133H67.7718C67.6545 133 67.5638 132.968 67.4998 132.904C67.4465 132.84 67.4091 132.797 67.3878 132.776L62.0918 124.696V132.632C62.0918 132.739 62.0545 132.829 61.9798 132.904C61.9158 132.968 61.8251 133 61.7078 133H60.9398ZM74.8812 133.16C74.0705 133.16 73.3932 133.005 72.8492 132.696C72.3052 132.387 71.8892 131.96 71.6012 131.416C71.3132 130.861 71.1532 130.232 71.1212 129.528C71.1105 129.347 71.1052 129.117 71.1052 128.84C71.1052 128.552 71.1105 128.323 71.1212 128.152C71.1532 127.437 71.3132 126.808 71.6012 126.264C71.8998 125.72 72.3212 125.293 72.8652 124.984C73.4092 124.675 74.0812 124.52 74.8812 124.52C75.6812 124.52 76.3532 124.675 76.8972 124.984C77.4412 125.293 77.8572 125.72 78.1452 126.264C78.4438 126.808 78.6092 127.437 78.6412 128.152C78.6518 128.323 78.6572 128.552 78.6572 128.84C78.6572 129.117 78.6518 129.347 78.6412 129.528C78.6092 130.232 78.4492 130.861 78.1612 131.416C77.8732 131.96 77.4572 132.387 76.9132 132.696C76.3692 133.005 75.6918 133.16 74.8812 133.16ZM74.8812 131.928C75.5425 131.928 76.0705 131.72 76.4652 131.304C76.8598 130.877 77.0732 130.259 77.1052 129.448C77.1158 129.288 77.1212 129.085 77.1212 128.84C77.1212 128.595 77.1158 128.392 77.1052 128.232C77.0732 127.421 76.8598 126.808 76.4652 126.392C76.0705 125.965 75.5425 125.752 74.8812 125.752C74.2198 125.752 73.6865 125.965 73.2812 126.392C72.8865 126.808 72.6785 127.421 72.6572 128.232C72.6465 128.392 72.6412 128.595 72.6412 128.84C72.6412 129.085 72.6465 129.288 72.6572 129.448C72.6785 130.259 72.8865 130.877 73.2812 131.304C73.6865 131.72 74.2198 131.928 74.8812 131.928ZM87.9425 133.16C87.1852 133.16 86.5292 133.016 85.9745 132.728C85.4305 132.429 85.0092 132.008 84.7105 131.464C84.4119 130.909 84.2519 130.248 84.2305 129.48C84.2199 129.32 84.2145 129.107 84.2145 128.84C84.2145 128.573 84.2199 128.36 84.2305 128.2C84.2519 127.432 84.4119 126.776 84.7105 126.232C85.0092 125.677 85.4305 125.256 85.9745 124.968C86.5292 124.669 87.1852 124.52 87.9425 124.52C88.5612 124.52 89.0892 124.605 89.5265 124.776C89.9745 124.947 90.3425 125.165 90.6305 125.432C90.9185 125.699 91.1319 125.987 91.2705 126.296C91.4199 126.605 91.4999 126.899 91.5105 127.176C91.5212 127.283 91.4892 127.368 91.4145 127.432C91.3399 127.496 91.2492 127.528 91.1425 127.528H90.3745C90.2679 127.528 90.1879 127.507 90.1345 127.464C90.0812 127.411 90.0279 127.325 89.9745 127.208C89.7825 126.685 89.5212 126.317 89.1905 126.104C88.8599 125.891 88.4492 125.784 87.9585 125.784C87.3185 125.784 86.7959 125.981 86.3905 126.376C85.9959 126.771 85.7825 127.405 85.7505 128.28C85.7399 128.664 85.7399 129.037 85.7505 129.4C85.7825 130.285 85.9959 130.925 86.3905 131.32C86.7959 131.704 87.3185 131.896 87.9585 131.896C88.4492 131.896 88.8599 131.789 89.1905 131.576C89.5212 131.363 89.7825 130.995 89.9745 130.472C90.0279 130.355 90.0812 130.275 90.1345 130.232C90.1879 130.179 90.2679 130.152 90.3745 130.152H91.1425C91.2492 130.152 91.3399 130.184 91.4145 130.248C91.4892 130.312 91.5212 130.397 91.5105 130.504C91.4999 130.728 91.4519 130.957 91.3665 131.192C91.2812 131.427 91.1425 131.667 90.9505 131.912C90.7692 132.147 90.5399 132.36 90.2625 132.552C89.9852 132.733 89.6492 132.883 89.2545 133C88.8705 133.107 88.4332 133.16 87.9425 133.16ZM96.8187 133.16C96.008 133.16 95.3307 133.005 94.7867 132.696C94.2427 132.387 93.8267 131.96 93.5387 131.416C93.2507 130.861 93.0907 130.232 93.0587 129.528C93.048 129.347 93.0427 129.117 93.0427 128.84C93.0427 128.552 93.048 128.323 93.0587 128.152C93.0907 127.437 93.2507 126.808 93.5387 126.264C93.8373 125.72 94.2587 125.293 94.8027 124.984C95.3467 124.675 96.0187 124.52 96.8187 124.52C97.6187 124.52 98.2907 124.675 98.8347 124.984C99.3787 125.293 99.7947 125.72 100.083 126.264C100.381 126.808 100.547 127.437 100.579 128.152C100.589 128.323 100.595 128.552 100.595 128.84C100.595 129.117 100.589 129.347 100.579 129.528C100.547 130.232 100.387 130.861 100.099 131.416C99.8107 131.96 99.3947 132.387 98.8507 132.696C98.3067 133.005 97.6293 133.16 96.8187 133.16ZM96.8187 131.928C97.48 131.928 98.008 131.72 98.4027 131.304C98.7973 130.877 99.0107 130.259 99.0427 129.448C99.0533 129.288 99.0587 129.085 99.0587 128.84C99.0587 128.595 99.0533 128.392 99.0427 128.232C99.0107 127.421 98.7973 126.808 98.4027 126.392C98.008 125.965 97.48 125.752 96.8187 125.752C96.1573 125.752 95.624 125.965 95.2187 126.392C94.824 126.808 94.616 127.421 94.5947 128.232C94.584 128.392 94.5787 128.595 94.5787 128.84C94.5787 129.085 94.584 129.288 94.5947 129.448C94.616 130.259 94.824 130.877 95.2187 131.304C95.624 131.72 96.1573 131.928 96.8187 131.928ZM105.638 133.16C105.052 133.16 104.545 133.059 104.118 132.856C103.692 132.643 103.34 132.36 103.062 132.008C102.796 131.645 102.593 131.235 102.454 130.776C102.326 130.317 102.252 129.832 102.23 129.32C102.22 129.149 102.214 128.989 102.214 128.84C102.214 128.691 102.22 128.531 102.23 128.36C102.252 127.859 102.326 127.379 102.454 126.92C102.593 126.461 102.796 126.051 103.062 125.688C103.34 125.325 103.692 125.043 104.118 124.84C104.545 124.627 105.052 124.52 105.638 124.52C106.268 124.52 106.79 124.632 107.206 124.856C107.622 125.08 107.964 125.357 108.23 125.688V122.008C108.23 121.901 108.262 121.816 108.326 121.752C108.401 121.677 108.492 121.64 108.598 121.64H109.366C109.473 121.64 109.558 121.677 109.622 121.752C109.697 121.816 109.734 121.901 109.734 122.008V132.632C109.734 132.739 109.697 132.829 109.622 132.904C109.558 132.968 109.473 133 109.366 133H108.646C108.529 133 108.438 132.968 108.374 132.904C108.31 132.829 108.278 132.739 108.278 132.632V131.96C108.012 132.301 107.665 132.589 107.238 132.824C106.812 133.048 106.278 133.16 105.638 133.16ZM105.974 131.864C106.508 131.864 106.934 131.741 107.254 131.496C107.574 131.251 107.814 130.941 107.974 130.568C108.134 130.184 108.22 129.795 108.23 129.4C108.241 129.229 108.246 129.027 108.246 128.792C108.246 128.547 108.241 128.339 108.23 128.168C108.22 127.795 108.129 127.427 107.958 127.064C107.798 126.701 107.553 126.403 107.222 126.168C106.902 125.933 106.486 125.816 105.974 125.816C105.43 125.816 104.998 125.939 104.678 126.184C104.358 126.419 104.129 126.733 103.99 127.128C103.852 127.512 103.772 127.928 103.75 128.376C103.74 128.685 103.74 128.995 103.75 129.304C103.772 129.752 103.852 130.173 103.99 130.568C104.129 130.952 104.358 131.267 104.678 131.512C104.998 131.747 105.43 131.864 105.974 131.864ZM115.426 133.16C114.327 133.16 113.452 132.824 112.802 132.152C112.151 131.469 111.794 130.541 111.73 129.368C111.719 129.229 111.714 129.053 111.714 128.84C111.714 128.616 111.719 128.435 111.73 128.296C111.772 127.539 111.948 126.877 112.258 126.312C112.567 125.736 112.988 125.293 113.522 124.984C114.066 124.675 114.7 124.52 115.426 124.52C116.236 124.52 116.914 124.691 117.458 125.032C118.012 125.373 118.434 125.859 118.722 126.488C119.01 127.117 119.154 127.853 119.154 128.696V128.968C119.154 129.085 119.116 129.176 119.042 129.24C118.978 129.304 118.892 129.336 118.786 129.336H113.25C113.25 129.347 113.25 129.368 113.25 129.4C113.25 129.432 113.25 129.459 113.25 129.48C113.271 129.917 113.367 130.328 113.538 130.712C113.708 131.085 113.954 131.389 114.274 131.624C114.594 131.859 114.978 131.976 115.426 131.976C115.81 131.976 116.13 131.917 116.386 131.8C116.642 131.683 116.85 131.555 117.01 131.416C117.17 131.267 117.276 131.155 117.33 131.08C117.426 130.941 117.5 130.861 117.554 130.84C117.607 130.808 117.692 130.792 117.81 130.792H118.578C118.684 130.792 118.77 130.824 118.834 130.888C118.908 130.941 118.94 131.021 118.93 131.128C118.919 131.288 118.834 131.485 118.674 131.72C118.514 131.944 118.284 132.168 117.986 132.392C117.687 132.616 117.324 132.803 116.898 132.952C116.471 133.091 115.98 133.16 115.426 133.16ZM113.25 128.232H117.634V128.184C117.634 127.704 117.543 127.277 117.362 126.904C117.191 126.531 116.94 126.237 116.61 126.024C116.279 125.8 115.884 125.688 115.426 125.688C114.967 125.688 114.572 125.8 114.242 126.024C113.922 126.237 113.676 126.531 113.506 126.904C113.335 127.277 113.25 127.704 113.25 128.184V128.232ZM123.947 133.16C123.35 133.16 122.838 133.085 122.411 132.936C121.984 132.787 121.638 132.605 121.371 132.392C121.104 132.179 120.902 131.965 120.763 131.752C120.635 131.539 120.566 131.368 120.555 131.24C120.544 131.123 120.582 131.032 120.667 130.968C120.752 130.904 120.838 130.872 120.923 130.872H121.627C121.691 130.872 121.739 130.883 121.771 130.904C121.814 130.915 121.867 130.957 121.931 131.032C122.07 131.181 122.224 131.331 122.395 131.48C122.566 131.629 122.774 131.752 123.019 131.848C123.275 131.944 123.59 131.992 123.963 131.992C124.507 131.992 124.955 131.891 125.307 131.688C125.659 131.475 125.835 131.165 125.835 130.76C125.835 130.493 125.76 130.28 125.611 130.12C125.472 129.96 125.216 129.816 124.843 129.688C124.48 129.56 123.979 129.427 123.339 129.288C122.699 129.139 122.192 128.957 121.819 128.744C121.446 128.52 121.179 128.259 121.019 127.96C120.859 127.651 120.779 127.304 120.779 126.92C120.779 126.525 120.896 126.147 121.131 125.784C121.366 125.411 121.707 125.107 122.155 124.872C122.614 124.637 123.184 124.52 123.867 124.52C124.422 124.52 124.896 124.589 125.291 124.728C125.686 124.867 126.011 125.043 126.267 125.256C126.523 125.459 126.715 125.661 126.843 125.864C126.971 126.067 127.04 126.237 127.051 126.376C127.062 126.483 127.03 126.573 126.955 126.648C126.88 126.712 126.795 126.744 126.699 126.744H126.027C125.952 126.744 125.888 126.728 125.835 126.696C125.792 126.664 125.75 126.627 125.707 126.584C125.6 126.445 125.472 126.307 125.323 126.168C125.184 126.029 124.998 125.917 124.763 125.832C124.539 125.736 124.24 125.688 123.867 125.688C123.334 125.688 122.934 125.8 122.667 126.024C122.4 126.248 122.267 126.531 122.267 126.872C122.267 127.075 122.326 127.256 122.443 127.416C122.56 127.576 122.784 127.72 123.115 127.848C123.446 127.976 123.936 128.115 124.587 128.264C125.291 128.403 125.846 128.589 126.251 128.824C126.656 129.059 126.944 129.331 127.115 129.64C127.286 129.949 127.371 130.307 127.371 130.712C127.371 131.16 127.238 131.571 126.971 131.944C126.715 132.317 126.331 132.616 125.819 132.84C125.318 133.053 124.694 133.16 123.947 133.16ZM135.465 133.16C134.932 133.16 134.446 133.053 134.009 132.84C133.572 132.627 133.22 132.339 132.953 131.976C132.686 131.613 132.553 131.203 132.553 130.744C132.553 130.008 132.852 129.421 133.449 128.984C134.046 128.547 134.825 128.259 135.785 128.12L138.169 127.784V127.32C138.169 126.808 138.02 126.408 137.721 126.12C137.433 125.832 136.958 125.688 136.297 125.688C135.817 125.688 135.428 125.784 135.129 125.976C134.841 126.168 134.638 126.413 134.521 126.712C134.457 126.872 134.345 126.952 134.185 126.952H133.465C133.348 126.952 133.257 126.92 133.193 126.856C133.14 126.781 133.113 126.696 133.113 126.6C133.113 126.44 133.172 126.243 133.289 126.008C133.417 125.773 133.609 125.544 133.865 125.32C134.121 125.096 134.446 124.909 134.841 124.76C135.246 124.6 135.737 124.52 136.313 124.52C136.953 124.52 137.492 124.605 137.929 124.776C138.366 124.936 138.708 125.155 138.953 125.432C139.209 125.709 139.39 126.024 139.497 126.376C139.614 126.728 139.673 127.085 139.673 127.448V132.632C139.673 132.739 139.636 132.829 139.561 132.904C139.497 132.968 139.412 133 139.305 133H138.569C138.452 133 138.361 132.968 138.297 132.904C138.233 132.829 138.201 132.739 138.201 132.632V131.944C138.062 132.136 137.876 132.328 137.641 132.52C137.406 132.701 137.113 132.856 136.761 132.984C136.409 133.101 135.977 133.16 135.465 133.16ZM135.801 131.96C136.238 131.96 136.638 131.869 137.001 131.688C137.364 131.496 137.646 131.203 137.849 130.808C138.062 130.413 138.169 129.917 138.169 129.32V128.872L136.313 129.144C135.556 129.251 134.985 129.432 134.601 129.688C134.217 129.933 134.025 130.248 134.025 130.632C134.025 130.931 134.11 131.181 134.281 131.384C134.462 131.576 134.686 131.72 134.953 131.816C135.23 131.912 135.513 131.96 135.801 131.96ZM144.713 133C144.553 133 144.425 132.963 144.329 132.888C144.244 132.813 144.174 132.717 144.121 132.6L141.161 125.176C141.14 125.123 141.129 125.069 141.129 125.016C141.129 124.92 141.161 124.84 141.225 124.776C141.289 124.712 141.369 124.68 141.465 124.68H142.233C142.35 124.68 142.441 124.712 142.505 124.776C142.569 124.84 142.606 124.899 142.617 124.952L145.065 131.256L147.497 124.952C147.518 124.899 147.556 124.84 147.609 124.776C147.673 124.712 147.764 124.68 147.881 124.68H148.665C148.75 124.68 148.825 124.712 148.889 124.776C148.964 124.84 149.001 124.92 149.001 125.016C149.001 125.069 148.99 125.123 148.969 125.176L145.993 132.6C145.95 132.717 145.881 132.813 145.785 132.888C145.7 132.963 145.572 133 145.401 133H144.713ZM152.684 133.16C152.15 133.16 151.665 133.053 151.228 132.84C150.79 132.627 150.438 132.339 150.172 131.976C149.905 131.613 149.772 131.203 149.772 130.744C149.772 130.008 150.07 129.421 150.668 128.984C151.265 128.547 152.044 128.259 153.004 128.12L155.388 127.784V127.32C155.388 126.808 155.238 126.408 154.94 126.12C154.652 125.832 154.177 125.688 153.516 125.688C153.036 125.688 152.646 125.784 152.348 125.976C152.06 126.168 151.857 126.413 151.74 126.712C151.676 126.872 151.564 126.952 151.404 126.952H150.684C150.566 126.952 150.476 126.92 150.412 126.856C150.358 126.781 150.332 126.696 150.332 126.6C150.332 126.44 150.39 126.243 150.508 126.008C150.636 125.773 150.828 125.544 151.084 125.32C151.34 125.096 151.665 124.909 152.06 124.76C152.465 124.6 152.956 124.52 153.532 124.52C154.172 124.52 154.71 124.605 155.148 124.776C155.585 124.936 155.926 125.155 156.172 125.432C156.428 125.709 156.609 126.024 156.716 126.376C156.833 126.728 156.892 127.085 156.892 127.448V132.632C156.892 132.739 156.854 132.829 156.78 132.904C156.716 132.968 156.63 133 156.524 133H155.788C155.67 133 155.58 132.968 155.516 132.904C155.452 132.829 155.42 132.739 155.42 132.632V131.944C155.281 132.136 155.094 132.328 154.86 132.52C154.625 132.701 154.332 132.856 153.98 132.984C153.628 133.101 153.196 133.16 152.684 133.16ZM153.02 131.96C153.457 131.96 153.857 131.869 154.22 131.688C154.582 131.496 154.865 131.203 155.068 130.808C155.281 130.413 155.388 129.917 155.388 129.32V128.872L153.532 129.144C152.774 129.251 152.204 129.432 151.82 129.688C151.436 129.933 151.244 130.248 151.244 130.632C151.244 130.931 151.329 131.181 151.5 131.384C151.681 131.576 151.905 131.72 152.172 131.816C152.449 131.912 152.732 131.96 153.02 131.96ZM159.56 133C159.453 133 159.363 132.968 159.288 132.904C159.224 132.829 159.192 132.739 159.192 132.632V125.048C159.192 124.941 159.224 124.856 159.288 124.792C159.363 124.717 159.453 124.68 159.56 124.68H160.328C160.435 124.68 160.52 124.717 160.584 124.792C160.648 124.856 160.68 124.941 160.68 125.048V132.632C160.68 132.739 160.648 132.829 160.584 132.904C160.52 132.968 160.435 133 160.328 133H159.56ZM159.432 123.128C159.325 123.128 159.235 123.096 159.16 123.032C159.096 122.957 159.064 122.867 159.064 122.76V121.896C159.064 121.789 159.096 121.704 159.16 121.64C159.235 121.565 159.325 121.528 159.432 121.528H160.44C160.547 121.528 160.632 121.565 160.696 121.64C160.771 121.704 160.808 121.789 160.808 121.896V122.76C160.808 122.867 160.771 122.957 160.696 123.032C160.632 123.096 160.547 123.128 160.44 123.128H159.432ZM163.451 133C163.344 133 163.254 132.968 163.179 132.904C163.115 132.829 163.083 132.739 163.083 132.632V122.008C163.083 121.901 163.115 121.816 163.179 121.752C163.254 121.677 163.344 121.64 163.451 121.64H164.203C164.32 121.64 164.411 121.677 164.475 121.752C164.539 121.816 164.571 121.901 164.571 122.008V132.632C164.571 132.739 164.539 132.829 164.475 132.904C164.411 132.968 164.32 133 164.203 133H163.451ZM169.278 133.16C168.744 133.16 168.259 133.053 167.822 132.84C167.384 132.627 167.032 132.339 166.766 131.976C166.499 131.613 166.366 131.203 166.366 130.744C166.366 130.008 166.664 129.421 167.262 128.984C167.859 128.547 168.638 128.259 169.598 128.12L171.982 127.784V127.32C171.982 126.808 171.832 126.408 171.534 126.12C171.246 125.832 170.771 125.688 170.11 125.688C169.63 125.688 169.24 125.784 168.942 125.976C168.654 126.168 168.451 126.413 168.334 126.712C168.27 126.872 168.158 126.952 167.998 126.952H167.278C167.16 126.952 167.07 126.92 167.006 126.856C166.952 126.781 166.926 126.696 166.926 126.6C166.926 126.44 166.984 126.243 167.102 126.008C167.23 125.773 167.422 125.544 167.678 125.32C167.934 125.096 168.259 124.909 168.654 124.76C169.059 124.6 169.55 124.52 170.126 124.52C170.766 124.52 171.304 124.605 171.742 124.776C172.179 124.936 172.52 125.155 172.766 125.432C173.022 125.709 173.203 126.024 173.31 126.376C173.427 126.728 173.486 127.085 173.486 127.448V132.632C173.486 132.739 173.448 132.829 173.374 132.904C173.31 132.968 173.224 133 173.118 133H172.382C172.264 133 172.174 132.968 172.11 132.904C172.046 132.829 172.014 132.739 172.014 132.632V131.944C171.875 132.136 171.688 132.328 171.454 132.52C171.219 132.701 170.926 132.856 170.574 132.984C170.222 133.101 169.79 133.16 169.278 133.16ZM169.614 131.96C170.051 131.96 170.451 131.869 170.814 131.688C171.176 131.496 171.459 131.203 171.662 130.808C171.875 130.413 171.982 129.917 171.982 129.32V128.872L170.126 129.144C169.368 129.251 168.798 129.432 168.414 129.688C168.03 129.933 167.838 130.248 167.838 130.632C167.838 130.931 167.923 131.181 168.094 131.384C168.275 131.576 168.499 131.72 168.766 131.816C169.043 131.912 169.326 131.96 169.614 131.96ZM179.898 133.16C179.258 133.16 178.724 133.048 178.298 132.824C177.871 132.589 177.53 132.301 177.274 131.96V132.632C177.274 132.739 177.236 132.829 177.162 132.904C177.098 132.968 177.012 133 176.906 133H176.17C176.063 133 175.972 132.968 175.898 132.904C175.834 132.829 175.802 132.739 175.802 132.632V122.008C175.802 121.901 175.834 121.816 175.898 121.752C175.972 121.677 176.063 121.64 176.17 121.64H176.938C177.055 121.64 177.146 121.677 177.21 121.752C177.274 121.816 177.306 121.901 177.306 122.008V125.688C177.572 125.357 177.914 125.08 178.33 124.856C178.756 124.632 179.279 124.52 179.898 124.52C180.495 124.52 181.002 124.627 181.418 124.84C181.844 125.043 182.191 125.325 182.458 125.688C182.735 126.051 182.943 126.461 183.082 126.92C183.22 127.379 183.295 127.859 183.306 128.36C183.316 128.531 183.322 128.691 183.322 128.84C183.322 128.989 183.316 129.149 183.306 129.32C183.295 129.832 183.22 130.317 183.082 130.776C182.943 131.235 182.735 131.645 182.458 132.008C182.191 132.36 181.844 132.643 181.418 132.856C181.002 133.059 180.495 133.16 179.898 133.16ZM179.562 131.864C180.116 131.864 180.548 131.747 180.858 131.512C181.178 131.267 181.407 130.952 181.546 130.568C181.684 130.173 181.764 129.752 181.786 129.304C181.796 128.995 181.796 128.685 181.786 128.376C181.764 127.928 181.684 127.512 181.546 127.128C181.407 126.733 181.178 126.419 180.858 126.184C180.548 125.939 180.116 125.816 179.562 125.816C179.06 125.816 178.644 125.933 178.314 126.168C177.983 126.403 177.732 126.701 177.562 127.064C177.402 127.427 177.316 127.795 177.306 128.168C177.295 128.339 177.29 128.547 177.29 128.792C177.29 129.027 177.295 129.229 177.306 129.4C177.327 129.795 177.412 130.184 177.562 130.568C177.722 130.941 177.962 131.251 178.282 131.496C178.612 131.741 179.039 131.864 179.562 131.864ZM185.685 133C185.579 133 185.488 132.968 185.413 132.904C185.349 132.829 185.317 132.739 185.317 132.632V122.008C185.317 121.901 185.349 121.816 185.413 121.752C185.488 121.677 185.579 121.64 185.685 121.64H186.437C186.555 121.64 186.645 121.677 186.709 121.752C186.773 121.816 186.805 121.901 186.805 122.008V132.632C186.805 132.739 186.773 132.829 186.709 132.904C186.645 132.968 186.555 133 186.437 133H185.685ZM192.504 133.16C191.405 133.16 190.531 132.824 189.88 132.152C189.229 131.469 188.872 130.541 188.808 129.368C188.797 129.229 188.792 129.053 188.792 128.84C188.792 128.616 188.797 128.435 188.808 128.296C188.851 127.539 189.027 126.877 189.336 126.312C189.645 125.736 190.067 125.293 190.6 124.984C191.144 124.675 191.779 124.52 192.504 124.52C193.315 124.52 193.992 124.691 194.536 125.032C195.091 125.373 195.512 125.859 195.8 126.488C196.088 127.117 196.232 127.853 196.232 128.696V128.968C196.232 129.085 196.195 129.176 196.12 129.24C196.056 129.304 195.971 129.336 195.864 129.336H190.328C190.328 129.347 190.328 129.368 190.328 129.4C190.328 129.432 190.328 129.459 190.328 129.48C190.349 129.917 190.445 130.328 190.616 130.712C190.787 131.085 191.032 131.389 191.352 131.624C191.672 131.859 192.056 131.976 192.504 131.976C192.888 131.976 193.208 131.917 193.464 131.8C193.72 131.683 193.928 131.555 194.088 131.416C194.248 131.267 194.355 131.155 194.408 131.08C194.504 130.941 194.579 130.861 194.632 130.84C194.685 130.808 194.771 130.792 194.888 130.792H195.656C195.763 130.792 195.848 130.824 195.912 130.888C195.987 130.941 196.019 131.021 196.008 131.128C195.997 131.288 195.912 131.485 195.752 131.72C195.592 131.944 195.363 132.168 195.064 132.392C194.765 132.616 194.403 132.803 193.976 132.952C193.549 133.091 193.059 133.16 192.504 133.16ZM190.328 128.232H194.712V128.184C194.712 127.704 194.621 127.277 194.44 126.904C194.269 126.531 194.019 126.237 193.688 126.024C193.357 125.8 192.963 125.688 192.504 125.688C192.045 125.688 191.651 125.8 191.32 126.024C191 126.237 190.755 126.531 190.584 126.904C190.413 127.277 190.328 127.704 190.328 128.184V128.232Z" fill="black"/>
</g>
<defs>
<clipPath id="clip0_4_2">
<rect width="256" height="256" fill="white"/>
</clipPath>
</defs>
</svg>
