<?xml version="1.0" encoding="UTF-8"?>
<svg version="1.1" baseProfile="tiny" xmlns="http://www.w3.org/2000/svg" width="200" height="200">
<rect shape-rendering="optimizeSpeed"  x="0" y="0" width="200" height="200" fill="white" />
<rect shape-rendering="optimizeSpeed"  x="16" y="16" width="8" height="8" fill="black" />
<rect shape-rendering="optimizeSpeed"  x="24" y="16" width="8" height="8" fill="black" />
<rect shape-rendering="optimizeSpeed"  x="32" y="16" width="8" height="8" fill="black" />
<rect shape-rendering="optimizeSpeed"  x="40" y="16" width="8" height="8" fill="black" />
<rect shape-rendering="optimizeSpeed"  x="48" y="16" width="8" height="8" fill="black" />
<rect shape-rendering="optimizeSpeed"  x="56" y="16" width="8" height="8" fill="black" />
<rect shape-rendering="optimizeSpeed"  x="64" y="16" width="8" height="8" fill="black" />
<rect shape-rendering="optimizeSpeed"  x="88" y="16" width="8" height="8" fill="black" />
<rect shape-rendering="optimizeSpeed"  x="128" y="16" width="8" height="8" fill="black" />
<rect shape-rendering="optimizeSpeed"  x="136" y="16" width="8" height="8" fill="black" />
<rect shape-rendering="optimizeSpeed"  x="144" y="16" width="8" height="8" fill="black" />
<rect shape-rendering="optimizeSpeed"  x="152" y="16" width="8" height="8" fill="black" />
<rect shape-rendering="optimizeSpeed"  x="160" y="16" width="8" height="8" fill="black" />
<rect shape-rendering="optimizeSpeed"  x="168" y="16" width="8" height="8" fill="black" />
<rect shape-rendering="optimizeSpeed"  x="176" y="16" width="8" height="8" fill="black" />
<rect shape-rendering="optimizeSpeed"  x="16" y="24" width="8" height="8" fill="black" />
<rect shape-rendering="optimizeSpeed"  x="64" y="24" width="8" height="8" fill="black" />
<rect shape-rendering="optimizeSpeed"  x="96" y="24" width="8" height="8" fill="black" />
<rect shape-rendering="optimizeSpeed"  x="104" y="24" width="8" height="8" fill="black" />
<rect shape-rendering="optimizeSpeed"  x="112" y="24" width="8" height="8" fill="black" />
<rect shape-rendering="optimizeSpeed"  x="128" y="24" width="8" height="8" fill="black" />
<rect shape-rendering="optimizeSpeed"  x="176" y="24" width="8" height="8" fill="black" />
<rect shape-rendering="optimizeSpeed"  x="16" y="32" width="8" height="8" fill="black" />
<rect shape-rendering="optimizeSpeed"  x="32" y="32" width="8" height="8" fill="black" />
<rect shape-rendering="optimizeSpeed"  x="40" y="32" width="8" height="8" fill="black" />
<rect shape-rendering="optimizeSpeed"  x="48" y="32" width="8" height="8" fill="black" />
<rect shape-rendering="optimizeSpeed"  x="64" y="32" width="8" height="8" fill="black" />
<rect shape-rendering="optimizeSpeed"  x="88" y="32" width="8" height="8" fill="black" />
<rect shape-rendering="optimizeSpeed"  x="104" y="32" width="8" height="8" fill="black" />
<rect shape-rendering="optimizeSpeed"  x="112" y="32" width="8" height="8" fill="black" />
<rect shape-rendering="optimizeSpeed"  x="128" y="32" width="8" height="8" fill="black" />
<rect shape-rendering="optimizeSpeed"  x="144" y="32" width="8" height="8" fill="black" />
<rect shape-rendering="optimizeSpeed"  x="152" y="32" width="8" height="8" fill="black" />
<rect shape-rendering="optimizeSpeed"  x="160" y="32" width="8" height="8" fill="black" />
<rect shape-rendering="optimizeSpeed"  x="176" y="32" width="8" height="8" fill="black" />
<rect shape-rendering="optimizeSpeed"  x="16" y="40" width="8" height="8" fill="black" />
<rect shape-rendering="optimizeSpeed"  x="32" y="40" width="8" height="8" fill="black" />
<rect shape-rendering="optimizeSpeed"  x="40" y="40" width="8" height="8" fill="black" />
<rect shape-rendering="optimizeSpeed"  x="48" y="40" width="8" height="8" fill="black" />
<rect shape-rendering="optimizeSpeed"  x="64" y="40" width="8" height="8" fill="black" />
<rect shape-rendering="optimizeSpeed"  x="80" y="40" width="8" height="8" fill="black" />
<rect shape-rendering="optimizeSpeed"  x="128" y="40" width="8" height="8" fill="black" />
<rect shape-rendering="optimizeSpeed"  x="144" y="40" width="8" height="8" fill="black" />
<rect shape-rendering="optimizeSpeed"  x="152" y="40" width="8" height="8" fill="black" />
<rect shape-rendering="optimizeSpeed"  x="160" y="40" width="8" height="8" fill="black" />
<rect shape-rendering="optimizeSpeed"  x="176" y="40" width="8" height="8" fill="black" />
<rect shape-rendering="optimizeSpeed"  x="16" y="48" width="8" height="8" fill="black" />
<rect shape-rendering="optimizeSpeed"  x="32" y="48" width="8" height="8" fill="black" />
<rect shape-rendering="optimizeSpeed"  x="40" y="48" width="8" height="8" fill="black" />
<rect shape-rendering="optimizeSpeed"  x="48" y="48" width="8" height="8" fill="black" />
<rect shape-rendering="optimizeSpeed"  x="64" y="48" width="8" height="8" fill="black" />
<rect shape-rendering="optimizeSpeed"  x="80" y="48" width="8" height="8" fill="black" />
<rect shape-rendering="optimizeSpeed"  x="96" y="48" width="8" height="8" fill="black" />
<rect shape-rendering="optimizeSpeed"  x="104" y="48" width="8" height="8" fill="black" />
<rect shape-rendering="optimizeSpeed"  x="128" y="48" width="8" height="8" fill="black" />
<rect shape-rendering="optimizeSpeed"  x="144" y="48" width="8" height="8" fill="black" />
<rect shape-rendering="optimizeSpeed"  x="152" y="48" width="8" height="8" fill="black" />
<rect shape-rendering="optimizeSpeed"  x="160" y="48" width="8" height="8" fill="black" />
<rect shape-rendering="optimizeSpeed"  x="176" y="48" width="8" height="8" fill="black" />
<rect shape-rendering="optimizeSpeed"  x="16" y="56" width="8" height="8" fill="black" />
<rect shape-rendering="optimizeSpeed"  x="64" y="56" width="8" height="8" fill="black" />
<rect shape-rendering="optimizeSpeed"  x="88" y="56" width="8" height="8" fill="black" />
<rect shape-rendering="optimizeSpeed"  x="96" y="56" width="8" height="8" fill="black" />
<rect shape-rendering="optimizeSpeed"  x="104" y="56" width="8" height="8" fill="black" />
<rect shape-rendering="optimizeSpeed"  x="112" y="56" width="8" height="8" fill="black" />
<rect shape-rendering="optimizeSpeed"  x="128" y="56" width="8" height="8" fill="black" />
<rect shape-rendering="optimizeSpeed"  x="176" y="56" width="8" height="8" fill="black" />
<rect shape-rendering="optimizeSpeed"  x="16" y="64" width="8" height="8" fill="black" />
<rect shape-rendering="optimizeSpeed"  x="24" y="64" width="8" height="8" fill="black" />
<rect shape-rendering="optimizeSpeed"  x="32" y="64" width="8" height="8" fill="black" />
<rect shape-rendering="optimizeSpeed"  x="40" y="64" width="8" height="8" fill="black" />
<rect shape-rendering="optimizeSpeed"  x="48" y="64" width="8" height="8" fill="black" />
<rect shape-rendering="optimizeSpeed"  x="56" y="64" width="8" height="8" fill="black" />
<rect shape-rendering="optimizeSpeed"  x="64" y="64" width="8" height="8" fill="black" />
<rect shape-rendering="optimizeSpeed"  x="80" y="64" width="8" height="8" fill="black" />
<rect shape-rendering="optimizeSpeed"  x="96" y="64" width="8" height="8" fill="black" />
<rect shape-rendering="optimizeSpeed"  x="112" y="64" width="8" height="8" fill="black" />
<rect shape-rendering="optimizeSpeed"  x="128" y="64" width="8" height="8" fill="black" />
<rect shape-rendering="optimizeSpeed"  x="136" y="64" width="8" height="8" fill="black" />
<rect shape-rendering="optimizeSpeed"  x="144" y="64" width="8" height="8" fill="black" />
<rect shape-rendering="optimizeSpeed"  x="152" y="64" width="8" height="8" fill="black" />
<rect shape-rendering="optimizeSpeed"  x="160" y="64" width="8" height="8" fill="black" />
<rect shape-rendering="optimizeSpeed"  x="168" y="64" width="8" height="8" fill="black" />
<rect shape-rendering="optimizeSpeed"  x="176" y="64" width="8" height="8" fill="black" />
<rect shape-rendering="optimizeSpeed"  x="112" y="72" width="8" height="8" fill="black" />
<rect shape-rendering="optimizeSpeed"  x="16" y="80" width="8" height="8" fill="black" />
<rect shape-rendering="optimizeSpeed"  x="24" y="80" width="8" height="8" fill="black" />
<rect shape-rendering="optimizeSpeed"  x="56" y="80" width="8" height="8" fill="black" />
<rect shape-rendering="optimizeSpeed"  x="64" y="80" width="8" height="8" fill="black" />
<rect shape-rendering="optimizeSpeed"  x="72" y="80" width="8" height="8" fill="black" />
<rect shape-rendering="optimizeSpeed"  x="88" y="80" width="8" height="8" fill="black" />
<rect shape-rendering="optimizeSpeed"  x="144" y="80" width="8" height="8" fill="black" />
<rect shape-rendering="optimizeSpeed"  x="152" y="80" width="8" height="8" fill="black" />
<rect shape-rendering="optimizeSpeed"  x="24" y="88" width="8" height="8" fill="black" />
<rect shape-rendering="optimizeSpeed"  x="40" y="88" width="8" height="8" fill="black" />
<rect shape-rendering="optimizeSpeed"  x="88" y="88" width="8" height="8" fill="black" />
<rect shape-rendering="optimizeSpeed"  x="96" y="88" width="8" height="8" fill="black" />
<rect shape-rendering="optimizeSpeed"  x="104" y="88" width="8" height="8" fill="black" />
<rect shape-rendering="optimizeSpeed"  x="120" y="88" width="8" height="8" fill="black" />
<rect shape-rendering="optimizeSpeed"  x="152" y="88" width="8" height="8" fill="black" />
<rect shape-rendering="optimizeSpeed"  x="160" y="88" width="8" height="8" fill="black" />
<rect shape-rendering="optimizeSpeed"  x="168" y="88" width="8" height="8" fill="black" />
<rect shape-rendering="optimizeSpeed"  x="16" y="96" width="8" height="8" fill="black" />
<rect shape-rendering="optimizeSpeed"  x="32" y="96" width="8" height="8" fill="black" />
<rect shape-rendering="optimizeSpeed"  x="40" y="96" width="8" height="8" fill="black" />
<rect shape-rendering="optimizeSpeed"  x="48" y="96" width="8" height="8" fill="black" />
<rect shape-rendering="optimizeSpeed"  x="64" y="96" width="8" height="8" fill="black" />
<rect shape-rendering="optimizeSpeed"  x="72" y="96" width="8" height="8" fill="black" />
<rect shape-rendering="optimizeSpeed"  x="88" y="96" width="8" height="8" fill="black" />
<rect shape-rendering="optimizeSpeed"  x="104" y="96" width="8" height="8" fill="black" />
<rect shape-rendering="optimizeSpeed"  x="112" y="96" width="8" height="8" fill="black" />
<rect shape-rendering="optimizeSpeed"  x="120" y="96" width="8" height="8" fill="black" />
<rect shape-rendering="optimizeSpeed"  x="128" y="96" width="8" height="8" fill="black" />
<rect shape-rendering="optimizeSpeed"  x="136" y="96" width="8" height="8" fill="black" />
<rect shape-rendering="optimizeSpeed"  x="160" y="96" width="8" height="8" fill="black" />
<rect shape-rendering="optimizeSpeed"  x="168" y="96" width="8" height="8" fill="black" />
<rect shape-rendering="optimizeSpeed"  x="16" y="104" width="8" height="8" fill="black" />
<rect shape-rendering="optimizeSpeed"  x="24" y="104" width="8" height="8" fill="black" />
<rect shape-rendering="optimizeSpeed"  x="40" y="104" width="8" height="8" fill="black" />
<rect shape-rendering="optimizeSpeed"  x="48" y="104" width="8" height="8" fill="black" />
<rect shape-rendering="optimizeSpeed"  x="80" y="104" width="8" height="8" fill="black" />
<rect shape-rendering="optimizeSpeed"  x="88" y="104" width="8" height="8" fill="black" />
<rect shape-rendering="optimizeSpeed"  x="96" y="104" width="8" height="8" fill="black" />
<rect shape-rendering="optimizeSpeed"  x="120" y="104" width="8" height="8" fill="black" />
<rect shape-rendering="optimizeSpeed"  x="136" y="104" width="8" height="8" fill="black" />
<rect shape-rendering="optimizeSpeed"  x="144" y="104" width="8" height="8" fill="black" />
<rect shape-rendering="optimizeSpeed"  x="152" y="104" width="8" height="8" fill="black" />
<rect shape-rendering="optimizeSpeed"  x="160" y="104" width="8" height="8" fill="black" />
<rect shape-rendering="optimizeSpeed"  x="16" y="112" width="8" height="8" fill="black" />
<rect shape-rendering="optimizeSpeed"  x="32" y="112" width="8" height="8" fill="black" />
<rect shape-rendering="optimizeSpeed"  x="40" y="112" width="8" height="8" fill="black" />
<rect shape-rendering="optimizeSpeed"  x="48" y="112" width="8" height="8" fill="black" />
<rect shape-rendering="optimizeSpeed"  x="64" y="112" width="8" height="8" fill="black" />
<rect shape-rendering="optimizeSpeed"  x="88" y="112" width="8" height="8" fill="black" />
<rect shape-rendering="optimizeSpeed"  x="168" y="112" width="8" height="8" fill="black" />
<rect shape-rendering="optimizeSpeed"  x="80" y="120" width="8" height="8" fill="black" />
<rect shape-rendering="optimizeSpeed"  x="96" y="120" width="8" height="8" fill="black" />
<rect shape-rendering="optimizeSpeed"  x="144" y="120" width="8" height="8" fill="black" />
<rect shape-rendering="optimizeSpeed"  x="152" y="120" width="8" height="8" fill="black" />
<rect shape-rendering="optimizeSpeed"  x="160" y="120" width="8" height="8" fill="black" />
<rect shape-rendering="optimizeSpeed"  x="176" y="120" width="8" height="8" fill="black" />
<rect shape-rendering="optimizeSpeed"  x="16" y="128" width="8" height="8" fill="black" />
<rect shape-rendering="optimizeSpeed"  x="24" y="128" width="8" height="8" fill="black" />
<rect shape-rendering="optimizeSpeed"  x="32" y="128" width="8" height="8" fill="black" />
<rect shape-rendering="optimizeSpeed"  x="40" y="128" width="8" height="8" fill="black" />
<rect shape-rendering="optimizeSpeed"  x="48" y="128" width="8" height="8" fill="black" />
<rect shape-rendering="optimizeSpeed"  x="56" y="128" width="8" height="8" fill="black" />
<rect shape-rendering="optimizeSpeed"  x="64" y="128" width="8" height="8" fill="black" />
<rect shape-rendering="optimizeSpeed"  x="80" y="128" width="8" height="8" fill="black" />
<rect shape-rendering="optimizeSpeed"  x="96" y="128" width="8" height="8" fill="black" />
<rect shape-rendering="optimizeSpeed"  x="112" y="128" width="8" height="8" fill="black" />
<rect shape-rendering="optimizeSpeed"  x="136" y="128" width="8" height="8" fill="black" />
<rect shape-rendering="optimizeSpeed"  x="160" y="128" width="8" height="8" fill="black" />
<rect shape-rendering="optimizeSpeed"  x="168" y="128" width="8" height="8" fill="black" />
<rect shape-rendering="optimizeSpeed"  x="16" y="136" width="8" height="8" fill="black" />
<rect shape-rendering="optimizeSpeed"  x="64" y="136" width="8" height="8" fill="black" />
<rect shape-rendering="optimizeSpeed"  x="80" y="136" width="8" height="8" fill="black" />
<rect shape-rendering="optimizeSpeed"  x="96" y="136" width="8" height="8" fill="black" />
<rect shape-rendering="optimizeSpeed"  x="112" y="136" width="8" height="8" fill="black" />
<rect shape-rendering="optimizeSpeed"  x="120" y="136" width="8" height="8" fill="black" />
<rect shape-rendering="optimizeSpeed"  x="128" y="136" width="8" height="8" fill="black" />
<rect shape-rendering="optimizeSpeed"  x="152" y="136" width="8" height="8" fill="black" />
<rect shape-rendering="optimizeSpeed"  x="160" y="136" width="8" height="8" fill="black" />
<rect shape-rendering="optimizeSpeed"  x="168" y="136" width="8" height="8" fill="black" />
<rect shape-rendering="optimizeSpeed"  x="176" y="136" width="8" height="8" fill="black" />
<rect shape-rendering="optimizeSpeed"  x="16" y="144" width="8" height="8" fill="black" />
<rect shape-rendering="optimizeSpeed"  x="32" y="144" width="8" height="8" fill="black" />
<rect shape-rendering="optimizeSpeed"  x="40" y="144" width="8" height="8" fill="black" />
<rect shape-rendering="optimizeSpeed"  x="48" y="144" width="8" height="8" fill="black" />
<rect shape-rendering="optimizeSpeed"  x="64" y="144" width="8" height="8" fill="black" />
<rect shape-rendering="optimizeSpeed"  x="88" y="144" width="8" height="8" fill="black" />
<rect shape-rendering="optimizeSpeed"  x="112" y="144" width="8" height="8" fill="black" />
<rect shape-rendering="optimizeSpeed"  x="128" y="144" width="8" height="8" fill="black" />
<rect shape-rendering="optimizeSpeed"  x="136" y="144" width="8" height="8" fill="black" />
<rect shape-rendering="optimizeSpeed"  x="144" y="144" width="8" height="8" fill="black" />
<rect shape-rendering="optimizeSpeed"  x="152" y="144" width="8" height="8" fill="black" />
<rect shape-rendering="optimizeSpeed"  x="16" y="152" width="8" height="8" fill="black" />
<rect shape-rendering="optimizeSpeed"  x="32" y="152" width="8" height="8" fill="black" />
<rect shape-rendering="optimizeSpeed"  x="40" y="152" width="8" height="8" fill="black" />
<rect shape-rendering="optimizeSpeed"  x="48" y="152" width="8" height="8" fill="black" />
<rect shape-rendering="optimizeSpeed"  x="64" y="152" width="8" height="8" fill="black" />
<rect shape-rendering="optimizeSpeed"  x="96" y="152" width="8" height="8" fill="black" />
<rect shape-rendering="optimizeSpeed"  x="104" y="152" width="8" height="8" fill="black" />
<rect shape-rendering="optimizeSpeed"  x="120" y="152" width="8" height="8" fill="black" />
<rect shape-rendering="optimizeSpeed"  x="128" y="152" width="8" height="8" fill="black" />
<rect shape-rendering="optimizeSpeed"  x="136" y="152" width="8" height="8" fill="black" />
<rect shape-rendering="optimizeSpeed"  x="144" y="152" width="8" height="8" fill="black" />
<rect shape-rendering="optimizeSpeed"  x="160" y="152" width="8" height="8" fill="black" />
<rect shape-rendering="optimizeSpeed"  x="168" y="152" width="8" height="8" fill="black" />
<rect shape-rendering="optimizeSpeed"  x="16" y="160" width="8" height="8" fill="black" />
<rect shape-rendering="optimizeSpeed"  x="32" y="160" width="8" height="8" fill="black" />
<rect shape-rendering="optimizeSpeed"  x="40" y="160" width="8" height="8" fill="black" />
<rect shape-rendering="optimizeSpeed"  x="48" y="160" width="8" height="8" fill="black" />
<rect shape-rendering="optimizeSpeed"  x="64" y="160" width="8" height="8" fill="black" />
<rect shape-rendering="optimizeSpeed"  x="88" y="160" width="8" height="8" fill="black" />
<rect shape-rendering="optimizeSpeed"  x="112" y="160" width="8" height="8" fill="black" />
<rect shape-rendering="optimizeSpeed"  x="136" y="160" width="8" height="8" fill="black" />
<rect shape-rendering="optimizeSpeed"  x="144" y="160" width="8" height="8" fill="black" />
<rect shape-rendering="optimizeSpeed"  x="152" y="160" width="8" height="8" fill="black" />
<rect shape-rendering="optimizeSpeed"  x="160" y="160" width="8" height="8" fill="black" />
<rect shape-rendering="optimizeSpeed"  x="168" y="160" width="8" height="8" fill="black" />
<rect shape-rendering="optimizeSpeed"  x="176" y="160" width="8" height="8" fill="black" />
<rect shape-rendering="optimizeSpeed"  x="16" y="168" width="8" height="8" fill="black" />
<rect shape-rendering="optimizeSpeed"  x="64" y="168" width="8" height="8" fill="black" />
<rect shape-rendering="optimizeSpeed"  x="80" y="168" width="8" height="8" fill="black" />
<rect shape-rendering="optimizeSpeed"  x="104" y="168" width="8" height="8" fill="black" />
<rect shape-rendering="optimizeSpeed"  x="112" y="168" width="8" height="8" fill="black" />
<rect shape-rendering="optimizeSpeed"  x="120" y="168" width="8" height="8" fill="black" />
<rect shape-rendering="optimizeSpeed"  x="136" y="168" width="8" height="8" fill="black" />
<rect shape-rendering="optimizeSpeed"  x="144" y="168" width="8" height="8" fill="black" />
<rect shape-rendering="optimizeSpeed"  x="152" y="168" width="8" height="8" fill="black" />
<rect shape-rendering="optimizeSpeed"  x="160" y="168" width="8" height="8" fill="black" />
<rect shape-rendering="optimizeSpeed"  x="16" y="176" width="8" height="8" fill="black" />
<rect shape-rendering="optimizeSpeed"  x="24" y="176" width="8" height="8" fill="black" />
<rect shape-rendering="optimizeSpeed"  x="32" y="176" width="8" height="8" fill="black" />
<rect shape-rendering="optimizeSpeed"  x="40" y="176" width="8" height="8" fill="black" />
<rect shape-rendering="optimizeSpeed"  x="48" y="176" width="8" height="8" fill="black" />
<rect shape-rendering="optimizeSpeed"  x="56" y="176" width="8" height="8" fill="black" />
<rect shape-rendering="optimizeSpeed"  x="64" y="176" width="8" height="8" fill="black" />
<rect shape-rendering="optimizeSpeed"  x="80" y="176" width="8" height="8" fill="black" />
<rect shape-rendering="optimizeSpeed"  x="88" y="176" width="8" height="8" fill="black" />
<rect shape-rendering="optimizeSpeed"  x="112" y="176" width="8" height="8" fill="black" />
<rect shape-rendering="optimizeSpeed"  x="128" y="176" width="8" height="8" fill="black" />
<rect shape-rendering="optimizeSpeed"  x="136" y="176" width="8" height="8" fill="black" />
<rect shape-rendering="optimizeSpeed"  x="152" y="176" width="8" height="8" fill="black" />
<rect shape-rendering="optimizeSpeed"  x="168" y="176" width="8" height="8" fill="black" /></svg>