<?xml version="1.0" encoding="UTF-8" standalone="no"?>
<!DOCTYPE svg PUBLIC "-//W3C//DTD SVG 1.1//EN" "http://www.w3.org/Graphics/SVG/1.1/DTD/svg11.dtd">
<svg width="100%" height="100%" viewBox="0 0 811 596" version="1.1" xmlns="http://www.w3.org/2000/svg" xmlns:xlink="http://www.w3.org/1999/xlink" xml:space="preserve" xmlns:serif="http://www.serif.com/" style="fill-rule:evenodd;clip-rule:evenodd;stroke-linejoin:round;stroke-miterlimit:2;">
    <path d="M378.969,471.236L391.767,465.509L375.738,412.214L356.848,420.666L378.969,471.236Z" style="fill:rgb(255,182,182);fill-rule:nonzero;"/>
    <g transform="matrix(1,0,0,1,-194.934,-152.357)">
        <path d="M564.736,609.125L583.881,595.605L589.165,604.123L616.165,605.451C619.48,605.614 622.119,608.386 622.119,611.705C622.119,613.869 620.997,615.885 619.158,617.026L595.489,631.709L586.183,625.814L589.816,635.228L580.892,640.764L564.736,609.125Z" style="fill:rgb(47,46,65);fill-rule:nonzero;"/>
    </g>
    <g transform="matrix(1,0,0,1,-194.934,-152.357)">
        <path d="M902.658,522.718C902.658,517.358 900.858,513.008 898.648,512.998L296.158,512.998C293.938,513.008 292.148,517.358 292.138,522.718L292.138,743.361C292.138,744.387 291.35,745.256 290.329,745.355C288.712,745.51 287.095,745.655 285.478,745.788C285.438,745.788 285.398,745.798 285.358,745.798C284.478,745.878 283.598,745.938 282.718,746.008L282.708,746.008C282.255,745.171 281.808,744.327 281.366,743.476C281.216,743.189 281.138,742.87 281.138,742.546L281.138,510.108C281.138,508.628 281.198,507.138 281.298,505.668C281.441,503.65 281.691,501.64 282.048,499.648C283.738,490.358 287.558,484.068 291.898,484.048L902.898,484.048C903.531,484.052 904.157,484.185 904.738,484.438C905.591,484.816 906.362,485.356 907.008,486.028C907.885,486.94 908.635,487.966 909.238,489.078C911.378,492.848 912.908,498.468 913.448,505.008C913.448,505.068 913.458,505.128 913.458,505.188C913.598,506.808 913.668,508.458 913.658,510.108L913.798,531.538L913.888,544.318L914.158,584.418L914.258,598.658L914.698,744.858C914.698,745.955 913.795,746.858 912.698,746.858L904.658,746.858C903.561,746.858 902.658,745.955 902.658,744.858L902.658,522.718Z" style="fill:rgb(230,230,230);fill-rule:nonzero;"/>
    </g>
    <g transform="matrix(1,0,0,1,-194.934,-152.357)">
        <path d="M738.942,383.773L674.023,383.773C672.123,383.775 670.562,385.34 670.564,387.24L670.564,489.793L742.41,489.793L742.41,387.24C742.41,387.239 742.41,387.239 742.41,387.238C742.41,385.337 740.845,383.772 738.944,383.772C738.943,383.772 738.943,383.772 738.942,383.773ZM706.701,442.042C702.503,442.023 699.054,438.574 699.035,434.376L699.035,422.548C699.04,418.346 702.499,414.89 706.701,414.89C710.903,414.89 714.362,418.346 714.367,422.548L714.367,434.376C714.347,438.574 710.899,442.023 706.701,442.042Z" style="fill:rgb(47,46,65);fill-rule:nonzero;"/>
    </g>
    <g transform="matrix(1,0,0,1,-194.934,-152.357)">
        <path d="M670.341,486.513L670.341,496.408C670.343,497.468 671.215,498.34 672.276,498.342L740.698,498.342C741.757,498.337 742.627,497.467 742.632,496.408L742.632,486.513L670.341,486.513Z" style="fill:rgb(63,61,86);fill-rule:nonzero;"/>
    </g>
    <g transform="matrix(1,0,0,1,-194.934,-152.357)">
        <path d="M586.932,240.957C584.842,246.218 579.726,249.69 574.066,249.69C571.489,249.69 568.964,248.971 566.774,247.614L475.136,311.453L472.606,286.012L562.708,227.636C565.319,223.986 569.541,221.815 574.029,221.815C581.665,221.815 587.949,228.098 587.949,235.734C587.949,237.524 587.603,239.297 586.932,240.957L586.932,240.957Z" style="fill:rgb(255,182,182);fill-rule:nonzero;"/>
    </g>
    <g transform="matrix(1,0,0,1,-194.934,-152.357)">
        <path d="M381.76,281.208C381.76,281.208 371.837,295.87 387.408,308.844C402.979,321.819 466.089,319.238 476.273,319.126C486.458,319.015 533.186,270.676 533.186,270.676L532.88,242.758L476.462,276.234L381.76,281.208Z" style="fill:rgb(128,118,250);fill-rule:nonzero;"/>
    </g>
    <g transform="matrix(1,0,0,1,-194.934,-152.357)">
        <path d="M376.142,378.55L377.142,397.55C377.142,397.55 374.19,414.38 376.618,418.012C379.027,421.626 445.186,427.003 445.186,427.003C445.186,427.003 443.112,398.666 446.854,378.17L376.142,378.55Z" style="fill:rgb(255,182,182);fill-rule:nonzero;"/>
    </g>
    <g transform="matrix(1,0,0,1,-194.934,-152.357)">
        <path d="M579.186,572.003L553.719,594.295L503.806,492.214C454.311,500.727 407.616,503.454 367.228,493.156C353.553,489.718 345.194,475.598 348.558,461.619C348.715,460.965 348.896,460.319 349.103,459.679C353.937,444.931 366.59,434.496 376.559,418.275L449.375,419.381L441.242,447.443L511.979,438.29C526.204,436.449 539.196,446.746 540.996,461.288C541.092,462.056 541.154,462.827 541.183,463.601L579.186,572.003Z" style="fill:rgb(47,46,65);fill-rule:nonzero;"/>
    </g>
    <circle cx="209.64" cy="68.762" r="29.568" style="fill:rgb(255,182,182);"/>
    <g transform="matrix(1,0,0,1,-194.934,-152.357)">
        <path d="M387.24,261.362L414.351,264.551C416.689,264.826 418.607,266.565 419.109,268.864L423.421,288.593L450.297,320.244C450.297,320.244 459.948,338.34 456.329,358.849C454.151,371.198 450.383,383.214 445.12,394.596C439.856,405.978 379.024,421.628 376.611,418.009C374.198,414.39 373.415,397.95 373.415,397.95L364.912,303.348C363.927,293.262 367.509,283.247 374.667,276.073C376.813,273.963 378.93,272.485 380.653,272.485C384.546,272.354 384.047,263.592 387.24,261.362Z" style="fill:rgb(128,118,250);fill-rule:nonzero;"/>
    </g>
    <path d="M250.479,510.874L263.06,517.036L293.347,470.36L274.778,461.265L250.479,510.874Z" style="fill:rgb(255,182,182);fill-rule:nonzero;"/>
    <g transform="matrix(1,0,0,1,-194.934,-152.357)">
        <path d="M475.551,652.682L449.704,642.869L485.178,536.323C436.985,522.193 400.632,499.434 368.892,472.418C358.124,463.315 350.049,451.623 359.22,440.549C359.648,440.031 360.096,439.531 360.563,439.047C371.391,427.93 398.874,430.069 414.963,419.887L450.944,458.303L448.69,468.594L516.24,491.493C529.825,496.098 536.962,511.06 532.182,524.911C531.929,525.643 531.646,526.363 531.331,527.071L475.551,652.682Z" style="fill:rgb(47,46,65);fill-rule:nonzero;"/>
    </g>
    <g transform="matrix(1,0,0,1,-194.934,-152.357)">
        <path d="M444.984,655.794L466.609,664.833L462.199,673.835L475.416,697.416C475.941,698.351 476.216,699.405 476.216,700.478C476.216,703.912 473.39,706.739 469.955,706.739C469,706.739 468.057,706.52 467.2,706.1L442.186,693.847L442.237,682.83L436.191,690.91L426.76,686.29L444.984,655.794Z" style="fill:rgb(47,46,65);fill-rule:nonzero;"/>
    </g>
    <g transform="matrix(1,0,0,1,-194.934,-152.357)">
        <path d="M402.697,492.659C398.78,490.106 396.411,485.735 396.411,481.059C396.411,477.539 397.754,474.148 400.164,471.582L355.735,369.117L381.172,371.675L420.551,471.552C422.953,474.128 424.291,477.523 424.291,481.046C424.291,488.682 418.007,494.965 410.371,494.965C407.643,494.965 404.974,494.163 402.697,492.659L402.697,492.659Z" style="fill:rgb(255,182,182);fill-rule:nonzero;"/>
    </g>
    <g transform="matrix(1,0,0,1,-194.934,-152.357)">
        <path d="M403.871,283.579C403.871,283.579 391.464,270.95 375.663,283.643C359.862,296.336 349.895,358.708 347.988,368.713C346.081,378.717 384.209,434.092 384.209,434.092L411.634,439.321L389.993,377.391L403.871,283.579Z" style="fill:rgb(128,118,250);fill-rule:nonzero;"/>
    </g>
    <g transform="matrix(1,0,0,1,-194.934,-152.357)">
        <path d="M846.443,223.726L568.938,223.726C564.007,223.734 559.952,227.789 559.944,232.72L559.944,419.982C559.948,424.914 564.006,428.971 568.938,428.976L846.443,428.976C851.375,428.971 855.432,424.914 855.437,419.982L855.437,232.72C855.429,227.789 851.374,223.734 846.443,223.726Z" style="fill:rgb(63,61,86);fill-rule:nonzero;"/>
    </g>
    <g transform="matrix(1,0,0,1,-194.934,-152.357)">
        <path d="M844.126,230.223L571.256,230.223C568.616,230.228 566.447,232.402 566.446,235.043L566.446,417.663C566.451,420.299 568.619,422.468 571.256,422.473L844.126,422.473C846.763,422.468 848.932,420.299 848.936,417.663L848.936,235.043C848.936,232.402 846.767,230.228 844.126,230.223Z" style="fill:white;fill-rule:nonzero;"/>
    </g>
    <g transform="matrix(1,0,0,1,-194.934,-152.357)">
        <path d="M790.976,501.785L628.633,501.785C626.995,501.785 625.647,500.437 625.647,498.798C625.647,498.592 625.668,498.385 625.711,498.183L628.23,486.219C628.524,484.845 629.746,483.853 631.152,483.848L788.457,483.848C789.862,483.853 791.085,484.845 791.379,486.219L793.898,498.183C793.941,498.385 793.962,498.592 793.962,498.798C793.962,500.437 792.614,501.785 790.976,501.785C790.976,501.785 790.976,501.785 790.976,501.785L790.976,501.785Z" style="fill:rgb(47,46,65);fill-rule:nonzero;"/>
    </g>
    <path d="M442.37,334.133C442.37,333.864 442.151,333.645 441.882,333.645L437.858,333.645C437.589,333.645 437.37,333.864 437.37,334.133L437.37,336.157C437.37,336.426 437.589,336.645 437.858,336.645L441.882,336.645C442.151,336.645 442.37,336.426 442.37,336.157L442.37,334.133Z" style="fill:rgb(63,61,86);"/>
    <path d="M452.37,334.133C452.37,333.864 452.151,333.645 451.882,333.645L447.858,333.645C447.589,333.645 447.37,333.864 447.37,334.133L447.37,336.157C447.37,336.426 447.589,336.645 447.858,336.645L451.882,336.645C452.151,336.645 452.37,336.426 452.37,336.157L452.37,334.133Z" style="fill:rgb(63,61,86);"/>
    <path d="M462.37,334.133C462.37,333.864 462.151,333.645 461.882,333.645L457.858,333.645C457.589,333.645 457.37,333.864 457.37,334.133L457.37,336.157C457.37,336.426 457.589,336.645 457.858,336.645L461.882,336.645C462.151,336.645 462.37,336.426 462.37,336.157L462.37,334.133Z" style="fill:rgb(63,61,86);"/>
    <path d="M472.37,334.133C472.37,333.864 472.151,333.645 471.882,333.645L467.858,333.645C467.589,333.645 467.37,333.864 467.37,334.133L467.37,336.157C467.37,336.426 467.589,336.645 467.858,336.645L471.882,336.645C472.151,336.645 472.37,336.426 472.37,336.157L472.37,334.133Z" style="fill:rgb(63,61,86);"/>
    <path d="M482.37,334.133C482.37,333.864 482.151,333.645 481.882,333.645L477.858,333.645C477.589,333.645 477.37,333.864 477.37,334.133L477.37,336.157C477.37,336.426 477.589,336.645 477.858,336.645L481.882,336.645C482.151,336.645 482.37,336.426 482.37,336.157L482.37,334.133Z" style="fill:rgb(63,61,86);"/>
    <path d="M492.37,334.133C492.37,333.864 492.151,333.645 491.882,333.645L487.858,333.645C487.589,333.645 487.37,333.864 487.37,334.133L487.37,336.157C487.37,336.426 487.589,336.645 487.858,336.645L491.882,336.645C492.151,336.645 492.37,336.426 492.37,336.157L492.37,334.133Z" style="fill:rgb(63,61,86);"/>
    <path d="M502.37,334.133C502.37,333.864 502.151,333.645 501.882,333.645L497.858,333.645C497.589,333.645 497.37,333.864 497.37,334.133L497.37,336.157C497.37,336.426 497.589,336.645 497.858,336.645L501.882,336.645C502.151,336.645 502.37,336.426 502.37,336.157L502.37,334.133Z" style="fill:rgb(63,61,86);"/>
    <path d="M512.37,334.133C512.37,333.864 512.151,333.645 511.882,333.645L507.858,333.645C507.589,333.645 507.37,333.864 507.37,334.133L507.37,336.157C507.37,336.426 507.589,336.645 507.858,336.645L511.882,336.645C512.151,336.645 512.37,336.426 512.37,336.157L512.37,334.133Z" style="fill:rgb(63,61,86);"/>
    <path d="M522.37,334.133C522.37,333.864 522.151,333.645 521.882,333.645L517.858,333.645C517.589,333.645 517.37,333.864 517.37,334.133L517.37,336.157C517.37,336.426 517.589,336.645 517.858,336.645L521.882,336.645C522.151,336.645 522.37,336.426 522.37,336.157L522.37,334.133Z" style="fill:rgb(63,61,86);"/>
    <path d="M532.37,334.133C532.37,333.864 532.151,333.645 531.882,333.645L527.858,333.645C527.589,333.645 527.37,333.864 527.37,334.133L527.37,336.157C527.37,336.426 527.589,336.645 527.858,336.645L531.882,336.645C532.151,336.645 532.37,336.426 532.37,336.157L532.37,334.133Z" style="fill:rgb(63,61,86);"/>
    <path d="M542.37,334.133C542.37,333.864 542.151,333.645 541.882,333.645L537.858,333.645C537.589,333.645 537.37,333.864 537.37,334.133L537.37,336.157C537.37,336.426 537.589,336.645 537.858,336.645L541.882,336.645C542.151,336.645 542.37,336.426 542.37,336.157L542.37,334.133Z" style="fill:rgb(63,61,86);"/>
    <path d="M552.37,334.133C552.37,333.864 552.151,333.645 551.882,333.645L547.858,333.645C547.589,333.645 547.37,333.864 547.37,334.133L547.37,336.157C547.37,336.426 547.589,336.645 547.858,336.645L551.882,336.645C552.151,336.645 552.37,336.426 552.37,336.157L552.37,334.133Z" style="fill:rgb(63,61,86);"/>
    <path d="M562.37,334.133C562.37,333.864 562.151,333.645 561.882,333.645L557.858,333.645C557.589,333.645 557.37,333.864 557.37,334.133L557.37,336.157C557.37,336.426 557.589,336.645 557.858,336.645L561.882,336.645C562.151,336.645 562.37,336.426 562.37,336.157L562.37,334.133Z" style="fill:rgb(63,61,86);"/>
    <path d="M572.37,334.133C572.37,333.864 572.151,333.645 571.882,333.645L567.858,333.645C567.589,333.645 567.37,333.864 567.37,334.133L567.37,336.157C567.37,336.426 567.589,336.645 567.858,336.645L571.882,336.645C572.151,336.645 572.37,336.426 572.37,336.157L572.37,334.133Z" style="fill:rgb(63,61,86);"/>
    <path d="M582.37,334.133C582.37,333.864 582.151,333.645 581.882,333.645L577.858,333.645C577.589,333.645 577.37,333.864 577.37,334.133L577.37,336.157C577.37,336.426 577.589,336.645 577.858,336.645L581.882,336.645C582.151,336.645 582.37,336.426 582.37,336.157L582.37,334.133Z" style="fill:rgb(63,61,86);"/>
    <path d="M592.37,334.133C592.37,333.864 592.151,333.645 591.882,333.645L587.858,333.645C587.589,333.645 587.37,333.864 587.37,334.133L587.37,336.157C587.37,336.426 587.589,336.645 587.858,336.645L591.882,336.645C592.151,336.645 592.37,336.426 592.37,336.157L592.37,334.133Z" style="fill:rgb(63,61,86);"/>
    <path d="M442.252,339.133C442.252,338.864 442.033,338.645 441.764,338.645L437.74,338.645C437.471,338.645 437.252,338.864 437.252,339.133L437.252,341.157C437.252,341.426 437.471,341.645 437.74,341.645L441.764,341.645C442.033,341.645 442.252,341.426 442.252,341.157L442.252,339.133Z" style="fill:rgb(63,61,86);"/>
    <path d="M452.252,339.133C452.252,338.864 452.033,338.645 451.764,338.645L447.74,338.645C447.471,338.645 447.252,338.864 447.252,339.133L447.252,341.157C447.252,341.426 447.471,341.645 447.74,341.645L451.764,341.645C452.033,341.645 452.252,341.426 452.252,341.157L452.252,339.133Z" style="fill:rgb(63,61,86);"/>
    <path d="M462.252,339.133C462.252,338.864 462.033,338.645 461.764,338.645L457.74,338.645C457.471,338.645 457.252,338.864 457.252,339.133L457.252,341.157C457.252,341.426 457.471,341.645 457.74,341.645L461.764,341.645C462.033,341.645 462.252,341.426 462.252,341.157L462.252,339.133Z" style="fill:rgb(63,61,86);"/>
    <path d="M472.252,339.133C472.252,338.864 472.033,338.645 471.764,338.645L467.74,338.645C467.471,338.645 467.252,338.864 467.252,339.133L467.252,341.157C467.252,341.426 467.471,341.645 467.74,341.645L471.764,341.645C472.033,341.645 472.252,341.426 472.252,341.157L472.252,339.133Z" style="fill:rgb(63,61,86);"/>
    <path d="M482.252,339.133C482.252,338.864 482.033,338.645 481.764,338.645L477.74,338.645C477.471,338.645 477.252,338.864 477.252,339.133L477.252,341.157C477.252,341.426 477.471,341.645 477.74,341.645L481.764,341.645C482.033,341.645 482.252,341.426 482.252,341.157L482.252,339.133Z" style="fill:rgb(63,61,86);"/>
    <path d="M492.252,339.133C492.252,338.864 492.033,338.645 491.764,338.645L487.74,338.645C487.471,338.645 487.252,338.864 487.252,339.133L487.252,341.157C487.252,341.426 487.471,341.645 487.74,341.645L491.764,341.645C492.033,341.645 492.252,341.426 492.252,341.157L492.252,339.133Z" style="fill:rgb(63,61,86);"/>
    <path d="M502.252,339.133C502.252,338.864 502.033,338.645 501.764,338.645L497.74,338.645C497.471,338.645 497.252,338.864 497.252,339.133L497.252,341.157C497.252,341.426 497.471,341.645 497.74,341.645L501.764,341.645C502.033,341.645 502.252,341.426 502.252,341.157L502.252,339.133Z" style="fill:rgb(63,61,86);"/>
    <path d="M512.252,339.133C512.252,338.864 512.033,338.645 511.764,338.645L507.74,338.645C507.471,338.645 507.252,338.864 507.252,339.133L507.252,341.157C507.252,341.426 507.471,341.645 507.74,341.645L511.764,341.645C512.033,341.645 512.252,341.426 512.252,341.157L512.252,339.133Z" style="fill:rgb(63,61,86);"/>
    <path d="M522.252,339.133C522.252,338.864 522.033,338.645 521.764,338.645L517.74,338.645C517.471,338.645 517.252,338.864 517.252,339.133L517.252,341.157C517.252,341.426 517.471,341.645 517.74,341.645L521.764,341.645C522.033,341.645 522.252,341.426 522.252,341.157L522.252,339.133Z" style="fill:rgb(63,61,86);"/>
    <path d="M532.252,339.133C532.252,338.864 532.033,338.645 531.764,338.645L527.74,338.645C527.471,338.645 527.252,338.864 527.252,339.133L527.252,341.157C527.252,341.426 527.471,341.645 527.74,341.645L531.764,341.645C532.033,341.645 532.252,341.426 532.252,341.157L532.252,339.133Z" style="fill:rgb(63,61,86);"/>
    <path d="M542.252,339.133C542.252,338.864 542.033,338.645 541.764,338.645L537.74,338.645C537.471,338.645 537.252,338.864 537.252,339.133L537.252,341.157C537.252,341.426 537.471,341.645 537.74,341.645L541.764,341.645C542.033,341.645 542.252,341.426 542.252,341.157L542.252,339.133Z" style="fill:rgb(63,61,86);"/>
    <path d="M552.252,339.133C552.252,338.864 552.033,338.645 551.764,338.645L547.74,338.645C547.471,338.645 547.252,338.864 547.252,339.133L547.252,341.157C547.252,341.426 547.471,341.645 547.74,341.645L551.764,341.645C552.033,341.645 552.252,341.426 552.252,341.157L552.252,339.133Z" style="fill:rgb(63,61,86);"/>
    <path d="M562.252,339.133C562.252,338.864 562.033,338.645 561.764,338.645L557.74,338.645C557.471,338.645 557.252,338.864 557.252,339.133L557.252,341.157C557.252,341.426 557.471,341.645 557.74,341.645L561.764,341.645C562.033,341.645 562.252,341.426 562.252,341.157L562.252,339.133Z" style="fill:rgb(63,61,86);"/>
    <path d="M572.252,339.133C572.252,338.864 572.033,338.645 571.764,338.645L567.74,338.645C567.471,338.645 567.252,338.864 567.252,339.133L567.252,341.157C567.252,341.426 567.471,341.645 567.74,341.645L571.764,341.645C572.033,341.645 572.252,341.426 572.252,341.157L572.252,339.133Z" style="fill:rgb(63,61,86);"/>
    <path d="M582.252,339.133C582.252,338.864 582.033,338.645 581.764,338.645L577.74,338.645C577.471,338.645 577.252,338.864 577.252,339.133L577.252,341.157C577.252,341.426 577.471,341.645 577.74,341.645L581.764,341.645C582.033,341.645 582.252,341.426 582.252,341.157L582.252,339.133Z" style="fill:rgb(63,61,86);"/>
    <path d="M592.252,339.133C592.252,338.864 592.033,338.645 591.764,338.645L587.74,338.645C587.471,338.645 587.252,338.864 587.252,339.133L587.252,341.157C587.252,341.426 587.471,341.645 587.74,341.645L591.764,341.645C592.033,341.645 592.252,341.426 592.252,341.157L592.252,339.133Z" style="fill:rgb(63,61,86);"/>
    <path d="M525.252,345.133C525.252,344.864 525.033,344.645 524.764,344.645L485.74,344.645C485.471,344.645 485.252,344.864 485.252,345.133L485.252,347.157C485.252,347.426 485.471,347.645 485.74,347.645L524.764,347.645C525.033,347.645 525.252,347.426 525.252,347.157L525.252,345.133Z" style="fill:rgb(63,61,86);"/>
    <g transform="matrix(1,0,0,1,-194.934,-152.357)">
        <path d="M825.334,730.02L817.624,717.63L816.084,724.71C815.814,725.95 815.544,727.21 815.294,728.46C813.104,726.59 810.774,724.86 808.494,723.2C801.494,718.12 794.497,713.034 787.504,707.94L789.694,720.64C791.044,728.46 792.454,736.44 795.794,743.59C796.164,744.4 796.564,745.2 796.994,745.98L829.534,745.98C829.796,745.256 829.977,744.505 830.074,743.74C830.082,743.691 830.085,743.64 830.084,743.59C830.594,738.74 827.914,734.17 825.334,730.02Z" style="fill:rgb(240,240,240);fill-rule:nonzero;"/>
    </g>
    <g transform="matrix(1,0,0,1,-194.934,-152.357)">
        <path d="M385.334,730.02L377.624,717.63L376.084,724.71C375.814,725.95 375.544,727.21 375.294,728.46C373.104,726.59 370.774,724.86 368.494,723.2C361.494,718.12 354.497,713.034 347.504,707.94L349.694,720.64C351.044,728.46 352.454,736.44 355.794,743.59C356.164,744.4 356.564,745.2 356.994,745.98L389.534,745.98C389.796,745.256 389.977,744.505 390.074,743.74C390.082,743.691 390.085,743.64 390.084,743.59C390.594,738.74 387.914,734.17 385.334,730.02Z" style="fill:rgb(240,240,240);fill-rule:nonzero;"/>
    </g>
    <g transform="matrix(1,0,0,1,-194.934,-152.357)">
        <path d="M1003.88,747.335L728.125,747.643C727.473,747.641 726.938,747.104 726.938,746.452C726.938,745.8 727.473,745.263 728.125,745.261L1003.88,744.954C1004.53,744.956 1005.06,745.493 1005.06,746.145C1005.06,746.796 1004.53,747.333 1003.88,747.335Z" style="fill:rgb(202,202,202);fill-rule:nonzero;"/>
    </g>
    <g transform="matrix(1,0,0,1,-194.934,-152.357)">
        <path d="M471.875,747.335L196.125,747.643C195.473,747.641 194.938,747.104 194.938,746.452C194.938,745.8 195.473,745.263 196.125,745.261L471.875,744.954C472.527,744.956 473.062,745.493 473.062,746.145C473.062,746.796 472.527,747.333 471.875,747.335Z" style="fill:rgb(202,202,202);fill-rule:nonzero;"/>
    </g>
    <g transform="matrix(1,0,0,1,-194.934,-152.357)">
        <path d="M373.306,194.763C368.536,196.183 364.086,192.193 360.766,188.413L361.946,189.813C354.136,195.313 349.466,204.273 346.436,213.343C343.406,222.403 341.716,231.893 338.296,240.823C334.876,249.743 329.356,258.373 320.906,262.823C309.586,268.783 295.716,266.073 283.676,261.773C283.516,261.713 283.366,261.663 283.206,261.603C288.083,252.494 291.069,242.494 291.986,232.203C287.034,241.872 279.89,250.252 271.126,256.673C263.259,253.096 255.694,248.889 248.506,244.093C243.856,240.983 238.956,236.963 238.416,231.393C237.866,225.863 241.996,220.813 246.866,218.153C251.736,215.493 257.336,214.593 262.656,212.993C267.966,211.403 273.386,208.793 276.176,203.993C282.606,192.953 271.786,177.383 278.686,166.623C282.086,161.333 288.686,159.213 294.806,157.743C304.148,155.508 313.629,153.908 323.186,152.953C331.576,152.113 340.246,151.803 348.226,154.503C356.206,157.203 363.446,163.473 365.156,171.733C369.816,174.183 374.746,176.893 377.246,181.543C379.746,186.183 378.356,193.263 373.306,194.763Z" style="fill:rgb(47,46,65);fill-rule:nonzero;"/>
    </g>
    <g transform="matrix(1,0,0,1,-194.934,-152.357)">
        <path d="M366.186,192.902C361.618,198.624 359.132,204.812 359.132,208.518C349.643,225.86 363.212,240.756 380.555,250.244C387.47,254.048 395.46,255.441 403.255,254.202L403.981,251.105L404.964,253.895C404.964,253.895 416.255,291.188 419.979,293.375C418.566,286.738 416.947,256.009 416.16,249.531C415.071,240.716 418.868,227.591 421.607,219.61C423.305,214.691 424.177,209.524 424.186,204.321L424.186,204.093L426.853,212.66L436.563,208.518C434.756,198.157 436.563,186.395 414.906,187.415C403.194,179.359 392.879,178.132 384.407,180.417C383.313,178.726 377.008,181.893 375.186,181.003" style="fill:rgb(47,46,65);fill-rule:nonzero;"/>
    </g>
    <g id="QR" transform="matrix(0.767637,0,0,0.767637,435.985,94.597)">
        <rect x="0" y="0" width="200" height="200" style="fill:white;"/>
        <rect x="16" y="16" width="8" height="8"/>
        <rect x="24" y="16" width="8" height="8"/>
        <rect x="32" y="16" width="8" height="8"/>
        <rect x="40" y="16" width="8" height="8"/>
        <rect x="48" y="16" width="8" height="8"/>
        <rect x="56" y="16" width="8" height="8"/>
        <rect x="64" y="16" width="8" height="8"/>
        <rect x="88" y="16" width="8" height="8"/>
        <rect x="128" y="16" width="8" height="8"/>
        <rect x="136" y="16" width="8" height="8"/>
        <rect x="144" y="16" width="8" height="8"/>
        <rect x="152" y="16" width="8" height="8"/>
        <rect x="160" y="16" width="8" height="8"/>
        <rect x="168" y="16" width="8" height="8"/>
        <rect x="176" y="16" width="8" height="8"/>
        <rect x="16" y="24" width="8" height="8"/>
        <rect x="64" y="24" width="8" height="8"/>
        <rect x="96" y="24" width="8" height="8"/>
        <rect x="104" y="24" width="8" height="8"/>
        <rect x="112" y="24" width="8" height="8"/>
        <rect x="128" y="24" width="8" height="8"/>
        <rect x="176" y="24" width="8" height="8"/>
        <rect x="16" y="32" width="8" height="8"/>
        <rect x="32" y="32" width="8" height="8"/>
        <rect x="40" y="32" width="8" height="8"/>
        <rect x="48" y="32" width="8" height="8"/>
        <rect x="64" y="32" width="8" height="8"/>
        <rect x="88" y="32" width="8" height="8"/>
        <rect x="104" y="32" width="8" height="8"/>
        <rect x="112" y="32" width="8" height="8"/>
        <rect x="128" y="32" width="8" height="8"/>
        <rect x="144" y="32" width="8" height="8"/>
        <rect x="152" y="32" width="8" height="8"/>
        <rect x="160" y="32" width="8" height="8"/>
        <rect x="176" y="32" width="8" height="8"/>
        <rect x="16" y="40" width="8" height="8"/>
        <rect x="32" y="40" width="8" height="8"/>
        <rect x="40" y="40" width="8" height="8"/>
        <rect x="48" y="40" width="8" height="8"/>
        <rect x="64" y="40" width="8" height="8"/>
        <rect x="80" y="40" width="8" height="8"/>
        <rect x="128" y="40" width="8" height="8"/>
        <rect x="144" y="40" width="8" height="8"/>
        <rect x="152" y="40" width="8" height="8"/>
        <rect x="160" y="40" width="8" height="8"/>
        <rect x="176" y="40" width="8" height="8"/>
        <rect x="16" y="48" width="8" height="8"/>
        <rect x="32" y="48" width="8" height="8"/>
        <rect x="40" y="48" width="8" height="8"/>
        <rect x="48" y="48" width="8" height="8"/>
        <rect x="64" y="48" width="8" height="8"/>
        <rect x="80" y="48" width="8" height="8"/>
        <rect x="96" y="48" width="8" height="8"/>
        <rect x="104" y="48" width="8" height="8"/>
        <rect x="128" y="48" width="8" height="8"/>
        <rect x="144" y="48" width="8" height="8"/>
        <rect x="152" y="48" width="8" height="8"/>
        <rect x="160" y="48" width="8" height="8"/>
        <rect x="176" y="48" width="8" height="8"/>
        <rect x="16" y="56" width="8" height="8"/>
        <rect x="64" y="56" width="8" height="8"/>
        <rect x="88" y="56" width="8" height="8"/>
        <rect x="96" y="56" width="8" height="8"/>
        <rect x="104" y="56" width="8" height="8"/>
        <rect x="112" y="56" width="8" height="8"/>
        <rect x="128" y="56" width="8" height="8"/>
        <rect x="176" y="56" width="8" height="8"/>
        <rect x="16" y="64" width="8" height="8"/>
        <rect x="24" y="64" width="8" height="8"/>
        <rect x="32" y="64" width="8" height="8"/>
        <rect x="40" y="64" width="8" height="8"/>
        <rect x="48" y="64" width="8" height="8"/>
        <rect x="56" y="64" width="8" height="8"/>
        <rect x="64" y="64" width="8" height="8"/>
        <rect x="80" y="64" width="8" height="8"/>
        <rect x="96" y="64" width="8" height="8"/>
        <rect x="112" y="64" width="8" height="8"/>
        <rect x="128" y="64" width="8" height="8"/>
        <rect x="136" y="64" width="8" height="8"/>
        <rect x="144" y="64" width="8" height="8"/>
        <rect x="152" y="64" width="8" height="8"/>
        <rect x="160" y="64" width="8" height="8"/>
        <rect x="168" y="64" width="8" height="8"/>
        <rect x="176" y="64" width="8" height="8"/>
        <rect x="112" y="72" width="8" height="8"/>
        <rect x="16" y="80" width="8" height="8"/>
        <rect x="24" y="80" width="8" height="8"/>
        <rect x="56" y="80" width="8" height="8"/>
        <rect x="64" y="80" width="8" height="8"/>
        <rect x="72" y="80" width="8" height="8"/>
        <rect x="88" y="80" width="8" height="8"/>
        <rect x="144" y="80" width="8" height="8"/>
        <rect x="152" y="80" width="8" height="8"/>
        <rect x="24" y="88" width="8" height="8"/>
        <rect x="40" y="88" width="8" height="8"/>
        <rect x="88" y="88" width="8" height="8"/>
        <rect x="96" y="88" width="8" height="8"/>
        <rect x="104" y="88" width="8" height="8"/>
        <rect x="120" y="88" width="8" height="8"/>
        <rect x="152" y="88" width="8" height="8"/>
        <rect x="160" y="88" width="8" height="8"/>
        <rect x="168" y="88" width="8" height="8"/>
        <rect x="16" y="96" width="8" height="8"/>
        <rect x="32" y="96" width="8" height="8"/>
        <rect x="40" y="96" width="8" height="8"/>
        <rect x="48" y="96" width="8" height="8"/>
        <rect x="64" y="96" width="8" height="8"/>
        <rect x="72" y="96" width="8" height="8"/>
        <rect x="88" y="96" width="8" height="8"/>
        <rect x="104" y="96" width="8" height="8"/>
        <rect x="112" y="96" width="8" height="8"/>
        <rect x="120" y="96" width="8" height="8"/>
        <rect x="128" y="96" width="8" height="8"/>
        <rect x="136" y="96" width="8" height="8"/>
        <rect x="160" y="96" width="8" height="8"/>
        <rect x="168" y="96" width="8" height="8"/>
        <rect x="16" y="104" width="8" height="8"/>
        <rect x="24" y="104" width="8" height="8"/>
        <rect x="40" y="104" width="8" height="8"/>
        <rect x="48" y="104" width="8" height="8"/>
        <rect x="80" y="104" width="8" height="8"/>
        <rect x="88" y="104" width="8" height="8"/>
        <rect x="96" y="104" width="8" height="8"/>
        <rect x="120" y="104" width="8" height="8"/>
        <rect x="136" y="104" width="8" height="8"/>
        <rect x="144" y="104" width="8" height="8"/>
        <rect x="152" y="104" width="8" height="8"/>
        <rect x="160" y="104" width="8" height="8"/>
        <rect x="16" y="112" width="8" height="8"/>
        <rect x="32" y="112" width="8" height="8"/>
        <rect x="40" y="112" width="8" height="8"/>
        <rect x="48" y="112" width="8" height="8"/>
        <rect x="64" y="112" width="8" height="8"/>
        <rect x="88" y="112" width="8" height="8"/>
        <rect x="168" y="112" width="8" height="8"/>
        <rect x="80" y="120" width="8" height="8"/>
        <rect x="96" y="120" width="8" height="8"/>
        <rect x="144" y="120" width="8" height="8"/>
        <rect x="152" y="120" width="8" height="8"/>
        <rect x="160" y="120" width="8" height="8"/>
        <rect x="176" y="120" width="8" height="8"/>
        <rect x="16" y="128" width="8" height="8"/>
        <rect x="24" y="128" width="8" height="8"/>
        <rect x="32" y="128" width="8" height="8"/>
        <rect x="40" y="128" width="8" height="8"/>
        <rect x="48" y="128" width="8" height="8"/>
        <rect x="56" y="128" width="8" height="8"/>
        <rect x="64" y="128" width="8" height="8"/>
        <rect x="80" y="128" width="8" height="8"/>
        <rect x="96" y="128" width="8" height="8"/>
        <rect x="112" y="128" width="8" height="8"/>
        <rect x="136" y="128" width="8" height="8"/>
        <rect x="160" y="128" width="8" height="8"/>
        <rect x="168" y="128" width="8" height="8"/>
        <rect x="16" y="136" width="8" height="8"/>
        <rect x="64" y="136" width="8" height="8"/>
        <rect x="80" y="136" width="8" height="8"/>
        <rect x="96" y="136" width="8" height="8"/>
        <rect x="112" y="136" width="8" height="8"/>
        <rect x="120" y="136" width="8" height="8"/>
        <rect x="128" y="136" width="8" height="8"/>
        <rect x="152" y="136" width="8" height="8"/>
        <rect x="160" y="136" width="8" height="8"/>
        <rect x="168" y="136" width="8" height="8"/>
        <rect x="176" y="136" width="8" height="8"/>
        <rect x="16" y="144" width="8" height="8"/>
        <rect x="32" y="144" width="8" height="8"/>
        <rect x="40" y="144" width="8" height="8"/>
        <rect x="48" y="144" width="8" height="8"/>
        <rect x="64" y="144" width="8" height="8"/>
        <rect x="88" y="144" width="8" height="8"/>
        <rect x="112" y="144" width="8" height="8"/>
        <rect x="128" y="144" width="8" height="8"/>
        <rect x="136" y="144" width="8" height="8"/>
        <rect x="144" y="144" width="8" height="8"/>
        <rect x="152" y="144" width="8" height="8"/>
        <rect x="16" y="152" width="8" height="8"/>
        <rect x="32" y="152" width="8" height="8"/>
        <rect x="40" y="152" width="8" height="8"/>
        <rect x="48" y="152" width="8" height="8"/>
        <rect x="64" y="152" width="8" height="8"/>
        <rect x="96" y="152" width="8" height="8"/>
        <rect x="104" y="152" width="8" height="8"/>
        <rect x="120" y="152" width="8" height="8"/>
        <rect x="128" y="152" width="8" height="8"/>
        <rect x="136" y="152" width="8" height="8"/>
        <rect x="144" y="152" width="8" height="8"/>
        <rect x="160" y="152" width="8" height="8"/>
        <rect x="168" y="152" width="8" height="8"/>
        <rect x="16" y="160" width="8" height="8"/>
        <rect x="32" y="160" width="8" height="8"/>
        <rect x="40" y="160" width="8" height="8"/>
        <rect x="48" y="160" width="8" height="8"/>
        <rect x="64" y="160" width="8" height="8"/>
        <rect x="88" y="160" width="8" height="8"/>
        <rect x="112" y="160" width="8" height="8"/>
        <rect x="136" y="160" width="8" height="8"/>
        <rect x="144" y="160" width="8" height="8"/>
        <rect x="152" y="160" width="8" height="8"/>
        <rect x="160" y="160" width="8" height="8"/>
        <rect x="168" y="160" width="8" height="8"/>
        <rect x="176" y="160" width="8" height="8"/>
        <rect x="16" y="168" width="8" height="8"/>
        <rect x="64" y="168" width="8" height="8"/>
        <rect x="80" y="168" width="8" height="8"/>
        <rect x="104" y="168" width="8" height="8"/>
        <rect x="112" y="168" width="8" height="8"/>
        <rect x="120" y="168" width="8" height="8"/>
        <rect x="136" y="168" width="8" height="8"/>
        <rect x="144" y="168" width="8" height="8"/>
        <rect x="152" y="168" width="8" height="8"/>
        <rect x="160" y="168" width="8" height="8"/>
        <rect x="16" y="176" width="8" height="8"/>
        <rect x="24" y="176" width="8" height="8"/>
        <rect x="32" y="176" width="8" height="8"/>
        <rect x="40" y="176" width="8" height="8"/>
        <rect x="48" y="176" width="8" height="8"/>
        <rect x="56" y="176" width="8" height="8"/>
        <rect x="64" y="176" width="8" height="8"/>
        <rect x="80" y="176" width="8" height="8"/>
        <rect x="88" y="176" width="8" height="8"/>
        <rect x="112" y="176" width="8" height="8"/>
        <rect x="128" y="176" width="8" height="8"/>
        <rect x="136" y="176" width="8" height="8"/>
        <rect x="152" y="176" width="8" height="8"/>
        <rect x="168" y="176" width="8" height="8"/>
    </g>
</svg>
