<svg viewBox="0 0 818 524" xmlns="http://www.w3.org/2000/svg" xml:space="preserve" style="fill-rule:evenodd;clip-rule:evenodd;stroke-linejoin:round;stroke-miterlimit:2"><path style="fill:#e6e6e6" d="M.349.463h816.866v523.158H.349z"/><path style="fill:#fff" d="M23.707 66.08h770.15v426.591H23.707z"/><path style="fill:#8076fa" d="M0 0h816.866v34.703H0z"/><circle cx="25.789" cy="17.742" r="6.432" style="fill:#fff"/><circle cx="50.203" cy="17.742" r="6.432" style="fill:#fff"/><circle cx="74.618" cy="17.742" r="6.432" style="fill:#fff"/><path style="fill:#e6e6e6" d="M118.465 101.167h150.63v163.42h-150.63zM333.465 101.167h150.63v163.42h-150.63zM548.465 101.167h150.63v163.42h-150.63zM118.465 294.167h150.63v163.42h-150.63zM333.465 294.167h150.63v163.42h-150.63zM548.465 294.167h150.63v163.42h-150.63z"/><circle cx="176.975" cy="174.52" r="25.462" style="fill:#ffb9b9"/><path d="M358.421 382.204s3.183 15.118 3.183 16.71c0 1.591 15.118 8.752 15.118 8.752l13.527-2.387 4.774-14.322s-7.957-11.936-7.957-16.71l-28.645 7.957Z" style="fill:#ffb9b9;fill-rule:nonzero" transform="translate(-191.392 -188.19)"/><path d="M346.286 342.195s8.084-17.515 23.579-13.473c15.495 4.042 24.253 10.105 24.926 16.168.674 6.063-.336 15.158-.336 15.158s-1.685-12.463-12.464-9.769c-10.779 2.695-27.621.674-27.621.674l-2.694 24.253s-3.032-4.379-6.4-1.685c-3.369 2.695-9.769-25.936 1.01-31.326Z" style="fill:#2f2e41;fill-rule:nonzero" transform="translate(-191.392 -188.19)"/><path d="m449.128 446.657-6.36-28.65c-3.19-9.55-11.14-17.5-11.14-17.5l-39.24-13.8h-.01c-.157 7.096-4.881 13.33-11.67 15.4-11.94 3.97-20.16-9.41-20.16-9.41l-33.17 25.31s-10.34 8.76-9.54 25.47l-1.1 9.3h135.45l-3.06-6.12Z" style="fill:#8076fa;fill-rule:nonzero" transform="translate(-191.392 -188.19)"/><ellipse cx="391.4" cy="175.984" rx="34.56" ry="36.687" style="fill:#2f2e41"/><circle cx="422.064" cy="213.32" r="18.181" style="fill:#2f2e41"/><path d="m409.402 188.971 9.74 25.323-24.674 10.39-2.167-4.911-7.574-17.166 24.675-13.636Z" style="fill:#9f616a;fill-rule:nonzero"/><circle cx="389.922" cy="183.776" r="21.752" style="fill:#9f616a"/><path d="M563.535 369.58c13.672-9.123 17.759-11.304 33.43-7.78l.94-22.863-40.497 8.495 6.127 22.148Z" style="fill:#2f2e41;fill-rule:nonzero" transform="translate(-191.392 -188.19)"/><path d="m651.438 421.307-.6.07a.419.419 0 0 0-.05-.06c-2.38-2.38-13.74-6.71-22.21-9.71h-.01c-5.38-1.91-9.59-3.28-9.59-3.28l-10.24-10.53c-2.58 2.9-8.03 5.14-13.21 6.72-3.966 1.2-8 2.162-12.08 2.88h-.01l-2.12 6.77s-24.03 18.19-25.97 20.13h-.01v.02c-.155.221-.22.493-.18.76v.05a88.11 88.11 0 0 0-1.86 17.65h104.64v-6.14c0-8.44-6.5-25.33-6.5-25.33Z" style="fill:#575a89;fill-rule:nonzero" transform="translate(-191.392 -188.19)"/><path d="M843.858 452.777h-51.74l-2.85-28.11-.17-1.71-.35-3.39-1.43-14.17-1.79 15.22-3.78 32.16h-9.4l.35-10.01.35-10.15.15-4.09 1.93-55.64a39.733 39.733 0 0 1 7.93-24.49 30.958 30.958 0 0 1 24.99-12.09 31.859 31.859 0 0 1 25.42 12.53 40.274 40.274 0 0 1 8.31 24.86l.89 33.68 1.19 45.4Z" style="fill:#2f2e41;fill-rule:nonzero" transform="translate(-191.392 -188.19)"/><circle cx="616.656" cy="181.85" r="22.758" style="fill:#fbbebe"/><path d="M796.669 386.295s6.502 21.945 0 28.448c-6.502 6.502-8.128 8.94-8.128 8.94l18.694 25.197 32.512-39.827s-22.758-6.502-17.069-24.384l-26.009 1.626Z" style="fill:#fbbebe;fill-rule:nonzero" transform="translate(-191.392 -188.19)"/><path d="M675.485 264.587h-19.2l-.32-3.29-.29-3.04 8.84-1.11 10.66-1.33.12 3.41.19 5.36Z" style="fill:#fbbebe;fill-rule:nonzero"/><path d="M868.194 447.254s-3.251-20.32-5.689-28.448c-2.439-8.127-4.877-8.127-4.877-8.127v-.002c-2.87-2.87-9.77-3.38-14.96-3.3-3.64.04-6.44.36-6.44.36l-28.99 30.58-14.6-19.41v-.01a21.191 21.191 0 0 0-3.89.67 25.591 25.591 0 0 0-3.22 1.05 44.155 44.155 0 0 0-12.33 7.91h-.01c-2.1 1.89-3.34 3.28-3.34 3.28a95.122 95.122 0 0 0-7.22 20.97h92.9l.21-4.18v-.008l12.456-1.335Z" style="fill:#8076fa;fill-rule:nonzero" transform="translate(-191.392 -188.19)"/><path d="M788.948 366.382c14.698-7.925 20.736-7.589 39.013 0l4.877-11.882c-.005-4.627-3.811-8.433-8.438-8.438h-32.704c-4.627.005-8.433 3.811-8.438 8.438l5.69 11.882ZM383.181 521.911a5.984 5.984 0 0 0-3.477.777 9.06 9.06 0 0 0-2.352 3.104 37.16 37.16 0 0 1-10.116 11.427c-3.006 2.202-6.828 4.948-6.313 9.007a12.156 12.156 0 0 0 1.465 3.803c2.773 5.597 10.34 9.923 9.595 16.311 2.755-4.613-.93-6.893 1.825-11.505 1.312-2.197 3.592-4.676 5.572-3.297.664.462 1.099 1.29 1.79 1.696 1.648.967 3.401-.882 4.859-2.191 5.03-4.516 12.183-3.333 18.442-1.926 2.955.664 6.2 1.536 7.947 4.36 2.297 3.713-2.182 7.723-3.313 11.922a2.247 2.247 0 0 0-.073.571 2.3 2.3 0 0 0 2.528 2.275c1.878-.185 4.103-.337 4.214-1.161 2.363.084 5.258-.183 6.27-2.644.31-.973.473-1.987.486-3.009.371-4.133 2.125-7.903 3.287-11.837 1.162-3.933 1.668-8.543-.293-12.031a13.922 13.922 0 0 0-2.57-3.122c-11.128-10.77-25.76-12.546-39.773-12.53Z" style="fill:#2f2e41;fill-rule:nonzero" transform="translate(-191.392 -188.19)"/><path d="M374.404 574.407s2.42 20.169-6.454 21.783c-8.875 1.613 8.067 29.043 8.067 29.043l40.338 4.841-9.681-32.271s-6.454-2.42-2.42-18.555c4.034-16.136-29.85-4.841-29.85-4.841Z" style="fill:#9f616a;fill-rule:nonzero" transform="translate(-191.392 -188.19)"/><circle cx="201.163" cy="375.326" r="24.203" style="fill:#9f616a"/><path d="M350.898 645.777c4.28-16.83 10.19-39.5 10.19-39.5s2.3.47 5.92 1a140.324 140.324 0 0 0 15.96 1.45c6.84.19 14.04-.26 19.61-2.19a18.383 18.383 0 0 0 5.79-3.09 11.19 11.19 0 0 0 1.94-2.01c9.68-12.91 13.71 36.3 13.71 36.3l.75 8.04h-73.87Z" style="fill:#8076fa;fill-rule:nonzero" transform="translate(-191.392 -188.19)"/><path d="M428.228 697.777c-.32 0-.64.01-.96.03l.46-.86c.16.27.32.55.5.83Z" style="fill:#ffb8b8;fill-rule:nonzero" transform="translate(-191.392 -188.19)"/><path d="M384.36 528.243a5.505 5.505 0 0 0-2.831.549 6.61 6.61 0 0 0-1.914 2.195 27.879 27.879 0 0 1-8.235 8.076c-2.447 1.556-5.558 3.497-5.139 6.367a7.953 7.953 0 0 0 1.192 2.687 21.142 21.142 0 0 1 2.569 13.176l6.728-9.779c1.068-1.553 2.924-3.305 4.536-2.33.54.326.895.912 1.457 1.198 1.341.684 2.768-.623 3.956-1.548 4.094-3.192 9.917-2.356 15.012-1.361 2.405.469 5.047 1.085 6.469 3.081 2.363 3.317-.104 8.11 1.275 11.942a3.518 3.518 0 0 0 1.457-2.324c1.923.059 4.28-.13 5.104-1.869a6.414 6.414 0 0 0 .395-2.127c.303-2.921 1.731-5.586 2.677-8.366.946-2.78 1.357-6.039-.239-8.504a10.285 10.285 0 0 0-2.092-2.207c-9.059-7.612-20.97-8.867-32.377-8.856ZM382.068 607.077c-5.52-6.31-8.8-15.51-8.95-15.92v-.01s-8.8-5.04-11.22-.2-25.01 16.94-27.43 16.94a.469.469 0 0 1-.06.02c-.96.32-12.98 4.69-16.07 20.96a121.633 121.633 0 0 0-1.34 16.91h65.79c.68-7.13 1.19-13.8 1.39-19.56.29-8.03.01-14.27-1.21-17.49a5.103 5.103 0 0 0-.9-1.65ZM438.638 611.617c-.04-.19-.07-.35-.1-.5a3.725 3.725 0 0 0-.54-1.2.071.071 0 0 1-.01-.03c-4.66-7.22-34.63-17.16-34.63-17.16l-1.12 3.87s.14 3.82.34 9.94c.2 5.73.44 13.47.67 21.97.16 5.55.3 11.43.43 17.27h44.83a261.774 261.774 0 0 0-9.87-34.16ZM597.88 528.783c-18.876 0-34.177 16.982-34.177 37.93v26.614h8.185l4.739-9.861-1.185 9.861h52.613l4.308-8.964-1.077 8.964h5.924V572.43c0-24.106-17.608-43.647-39.33-43.647Z" style="fill:#2f2e41;fill-rule:nonzero" transform="translate(-191.392 -188.19)"/><path d="M570.298 645.777h-22.23l-.21-18.13c-.01-.19-.01-.37-.01-.56l4.45-5.01.08-.09 16.99 10.76.93 13.03Z" style="fill:#d0cde1;fill-rule:nonzero" transform="translate(-191.392 -188.19)"/><circle cx="403.464" cy="377.088" r="24.331" style="fill:#fbbebe"/><path d="M580.907 579.876s7.137 36.983 3.893 40.876c-3.245 3.893 34.388-7.137 34.388-7.137s-12.328-25.304-5.84-39.579l-32.441 5.84Z" style="fill:#fbbebe;fill-rule:nonzero" transform="translate(-191.392 -188.19)"/><path d="M646.918 604.887h-.01a5.589 5.589 0 0 0-2.79-2.72c-4.77-2.01-8.88-3.55-12.26-4.72a25.927 25.927 0 0 0-18.34.57c-.57.23-1.13.48-1.68.76 0 0-23.79 4.53-26.62 3.96-.21-.04-.43-.07-.64-.09a10.95 10.95 0 0 0-1.29-.11 28.503 28.503 0 0 0-15.8 3.92c-7.81 4.53-19.39 12.56-19.63 20.38l-.22.25.22 18.69h104.42c.21-17.91.33-31.37.33-32.28 0-2.83-5.69-8.61-5.69-8.61Z" style="fill:#8076fa;fill-rule:nonzero" transform="translate(-191.392 -188.19)"/><path d="M607.596 539.231a17.934 17.934 0 0 0-14.143-7.217h-.671c-12.937 0-23.425 11.707-23.425 26.148h4.335l.7-5.329 1.027 5.329h25.71l2.154-4.508-.538 4.508h5.058c2.36 11.722-1.031 23.444-10.174 35.165h8.616l4.308-9.016-1.077 9.016h16.425l3.231-20.738c0-15.531-9.024-28.701-21.536-33.358Z" style="fill:#2f2e41;fill-rule:nonzero" transform="translate(-191.392 -188.19)"/><circle cx="420.926" cy="340.424" r="12.801" style="fill:#2f2e41"/><path style="fill:#fff" d="M0 0h200v200H0z" transform="matrix(.60504 0 0 .60504 563.198 315.323)"/><path d="M572.879 325.004h4.84v4.84h-4.84zM577.719 325.004h4.84v4.84h-4.84zM582.56 325.004h4.84v4.84h-4.84zM587.4 325.004h4.84v4.84h-4.84zM592.24 325.004h4.84v4.84h-4.84zM597.08 325.004h4.84v4.84h-4.84z"/><path d="M601.92 325.004h4.841v4.84h-4.84zM616.442 325.004h4.84v4.84h-4.84zM640.644 325.004h4.84v4.84h-4.84zM645.484 325.004h4.84v4.84h-4.84z"/><path d="M650.324 325.004h4.84v4.84h-4.84zM655.165 325.004h4.84v4.84h-4.84zM660.005 325.004h4.84v4.84h-4.84zM664.845 325.004h4.84v4.84h-4.84zM669.686 325.004h4.84v4.84h-4.84zM572.879 329.844h4.84v4.84h-4.84zM601.92 329.844h4.841v4.84h-4.84zM621.282 329.844h4.84v4.84h-4.84z"/><path d="M626.122 329.844h4.84v4.84h-4.84zM630.963 329.844h4.84v4.84h-4.84zM640.644 329.844h4.84v4.84h-4.84zM669.686 329.844h4.84v4.84h-4.84zM572.879 334.684h4.84v4.84h-4.84zM582.56 334.684h4.84v4.84h-4.84zM587.4 334.684h4.84v4.84h-4.84zM592.24 334.684h4.84v4.84h-4.84zM601.92 334.684h4.841v4.84h-4.84zM616.442 334.684h4.84v4.84h-4.84zM626.122 334.684h4.84v4.84h-4.84zM630.963 334.684h4.84v4.84h-4.84zM640.644 334.684h4.84v4.84h-4.84zM650.324 334.684h4.84v4.84h-4.84zM655.165 334.684h4.84v4.84h-4.84zM660.005 334.684h4.84v4.84h-4.84zM669.686 334.684h4.84v4.84h-4.84zM572.879 339.525h4.84v4.84h-4.84zM582.56 339.525h4.84v4.84h-4.84zM587.4 339.525h4.84v4.84h-4.84zM592.24 339.525h4.84v4.84h-4.84zM601.92 339.525h4.841v4.84h-4.84zM611.601 339.525h4.84v4.84h-4.84zM640.644 339.525h4.84v4.84h-4.84zM650.324 339.525h4.84v4.84h-4.84zM655.165 339.525h4.84v4.84h-4.84zM660.005 339.525h4.84v4.84h-4.84zM669.686 339.525h4.84v4.84h-4.84zM572.879 344.365h4.84v4.84h-4.84zM582.56 344.365h4.84v4.84h-4.84zM587.4 344.365h4.84v4.84h-4.84zM592.24 344.365h4.84v4.84h-4.84zM601.92 344.365h4.841v4.84h-4.84zM611.601 344.365h4.84v4.84h-4.84zM621.282 344.365h4.84v4.84h-4.84z"/><path d="M626.122 344.365h4.84v4.84h-4.84zM640.644 344.365h4.84v4.84h-4.84zM650.324 344.365h4.84v4.84h-4.84zM655.165 344.365h4.84v4.84h-4.84zM660.005 344.365h4.84v4.84h-4.84zM669.686 344.365h4.84v4.84h-4.84zM572.879 349.205h4.84v4.84h-4.84zM601.92 349.205h4.841v4.84h-4.84zM616.442 349.205h4.84v4.84h-4.84zM621.282 349.205h4.84v4.84h-4.84z"/><path d="M626.122 349.205h4.84v4.84h-4.84zM630.963 349.205h4.84v4.84h-4.84zM640.644 349.205h4.84v4.84h-4.84zM669.686 349.205h4.84v4.84h-4.84zM572.879 354.046h4.84v4.84h-4.84zM577.719 354.046h4.84v4.84h-4.84zM582.56 354.046h4.84v4.84h-4.84zM587.4 354.046h4.84v4.84h-4.84zM592.24 354.046h4.84v4.84h-4.84zM597.08 354.046h4.84v4.84h-4.84z"/><path d="M601.92 354.046h4.841v4.84h-4.84zM611.601 354.046h4.84v4.84h-4.84zM621.282 354.046h4.84v4.84h-4.84zM630.963 354.046h4.84v4.84h-4.84zM640.644 354.046h4.84v4.84h-4.84zM645.484 354.046h4.84v4.84h-4.84z"/><path d="M650.324 354.046h4.84v4.84h-4.84zM655.165 354.046h4.84v4.84h-4.84zM660.005 354.046h4.84v4.84h-4.84zM664.845 354.046h4.84v4.84h-4.84zM669.686 354.046h4.84v4.84h-4.84zM630.963 358.886h4.84v4.84h-4.84zM572.879 363.726h4.84v4.84h-4.84zM577.719 363.726h4.84v4.84h-4.84zM597.08 363.726h4.84v4.84h-4.84z"/><path d="M601.92 363.726h4.841v4.84h-4.84zM606.761 363.726h4.84v4.84h-4.84zM616.442 363.726h4.84v4.84h-4.84zM650.324 363.726h4.84v4.84h-4.84zM655.165 363.726h4.84v4.84h-4.84zM577.719 368.567h4.84v4.84h-4.84zM587.4 368.567h4.84v4.84h-4.84zM616.442 368.567h4.84v4.84h-4.84zM621.282 368.567h4.84v4.84h-4.84z"/><path d="M626.122 368.567h4.84v4.84h-4.84zM635.803 368.567h4.84v4.84h-4.84zM655.165 368.567h4.84v4.84h-4.84zM660.005 368.567h4.84v4.84h-4.84zM664.845 368.567h4.84v4.84h-4.84zM572.879 373.407h4.84v4.84h-4.84zM582.56 373.407h4.84v4.84h-4.84zM587.4 373.407h4.84v4.84h-4.84zM592.24 373.407h4.84v4.84h-4.84zM601.92 373.407h4.841v4.84h-4.84zM606.761 373.407h4.84v4.84h-4.84zM616.442 373.407h4.84v4.84h-4.84zM626.122 373.407h4.84v4.84h-4.84zM630.963 373.407h4.84v4.84h-4.84zM635.803 373.407h4.84v4.84h-4.84zM640.644 373.407h4.84v4.84h-4.84zM645.484 373.407h4.84v4.84h-4.84zM660.005 373.407h4.84v4.84h-4.84zM664.845 373.407h4.84v4.84h-4.84zM572.879 378.247h4.84v4.84h-4.84zM577.719 378.247h4.84v4.84h-4.84zM587.4 378.247h4.84v4.84h-4.84zM592.24 378.247h4.84v4.84h-4.84zM611.601 378.247h4.84v4.84h-4.84zM616.442 378.247h4.84v4.84h-4.84zM621.282 378.247h4.84v4.84h-4.84zM635.803 378.247h4.84v4.84h-4.84zM645.484 378.247h4.84v4.84h-4.84z"/><path d="M650.324 378.247h4.84v4.84h-4.84zM655.165 378.247h4.84v4.84h-4.84zM660.005 378.247h4.84v4.84h-4.84zM572.879 383.088h4.84v4.84h-4.84zM582.56 383.088h4.84v4.84h-4.84zM587.4 383.088h4.84v4.84h-4.84zM592.24 383.088h4.84v4.84h-4.84zM601.92 383.088h4.841v4.84h-4.84zM616.442 383.088h4.84v4.84h-4.84zM664.845 383.088h4.84v4.84h-4.84zM611.601 387.928h4.84v4.84h-4.84zM621.282 387.928h4.84v4.84h-4.84zM650.324 387.928h4.84v4.84h-4.84zM655.165 387.928h4.84v4.84h-4.84zM660.005 387.928h4.84v4.84h-4.84zM669.686 387.928h4.84v4.84h-4.84zM572.879 392.769h4.84v4.84h-4.84zM577.719 392.769h4.84v4.84h-4.84zM582.56 392.769h4.84v4.84h-4.84zM587.4 392.769h4.84v4.84h-4.84zM592.24 392.769h4.84v4.84h-4.84zM597.08 392.769h4.84v4.84h-4.84z"/><path d="M601.92 392.769h4.841v4.84h-4.84zM611.601 392.769h4.84v4.84h-4.84zM621.282 392.769h4.84v4.84h-4.84zM630.963 392.769h4.84v4.84h-4.84zM645.484 392.769h4.84v4.84h-4.84zM660.005 392.769h4.84v4.84h-4.84zM664.845 392.769h4.84v4.84h-4.84zM572.879 397.609h4.84v4.84h-4.84zM601.92 397.609h4.841v4.84h-4.84zM611.601 397.609h4.84v4.84h-4.84zM621.282 397.609h4.84v4.84h-4.84zM630.963 397.609h4.84v4.84h-4.84zM635.803 397.609h4.84v4.84h-4.84zM640.644 397.609h4.84v4.84h-4.84zM655.165 397.609h4.84v4.84h-4.84zM660.005 397.609h4.84v4.84h-4.84zM664.845 397.609h4.84v4.84h-4.84zM669.686 397.609h4.84v4.84h-4.84zM572.879 402.45h4.84v4.84h-4.84zM582.56 402.45h4.84v4.84h-4.84zM587.4 402.45h4.84v4.84h-4.84zM592.24 402.45h4.84v4.84h-4.84zM601.92 402.45h4.841v4.84h-4.84zM616.442 402.45h4.84v4.84h-4.84zM630.963 402.45h4.84v4.84h-4.84zM640.644 402.45h4.84v4.84h-4.84zM645.484 402.45h4.84v4.84h-4.84z"/><path d="M650.324 402.45h4.84v4.84h-4.84zM655.165 402.45h4.84v4.84h-4.84zM572.879 407.29h4.84v4.84h-4.84zM582.56 407.29h4.84v4.84h-4.84zM587.4 407.29h4.84v4.84h-4.84zM592.24 407.29h4.84v4.84h-4.84zM601.92 407.29h4.841v4.84h-4.84zM621.282 407.29h4.84v4.84h-4.84z"/><path d="M626.122 407.29h4.84v4.84h-4.84zM635.803 407.29h4.84v4.84h-4.84zM640.644 407.29h4.84v4.84h-4.84zM645.484 407.29h4.84v4.84h-4.84z"/><path d="M650.324 407.29h4.84v4.84h-4.84zM660.005 407.29h4.84v4.84h-4.84zM664.845 407.29h4.84v4.84h-4.84zM572.879 412.13h4.84v4.84h-4.84zM582.56 412.13h4.84v4.84h-4.84zM587.4 412.13h4.84v4.84h-4.84zM592.24 412.13h4.84v4.84h-4.84zM601.92 412.13h4.841v4.84h-4.84zM616.442 412.13h4.84v4.84h-4.84zM630.963 412.13h4.84v4.84h-4.84zM645.484 412.13h4.84v4.84h-4.84z"/><path d="M650.324 412.13h4.84v4.84h-4.84zM655.165 412.13h4.84v4.84h-4.84zM660.005 412.13h4.84v4.84h-4.84zM664.845 412.13h4.84v4.84h-4.84zM669.686 412.13h4.84v4.84h-4.84zM572.879 416.97h4.84v4.84h-4.84zM601.92 416.97h4.841v4.84h-4.84zM611.601 416.97h4.84v4.84h-4.84zM626.122 416.97h4.84v4.84h-4.84zM630.963 416.97h4.84v4.84h-4.84zM635.803 416.97h4.84v4.84h-4.84zM645.484 416.97h4.84v4.84h-4.84z"/><path d="M650.324 416.97h4.84v4.84h-4.84zM655.165 416.97h4.84v4.84h-4.84zM660.005 416.97h4.84v4.84h-4.84zM572.879 421.81h4.84v4.84h-4.84zM577.719 421.81h4.84v4.84h-4.84zM582.56 421.81h4.84v4.84h-4.84zM587.4 421.81h4.84v4.84h-4.84zM592.24 421.81h4.84v4.84h-4.84zM597.08 421.81h4.84v4.84h-4.84z"/><path d="M601.92 421.81h4.841v4.84h-4.84zM611.601 421.81h4.84v4.84h-4.84zM616.442 421.81h4.84v4.84h-4.84zM630.963 421.81h4.84v4.84h-4.84zM640.644 421.81h4.84v4.84h-4.84zM645.484 421.81h4.84v4.84h-4.84zM655.165 421.81h4.84v4.84h-4.84zM664.845 421.81h4.84v4.84h-4.84z"/></svg>