<?xml version="1.0" encoding="UTF-8" standalone="no"?>
<!DOCTYPE svg PUBLIC "-//W3C//DTD SVG 1.1//EN" "http://www.w3.org/Graphics/SVG/1.1/DTD/svg11.dtd">
<svg width="100%" height="100%" viewBox="0 0 818 524" version="1.1" xmlns="http://www.w3.org/2000/svg" xmlns:xlink="http://www.w3.org/1999/xlink" xml:space="preserve" xmlns:serif="http://www.serif.com/" style="fill-rule:evenodd;clip-rule:evenodd;stroke-linejoin:round;stroke-miterlimit:2;">
    <rect x="0.349" y="0.463" width="816.866" height="523.158" style="fill:rgb(230,230,230);"/>
    <rect x="23.707" y="66.08" width="770.15" height="426.591" style="fill:white;"/>
    <rect x="0" y="0" width="816.866" height="34.703" style="fill:rgb(128,118,250);"/>
    <circle cx="25.789" cy="17.742" r="6.432" style="fill:white;"/>
    <circle cx="50.203" cy="17.742" r="6.432" style="fill:white;"/>
    <circle cx="74.618" cy="17.742" r="6.432" style="fill:white;"/>
    <rect x="118.465" y="101.167" width="150.63" height="163.42" style="fill:rgb(230,230,230);"/>
    <rect x="333.465" y="101.167" width="150.63" height="163.42" style="fill:rgb(230,230,230);"/>
    <rect x="548.465" y="101.167" width="150.63" height="163.42" style="fill:rgb(230,230,230);"/>
    <rect x="118.465" y="294.167" width="150.63" height="163.42" style="fill:rgb(230,230,230);"/>
    <rect x="333.465" y="294.167" width="150.63" height="163.42" style="fill:rgb(230,230,230);"/>
    <rect x="548.465" y="294.167" width="150.63" height="163.42" style="fill:rgb(230,230,230);"/>
    <circle cx="176.975" cy="174.52" r="25.462" style="fill:rgb(255,185,185);"/>
    <g transform="matrix(1,0,0,1,-191.392,-188.19)">
        <path d="M358.421,382.204C358.421,382.204 361.604,397.322 361.604,398.914C361.604,400.505 376.722,407.666 376.722,407.666L390.249,405.279L395.023,390.957C395.023,390.957 387.066,379.021 387.066,374.247L358.421,382.204Z" style="fill:rgb(255,185,185);fill-rule:nonzero;"/>
    </g>
    <g transform="matrix(1,0,0,1,-191.392,-188.19)">
        <path d="M346.286,342.195C346.286,342.195 354.37,324.68 369.865,328.722C385.36,332.764 394.118,338.827 394.791,344.89C395.465,350.953 394.455,360.048 394.455,360.048C394.455,360.048 392.77,347.585 381.991,350.279C371.212,352.974 354.37,350.953 354.37,350.953L351.676,375.206C351.676,375.206 348.644,370.827 345.276,373.521C341.907,376.216 335.507,347.585 346.286,342.195Z" style="fill:rgb(47,46,65);fill-rule:nonzero;"/>
    </g>
    <g transform="matrix(1,0,0,1,-191.392,-188.19)">
        <path d="M449.128,446.657L442.768,418.007C439.578,408.457 431.628,400.507 431.628,400.507L392.388,386.707L392.378,386.707C392.221,393.803 387.497,400.037 380.708,402.107C368.768,406.077 360.548,392.697 360.548,392.697L327.378,418.007C327.378,418.007 317.038,426.767 317.838,443.477L316.738,452.777L452.188,452.777L449.128,446.657Z" style="fill:rgb(128,118,250);fill-rule:nonzero;"/>
    </g>
    <ellipse cx="391.4" cy="175.984" rx="34.56" ry="36.687" style="fill:rgb(47,46,65);"/>
    <circle cx="422.064" cy="213.32" r="18.181" style="fill:rgb(47,46,65);"/>
    <path d="M409.402,188.971L419.142,214.294L394.468,224.684L392.301,219.773L384.727,202.607L409.402,188.971Z" style="fill:rgb(159,97,106);fill-rule:nonzero;"/>
    <circle cx="389.922" cy="183.776" r="21.752" style="fill:rgb(159,97,106);"/>
    <g transform="matrix(1,0,0,1,-191.392,-188.19)">
        <path d="M563.535,369.58C577.207,360.457 581.294,358.276 596.965,361.8L597.905,338.937L557.408,347.432L563.535,369.58Z" style="fill:rgb(47,46,65);fill-rule:nonzero;"/>
    </g>
    <g transform="matrix(1,0,0,1,-191.392,-188.19)">
        <path d="M651.438,421.307L650.838,421.377C650.823,421.355 650.806,421.335 650.788,421.317C648.408,418.937 637.048,414.607 628.578,411.607L628.568,411.607C623.188,409.697 618.978,408.327 618.978,408.327L608.738,397.797C606.158,400.697 600.708,402.937 595.528,404.517C591.562,405.717 587.528,406.679 583.448,407.397L583.438,407.397L581.318,414.167C581.318,414.167 557.288,432.357 555.348,434.297L555.338,434.297L555.338,434.317C555.183,434.538 555.118,434.81 555.158,435.077L555.158,435.127C553.946,440.932 553.322,446.846 553.298,452.777L657.938,452.777L657.938,446.637C657.938,438.197 651.438,421.307 651.438,421.307Z" style="fill:rgb(87,90,137);fill-rule:nonzero;"/>
    </g>
    <g transform="matrix(1,0,0,1,-191.392,-188.19)">
        <path d="M843.858,452.777L792.118,452.777L789.268,424.667L789.098,422.957L788.748,419.567L787.318,405.397L785.528,420.617L781.748,452.777L772.348,452.777L772.698,442.767L773.048,432.617L773.198,428.527L775.128,372.887C774.98,364.071 777.771,355.452 783.058,348.397C789.006,340.652 798.283,336.164 808.048,336.307C818.008,336.274 827.427,340.917 833.468,348.837C838.932,355.963 841.858,364.717 841.778,373.697L842.668,407.377L843.858,452.777Z" style="fill:rgb(47,46,65);fill-rule:nonzero;"/>
    </g>
    <circle cx="616.656" cy="181.85" r="22.758" style="fill:rgb(251,190,190);"/>
    <g transform="matrix(1,0,0,1,-191.392,-188.19)">
        <path d="M796.669,386.295C796.669,386.295 803.171,408.24 796.669,414.743C790.167,421.245 788.541,423.683 788.541,423.683L807.235,448.88L839.747,409.053C839.747,409.053 816.989,402.551 822.678,384.669L796.669,386.295Z" style="fill:rgb(251,190,190);fill-rule:nonzero;"/>
    </g>
    <path d="M675.485,264.587L656.285,264.587L655.965,261.297L655.675,258.257L664.515,257.147L675.175,255.817L675.295,259.227L675.485,264.587Z" style="fill:rgb(251,190,190);fill-rule:nonzero;"/>
    <g transform="matrix(1,0,0,1,-191.392,-188.19)">
        <path d="M868.194,447.254C868.194,447.254 864.943,426.934 862.505,418.806C860.066,410.679 857.628,410.679 857.628,410.679L857.628,410.679L857.628,410.677C854.758,407.807 847.858,407.297 842.668,407.377C839.028,407.417 836.228,407.737 836.228,407.737L807.238,438.317L792.638,418.907L792.638,418.897C791.323,418.999 790.021,419.223 788.748,419.567C787.652,419.846 786.577,420.196 785.528,420.617C781.006,422.549 776.839,425.222 773.198,428.527L773.188,428.527C771.088,430.417 769.848,431.807 769.848,431.807C766.632,438.491 764.209,445.529 762.628,452.777L855.528,452.777L855.738,448.597L855.738,448.589L868.194,447.254Z" style="fill:rgb(128,118,250);fill-rule:nonzero;"/>
    </g>
    <g transform="matrix(1,0,0,1,-191.392,-188.19)">
        <path d="M788.948,366.382C803.646,358.457 809.684,358.793 827.961,366.382L832.838,354.5C832.833,349.873 829.027,346.067 824.4,346.062L791.696,346.062C787.069,346.067 783.263,349.873 783.258,354.5L788.948,366.382Z" style="fill:rgb(47,46,65);fill-rule:nonzero;"/>
    </g>
    <g transform="matrix(1,0,0,1,-191.392,-188.19)">
        <path d="M383.181,521.911C381.97,521.811 380.757,522.082 379.704,522.688C378.704,523.54 377.902,524.599 377.352,525.792C374.807,530.26 371.362,534.151 367.236,537.219C364.23,539.421 360.408,542.167 360.923,546.226C361.194,547.567 361.689,548.853 362.388,550.029C365.161,555.626 372.728,559.952 371.983,566.34C374.738,561.727 371.053,559.447 373.808,554.835C375.12,552.638 377.4,550.159 379.38,551.538C380.044,552 380.479,552.828 381.17,553.234C382.818,554.201 384.571,552.352 386.029,551.043C391.059,546.527 398.212,547.71 404.471,549.117C407.426,549.781 410.671,550.653 412.418,553.477C414.715,557.19 410.236,561.2 409.105,565.399C409.056,565.585 409.032,565.778 409.032,565.97C409.032,567.225 410.065,568.258 411.32,568.258C411.4,568.258 411.48,568.254 411.56,568.245C413.438,568.06 415.663,567.908 415.774,567.084C418.137,567.168 421.032,566.901 422.044,564.44C422.354,563.467 422.517,562.453 422.53,561.431C422.901,557.298 424.655,553.528 425.817,549.594C426.979,545.661 427.485,541.051 425.524,537.563C424.824,536.403 423.958,535.351 422.954,534.441C411.826,523.671 397.194,521.895 383.181,521.911Z" style="fill:rgb(47,46,65);fill-rule:nonzero;"/>
    </g>
    <g transform="matrix(1,0,0,1,-191.392,-188.19)">
        <path d="M374.404,574.407C374.404,574.407 376.824,594.576 367.95,596.19C359.075,597.803 376.017,625.233 376.017,625.233L416.355,630.074L406.674,597.803C406.674,597.803 400.22,595.383 404.254,579.248C408.288,563.112 374.404,574.407 374.404,574.407Z" style="fill:rgb(159,97,106);fill-rule:nonzero;"/>
    </g>
    <circle cx="201.163" cy="375.326" r="24.203" style="fill:rgb(159,97,106);"/>
    <g transform="matrix(1,0,0,1,-191.392,-188.19)">
        <path d="M350.898,645.777C355.178,628.947 361.088,606.277 361.088,606.277C361.088,606.277 363.388,606.747 367.008,607.277C372.296,608.064 377.624,608.548 382.968,608.727C389.808,608.917 397.008,608.467 402.578,606.537C404.677,605.863 406.639,604.816 408.368,603.447C409.096,602.861 409.748,602.185 410.308,601.437C419.988,588.527 424.018,637.737 424.018,637.737L424.768,645.777L350.898,645.777Z" style="fill:rgb(128,118,250);fill-rule:nonzero;"/>
    </g>
    <g transform="matrix(1,0,0,1,-191.392,-188.19)">
        <path d="M428.228,697.777C427.908,697.777 427.588,697.787 427.268,697.807L427.728,696.947C427.888,697.217 428.048,697.497 428.228,697.777Z" style="fill:rgb(255,184,184);fill-rule:nonzero;"/>
    </g>
    <g transform="matrix(1,0,0,1,-191.392,-188.19)">
        <path d="M384.36,528.243C383.384,528.171 382.407,528.361 381.529,528.792C380.736,529.372 380.082,530.122 379.615,530.987C377.463,534.223 374.658,536.975 371.38,539.063C368.933,540.619 365.822,542.56 366.241,545.43C366.468,546.392 366.872,547.303 367.433,548.117C369.698,552.113 370.6,556.74 370.002,561.293L376.73,551.514C377.798,549.961 379.654,548.209 381.266,549.184C381.806,549.51 382.161,550.096 382.723,550.382C384.064,551.066 385.491,549.759 386.679,548.834C390.773,545.642 396.596,546.478 401.691,547.473C404.096,547.942 406.738,548.558 408.16,550.554C410.523,553.871 408.056,558.664 409.435,562.496C410.215,561.951 410.741,561.111 410.892,560.172C412.815,560.231 415.172,560.042 415.996,558.303C416.247,557.621 416.381,556.902 416.391,556.176C416.694,553.255 418.122,550.59 419.068,547.81C420.014,545.03 420.425,541.771 418.829,539.306C418.245,538.471 417.54,537.727 416.737,537.099C407.678,529.487 395.767,528.232 384.36,528.243Z" style="fill:rgb(47,46,65);fill-rule:nonzero;"/>
    </g>
    <g transform="matrix(1,0,0,1,-191.392,-188.19)">
        <path d="M382.068,607.077C376.548,600.767 373.268,591.567 373.118,591.157L373.118,591.147C373.118,591.147 364.318,586.107 361.898,590.947C359.478,595.787 336.888,607.887 334.468,607.887C334.448,607.895 334.428,607.902 334.408,607.907C333.448,608.227 321.428,612.597 318.338,628.867C317.498,634.465 317.051,640.116 316.998,645.777L382.788,645.777C383.468,638.647 383.978,631.977 384.178,626.217C384.468,618.187 384.188,611.947 382.968,608.727C382.773,608.126 382.467,607.566 382.068,607.077Z" style="fill:rgb(47,46,65);fill-rule:nonzero;"/>
    </g>
    <g transform="matrix(1,0,0,1,-191.392,-188.19)">
        <path d="M438.638,611.617C438.598,611.427 438.568,611.267 438.538,611.117C438.43,610.688 438.248,610.281 437.998,609.917C437.992,609.907 437.989,609.897 437.988,609.887C433.328,602.667 403.358,592.727 403.358,592.727L402.238,596.597C402.238,596.597 402.378,600.417 402.578,606.537C402.778,612.267 403.018,620.007 403.248,628.507C403.408,634.057 403.548,639.937 403.678,645.777L448.508,645.777C445.996,634.179 442.698,622.766 438.638,611.617Z" style="fill:rgb(47,46,65);fill-rule:nonzero;"/>
    </g>
    <g transform="matrix(1,0,0,1,-191.392,-188.19)">
        <path d="M597.88,528.783C579.004,528.783 563.703,545.765 563.703,566.713L563.703,593.327L571.888,593.327L576.627,583.466L575.442,593.327L628.055,593.327L632.363,584.363L631.286,593.327L637.21,593.327L637.21,572.43C637.21,548.324 619.602,528.783 597.88,528.783Z" style="fill:rgb(47,46,65);fill-rule:nonzero;"/>
    </g>
    <g transform="matrix(1,0,0,1,-191.392,-188.19)">
        <path d="M570.298,645.777L548.068,645.777L547.858,627.647C547.848,627.457 547.848,627.277 547.848,627.087L552.298,622.077L552.378,621.987L569.368,632.747L570.298,645.777Z" style="fill:rgb(208,205,225);fill-rule:nonzero;"/>
    </g>
    <circle cx="403.464" cy="377.088" r="24.331" style="fill:rgb(251,190,190);"/>
    <g transform="matrix(1,0,0,1,-191.392,-188.19)">
        <path d="M580.907,579.876C580.907,579.876 588.044,616.859 584.8,620.752C581.555,624.645 619.188,613.615 619.188,613.615C619.188,613.615 606.86,588.311 613.348,574.036L580.907,579.876Z" style="fill:rgb(251,190,190);fill-rule:nonzero;"/>
    </g>
    <g transform="matrix(1,0,0,1,-191.392,-188.19)">
        <path d="M646.918,604.887L646.908,604.887C646.334,603.675 645.344,602.709 644.118,602.167C639.348,600.157 635.238,598.617 631.858,597.447C625.881,595.395 619.355,595.598 613.518,598.017C612.948,598.247 612.388,598.497 611.838,598.777C611.838,598.777 588.048,603.307 585.218,602.737C585.008,602.697 584.788,602.667 584.578,602.647C584.15,602.585 583.719,602.548 583.288,602.537C577.753,602.28 572.261,603.642 567.488,606.457C559.678,610.987 548.098,619.017 547.858,626.837L547.638,627.087L547.858,645.777L652.278,645.777C652.488,627.867 652.608,614.407 652.608,613.497C652.608,610.667 646.918,604.887 646.918,604.887Z" style="fill:rgb(128,118,250);fill-rule:nonzero;"/>
    </g>
    <g transform="matrix(1,0,0,1,-191.392,-188.19)">
        <path d="M607.596,539.231C604.265,534.758 599.03,532.086 593.453,532.014L592.782,532.014C579.845,532.014 569.357,543.721 569.357,558.162L569.357,558.162L573.692,558.162L574.392,552.833L575.419,558.162L601.129,558.162L603.283,553.654L602.745,558.162L607.803,558.162C610.163,569.884 606.772,581.606 597.629,593.327L606.245,593.327L610.553,584.311L609.476,593.327L625.901,593.327L629.132,572.589C629.132,557.058 620.108,543.888 607.596,539.231Z" style="fill:rgb(47,46,65);fill-rule:nonzero;"/>
    </g>
    <circle cx="420.926" cy="340.424" r="12.801" style="fill:rgb(47,46,65);"/>
    <g id="QR" transform="matrix(0.605043,0,0,0.605043,563.198,315.323)">
        <rect x="0" y="0" width="200" height="200" style="fill:white;"/>
        <rect x="16" y="16" width="8" height="8"/>
        <rect x="24" y="16" width="8" height="8"/>
        <rect x="32" y="16" width="8" height="8"/>
        <rect x="40" y="16" width="8" height="8"/>
        <rect x="48" y="16" width="8" height="8"/>
        <rect x="56" y="16" width="8" height="8"/>
        <rect x="64" y="16" width="8" height="8"/>
        <rect x="88" y="16" width="8" height="8"/>
        <rect x="128" y="16" width="8" height="8"/>
        <rect x="136" y="16" width="8" height="8"/>
        <rect x="144" y="16" width="8" height="8"/>
        <rect x="152" y="16" width="8" height="8"/>
        <rect x="160" y="16" width="8" height="8"/>
        <rect x="168" y="16" width="8" height="8"/>
        <rect x="176" y="16" width="8" height="8"/>
        <rect x="16" y="24" width="8" height="8"/>
        <rect x="64" y="24" width="8" height="8"/>
        <rect x="96" y="24" width="8" height="8"/>
        <rect x="104" y="24" width="8" height="8"/>
        <rect x="112" y="24" width="8" height="8"/>
        <rect x="128" y="24" width="8" height="8"/>
        <rect x="176" y="24" width="8" height="8"/>
        <rect x="16" y="32" width="8" height="8"/>
        <rect x="32" y="32" width="8" height="8"/>
        <rect x="40" y="32" width="8" height="8"/>
        <rect x="48" y="32" width="8" height="8"/>
        <rect x="64" y="32" width="8" height="8"/>
        <rect x="88" y="32" width="8" height="8"/>
        <rect x="104" y="32" width="8" height="8"/>
        <rect x="112" y="32" width="8" height="8"/>
        <rect x="128" y="32" width="8" height="8"/>
        <rect x="144" y="32" width="8" height="8"/>
        <rect x="152" y="32" width="8" height="8"/>
        <rect x="160" y="32" width="8" height="8"/>
        <rect x="176" y="32" width="8" height="8"/>
        <rect x="16" y="40" width="8" height="8"/>
        <rect x="32" y="40" width="8" height="8"/>
        <rect x="40" y="40" width="8" height="8"/>
        <rect x="48" y="40" width="8" height="8"/>
        <rect x="64" y="40" width="8" height="8"/>
        <rect x="80" y="40" width="8" height="8"/>
        <rect x="128" y="40" width="8" height="8"/>
        <rect x="144" y="40" width="8" height="8"/>
        <rect x="152" y="40" width="8" height="8"/>
        <rect x="160" y="40" width="8" height="8"/>
        <rect x="176" y="40" width="8" height="8"/>
        <rect x="16" y="48" width="8" height="8"/>
        <rect x="32" y="48" width="8" height="8"/>
        <rect x="40" y="48" width="8" height="8"/>
        <rect x="48" y="48" width="8" height="8"/>
        <rect x="64" y="48" width="8" height="8"/>
        <rect x="80" y="48" width="8" height="8"/>
        <rect x="96" y="48" width="8" height="8"/>
        <rect x="104" y="48" width="8" height="8"/>
        <rect x="128" y="48" width="8" height="8"/>
        <rect x="144" y="48" width="8" height="8"/>
        <rect x="152" y="48" width="8" height="8"/>
        <rect x="160" y="48" width="8" height="8"/>
        <rect x="176" y="48" width="8" height="8"/>
        <rect x="16" y="56" width="8" height="8"/>
        <rect x="64" y="56" width="8" height="8"/>
        <rect x="88" y="56" width="8" height="8"/>
        <rect x="96" y="56" width="8" height="8"/>
        <rect x="104" y="56" width="8" height="8"/>
        <rect x="112" y="56" width="8" height="8"/>
        <rect x="128" y="56" width="8" height="8"/>
        <rect x="176" y="56" width="8" height="8"/>
        <rect x="16" y="64" width="8" height="8"/>
        <rect x="24" y="64" width="8" height="8"/>
        <rect x="32" y="64" width="8" height="8"/>
        <rect x="40" y="64" width="8" height="8"/>
        <rect x="48" y="64" width="8" height="8"/>
        <rect x="56" y="64" width="8" height="8"/>
        <rect x="64" y="64" width="8" height="8"/>
        <rect x="80" y="64" width="8" height="8"/>
        <rect x="96" y="64" width="8" height="8"/>
        <rect x="112" y="64" width="8" height="8"/>
        <rect x="128" y="64" width="8" height="8"/>
        <rect x="136" y="64" width="8" height="8"/>
        <rect x="144" y="64" width="8" height="8"/>
        <rect x="152" y="64" width="8" height="8"/>
        <rect x="160" y="64" width="8" height="8"/>
        <rect x="168" y="64" width="8" height="8"/>
        <rect x="176" y="64" width="8" height="8"/>
        <rect x="112" y="72" width="8" height="8"/>
        <rect x="16" y="80" width="8" height="8"/>
        <rect x="24" y="80" width="8" height="8"/>
        <rect x="56" y="80" width="8" height="8"/>
        <rect x="64" y="80" width="8" height="8"/>
        <rect x="72" y="80" width="8" height="8"/>
        <rect x="88" y="80" width="8" height="8"/>
        <rect x="144" y="80" width="8" height="8"/>
        <rect x="152" y="80" width="8" height="8"/>
        <rect x="24" y="88" width="8" height="8"/>
        <rect x="40" y="88" width="8" height="8"/>
        <rect x="88" y="88" width="8" height="8"/>
        <rect x="96" y="88" width="8" height="8"/>
        <rect x="104" y="88" width="8" height="8"/>
        <rect x="120" y="88" width="8" height="8"/>
        <rect x="152" y="88" width="8" height="8"/>
        <rect x="160" y="88" width="8" height="8"/>
        <rect x="168" y="88" width="8" height="8"/>
        <rect x="16" y="96" width="8" height="8"/>
        <rect x="32" y="96" width="8" height="8"/>
        <rect x="40" y="96" width="8" height="8"/>
        <rect x="48" y="96" width="8" height="8"/>
        <rect x="64" y="96" width="8" height="8"/>
        <rect x="72" y="96" width="8" height="8"/>
        <rect x="88" y="96" width="8" height="8"/>
        <rect x="104" y="96" width="8" height="8"/>
        <rect x="112" y="96" width="8" height="8"/>
        <rect x="120" y="96" width="8" height="8"/>
        <rect x="128" y="96" width="8" height="8"/>
        <rect x="136" y="96" width="8" height="8"/>
        <rect x="160" y="96" width="8" height="8"/>
        <rect x="168" y="96" width="8" height="8"/>
        <rect x="16" y="104" width="8" height="8"/>
        <rect x="24" y="104" width="8" height="8"/>
        <rect x="40" y="104" width="8" height="8"/>
        <rect x="48" y="104" width="8" height="8"/>
        <rect x="80" y="104" width="8" height="8"/>
        <rect x="88" y="104" width="8" height="8"/>
        <rect x="96" y="104" width="8" height="8"/>
        <rect x="120" y="104" width="8" height="8"/>
        <rect x="136" y="104" width="8" height="8"/>
        <rect x="144" y="104" width="8" height="8"/>
        <rect x="152" y="104" width="8" height="8"/>
        <rect x="160" y="104" width="8" height="8"/>
        <rect x="16" y="112" width="8" height="8"/>
        <rect x="32" y="112" width="8" height="8"/>
        <rect x="40" y="112" width="8" height="8"/>
        <rect x="48" y="112" width="8" height="8"/>
        <rect x="64" y="112" width="8" height="8"/>
        <rect x="88" y="112" width="8" height="8"/>
        <rect x="168" y="112" width="8" height="8"/>
        <rect x="80" y="120" width="8" height="8"/>
        <rect x="96" y="120" width="8" height="8"/>
        <rect x="144" y="120" width="8" height="8"/>
        <rect x="152" y="120" width="8" height="8"/>
        <rect x="160" y="120" width="8" height="8"/>
        <rect x="176" y="120" width="8" height="8"/>
        <rect x="16" y="128" width="8" height="8"/>
        <rect x="24" y="128" width="8" height="8"/>
        <rect x="32" y="128" width="8" height="8"/>
        <rect x="40" y="128" width="8" height="8"/>
        <rect x="48" y="128" width="8" height="8"/>
        <rect x="56" y="128" width="8" height="8"/>
        <rect x="64" y="128" width="8" height="8"/>
        <rect x="80" y="128" width="8" height="8"/>
        <rect x="96" y="128" width="8" height="8"/>
        <rect x="112" y="128" width="8" height="8"/>
        <rect x="136" y="128" width="8" height="8"/>
        <rect x="160" y="128" width="8" height="8"/>
        <rect x="168" y="128" width="8" height="8"/>
        <rect x="16" y="136" width="8" height="8"/>
        <rect x="64" y="136" width="8" height="8"/>
        <rect x="80" y="136" width="8" height="8"/>
        <rect x="96" y="136" width="8" height="8"/>
        <rect x="112" y="136" width="8" height="8"/>
        <rect x="120" y="136" width="8" height="8"/>
        <rect x="128" y="136" width="8" height="8"/>
        <rect x="152" y="136" width="8" height="8"/>
        <rect x="160" y="136" width="8" height="8"/>
        <rect x="168" y="136" width="8" height="8"/>
        <rect x="176" y="136" width="8" height="8"/>
        <rect x="16" y="144" width="8" height="8"/>
        <rect x="32" y="144" width="8" height="8"/>
        <rect x="40" y="144" width="8" height="8"/>
        <rect x="48" y="144" width="8" height="8"/>
        <rect x="64" y="144" width="8" height="8"/>
        <rect x="88" y="144" width="8" height="8"/>
        <rect x="112" y="144" width="8" height="8"/>
        <rect x="128" y="144" width="8" height="8"/>
        <rect x="136" y="144" width="8" height="8"/>
        <rect x="144" y="144" width="8" height="8"/>
        <rect x="152" y="144" width="8" height="8"/>
        <rect x="16" y="152" width="8" height="8"/>
        <rect x="32" y="152" width="8" height="8"/>
        <rect x="40" y="152" width="8" height="8"/>
        <rect x="48" y="152" width="8" height="8"/>
        <rect x="64" y="152" width="8" height="8"/>
        <rect x="96" y="152" width="8" height="8"/>
        <rect x="104" y="152" width="8" height="8"/>
        <rect x="120" y="152" width="8" height="8"/>
        <rect x="128" y="152" width="8" height="8"/>
        <rect x="136" y="152" width="8" height="8"/>
        <rect x="144" y="152" width="8" height="8"/>
        <rect x="160" y="152" width="8" height="8"/>
        <rect x="168" y="152" width="8" height="8"/>
        <rect x="16" y="160" width="8" height="8"/>
        <rect x="32" y="160" width="8" height="8"/>
        <rect x="40" y="160" width="8" height="8"/>
        <rect x="48" y="160" width="8" height="8"/>
        <rect x="64" y="160" width="8" height="8"/>
        <rect x="88" y="160" width="8" height="8"/>
        <rect x="112" y="160" width="8" height="8"/>
        <rect x="136" y="160" width="8" height="8"/>
        <rect x="144" y="160" width="8" height="8"/>
        <rect x="152" y="160" width="8" height="8"/>
        <rect x="160" y="160" width="8" height="8"/>
        <rect x="168" y="160" width="8" height="8"/>
        <rect x="176" y="160" width="8" height="8"/>
        <rect x="16" y="168" width="8" height="8"/>
        <rect x="64" y="168" width="8" height="8"/>
        <rect x="80" y="168" width="8" height="8"/>
        <rect x="104" y="168" width="8" height="8"/>
        <rect x="112" y="168" width="8" height="8"/>
        <rect x="120" y="168" width="8" height="8"/>
        <rect x="136" y="168" width="8" height="8"/>
        <rect x="144" y="168" width="8" height="8"/>
        <rect x="152" y="168" width="8" height="8"/>
        <rect x="160" y="168" width="8" height="8"/>
        <rect x="16" y="176" width="8" height="8"/>
        <rect x="24" y="176" width="8" height="8"/>
        <rect x="32" y="176" width="8" height="8"/>
        <rect x="40" y="176" width="8" height="8"/>
        <rect x="48" y="176" width="8" height="8"/>
        <rect x="56" y="176" width="8" height="8"/>
        <rect x="64" y="176" width="8" height="8"/>
        <rect x="80" y="176" width="8" height="8"/>
        <rect x="88" y="176" width="8" height="8"/>
        <rect x="112" y="176" width="8" height="8"/>
        <rect x="128" y="176" width="8" height="8"/>
        <rect x="136" y="176" width="8" height="8"/>
        <rect x="152" y="176" width="8" height="8"/>
        <rect x="168" y="176" width="8" height="8"/>
    </g>
</svg>
