<svg viewBox="0 0 811 596" xmlns="http://www.w3.org/2000/svg" xml:space="preserve" style="fill-rule:evenodd;clip-rule:evenodd;stroke-linejoin:round;stroke-miterlimit:2"><path d="m378.969 471.236 12.798-5.727-16.029-53.295-18.89 8.452 22.121 50.57Z" style="fill:#ffb6b6;fill-rule:nonzero"/><path d="m564.736 609.125 19.145-13.52 5.284 8.518 27 1.328c3.315.163 5.954 2.935 5.954 6.254a6.268 6.268 0 0 1-2.961 5.321l-23.669 14.683-9.306-5.895 3.633 9.414-8.924 5.536-16.156-31.639Z" style="fill:#2f2e41;fill-rule:nonzero" transform="translate(-194.934 -152.357)"/><path d="M902.658 522.718c0-5.36-1.8-9.71-4.01-9.72h-602.49c-2.22.01-4.01 4.36-4.02 9.72v220.643a2.01 2.01 0 0 1-1.809 1.994c-1.617.155-3.234.3-4.851.433-.04 0-.08.01-.12.01-.88.08-1.76.14-2.64.21h-.01c-.453-.837-.9-1.681-1.342-2.532a2.007 2.007 0 0 1-.228-.93V510.108c0-1.48.06-2.97.16-4.44.143-2.018.393-4.028.75-6.02 1.69-9.29 5.51-15.58 9.85-15.6h611a4.684 4.684 0 0 1 1.84.39 7.188 7.188 0 0 1 2.27 1.59 14.09 14.09 0 0 1 2.23 3.05c2.14 3.77 3.67 9.39 4.21 15.93 0 .06.01.12.01.18.14 1.62.21 3.27.2 4.92l.14 21.43.09 12.78.27 40.1.1 14.24.44 146.2c0 1.097-.903 2-2 2h-8.04c-1.097 0-2-.903-2-2v-222.14Z" style="fill:#e6e6e6;fill-rule:nonzero" transform="translate(-194.934 -152.357)"/><path d="M738.942 383.773h-64.919a3.48 3.48 0 0 0-3.459 3.467v102.553h71.846V387.238a3.483 3.483 0 0 0-3.466-3.466l-.002.001Zm-32.241 58.269c-4.198-.019-7.647-3.468-7.666-7.666v-11.828c.005-4.202 3.464-7.658 7.666-7.658s7.661 3.456 7.666 7.658v11.828c-.02 4.198-3.468 7.647-7.666 7.666Z" style="fill:#2f2e41;fill-rule:nonzero" transform="translate(-194.934 -152.357)"/><path d="M670.341 486.513v9.895a1.947 1.947 0 0 0 1.935 1.934h68.422a1.952 1.952 0 0 0 1.934-1.934v-9.895h-72.291Z" style="fill:#3f3d56;fill-rule:nonzero" transform="translate(-194.934 -152.357)"/><path d="M586.932 240.957a13.87 13.87 0 0 1-12.866 8.733c-2.577 0-5.102-.719-7.292-2.076l-91.638 63.839-2.53-25.441 90.102-58.376a13.93 13.93 0 0 1 11.321-5.821c7.636 0 13.92 6.283 13.92 13.919 0 1.79-.346 3.563-1.017 5.223Z" style="fill:#ffb6b6;fill-rule:nonzero" transform="translate(-194.934 -152.357)"/><path d="M381.76 281.208s-9.923 14.662 5.648 27.636c15.571 12.975 78.681 10.394 88.865 10.282 10.185-.111 56.913-48.45 56.913-48.45l-.306-27.918-56.418 33.476-94.702 4.974Z" style="fill:#8076fa;fill-rule:nonzero" transform="translate(-194.934 -152.357)"/><path d="m376.142 378.55 1 19s-2.952 16.83-.524 20.462c2.409 3.614 68.568 8.991 68.568 8.991s-2.074-28.337 1.668-48.833l-70.712.38Z" style="fill:#ffb6b6;fill-rule:nonzero" transform="translate(-194.934 -152.357)"/><path d="m579.186 572.003-25.467 22.292-49.913-102.081c-49.495 8.513-96.19 11.24-136.578.942-13.675-3.438-22.034-17.558-18.67-31.537.157-.654.338-1.3.545-1.94 4.834-14.748 17.487-25.183 27.456-41.404l72.816 1.106-8.133 28.062 70.737-9.153c14.225-1.841 27.217 8.456 29.017 22.998.096.768.158 1.539.187 2.313l38.003 108.402Z" style="fill:#2f2e41;fill-rule:nonzero" transform="translate(-194.934 -152.357)"/><circle cx="209.64" cy="68.762" r="29.568" style="fill:#ffb6b6"/><path d="m387.24 261.362 27.111 3.189a5.543 5.543 0 0 1 4.758 4.313l4.312 19.729 26.876 31.651s9.651 18.096 6.032 38.605a145.31 145.31 0 0 1-11.209 35.747c-5.264 11.382-66.096 27.032-68.509 23.413-2.413-3.619-3.196-20.059-3.196-20.059l-8.503-94.602a33.964 33.964 0 0 1 9.755-27.275c2.146-2.11 4.263-3.588 5.986-3.588 3.893-.131 3.394-8.893 6.587-11.123Z" style="fill:#8076fa;fill-rule:nonzero" transform="translate(-194.934 -152.357)"/><path d="m250.479 510.874 12.581 6.162 30.287-46.676-18.569-9.095-24.299 49.609Z" style="fill:#ffb6b6;fill-rule:nonzero"/><path d="m475.551 652.682-25.847-9.813 35.474-106.546c-48.193-14.13-84.546-36.889-116.286-63.905-10.768-9.103-18.843-20.795-9.672-31.869.428-.518.876-1.018 1.343-1.502 10.828-11.117 38.311-8.978 54.4-19.16l35.981 38.416-2.254 10.291 67.55 22.899c13.585 4.605 20.722 19.567 15.942 33.418a27.036 27.036 0 0 1-.851 2.16l-55.78 125.611ZM444.984 655.794l21.625 9.039-4.41 9.002 13.217 23.581c.525.935.8 1.989.8 3.062 0 3.434-2.826 6.261-6.261 6.261a6.263 6.263 0 0 1-2.755-.639l-25.014-12.253.051-11.017-6.046 8.08-9.431-4.62 18.224-30.496Z" style="fill:#2f2e41;fill-rule:nonzero" transform="translate(-194.934 -152.357)"/><path d="M402.697 492.659a13.859 13.859 0 0 1-6.286-11.6c0-3.52 1.343-6.911 3.753-9.477l-44.429-102.465 25.437 2.558 39.379 99.877a13.927 13.927 0 0 1 3.74 9.494c0 7.636-6.284 13.919-13.92 13.919-2.728 0-5.397-.802-7.674-2.306Z" style="fill:#ffb6b6;fill-rule:nonzero" transform="translate(-194.934 -152.357)"/><path d="M403.871 283.579s-12.407-12.629-28.208.064c-15.801 12.693-25.768 75.065-27.675 85.07-1.907 10.004 36.221 65.379 36.221 65.379l27.425 5.229-21.641-61.93 13.878-93.812Z" style="fill:#8076fa;fill-rule:nonzero" transform="translate(-194.934 -152.357)"/><path d="M846.443 223.726H568.938c-4.931.008-8.986 4.063-8.994 8.994v187.262c.004 4.932 4.062 8.989 8.994 8.994h277.505c4.932-.005 8.989-4.062 8.994-8.994V232.72c-.008-4.931-4.063-8.986-8.994-8.994Z" style="fill:#3f3d56;fill-rule:nonzero" transform="translate(-194.934 -152.357)"/><path d="M844.126 230.223h-272.87c-2.64.005-4.809 2.179-4.81 4.82v182.62c.005 2.636 2.173 4.805 4.81 4.81h272.87c2.637-.005 4.806-2.174 4.81-4.81v-182.62c0-2.641-2.169-4.815-4.81-4.82Z" style="fill:#fff;fill-rule:nonzero" transform="translate(-194.934 -152.357)"/><path d="M790.976 501.785H628.633a3 3 0 0 1-2.986-2.987c0-.206.021-.413.064-.615l2.519-11.964a3.007 3.007 0 0 1 2.922-2.371h157.305a3.008 3.008 0 0 1 2.922 2.371l2.519 11.964c.043.202.064.409.064.615a3 3 0 0 1-2.986 2.987Z" style="fill:#2f2e41;fill-rule:nonzero" transform="translate(-194.934 -152.357)"/><path d="M442.37 334.133a.489.489 0 0 0-.488-.488h-4.024a.489.489 0 0 0-.488.488v2.024c0 .269.219.488.488.488h4.024a.489.489 0 0 0 .488-.488v-2.024ZM452.37 334.133a.489.489 0 0 0-.488-.488h-4.024a.489.489 0 0 0-.488.488v2.024c0 .269.219.488.488.488h4.024a.489.489 0 0 0 .488-.488v-2.024ZM462.37 334.133a.489.489 0 0 0-.488-.488h-4.024a.489.489 0 0 0-.488.488v2.024c0 .269.219.488.488.488h4.024a.489.489 0 0 0 .488-.488v-2.024ZM472.37 334.133a.489.489 0 0 0-.488-.488h-4.024a.489.489 0 0 0-.488.488v2.024c0 .269.219.488.488.488h4.024a.489.489 0 0 0 .488-.488v-2.024ZM482.37 334.133a.489.489 0 0 0-.488-.488h-4.024a.489.489 0 0 0-.488.488v2.024c0 .269.219.488.488.488h4.024a.489.489 0 0 0 .488-.488v-2.024ZM492.37 334.133a.489.489 0 0 0-.488-.488h-4.024a.489.489 0 0 0-.488.488v2.024c0 .269.219.488.488.488h4.024a.489.489 0 0 0 .488-.488v-2.024ZM502.37 334.133a.489.489 0 0 0-.488-.488h-4.024a.489.489 0 0 0-.488.488v2.024c0 .269.219.488.488.488h4.024a.489.489 0 0 0 .488-.488v-2.024ZM512.37 334.133a.489.489 0 0 0-.488-.488h-4.024a.489.489 0 0 0-.488.488v2.024c0 .269.219.488.488.488h4.024a.489.489 0 0 0 .488-.488v-2.024ZM522.37 334.133a.489.489 0 0 0-.488-.488h-4.024a.489.489 0 0 0-.488.488v2.024c0 .269.219.488.488.488h4.024a.489.489 0 0 0 .488-.488v-2.024ZM532.37 334.133a.489.489 0 0 0-.488-.488h-4.024a.489.489 0 0 0-.488.488v2.024c0 .269.219.488.488.488h4.024a.489.489 0 0 0 .488-.488v-2.024ZM542.37 334.133a.489.489 0 0 0-.488-.488h-4.024a.489.489 0 0 0-.488.488v2.024c0 .269.219.488.488.488h4.024a.489.489 0 0 0 .488-.488v-2.024ZM552.37 334.133a.489.489 0 0 0-.488-.488h-4.024a.489.489 0 0 0-.488.488v2.024c0 .269.219.488.488.488h4.024a.489.489 0 0 0 .488-.488v-2.024ZM562.37 334.133a.489.489 0 0 0-.488-.488h-4.024a.489.489 0 0 0-.488.488v2.024c0 .269.219.488.488.488h4.024a.489.489 0 0 0 .488-.488v-2.024ZM572.37 334.133a.489.489 0 0 0-.488-.488h-4.024a.489.489 0 0 0-.488.488v2.024c0 .269.219.488.488.488h4.024a.489.489 0 0 0 .488-.488v-2.024ZM582.37 334.133a.489.489 0 0 0-.488-.488h-4.024a.489.489 0 0 0-.488.488v2.024c0 .269.219.488.488.488h4.024a.489.489 0 0 0 .488-.488v-2.024ZM592.37 334.133a.489.489 0 0 0-.488-.488h-4.024a.489.489 0 0 0-.488.488v2.024c0 .269.219.488.488.488h4.024a.489.489 0 0 0 .488-.488v-2.024ZM442.252 339.133a.489.489 0 0 0-.488-.488h-4.024a.489.489 0 0 0-.488.488v2.024c0 .269.219.488.488.488h4.024a.489.489 0 0 0 .488-.488v-2.024ZM452.252 339.133a.489.489 0 0 0-.488-.488h-4.024a.489.489 0 0 0-.488.488v2.024c0 .269.219.488.488.488h4.024a.489.489 0 0 0 .488-.488v-2.024ZM462.252 339.133a.489.489 0 0 0-.488-.488h-4.024a.489.489 0 0 0-.488.488v2.024c0 .269.219.488.488.488h4.024a.489.489 0 0 0 .488-.488v-2.024ZM472.252 339.133a.489.489 0 0 0-.488-.488h-4.024a.489.489 0 0 0-.488.488v2.024c0 .269.219.488.488.488h4.024a.489.489 0 0 0 .488-.488v-2.024ZM482.252 339.133a.489.489 0 0 0-.488-.488h-4.024a.489.489 0 0 0-.488.488v2.024c0 .269.219.488.488.488h4.024a.489.489 0 0 0 .488-.488v-2.024ZM492.252 339.133a.489.489 0 0 0-.488-.488h-4.024a.489.489 0 0 0-.488.488v2.024c0 .269.219.488.488.488h4.024a.489.489 0 0 0 .488-.488v-2.024ZM502.252 339.133a.489.489 0 0 0-.488-.488h-4.024a.489.489 0 0 0-.488.488v2.024c0 .269.219.488.488.488h4.024a.489.489 0 0 0 .488-.488v-2.024ZM512.252 339.133a.489.489 0 0 0-.488-.488h-4.024a.489.489 0 0 0-.488.488v2.024c0 .269.219.488.488.488h4.024a.489.489 0 0 0 .488-.488v-2.024ZM522.252 339.133a.489.489 0 0 0-.488-.488h-4.024a.489.489 0 0 0-.488.488v2.024c0 .269.219.488.488.488h4.024a.489.489 0 0 0 .488-.488v-2.024ZM532.252 339.133a.489.489 0 0 0-.488-.488h-4.024a.489.489 0 0 0-.488.488v2.024c0 .269.219.488.488.488h4.024a.489.489 0 0 0 .488-.488v-2.024ZM542.252 339.133a.489.489 0 0 0-.488-.488h-4.024a.489.489 0 0 0-.488.488v2.024c0 .269.219.488.488.488h4.024a.489.489 0 0 0 .488-.488v-2.024ZM552.252 339.133a.489.489 0 0 0-.488-.488h-4.024a.489.489 0 0 0-.488.488v2.024c0 .269.219.488.488.488h4.024a.489.489 0 0 0 .488-.488v-2.024ZM562.252 339.133a.489.489 0 0 0-.488-.488h-4.024a.489.489 0 0 0-.488.488v2.024c0 .269.219.488.488.488h4.024a.489.489 0 0 0 .488-.488v-2.024ZM572.252 339.133a.489.489 0 0 0-.488-.488h-4.024a.489.489 0 0 0-.488.488v2.024c0 .269.219.488.488.488h4.024a.489.489 0 0 0 .488-.488v-2.024ZM582.252 339.133a.489.489 0 0 0-.488-.488h-4.024a.489.489 0 0 0-.488.488v2.024c0 .269.219.488.488.488h4.024a.489.489 0 0 0 .488-.488v-2.024ZM592.252 339.133a.489.489 0 0 0-.488-.488h-4.024a.489.489 0 0 0-.488.488v2.024c0 .269.219.488.488.488h4.024a.489.489 0 0 0 .488-.488v-2.024ZM525.252 345.133a.489.489 0 0 0-.488-.488H485.74a.489.489 0 0 0-.488.488v2.024c0 .269.219.488.488.488h39.024a.489.489 0 0 0 .488-.488v-2.024Z" style="fill:#3f3d56"/><path d="m825.334 730.02-7.71-12.39-1.54 7.08c-.27 1.24-.54 2.5-.79 3.75-2.19-1.87-4.52-3.6-6.8-5.26-7-5.08-13.997-10.166-20.99-15.26l2.19 12.7c1.35 7.82 2.76 15.8 6.1 22.95.37.81.77 1.61 1.2 2.39h32.54c.262-.724.443-1.475.54-2.24a.834.834 0 0 0 .01-.15c.51-4.85-2.17-9.42-4.75-13.57ZM385.334 730.02l-7.71-12.39-1.54 7.08c-.27 1.24-.54 2.5-.79 3.75-2.19-1.87-4.52-3.6-6.8-5.26-7-5.08-13.997-10.166-20.99-15.26l2.19 12.7c1.35 7.82 2.76 15.8 6.1 22.95.37.81.77 1.61 1.2 2.39h32.54c.262-.724.443-1.475.54-2.24a.834.834 0 0 0 .01-.15c.51-4.85-2.17-9.42-4.75-13.57Z" style="fill:#f0f0f0;fill-rule:nonzero" transform="translate(-194.934 -152.357)"/><path d="m1003.88 747.335-275.755.308a1.196 1.196 0 0 1-1.187-1.191c0-.652.535-1.189 1.187-1.191l275.755-.307a1.192 1.192 0 0 1 0 2.381ZM471.875 747.335l-275.75.308a1.196 1.196 0 0 1-1.187-1.191c0-.652.535-1.189 1.187-1.191l275.75-.307a1.196 1.196 0 0 1 1.187 1.191c0 .651-.535 1.188-1.187 1.19Z" style="fill:#cacaca;fill-rule:nonzero" transform="translate(-194.934 -152.357)"/><path d="M373.306 194.763c-4.77 1.42-9.22-2.57-12.54-6.35l1.18 1.4c-7.81 5.5-12.48 14.46-15.51 23.53-3.03 9.06-4.72 18.55-8.14 27.48-3.42 8.92-8.94 17.55-17.39 22-11.32 5.96-25.19 3.25-37.23-1.05-.16-.06-.31-.11-.47-.17a76.71 76.71 0 0 0 8.78-29.4 69.756 69.756 0 0 1-20.86 24.47 160.298 160.298 0 0 1-22.62-12.58c-4.65-3.11-9.55-7.13-10.09-12.7-.55-5.53 3.58-10.58 8.45-13.24 4.87-2.66 10.47-3.56 15.79-5.16 5.31-1.59 10.73-4.2 13.52-9 6.43-11.04-4.39-26.61 2.51-37.37 3.4-5.29 10-7.41 16.12-8.88a212.984 212.984 0 0 1 28.38-4.79c8.39-.84 17.06-1.15 25.04 1.55s15.22 8.97 16.93 17.23c4.66 2.45 9.59 5.16 12.09 9.81 2.5 4.64 1.11 11.72-3.94 13.22Z" style="fill:#2f2e41;fill-rule:nonzero" transform="translate(-194.934 -152.357)"/><path d="M366.186 192.902c-4.568 5.722-7.054 11.91-7.054 15.616-9.489 17.342 4.08 32.238 21.423 41.726a35.533 35.533 0 0 0 22.7 3.958l.726-3.097.983 2.79s11.291 37.293 15.015 39.48c-1.413-6.637-3.032-37.366-3.819-43.844-1.089-8.815 2.708-21.94 5.447-29.921a47.11 47.11 0 0 0 2.579-15.289v-.228l2.667 8.567 9.71-4.142c-1.807-10.361 0-22.123-21.657-21.103-11.712-8.056-22.027-9.283-30.499-6.998-1.094-1.691-7.399 1.476-9.221.586" style="fill:#2f2e41;fill-rule:nonzero" transform="translate(-194.934 -152.357)"/><path style="fill:#fff" d="M0 0h200v200H0z" transform="matrix(.76764 0 0 .76764 435.985 94.597)"/><path d="M448.267 106.88h6.141v6.14h-6.14zM454.408 106.88h6.141v6.14h-6.14zM460.55 106.88h6.14v6.14h-6.14zM466.69 106.88h6.142v6.14h-6.142zM472.832 106.88h6.14v6.14h-6.14zM478.973 106.88h6.14v6.14h-6.14zM485.114 106.88h6.14v6.14h-6.14zM503.537 106.88h6.141v6.14h-6.14zM534.243 106.88h6.14v6.14h-6.14zM540.384 106.88h6.14v6.14h-6.14zM546.525 106.88h6.14v6.14h-6.14zM552.666 106.88h6.14v6.14h-6.14zM558.807 106.88h6.141v6.14h-6.141zM564.948 106.88h6.141v6.14h-6.141zM571.09 106.88h6.14v6.14h-6.14zM448.267 113.02h6.141v6.141h-6.14zM485.114 113.02h6.14v6.141h-6.14zM509.678 113.02h6.141v6.141h-6.14zM515.82 113.02h6.14v6.141h-6.14zM521.96 113.02h6.141v6.141h-6.14zM534.243 113.02h6.14v6.141h-6.14zM571.09 113.02h6.14v6.141h-6.14zM448.267 119.161h6.141v6.141h-6.14zM460.55 119.161h6.14v6.141h-6.14zM466.69 119.161h6.142v6.141h-6.142zM472.832 119.161h6.14v6.141h-6.14zM485.114 119.161h6.14v6.141h-6.14zM503.537 119.161h6.141v6.141h-6.14zM515.82 119.161h6.14v6.141h-6.14zM521.96 119.161h6.141v6.141h-6.14zM534.243 119.161h6.14v6.141h-6.14zM546.525 119.161h6.14v6.141h-6.14zM552.666 119.161h6.14v6.141h-6.14zM558.807 119.161h6.141v6.141h-6.141zM571.09 119.161h6.14v6.141h-6.14zM448.267 125.302h6.141v6.142h-6.14zM460.55 125.302h6.14v6.142h-6.14zM466.69 125.302h6.142v6.142h-6.142zM472.832 125.302h6.14v6.142h-6.14zM485.114 125.302h6.14v6.142h-6.14zM497.396 125.302h6.141v6.142h-6.141zM534.243 125.302h6.14v6.142h-6.14zM546.525 125.302h6.14v6.142h-6.14zM552.666 125.302h6.14v6.142h-6.14zM558.807 125.302h6.141v6.142h-6.141zM571.09 125.302h6.14v6.142h-6.14z"/><path d="M448.267 131.444h6.141v6.14h-6.14zM460.55 131.444h6.14v6.14h-6.14zM466.69 131.444h6.142v6.14h-6.142zM472.832 131.444h6.14v6.14h-6.14zM485.114 131.444h6.14v6.14h-6.14zM497.396 131.444h6.141v6.14h-6.141zM509.678 131.444h6.141v6.14h-6.14zM515.82 131.444h6.14v6.14h-6.14zM534.243 131.444h6.14v6.14h-6.14zM546.525 131.444h6.14v6.14h-6.14zM552.666 131.444h6.14v6.14h-6.14zM558.807 131.444h6.141v6.14h-6.141zM571.09 131.444h6.14v6.14h-6.14zM448.267 137.585h6.141v6.14h-6.14zM485.114 137.585h6.14v6.14h-6.14zM503.537 137.585h6.141v6.14h-6.14zM509.678 137.585h6.141v6.14h-6.14zM515.82 137.585h6.14v6.14h-6.14zM521.96 137.585h6.141v6.14h-6.14zM534.243 137.585h6.14v6.14h-6.14zM571.09 137.585h6.14v6.14h-6.14zM448.267 143.726h6.141v6.14h-6.14zM454.408 143.726h6.141v6.14h-6.14zM460.55 143.726h6.14v6.14h-6.14zM466.69 143.726h6.142v6.14h-6.142zM472.832 143.726h6.14v6.14h-6.14zM478.973 143.726h6.14v6.14h-6.14zM485.114 143.726h6.14v6.14h-6.14zM497.396 143.726h6.141v6.14h-6.141zM509.678 143.726h6.141v6.14h-6.14zM521.96 143.726h6.141v6.14h-6.14zM534.243 143.726h6.14v6.14h-6.14zM540.384 143.726h6.14v6.14h-6.14zM546.525 143.726h6.14v6.14h-6.14zM552.666 143.726h6.14v6.14h-6.14zM558.807 143.726h6.141v6.14h-6.141zM564.948 143.726h6.141v6.14h-6.141zM571.09 143.726h6.14v6.14h-6.14zM521.96 149.867h6.141v6.141h-6.14zM448.267 156.008h6.141v6.141h-6.14zM454.408 156.008h6.141v6.141h-6.14zM478.973 156.008h6.14v6.141h-6.14zM485.114 156.008h6.14v6.141h-6.14zM491.255 156.008h6.141v6.141h-6.141zM503.537 156.008h6.141v6.141h-6.14zM546.525 156.008h6.14v6.141h-6.14zM552.666 156.008h6.14v6.141h-6.14zM454.408 162.15h6.141v6.14h-6.14zM466.69 162.15h6.142v6.14h-6.142zM503.537 162.15h6.141v6.14h-6.14zM509.678 162.15h6.141v6.14h-6.14zM515.82 162.15h6.14v6.14h-6.14zM528.101 162.15h6.142v6.14H528.1zM552.666 162.15h6.14v6.14h-6.14zM558.807 162.15h6.141v6.14h-6.141zM564.948 162.15h6.141v6.14h-6.141zM448.267 168.29h6.141v6.141h-6.14zM460.55 168.29h6.14v6.141h-6.14zM466.69 168.29h6.142v6.141h-6.142zM472.832 168.29h6.14v6.141h-6.14zM485.114 168.29h6.14v6.141h-6.14zM491.255 168.29h6.141v6.141h-6.141zM503.537 168.29h6.141v6.141h-6.14zM515.82 168.29h6.14v6.141h-6.14zM521.96 168.29h6.141v6.141h-6.14z"/><path d="M528.101 168.29h6.142v6.141H528.1zM534.243 168.29h6.14v6.141h-6.14zM540.384 168.29h6.14v6.141h-6.14zM558.807 168.29h6.141v6.141h-6.141zM564.948 168.29h6.141v6.141h-6.141zM448.267 174.431h6.141v6.141h-6.14zM454.408 174.431h6.141v6.141h-6.14zM466.69 174.431h6.142v6.141h-6.142zM472.832 174.431h6.14v6.141h-6.14zM497.396 174.431h6.141v6.141h-6.141z"/><path d="M503.537 174.431h6.141v6.141h-6.14zM509.678 174.431h6.141v6.141h-6.14zM528.101 174.431h6.142v6.141H528.1zM540.384 174.431h6.14v6.141h-6.14zM546.525 174.431h6.14v6.141h-6.14zM552.666 174.431h6.14v6.141h-6.14zM558.807 174.431h6.141v6.141h-6.141zM448.267 180.572h6.141v6.141h-6.14zM460.55 180.572h6.14v6.141h-6.14zM466.69 180.572h6.142v6.141h-6.142zM472.832 180.572h6.14v6.141h-6.14zM485.114 180.572h6.14v6.141h-6.14zM503.537 180.572h6.141v6.141h-6.14zM564.948 180.572h6.141v6.141h-6.141zM497.396 186.713h6.141v6.142h-6.141zM509.678 186.713h6.141v6.142h-6.14zM546.525 186.713h6.14v6.142h-6.14zM552.666 186.713h6.14v6.142h-6.14zM558.807 186.713h6.141v6.142h-6.141zM571.09 186.713h6.14v6.142h-6.14zM448.267 192.855h6.141v6.14h-6.14zM454.408 192.855h6.141v6.14h-6.14zM460.55 192.855h6.14v6.14h-6.14zM466.69 192.855h6.142v6.14h-6.142zM472.832 192.855h6.14v6.14h-6.14zM478.973 192.855h6.14v6.14h-6.14zM485.114 192.855h6.14v6.14h-6.14zM497.396 192.855h6.141v6.14h-6.141zM509.678 192.855h6.141v6.14h-6.14zM521.96 192.855h6.141v6.14h-6.14zM540.384 192.855h6.14v6.14h-6.14zM558.807 192.855h6.141v6.14h-6.141zM564.948 192.855h6.141v6.14h-6.141zM448.267 198.996h6.141v6.14h-6.14zM485.114 198.996h6.14v6.14h-6.14zM497.396 198.996h6.141v6.14h-6.141zM509.678 198.996h6.141v6.14h-6.14zM521.96 198.996h6.141v6.14h-6.14z"/><path d="M528.101 198.996h6.142v6.14H528.1zM534.243 198.996h6.14v6.14h-6.14zM552.666 198.996h6.14v6.14h-6.14zM558.807 198.996h6.141v6.14h-6.141zM564.948 198.996h6.141v6.14h-6.141zM571.09 198.996h6.14v6.14h-6.14zM448.267 205.137h6.141v6.14h-6.14zM460.55 205.137h6.14v6.14h-6.14zM466.69 205.137h6.142v6.14h-6.142zM472.832 205.137h6.14v6.14h-6.14zM485.114 205.137h6.14v6.14h-6.14zM503.537 205.137h6.141v6.14h-6.14zM521.96 205.137h6.141v6.14h-6.14zM534.243 205.137h6.14v6.14h-6.14zM540.384 205.137h6.14v6.14h-6.14zM546.525 205.137h6.14v6.14h-6.14zM552.666 205.137h6.14v6.14h-6.14zM448.267 211.278h6.141v6.14h-6.14zM460.55 211.278h6.14v6.14h-6.14zM466.69 211.278h6.142v6.14h-6.142zM472.832 211.278h6.14v6.14h-6.14zM485.114 211.278h6.14v6.14h-6.14zM509.678 211.278h6.141v6.14h-6.14zM515.82 211.278h6.14v6.14h-6.14zM528.101 211.278h6.142v6.14H528.1zM534.243 211.278h6.14v6.14h-6.14zM540.384 211.278h6.14v6.14h-6.14zM546.525 211.278h6.14v6.14h-6.14zM558.807 211.278h6.141v6.14h-6.141zM564.948 211.278h6.141v6.14h-6.141zM448.267 217.419h6.141v6.141h-6.14zM460.55 217.419h6.14v6.141h-6.14zM466.69 217.419h6.142v6.141h-6.142zM472.832 217.419h6.14v6.141h-6.14zM485.114 217.419h6.14v6.141h-6.14zM503.537 217.419h6.141v6.141h-6.14zM521.96 217.419h6.141v6.141h-6.14zM540.384 217.419h6.14v6.141h-6.14zM546.525 217.419h6.14v6.141h-6.14zM552.666 217.419h6.14v6.141h-6.14zM558.807 217.419h6.141v6.141h-6.141zM564.948 217.419h6.141v6.141h-6.141zM571.09 217.419h6.14v6.141h-6.14zM448.267 223.56h6.141v6.141h-6.14zM485.114 223.56h6.14v6.141h-6.14zM497.396 223.56h6.141v6.141h-6.141zM515.82 223.56h6.14v6.141h-6.14zM521.96 223.56h6.141v6.141h-6.14z"/><path d="M528.101 223.56h6.142v6.141H528.1zM540.384 223.56h6.14v6.141h-6.14zM546.525 223.56h6.14v6.141h-6.14zM552.666 223.56h6.14v6.141h-6.14zM558.807 223.56h6.141v6.141h-6.141zM448.267 229.701h6.141v6.141h-6.14zM454.408 229.701h6.141v6.141h-6.14zM460.55 229.701h6.14v6.141h-6.14zM466.69 229.701h6.142v6.141h-6.142zM472.832 229.701h6.14v6.141h-6.14zM478.973 229.701h6.14v6.141h-6.14zM485.114 229.701h6.14v6.141h-6.14zM497.396 229.701h6.141v6.141h-6.141z"/><path d="M503.537 229.701h6.141v6.141h-6.14zM521.96 229.701h6.141v6.141h-6.14zM534.243 229.701h6.14v6.141h-6.14zM540.384 229.701h6.14v6.141h-6.14zM552.666 229.701h6.14v6.141h-6.14zM564.948 229.701h6.141v6.141h-6.141z"/></svg>