<svg xmlns="http://www.w3.org/2000/svg" data-name="Layer 1" width="810.131" height="595.285"><path fill="#ffb6b6" d="m378.969 471.236 12.798-5.727-16.029-53.295-18.89 8.452 22.121 50.57z"/><path d="m369.802 456.767 19.145-13.52 5.284 8.518 27 1.329a6.261 6.261 0 0 1 2.993 11.574l-23.67 14.684-9.306-5.895 3.634 9.414-8.924 5.536Z" fill="#2f2e41"/><path d="M707.724 370.36c0-5.36-1.8-9.71-4.01-9.72h-602.49c-2.22.01-4.01 4.36-4.02 9.72v220.644a2.003 2.003 0 0 1-1.81 1.993q-2.425.233-4.85.434c-.04 0-.08.01-.12.01-.88.08-1.76.14-2.64.21h-.01q-.68-1.256-1.343-2.533a2.011 2.011 0 0 1-.227-.929V357.751c0-1.48.06-2.97.16-4.44a56.884 56.884 0 0 1 .75-6.02c1.69-9.29 5.51-15.58 9.85-15.6h611a4.683 4.683 0 0 1 1.84.39 7.173 7.173 0 0 1 2.27 1.59 14.07 14.07 0 0 1 2.23 3.05c2.14 3.77 3.67 9.39 4.21 15.93 0 .06.01.12.01.18.14 1.62.21 3.27.2 4.92l.14 21.43.09 12.78.27 40.1.1 14.24.44 146.2a2 2 0 0 1-2 2h-8.04a2 2 0 0 1-2-2Z" fill="#e6e6e6"/><path d="M544.008 231.415h-64.92a3.464 3.464 0 0 0-3.458 3.468v102.553h71.845V234.883a3.466 3.466 0 0 0-3.467-3.468Zm-32.242 58.27a7.702 7.702 0 0 1-7.665-7.666V270.19a7.666 7.666 0 0 1 15.331 0v11.829a7.702 7.702 0 0 1-7.666 7.666Z" fill="#2f2e41"/><path d="M475.407 334.156v9.894a1.938 1.938 0 0 0 1.934 1.934h68.423a1.944 1.944 0 0 0 1.934-1.934v-9.894Z" fill="#3f3d56"/><path d="M391.998 88.6a13.844 13.844 0 0 1-20.158 6.656l-91.638 63.84-2.53-25.441 90.101-58.376a13.92 13.92 0 0 1 24.225 13.32Z" fill="#ffb6b6"/><path d="M186.826 128.85s-9.923 14.662 5.648 27.637 78.68 10.393 88.865 10.282 56.913-48.45 56.913-48.45l-.306-27.918-56.418 33.476Z" fill="#8076fa"/><path d="m181.208 226.193 1 19s-2.952 16.83-.524 20.462c2.409 3.614 68.568 8.99 68.568 8.99s-2.074-28.336 1.667-48.833Z" fill="#ffb6b6"/><path d="m384.252 419.645-25.467 22.293-49.913-102.081c-49.496 8.512-96.19 11.24-136.579.942-13.674-3.439-22.033-17.559-18.67-31.538q.236-.98.546-1.94c4.833-14.747 17.486-25.182 27.455-41.403l72.817 1.106-8.133 28.062 70.736-9.153c14.226-1.841 27.217 8.455 29.018 22.998q.143 1.151.186 2.313Z" fill="#2f2e41"/><circle cx="209.64" cy="68.762" r="29.568" fill="#ffb6b6"/><path d="m192.306 109.004 27.11 3.19a5.532 5.532 0 0 1 4.759 4.313l4.311 19.729 26.877 31.65s9.651 18.096 6.032 38.605a145.273 145.273 0 0 1-11.21 35.748s-66.096 27.031-68.508 23.412-3.196-20.058-3.196-20.058l-8.504-94.602a33.944 33.944 0 0 1 9.756-27.276c2.145-2.11 4.263-3.587 5.986-3.587 3.893-.131 3.394-8.893 6.587-11.124Z" fill="#8076fa"/><path fill="#ffb6b6" d="m250.479 510.874 12.581 6.162 30.287-46.676-18.569-9.095-24.299 49.609z"/><path d="m280.617 500.325-25.847-9.813 35.474-106.546c-48.193-14.13-84.546-36.89-116.286-63.905-10.768-9.104-18.843-20.795-9.673-31.87q.643-.776 1.343-1.501c10.83-11.118 38.312-8.979 54.4-19.16l35.982 38.416-2.255 10.29 67.55 22.9c13.586 4.604 20.723 19.566 15.942 33.418q-.378 1.097-.85 2.16ZM250.05 503.437l21.625 9.038-4.41 9.002 13.217 23.581a6.261 6.261 0 0 1-8.216 8.685l-25.014-12.254.05-11.016-6.045 8.08-9.431-4.62Z" fill="#2f2e41"/><path d="M207.763 340.301a13.844 13.844 0 0 1-2.534-21.077L160.8 216.76l25.438 2.557 39.378 99.878a13.92 13.92 0 0 1-17.853 21.106Z" fill="#ffb6b6"/><path d="M208.936 131.222s-12.406-12.63-28.207.063-25.768 75.065-27.675 85.07 36.22 65.38 36.22 65.38l27.426 5.228-21.641-61.93Z" fill="#8076fa"/><path d="M651.508 71.369H374.003a9.008 9.008 0 0 0-8.994 8.994v187.261a9.003 9.003 0 0 0 8.994 8.994h277.505a9.003 9.003 0 0 0 8.994-8.994V80.363a9.008 9.008 0 0 0-8.994-8.994Z" fill="#3f3d56"/><path d="M649.192 77.865h-272.87a4.82 4.82 0 0 0-4.81 4.82v182.62a4.818 4.818 0 0 0 4.81 4.81h272.87a4.818 4.818 0 0 0 4.81-4.81V82.685a4.82 4.82 0 0 0-4.81-4.82Z" fill="#fff"/><path d="M596.041 349.427H433.7a2.986 2.986 0 0 1-2.923-3.601l2.52-11.964a3 3 0 0 1 2.921-2.371h157.306a3 3 0 0 1 2.922 2.37l2.519 11.965a2.986 2.986 0 0 1-2.923 3.601Z" fill="#2f2e41"/><rect x="437.37" y="333.645" width="5" height="3" rx=".488" fill="#3f3d56"/><rect x="447.37" y="333.645" width="5" height="3" rx=".488" fill="#3f3d56"/><rect x="457.37" y="333.645" width="5" height="3" rx=".488" fill="#3f3d56"/><rect x="467.37" y="333.645" width="5" height="3" rx=".488" fill="#3f3d56"/><rect x="477.37" y="333.645" width="5" height="3" rx=".488" fill="#3f3d56"/><rect x="487.37" y="333.645" width="5" height="3" rx=".488" fill="#3f3d56"/><rect x="497.37" y="333.645" width="5" height="3" rx=".488" fill="#3f3d56"/><rect x="507.37" y="333.645" width="5" height="3" rx=".488" fill="#3f3d56"/><rect x="517.37" y="333.645" width="5" height="3" rx=".488" fill="#3f3d56"/><rect x="527.37" y="333.645" width="5" height="3" rx=".488" fill="#3f3d56"/><rect x="537.37" y="333.645" width="5" height="3" rx=".488" fill="#3f3d56"/><rect x="547.37" y="333.645" width="5" height="3" rx=".488" fill="#3f3d56"/><rect x="557.37" y="333.645" width="5" height="3" rx=".488" fill="#3f3d56"/><rect x="567.37" y="333.645" width="5" height="3" rx=".488" fill="#3f3d56"/><rect x="577.37" y="333.645" width="5" height="3" rx=".488" fill="#3f3d56"/><rect x="587.37" y="333.645" width="5" height="3" rx=".488" fill="#3f3d56"/><rect x="437.252" y="338.645" width="5" height="3" rx=".488" fill="#3f3d56"/><rect x="447.252" y="338.645" width="5" height="3" rx=".488" fill="#3f3d56"/><rect x="457.252" y="338.645" width="5" height="3" rx=".488" fill="#3f3d56"/><rect x="467.252" y="338.645" width="5" height="3" rx=".488" fill="#3f3d56"/><rect x="477.252" y="338.645" width="5" height="3" rx=".488" fill="#3f3d56"/><rect x="487.252" y="338.645" width="5" height="3" rx=".488" fill="#3f3d56"/><rect x="497.252" y="338.645" width="5" height="3" rx=".488" fill="#3f3d56"/><rect x="507.252" y="338.645" width="5" height="3" rx=".488" fill="#3f3d56"/><rect x="517.252" y="338.645" width="5" height="3" rx=".488" fill="#3f3d56"/><rect x="527.252" y="338.645" width="5" height="3" rx=".488" fill="#3f3d56"/><rect x="537.252" y="338.645" width="5" height="3" rx=".488" fill="#3f3d56"/><rect x="547.252" y="338.645" width="5" height="3" rx=".488" fill="#3f3d56"/><rect x="557.252" y="338.645" width="5" height="3" rx=".488" fill="#3f3d56"/><rect x="567.252" y="338.645" width="5" height="3" rx=".488" fill="#3f3d56"/><rect x="577.252" y="338.645" width="5" height="3" rx=".488" fill="#3f3d56"/><rect x="587.252" y="338.645" width="5" height="3" rx=".488" fill="#3f3d56"/><rect x="485.252" y="344.645" width="40" height="3" rx=".488" fill="#3f3d56"/><path d="m630.4 577.663-7.71-12.39-1.54 7.08c-.27 1.24-.54 2.5-.79 3.75-2.19-1.87-4.52-3.6-6.8-5.26q-10.5-7.62-20.99-15.26l2.19 12.7c1.35 7.82 2.76 15.8 6.1 22.95.37.81.77 1.61 1.2 2.39h32.54a10.487 10.487 0 0 0 .54-2.24.775.775 0 0 0 .01-.15c.51-4.85-2.17-9.42-4.75-13.57ZM190.4 577.663l-7.71-12.39-1.54 7.08c-.27 1.24-.54 2.5-.79 3.75-2.19-1.87-4.52-3.6-6.8-5.26q-10.5-7.62-20.99-15.26l2.19 12.7c1.35 7.82 2.76 15.8 6.1 22.95.37.81.77 1.61 1.2 2.39h32.54a10.487 10.487 0 0 0 .54-2.24.775.775 0 0 0 .01-.15c.51-4.85-2.17-9.42-4.75-13.57Z" fill="#f0f0f0"/><path d="m808.94 594.978-275.75.307a1.19 1.19 0 0 1 0-2.381l275.75-.308a1.19 1.19 0 0 1 0 2.382ZM276.94 594.978l-275.75.307a1.19 1.19 0 0 1 0-2.381l275.75-.308a1.19 1.19 0 0 1 0 2.382Z" fill="#cacaca"/><path d="M178.372 42.405c-4.77 1.42-9.22-2.57-12.54-6.35l1.18 1.4c-7.81 5.5-12.48 14.46-15.51 23.53-3.03 9.06-4.72 18.55-8.14 27.48-3.42 8.92-8.94 17.55-17.39 22-11.32 5.96-25.19 3.25-37.23-1.05-.16-.06-.31-.11-.47-.17a76.722 76.722 0 0 0 8.78-29.4 69.759 69.759 0 0 1-20.86 24.47 160.14 160.14 0 0 1-22.62-12.58c-4.65-3.11-9.55-7.13-10.09-12.7-.55-5.53 3.58-10.58 8.45-13.24 4.87-2.66 10.47-3.56 15.79-5.16 5.31-1.59 10.73-4.2 13.52-9 6.43-11.04-4.39-26.61 2.51-37.37 3.4-5.29 10-7.41 16.12-8.88a213.117 213.117 0 0 1 28.38-4.79c8.39-.84 17.06-1.15 25.04 1.55s15.22 8.97 16.93 17.23c4.66 2.45 9.59 5.16 12.09 9.81 2.5 4.64 1.11 11.72-3.94 13.22Z" fill="#2f2e41"/><path d="M171.251 40.545c-4.567 5.722-7.054 11.91-7.054 15.615-9.488 17.342 4.08 32.238 21.423 41.727a35.53 35.53 0 0 0 22.7 3.957l.726-3.097.983 2.79s11.291 37.293 15.016 39.48c-1.414-6.636-3.032-37.366-3.82-43.843-1.088-8.816 2.709-21.94 5.448-29.922a47.111 47.111 0 0 0 2.579-15.289v-.227l2.667 8.566 9.71-4.142c-1.807-10.36 0-22.123-21.657-21.103-11.713-8.055-22.027-9.282-30.5-6.998-1.093-1.69-7.398 1.476-9.22.586" fill="#2f2e41"/><path d="M654.002 82.685v182.62a4.818 4.818 0 0 1-4.81 4.81h-96.22a118.076 118.076 0 0 1-25.76-34.66q-.63-1.26-1.2-2.55a117.029 117.029 0 0 1-10.4-40.03c-.07-.85-.13-1.7-.17-2.56-.13-2.2-.19-4.43-.19-6.67a117.535 117.535 0 0 1 8.29-43.51c.33-.86.68-1.71 1.04-2.56a118.399 118.399 0 0 1 56.35-59.71h68.26a4.82 4.82 0 0 1 4.81 4.82Z" fill="#8076fa"/><path d="M635.475 103.026H380.152a1.016 1.016 0 0 1 0-2.03h255.323a1.016 1.016 0 0 1 0 2.03Z" fill="#cacaca"/><ellipse cx="397.532" cy="89.728" rx="5.95" ry="6.083" fill="#3f3d56"/><ellipse cx="418.088" cy="89.728" rx="5.95" ry="6.083" fill="#3f3d56"/><ellipse cx="438.644" cy="89.728" rx="5.95" ry="6.083" fill="#3f3d56"/><path d="M623.099 85.153h-14.602a1.106 1.106 0 0 0 0 2.211h14.602a1.106 1.106 0 0 0 0-2.211ZM623.099 89.303h-14.602a1.106 1.106 0 0 0 0 2.211h14.602a1.106 1.106 0 0 0 0-2.211ZM623.099 93.448h-14.602a1.106 1.106 0 0 0 0 2.211h14.602a1.106 1.106 0 0 0 0-2.211Z" fill="#3f3d56"/><rect x="420.185" y="162.344" width="40.582" height="8.678" rx="4.339" fill="#8076fa"/><rect x="399.575" y="179.7" width="81.802" height="8.678" rx="4.339" fill="#e6e6e6"/><rect x="399.575" y="197.056" width="81.802" height="8.678" rx="4.339" fill="#e6e6e6"/><path d="M406.252 259.645a29.815 29.815 0 0 1-1.88 10.47h-28.05a4.818 4.818 0 0 1-4.81-4.81v-35.28a29.628 29.628 0 0 1 4.74-.38 29.998 29.998 0 0 1 30 30Z" fill="#8076fa"/><path d="M654.252 140.135v-2.56h-42.91v-29.67h-2.55v29.67h-49.18v-29.67h-2.55v29.67h-32.48c-.36.85-.71 1.7-1.04 2.56h33.52v50.18h-41.62c.04.86.1 1.71.17 2.56h41.45v40.03h-31.05q.57 1.29 1.2 2.55h29.85v33.65h2.55v-33.65h49.18v33.65h2.55v-33.65h42.91v-2.55h-42.91v-40.03h42.91v-2.56h-42.91v-50.18Zm-45.46 92.77h-49.18v-40.03h49.18Zm0-42.59h-49.18v-50.18h49.18Z" opacity=".2"/><path d="M619.703 251.169a2.672 2.672 0 0 1-1.937-4.632l.183-.728-.073-.175a7.176 7.176 0 0 0-13.237.05c-2.165 5.214-4.921 10.437-5.6 15.95a21.23 21.23 0 0 0 .373 7.302 85.115 85.115 0 0 1-7.743-35.351 82.154 82.154 0 0 1 .51-9.165q.422-3.742 1.17-7.43a86.101 86.101 0 0 1 17.076-36.493 22.914 22.914 0 0 0 9.53-9.887 17.478 17.478 0 0 0 1.59-4.776c-.465.06-.936.098-1.4.129l-.441.023-.055.002a2.648 2.648 0 0 1-2.174-4.313l.6-.74c.305-.38.617-.753.921-1.133a1.318 1.318 0 0 0 .099-.114c.35-.433.7-.86 1.05-1.293a7.656 7.656 0 0 0-2.51-2.426c-3.506-2.054-8.344-.631-10.876 2.54-2.54 3.172-3.02 7.621-2.138 11.584a30.682 30.682 0 0 0 4.244 9.461c-.19.244-.388.48-.578.723a86.658 86.658 0 0 0-9.045 14.329 36.024 36.024 0 0 0-2.15-16.733c-2.059-4.966-5.917-9.148-9.315-13.441-4.082-5.157-12.451-2.907-13.17 3.63l-.02.19q.757.427 1.482.907a3.625 3.625 0 0 1-1.462 6.596l-.074.012a36.067 36.067 0 0 0 .951 5.392 37.134 37.134 0 0 0 18.49 23.273c.296.152.585.305.882.45a88.452 88.452 0 0 0-4.761 22.405 83.894 83.894 0 0 0 .06 13.546l-.022-.16a22.168 22.168 0 0 0-7.568-12.8c-5.824-4.784-14.052-6.546-20.334-10.391a4.16 4.16 0 0 0-6.372 4.047l.025.168a24.351 24.351 0 0 1 2.73 1.316q.758.427 1.483.907a3.625 3.625 0 0 1-1.462 6.596l-.074.011c-.053.008-.098.016-.152.023a36.097 36.097 0 0 0 6.64 10.397 37.167 37.167 0 0 0 26.955 11.827h.007a88.426 88.426 0 0 0 5.94 17.341h21.22c.076-.236.145-.48.213-.715a24.11 24.11 0 0 1-5.872-.35c1.575-1.932 3.15-3.879 4.724-5.81a1.318 1.318 0 0 0 .098-.115c.8-.988 1.605-1.97 2.404-2.958v-.001a35.315 35.315 0 0 0-1.035-8.997Zm-24.3-47.801.011-.015-.01.03Zm-4.7 42.37-.182-.41c.007-.296.007-.593 0-.897 0-.084-.016-.168-.016-.251.069.524.13 1.05.206 1.574Z" fill="#2f2e41"/></svg>